M48
;GenerationSoftware,Autodesk,EAGLE,9.6.2*%
;CreationDate,2021-06-21T15:40:07Z*%
FMAT,2
ICI,OFF
METRIC,TZ,000.000
T8C0.305
T7C0.400
T6C0.650
T5C1.016
T4C1.100
T3C1.600
T2C3.302
T1C3.800
%
G90
M71
T1
X115316Y51054
X22860Y51054
X22860Y118364
X69088Y51054
X69088Y118364
X115316Y118364
T2
X48768Y124460
X94996Y124460
X2540Y57150
X2540Y2540
X43180Y57150
X43180Y2540
X94996Y69850
X135636Y124460
X48768Y57150
X48768Y2540
X89408Y57150
X89408Y2540
X94996Y2540
X135636Y69850
X94996Y57150
X43180Y69850
X135636Y57150
X135636Y2540
X2540Y124460
X2540Y69850
X43180Y124460
X48768Y69850
X89408Y124460
X89408Y69850
T3
X59088Y17780
X12860Y85090
X12860Y17780
X105316Y85090
X105316Y17780
X59088Y85090
T4
X79088Y17780
X32860Y85090
X32860Y17780
X125316Y85090
X125316Y17780
X79088Y85090
T5
X136906Y35560
X136906Y113030
X136906Y110490
X136906Y107950
X136906Y105410
X96266Y118110
X96266Y115570
X96266Y113030
X96266Y110490
X96266Y107950
X96266Y105410
X93726Y118110
X96266Y102870
X96266Y100330
X96266Y97790
X93726Y95250
X93726Y97790
X93726Y100330
X17780Y10160
X15240Y10160
X44450Y27940
X44450Y30480
X44450Y33020
X44450Y35560
X8890Y2540
X11430Y2540
X3810Y27940
X36830Y10160
X44450Y50800
X44450Y48260
X44450Y45720
X44450Y43180
X44450Y40640
X44450Y38100
X3810Y50800
X3810Y48260
X3810Y45720
X3810Y43180
X3810Y40640
X3810Y38100
X3810Y35560
X3810Y33020
X3810Y30480
X1270Y27940
X1270Y30480
X1270Y33020
X1270Y35560
X1270Y38100
X1270Y40640
X1270Y43180
X1270Y45720
X1270Y48260
X1270Y50800
X93726Y102870
X93726Y105410
X93726Y107950
X93726Y110490
X64008Y10160
X61468Y10160
X90678Y27940
X90678Y30480
X90678Y33020
X90678Y35560
X55118Y2540
X57658Y2540
X50038Y27940
X83058Y10160
X90678Y50800
X90678Y48260
X90678Y45720
X90678Y43180
X90678Y40640
X90678Y38100
X50038Y50800
X50038Y48260
X50038Y45720
X50038Y43180
X50038Y40640
X50038Y38100
X50038Y35560
X50038Y33020
X50038Y30480
X47498Y27940
X47498Y30480
X47498Y33020
X47498Y35560
X47498Y38100
X47498Y40640
X47498Y43180
X47498Y45720
X47498Y48260
X47498Y50800
X93726Y113030
X110236Y10160
X107696Y10160
X136906Y27940
X136906Y30480
X136906Y33020
X101346Y2540
X103886Y2540
X96266Y27940
X129286Y10160
X136906Y50800
X136906Y48260
X136906Y45720
X136906Y43180
X136906Y40640
X136906Y38100
X96266Y50800
X96266Y48260
X96266Y45720
X96266Y43180
X96266Y40640
X96266Y38100
X96266Y35560
X96266Y33020
X96266Y30480
X93726Y27940
X93726Y30480
X93726Y33020
X93726Y35560
X93726Y38100
X93726Y40640
X93726Y43180
X93726Y45720
X93726Y48260
X93726Y50800
X17780Y77470
X15240Y77470
X44450Y95250
X44450Y97790
X44450Y100330
X44450Y102870
X8890Y69850
X11430Y69850
X3810Y95250
X36830Y77470
X44450Y118110
X44450Y115570
X44450Y113030
X44450Y110490
X44450Y107950
X44450Y105410
X3810Y118110
X3810Y115570
X3810Y113030
X3810Y110490
X3810Y107950
X3810Y105410
X3810Y102870
X3810Y100330
X3810Y97790
X1270Y95250
X1270Y97790
X1270Y100330
X1270Y102870
X1270Y105410
X1270Y107950
X1270Y110490
X1270Y113030
X1270Y115570
X1270Y118110
X64008Y77470
X61468Y77470
X90678Y95250
X90678Y97790
X90678Y100330
X90678Y102870
X55118Y69850
X57658Y69850
X50038Y95250
X83058Y77470
X90678Y118110
X90678Y115570
X90678Y113030
X90678Y110490
X90678Y107950
X90678Y105410
X50038Y118110
X50038Y115570
X50038Y113030
X50038Y110490
X50038Y107950
X50038Y105410
X50038Y102870
X50038Y100330
X50038Y97790
X47498Y95250
X47498Y97790
X47498Y100330
X47498Y102870
X47498Y105410
X47498Y107950
X47498Y110490
X47498Y113030
X47498Y115570
X47498Y118110
X93726Y115570
X110236Y77470
X107696Y77470
X136906Y95250
X136906Y97790
X136906Y100330
X136906Y102870
X101346Y69850
X103886Y69850
X96266Y95250
X129286Y77470
X136906Y118110
X136906Y115570
T6
X19970Y4905
X25750Y4905
X66198Y4905
X71978Y4905
X112426Y4905
X118206Y4905
X19970Y72215
X25750Y72215
X66198Y72215
X71978Y72215
X112426Y72215
X118206Y72215
T7
X18542Y1255
X27178Y1255
X27178Y5435
X18542Y5435
X64770Y1255
X73406Y1255
X73406Y5435
X64770Y5435
X110998Y1255
X119634Y1255
X18542Y68565
X27178Y68565
X64770Y68565
X110998Y68565
X119634Y68565
X119634Y5435
X110998Y72745
X73406Y68565
X73406Y72745
X64770Y72745
X110998Y5435
X27178Y72745
X18542Y72745
X119634Y72745
T8
X61849Y15240
X86233Y15240
X61088Y21716
X83058Y16510
X89662Y11430
X77978Y39370
X77305Y38100
X76454Y35560
X75438Y35560
X74491Y33782
X84074Y35433
X65185Y27813
X72517Y26924
X73406Y26924
X72898Y10025
X67818Y10040
X94996Y12700
X99695Y12700
X98044Y15240
X98044Y17145
X98044Y19050
X95123Y24384
X136398Y21463
X136144Y14732
X123825Y14097
X112014Y13970
X115062Y13970
X116586Y13970
X110490Y13970
X106807Y13970
X123317Y18542
X109601Y5207
X121031Y5334
X137414Y4318
X120015Y58420
X120015Y57150
X120015Y55880
X120015Y54610
X120015Y53340
X120015Y52070
X128397Y40640
X121666Y52070
X122936Y52070
X124206Y52070
X126746Y52070
X128016Y52070
X129286Y52070
X131064Y52070
X131064Y53340
X131064Y54610
X131064Y55880
X131064Y57150
X131064Y58420
X110744Y58420
X110744Y57150
X110744Y55880
X110744Y54610
X110744Y53340
X110744Y52070
X108966Y52070
X107696Y52070
X106426Y52070
X103886Y52070
X102616Y52070
X101346Y52070
X99568Y52070
X99568Y53340
X99568Y54610
X99568Y55880
X99568Y57150
X99568Y58420
X103886Y50800
X103886Y49530
X103886Y48260
X103886Y46990
X103886Y45720
X103886Y44450
X103886Y43180
X105156Y41910
X106426Y40640
X107696Y40640
X108966Y40640
X110236Y40640
X111506Y40640
X112776Y40640
X114046Y40640
X115316Y40640
X116586Y40640
X117856Y40640
X119126Y40640
X120396Y40640
X121666Y40640
X122936Y40640
X124206Y40640
X129286Y40640
X130556Y40640
X106426Y44450
X107696Y43180
X108966Y43180
X110236Y43180
X111506Y43180
X112776Y43180
X114046Y43180
X115316Y43180
X116586Y43180
X117856Y43180
X119126Y43180
X120396Y43180
X121666Y43180
X122936Y43180
X124206Y43180
X106426Y50800
X106426Y49530
X106426Y48260
X106426Y46990
X106426Y45720
X125476Y43180
X126746Y43180
X128016Y43180
X129286Y43180
X130556Y43180
X133096Y44450
X130556Y44450
X124206Y50800
X124206Y49530
X125476Y48260
X126746Y46990
X128016Y46990
X129286Y46990
X130556Y46990
X130556Y49530
X129286Y49530
X128016Y49530
X126746Y50800
X133096Y50800
X130175Y11938
X100584Y23241
X131318Y22352
X137033Y22860
X117729Y6917
X112903Y6917
X121539Y13843
X97028Y15875
X97214Y6917
X100584Y21463
X114935Y22503
X127127Y22492
X100584Y22403
X114300Y23089
X128143Y23089
X131064Y33020
X131064Y30480
X108077Y15240
X132461Y15240
X107316Y21716
X129286Y16510
X135890Y11430
X124206Y39370
X123533Y38100
X122682Y35560
X121666Y35560
X120719Y33782
X130302Y35433
X111413Y27813
X118745Y26924
X119634Y26924
X119126Y10025
X114046Y10040
X2540Y80010
X7239Y80010
X5588Y82550
X5588Y84455
X5588Y86360
X2667Y91694
X43942Y88773
X43688Y82042
X31369Y81407
X19558Y81280
X22606Y81280
X24130Y81280
X18034Y81280
X14351Y81280
X30861Y85852
X17145Y72517
X28575Y72644
X44958Y71628
X27559Y125730
X27559Y124460
X27559Y123190
X27559Y121920
X27559Y120650
X27559Y119380
X35941Y107950
X29210Y119380
X30480Y119380
X31750Y119380
X34290Y119380
X35560Y119380
X36830Y119380
X38608Y119380
X38608Y120650
X38608Y121920
X38608Y123190
X38608Y124460
X38608Y125730
X18288Y125730
X18288Y124460
X18288Y123190
X18288Y121920
X18288Y120650
X18288Y119380
X16510Y119380
X15240Y119380
X13970Y119380
X11430Y119380
X10160Y119380
X8890Y119380
X7112Y119380
X7112Y120650
X7112Y121920
X7112Y123190
X7112Y124460
X7112Y125730
X11430Y118110
X11430Y116840
X11430Y115570
X11430Y114300
X11430Y113030
X11430Y111760
X11430Y110490
X12700Y109220
X13970Y107950
X15240Y107950
X16510Y107950
X17780Y107950
X19050Y107950
X20320Y107950
X21590Y107950
X22860Y107950
X24130Y107950
X25400Y107950
X26670Y107950
X27940Y107950
X29210Y107950
X30480Y107950
X31750Y107950
X36830Y107950
X38100Y107950
X13970Y111760
X15240Y110490
X16510Y110490
X17780Y110490
X19050Y110490
X20320Y110490
X21590Y110490
X22860Y110490
X24130Y110490
X25400Y110490
X26670Y110490
X27940Y110490
X29210Y110490
X30480Y110490
X31750Y110490
X13970Y118110
X13970Y116840
X13970Y115570
X13970Y114300
X13970Y113030
X33020Y110490
X34290Y110490
X35560Y110490
X36830Y110490
X38100Y110490
X40640Y111760
X38100Y111760
X31750Y118110
X31750Y116840
X33020Y115570
X34290Y114300
X35560Y114300
X36830Y114300
X38100Y114300
X38100Y116840
X36830Y116840
X35560Y116840
X34290Y118110
X40640Y118110
X37719Y79248
X8128Y90551
X38862Y89662
X44577Y90170
X25273Y74227
X20447Y74227
X29083Y81153
X4572Y83185
X4758Y74227
X8128Y88773
X22479Y89813
X34671Y89802
X8128Y89713
X21844Y90399
X35687Y90399
X38608Y100330
X38608Y97790
X15621Y82550
X40005Y82550
X14860Y89026
X36830Y83820
X43434Y78740
X31750Y106680
X31077Y105410
X30226Y102870
X26670Y10025
X28263Y101092
X37846Y102743
X18957Y95123
X26289Y94234
X27178Y94234
X26670Y77335
X21590Y77350
X48768Y80010
X53467Y80010
X51816Y82550
X51816Y84455
X51816Y86360
X48895Y91694
X90170Y88773
X89916Y82042
X77597Y81407
X65786Y81280
X68834Y81280
X70358Y81280
X64262Y81280
X60579Y81280
X77089Y85852
X63373Y72517
X74803Y72644
X91186Y71628
X73787Y125730
X73787Y124460
X73787Y123190
X73787Y121920
X73787Y120650
X73787Y119380
X82169Y107950
X75438Y119380
X76708Y119380
X77978Y119380
X80518Y119380
X81788Y119380
X83058Y119380
X84836Y119380
X84836Y120650
X84836Y121920
X84836Y123190
X84836Y124460
X84836Y125730
X64516Y125730
X64516Y124460
X64516Y123190
X64516Y121920
X64516Y120650
X64516Y119380
X62738Y119380
X61468Y119380
X60198Y119380
X57658Y119380
X56388Y119380
X55118Y119380
X53340Y119380
X53340Y120650
X53340Y121920
X53340Y123190
X53340Y124460
X53340Y125730
X57658Y118110
X57658Y116840
X57658Y115570
X57658Y114300
X57658Y113030
X57658Y111760
X57658Y110490
X58928Y109220
X60198Y107950
X61468Y107950
X62738Y107950
X64008Y107950
X65278Y107950
X66548Y107950
X67818Y107950
X69088Y107950
X70358Y107950
X71628Y107950
X72898Y107950
X74168Y107950
X75438Y107950
X76708Y107950
X77978Y107950
X83058Y107950
X84328Y107950
X60198Y111760
X61468Y110490
X62738Y110490
X64008Y110490
X65278Y110490
X66548Y110490
X67818Y110490
X69088Y110490
X70358Y110490
X71628Y110490
X72898Y110490
X74168Y110490
X75438Y110490
X76708Y110490
X77978Y110490
X60198Y118110
X60198Y116840
X60198Y115570
X60198Y114300
X60198Y113030
X79248Y110490
X80518Y110490
X81788Y110490
X83058Y110490
X84328Y110490
X86868Y111760
X84328Y111760
X77978Y118110
X77978Y116840
X79248Y115570
X80518Y114300
X81788Y114300
X83058Y114300
X84328Y114300
X84328Y116840
X83058Y116840
X81788Y116840
X80518Y118110
X86868Y118110
X83947Y79248
X54356Y90551
X85090Y89662
X90805Y90170
X71501Y74227
X66675Y74227
X75311Y81153
X50800Y83185
X50986Y74227
X54356Y88773
X68707Y89813
X80899Y89802
X54356Y89713
X68072Y90399
X81915Y90399
X84836Y100330
X84836Y97790
X61849Y82550
X86233Y82550
X61088Y89026
X83058Y83820
X89662Y78740
X77978Y106680
X77305Y105410
X76454Y102870
X75438Y102870
X74491Y101092
X84074Y102743
X65185Y95123
X72517Y94234
X73406Y94234
X72898Y77335
X67818Y77350
X94996Y80010
X99695Y80010
X98044Y82550
X98044Y84455
X98044Y86360
X95123Y91694
X136398Y88773
X136144Y82042
X123825Y81407
X112014Y81280
X115062Y81280
X116586Y81280
X110490Y81280
X106807Y81280
X123317Y85852
X109601Y72517
X121031Y72644
X137414Y71628
X120015Y125730
X120015Y124460
X120015Y123190
X120015Y121920
X120015Y120650
X120015Y119380
X128397Y107950
X121666Y119380
X122936Y119380
X124206Y119380
X126746Y119380
X128016Y119380
X129286Y119380
X131064Y119380
X131064Y120650
X131064Y121920
X131064Y123190
X131064Y124460
X131064Y125730
X110744Y125730
X110744Y124460
X110744Y123190
X110744Y121920
X110744Y120650
X110744Y119380
X108966Y119380
X107696Y119380
X106426Y119380
X103886Y119380
X102616Y119380
X101346Y119380
X99568Y119380
X99568Y120650
X99568Y121920
X99568Y123190
X99568Y124460
X99568Y125730
X103886Y118110
X103886Y116840
X103886Y115570
X103886Y114300
X103886Y113030
X103886Y111760
X103886Y110490
X105156Y109220
X106426Y107950
X107696Y107950
X108966Y107950
X110236Y107950
X111506Y107950
X112776Y107950
X114046Y107950
X115316Y107950
X116586Y107950
X117856Y107950
X119126Y107950
X120396Y107950
X121666Y107950
X122936Y107950
X124206Y107950
X129286Y107950
X130556Y107950
X106426Y111760
X107696Y110490
X108966Y110490
X110236Y110490
X111506Y110490
X112776Y110490
X114046Y110490
X115316Y110490
X116586Y110490
X117856Y110490
X119126Y110490
X120396Y110490
X121666Y110490
X122936Y110490
X124206Y110490
X106426Y118110
X106426Y116840
X106426Y115570
X106426Y114300
X106426Y113030
X125476Y110490
X126746Y110490
X128016Y110490
X129286Y110490
X130556Y110490
X133096Y111760
X130556Y111760
X124206Y118110
X124206Y116840
X125476Y115570
X126746Y114300
X128016Y114300
X129286Y114300
X130556Y114300
X130556Y116840
X129286Y116840
X128016Y116840
X126746Y118110
X133096Y118110
X130175Y79248
X100584Y90551
X131318Y89662
X137033Y90170
X117729Y74227
X112903Y74227
X121539Y81153
X97028Y83185
X97214Y74227
X100584Y88773
X114935Y89813
X127127Y89802
X100584Y89713
X114300Y90399
X128143Y90399
X131064Y100330
X131064Y97790
X108077Y82550
X132461Y82550
X107316Y89026
X2540Y12700
X135890Y78740
X124206Y106680
X123533Y105410
X122682Y102870
X121666Y102870
X120719Y101092
X130302Y102743
X111413Y95123
X118745Y94234
X119634Y94234
X119126Y77335
X114046Y77350
X7239Y12700
X5588Y15240
X5588Y17145
X5588Y19050
X2667Y24384
X43942Y21463
X43688Y14732
X31369Y14097
X19558Y13970
X22606Y13970
X24130Y13970
X18034Y13970
X14351Y13970
X30861Y18542
X17145Y5207
X28575Y5334
X44958Y4318
X27559Y58420
X27559Y57150
X27559Y55880
X27559Y54610
X27559Y53340
X27559Y52070
X35941Y40640
X29210Y52070
X30480Y52070
X31750Y52070
X34290Y52070
X35560Y52070
X36830Y52070
X38608Y52070
X38608Y53340
X38608Y54610
X38608Y55880
X38608Y57150
X38608Y58420
X18288Y58420
X18288Y57150
X18288Y55880
X18288Y54610
X18288Y53340
X18288Y52070
X16510Y52070
X15240Y52070
X13970Y52070
X11430Y52070
X10160Y52070
X8890Y52070
X7112Y52070
X7112Y53340
X7112Y54610
X7112Y55880
X7112Y57150
X7112Y58420
X11430Y50800
X11430Y49530
X11430Y48260
X11430Y46990
X11430Y45720
X11430Y44450
X11430Y43180
X12700Y41910
X13970Y40640
X15240Y40640
X16510Y40640
X17780Y40640
X19050Y40640
X20320Y40640
X21590Y40640
X22860Y40640
X24130Y40640
X25400Y40640
X26670Y40640
X27940Y40640
X29210Y40640
X30480Y40640
X31750Y40640
X36830Y40640
X38100Y40640
X13970Y44450
X15240Y43180
X16510Y43180
X17780Y43180
X19050Y43180
X20320Y43180
X21590Y43180
X22860Y43180
X24130Y43180
X25400Y43180
X26670Y43180
X27940Y43180
X29210Y43180
X30480Y43180
X31750Y43180
X13970Y50800
X13970Y49530
X13970Y48260
X13970Y46990
X13970Y45720
X33020Y43180
X34290Y43180
X35560Y43180
X36830Y43180
X38100Y43180
X40640Y44450
X38100Y44450
X31750Y50800
X31750Y49530
X33020Y48260
X34290Y46990
X35560Y46990
X36830Y46990
X38100Y46990
X38100Y49530
X36830Y49530
X35560Y49530
X34290Y50800
X40640Y50800
X37719Y11938
X8128Y23241
X38862Y22352
X44577Y22860
X25273Y6917
X20447Y6917
X29083Y13843
X4572Y15875
X4758Y6917
X8128Y21463
X22479Y22503
X34671Y22492
X8128Y22403
X21844Y23089
X35687Y23089
X38608Y33020
X38608Y30480
X15621Y15240
X40005Y15240
X29210Y102870
X14860Y21716
X36830Y16510
X43434Y11430
X31750Y39370
X31077Y38100
X30226Y35560
X29210Y35560
X28263Y33782
X37846Y35433
X18957Y27813
X26289Y26924
X27178Y26924
X21590Y10040
X48768Y12700
X53467Y12700
X51816Y15240
X51816Y17145
X51816Y19050
X48895Y24384
X90170Y21463
X89916Y14732
X77597Y14097
X65786Y13970
X68834Y13970
X70358Y13970
X64262Y13970
X60579Y13970
X77089Y18542
X63373Y5207
X74803Y5334
X91186Y4318
X73787Y58420
X73787Y57150
X73787Y55880
X73787Y54610
X73787Y53340
X73787Y52070
X82169Y40640
X75438Y52070
X76708Y52070
X77978Y52070
X80518Y52070
X81788Y52070
X83058Y52070
X84836Y52070
X84836Y53340
X84836Y54610
X84836Y55880
X84836Y57150
X84836Y58420
X64516Y58420
X64516Y57150
X64516Y55880
X64516Y54610
X64516Y53340
X64516Y52070
X62738Y52070
X61468Y52070
X60198Y52070
X57658Y52070
X56388Y52070
X55118Y52070
X53340Y52070
X53340Y53340
X53340Y54610
X53340Y55880
X53340Y57150
X53340Y58420
X57658Y50800
X57658Y49530
X57658Y48260
X57658Y46990
X57658Y45720
X57658Y44450
X57658Y43180
X58928Y41910
X60198Y40640
X61468Y40640
X62738Y40640
X64008Y40640
X65278Y40640
X66548Y40640
X67818Y40640
X69088Y40640
X70358Y40640
X71628Y40640
X72898Y40640
X74168Y40640
X75438Y40640
X76708Y40640
X77978Y40640
X83058Y40640
X84328Y40640
X60198Y44450
X61468Y43180
X62738Y43180
X64008Y43180
X65278Y43180
X66548Y43180
X67818Y43180
X69088Y43180
X70358Y43180
X71628Y43180
X72898Y43180
X74168Y43180
X75438Y43180
X76708Y43180
X77978Y43180
X60198Y50800
X60198Y49530
X60198Y48260
X60198Y46990
X60198Y45720
X79248Y43180
X80518Y43180
X81788Y43180
X83058Y43180
X84328Y43180
X86868Y44450
X84328Y44450
X77978Y50800
X77978Y49530
X79248Y48260
X80518Y46990
X81788Y46990
X83058Y46990
X84328Y46990
X84328Y49530
X83058Y49530
X81788Y49530
X80518Y50800
X86868Y50800
X83947Y11938
X54356Y23241
X85090Y22352
X90805Y22860
X71501Y6917
X66675Y6917
X75311Y13843
X50800Y15875
X50986Y6917
X54356Y21463
X68707Y22503
X80899Y22492
X54356Y22403
X68072Y23089
X81915Y23089
X84836Y33020
X84836Y30480
X129286Y83820
M30