G04 EAGLE Gerber RS-274X export*
G75*
%MOMM*%
%FSLAX34Y34*%
%LPD*%
%INSolderpaste Top*%
%IPPOS*%
%AMOC8*
5,1,8,0,0,1.08239X$1,22.5*%
G01*
%ADD10R,0.300000X1.000000*%
%ADD11R,0.600000X1.000000*%
%ADD12R,1.000000X1.100000*%
%ADD13R,2.000000X1.200000*%
%ADD14R,1.350000X0.600000*%
%ADD15R,1.100000X1.000000*%
%ADD16R,1.524000X0.762000*%
%ADD17R,0.550000X1.200000*%
%ADD18C,0.300000*%
%ADD19R,1.000000X4.600000*%
%ADD20R,1.600000X3.400000*%
%ADD21R,1.200000X2.750000*%
%ADD22R,0.300000X1.750000*%
%ADD23R,1.150000X7.000000*%
%ADD24R,0.900000X2.200000*%
%ADD25R,2.200000X0.850000*%
%ADD26R,1.050000X1.000000*%
%ADD27R,0.830000X0.630000*%
%ADD28R,1.200000X2.500000*%

G36*
X1149219Y1160771D02*
X1149219Y1160771D01*
X1149264Y1160772D01*
X1149315Y1160794D01*
X1149370Y1160807D01*
X1149406Y1160833D01*
X1149446Y1160851D01*
X1149485Y1160892D01*
X1149530Y1160925D01*
X1149553Y1160963D01*
X1149583Y1160995D01*
X1149603Y1161048D01*
X1149632Y1161096D01*
X1149640Y1161147D01*
X1149653Y1161181D01*
X1149652Y1161215D01*
X1149659Y1161260D01*
X1149659Y1172260D01*
X1149649Y1172313D01*
X1149648Y1172366D01*
X1149629Y1172409D01*
X1149620Y1172455D01*
X1149589Y1172499D01*
X1149568Y1172548D01*
X1149534Y1172580D01*
X1149507Y1172619D01*
X1149462Y1172648D01*
X1149423Y1172684D01*
X1149372Y1172705D01*
X1149340Y1172726D01*
X1149308Y1172731D01*
X1149269Y1172747D01*
X1146534Y1173358D01*
X1143970Y1174386D01*
X1141606Y1175813D01*
X1139502Y1177602D01*
X1137713Y1179706D01*
X1136286Y1182070D01*
X1135258Y1184634D01*
X1134647Y1187369D01*
X1134625Y1187418D01*
X1134613Y1187470D01*
X1134585Y1187508D01*
X1134566Y1187550D01*
X1134527Y1187587D01*
X1134495Y1187630D01*
X1134455Y1187654D01*
X1134421Y1187686D01*
X1134370Y1187704D01*
X1134324Y1187732D01*
X1134270Y1187741D01*
X1134234Y1187754D01*
X1134202Y1187752D01*
X1134160Y1187759D01*
X1123160Y1187759D01*
X1123105Y1187748D01*
X1123049Y1187747D01*
X1123008Y1187728D01*
X1122965Y1187720D01*
X1122919Y1187688D01*
X1122868Y1187665D01*
X1122838Y1187632D01*
X1122801Y1187607D01*
X1122771Y1187560D01*
X1122733Y1187518D01*
X1122718Y1187477D01*
X1122694Y1187440D01*
X1122685Y1187384D01*
X1122666Y1187331D01*
X1122667Y1187279D01*
X1122661Y1187243D01*
X1122669Y1187211D01*
X1122669Y1187206D01*
X1122669Y1187204D01*
X1122669Y1187203D01*
X1122670Y1187165D01*
X1123509Y1182844D01*
X1123521Y1182815D01*
X1123529Y1182773D01*
X1124998Y1178623D01*
X1125014Y1178596D01*
X1125028Y1178556D01*
X1127094Y1174669D01*
X1127114Y1174645D01*
X1127133Y1174607D01*
X1129751Y1171068D01*
X1129775Y1171047D01*
X1129800Y1171012D01*
X1132912Y1167900D01*
X1132927Y1167890D01*
X1132935Y1167879D01*
X1132950Y1167870D01*
X1132968Y1167851D01*
X1136507Y1165233D01*
X1136535Y1165220D01*
X1136569Y1165194D01*
X1140456Y1163128D01*
X1140486Y1163119D01*
X1140523Y1163098D01*
X1144673Y1161629D01*
X1144704Y1161624D01*
X1144744Y1161609D01*
X1149065Y1160770D01*
X1149121Y1160770D01*
X1149177Y1160761D01*
X1149219Y1160771D01*
G37*
G36*
X686939Y487671D02*
X686939Y487671D01*
X686984Y487672D01*
X687035Y487694D01*
X687090Y487707D01*
X687126Y487733D01*
X687166Y487751D01*
X687205Y487792D01*
X687250Y487825D01*
X687273Y487863D01*
X687303Y487895D01*
X687323Y487948D01*
X687352Y487996D01*
X687360Y488047D01*
X687373Y488081D01*
X687372Y488115D01*
X687379Y488160D01*
X687379Y499160D01*
X687369Y499213D01*
X687368Y499266D01*
X687349Y499309D01*
X687340Y499355D01*
X687309Y499399D01*
X687288Y499448D01*
X687254Y499480D01*
X687227Y499519D01*
X687182Y499548D01*
X687143Y499584D01*
X687092Y499605D01*
X687060Y499626D01*
X687028Y499631D01*
X686989Y499647D01*
X684254Y500258D01*
X681690Y501286D01*
X679326Y502713D01*
X677222Y504502D01*
X675433Y506606D01*
X674006Y508970D01*
X672978Y511534D01*
X672367Y514269D01*
X672345Y514318D01*
X672333Y514370D01*
X672305Y514408D01*
X672286Y514450D01*
X672247Y514487D01*
X672215Y514530D01*
X672175Y514554D01*
X672141Y514586D01*
X672090Y514604D01*
X672044Y514632D01*
X671990Y514641D01*
X671954Y514654D01*
X671922Y514652D01*
X671880Y514659D01*
X660880Y514659D01*
X660825Y514648D01*
X660769Y514647D01*
X660728Y514628D01*
X660685Y514620D01*
X660639Y514588D01*
X660588Y514565D01*
X660558Y514532D01*
X660521Y514507D01*
X660491Y514460D01*
X660453Y514418D01*
X660438Y514377D01*
X660414Y514340D01*
X660405Y514284D01*
X660386Y514231D01*
X660387Y514179D01*
X660381Y514143D01*
X660389Y514111D01*
X660389Y514106D01*
X660389Y514104D01*
X660389Y514103D01*
X660390Y514065D01*
X661229Y509744D01*
X661241Y509715D01*
X661249Y509673D01*
X662718Y505523D01*
X662734Y505496D01*
X662748Y505456D01*
X664814Y501569D01*
X664834Y501545D01*
X664853Y501507D01*
X667471Y497968D01*
X667495Y497947D01*
X667520Y497912D01*
X670632Y494800D01*
X670647Y494790D01*
X670655Y494779D01*
X670670Y494770D01*
X670688Y494751D01*
X674227Y492133D01*
X674255Y492120D01*
X674289Y492094D01*
X678176Y490028D01*
X678206Y490019D01*
X678243Y489998D01*
X682393Y488529D01*
X682424Y488524D01*
X682464Y488509D01*
X686785Y487670D01*
X686841Y487670D01*
X686897Y487661D01*
X686939Y487671D01*
G37*
G36*
X1149219Y487671D02*
X1149219Y487671D01*
X1149264Y487672D01*
X1149315Y487694D01*
X1149370Y487707D01*
X1149406Y487733D01*
X1149446Y487751D01*
X1149485Y487792D01*
X1149530Y487825D01*
X1149553Y487863D01*
X1149583Y487895D01*
X1149603Y487948D01*
X1149632Y487996D01*
X1149640Y488047D01*
X1149653Y488081D01*
X1149652Y488115D01*
X1149659Y488160D01*
X1149659Y499160D01*
X1149649Y499213D01*
X1149648Y499266D01*
X1149629Y499309D01*
X1149620Y499355D01*
X1149589Y499399D01*
X1149568Y499448D01*
X1149534Y499480D01*
X1149507Y499519D01*
X1149462Y499548D01*
X1149423Y499584D01*
X1149372Y499605D01*
X1149340Y499626D01*
X1149308Y499631D01*
X1149269Y499647D01*
X1146534Y500258D01*
X1143970Y501286D01*
X1141606Y502713D01*
X1139502Y504502D01*
X1137713Y506606D01*
X1136286Y508970D01*
X1135258Y511534D01*
X1134647Y514269D01*
X1134625Y514318D01*
X1134613Y514370D01*
X1134585Y514408D01*
X1134566Y514450D01*
X1134527Y514487D01*
X1134495Y514530D01*
X1134455Y514554D01*
X1134421Y514586D01*
X1134370Y514604D01*
X1134324Y514632D01*
X1134270Y514641D01*
X1134234Y514654D01*
X1134202Y514652D01*
X1134160Y514659D01*
X1123160Y514659D01*
X1123105Y514648D01*
X1123049Y514647D01*
X1123008Y514628D01*
X1122965Y514620D01*
X1122919Y514588D01*
X1122868Y514565D01*
X1122838Y514532D01*
X1122801Y514507D01*
X1122771Y514460D01*
X1122733Y514418D01*
X1122718Y514377D01*
X1122694Y514340D01*
X1122685Y514284D01*
X1122666Y514231D01*
X1122667Y514179D01*
X1122661Y514143D01*
X1122669Y514111D01*
X1122669Y514106D01*
X1122669Y514104D01*
X1122669Y514103D01*
X1122670Y514065D01*
X1123509Y509744D01*
X1123521Y509715D01*
X1123529Y509673D01*
X1124998Y505523D01*
X1125014Y505496D01*
X1125028Y505456D01*
X1127094Y501569D01*
X1127114Y501545D01*
X1127133Y501507D01*
X1129751Y497968D01*
X1129775Y497947D01*
X1129800Y497912D01*
X1132912Y494800D01*
X1132927Y494790D01*
X1132935Y494779D01*
X1132950Y494770D01*
X1132968Y494751D01*
X1136507Y492133D01*
X1136535Y492120D01*
X1136569Y492094D01*
X1140456Y490028D01*
X1140486Y490019D01*
X1140523Y489998D01*
X1144673Y488529D01*
X1144704Y488524D01*
X1144744Y488509D01*
X1149065Y487670D01*
X1149121Y487670D01*
X1149177Y487661D01*
X1149219Y487671D01*
G37*
G36*
X224659Y487671D02*
X224659Y487671D01*
X224704Y487672D01*
X224755Y487694D01*
X224810Y487707D01*
X224846Y487733D01*
X224886Y487751D01*
X224925Y487792D01*
X224970Y487825D01*
X224993Y487863D01*
X225023Y487895D01*
X225043Y487948D01*
X225072Y487996D01*
X225080Y488047D01*
X225093Y488081D01*
X225092Y488115D01*
X225099Y488160D01*
X225099Y499160D01*
X225089Y499213D01*
X225088Y499266D01*
X225069Y499309D01*
X225060Y499355D01*
X225029Y499399D01*
X225008Y499448D01*
X224974Y499480D01*
X224947Y499519D01*
X224902Y499548D01*
X224863Y499584D01*
X224812Y499605D01*
X224780Y499626D01*
X224748Y499631D01*
X224709Y499647D01*
X221974Y500258D01*
X219410Y501286D01*
X217046Y502713D01*
X214942Y504502D01*
X213153Y506606D01*
X211726Y508970D01*
X210698Y511534D01*
X210087Y514269D01*
X210065Y514318D01*
X210053Y514370D01*
X210025Y514408D01*
X210006Y514450D01*
X209967Y514487D01*
X209935Y514530D01*
X209895Y514554D01*
X209861Y514586D01*
X209810Y514604D01*
X209764Y514632D01*
X209710Y514641D01*
X209674Y514654D01*
X209642Y514652D01*
X209600Y514659D01*
X198600Y514659D01*
X198545Y514648D01*
X198489Y514647D01*
X198448Y514628D01*
X198405Y514620D01*
X198359Y514588D01*
X198308Y514565D01*
X198278Y514532D01*
X198241Y514507D01*
X198211Y514460D01*
X198173Y514418D01*
X198158Y514377D01*
X198134Y514340D01*
X198125Y514284D01*
X198106Y514231D01*
X198107Y514179D01*
X198101Y514143D01*
X198109Y514111D01*
X198109Y514106D01*
X198109Y514104D01*
X198109Y514103D01*
X198110Y514065D01*
X198949Y509744D01*
X198961Y509715D01*
X198969Y509673D01*
X200438Y505523D01*
X200454Y505496D01*
X200468Y505456D01*
X202534Y501569D01*
X202554Y501545D01*
X202573Y501507D01*
X205191Y497968D01*
X205215Y497947D01*
X205240Y497912D01*
X208352Y494800D01*
X208367Y494790D01*
X208375Y494779D01*
X208390Y494770D01*
X208408Y494751D01*
X211947Y492133D01*
X211975Y492120D01*
X212009Y492094D01*
X215896Y490028D01*
X215926Y490019D01*
X215963Y489998D01*
X220113Y488529D01*
X220144Y488524D01*
X220184Y488509D01*
X224505Y487670D01*
X224561Y487670D01*
X224617Y487661D01*
X224659Y487671D01*
G37*
G36*
X224659Y1160771D02*
X224659Y1160771D01*
X224704Y1160772D01*
X224755Y1160794D01*
X224810Y1160807D01*
X224846Y1160833D01*
X224886Y1160851D01*
X224925Y1160892D01*
X224970Y1160925D01*
X224993Y1160963D01*
X225023Y1160995D01*
X225043Y1161048D01*
X225072Y1161096D01*
X225080Y1161147D01*
X225093Y1161181D01*
X225092Y1161215D01*
X225099Y1161260D01*
X225099Y1172260D01*
X225089Y1172313D01*
X225088Y1172366D01*
X225069Y1172409D01*
X225060Y1172455D01*
X225029Y1172499D01*
X225008Y1172548D01*
X224974Y1172580D01*
X224947Y1172619D01*
X224902Y1172648D01*
X224863Y1172684D01*
X224812Y1172705D01*
X224780Y1172726D01*
X224748Y1172731D01*
X224709Y1172747D01*
X221974Y1173358D01*
X219410Y1174386D01*
X217046Y1175813D01*
X214942Y1177602D01*
X213153Y1179706D01*
X211726Y1182070D01*
X210698Y1184634D01*
X210087Y1187369D01*
X210065Y1187418D01*
X210053Y1187470D01*
X210025Y1187508D01*
X210006Y1187550D01*
X209967Y1187587D01*
X209935Y1187630D01*
X209895Y1187654D01*
X209861Y1187686D01*
X209810Y1187704D01*
X209764Y1187732D01*
X209710Y1187741D01*
X209674Y1187754D01*
X209642Y1187752D01*
X209600Y1187759D01*
X198600Y1187759D01*
X198545Y1187748D01*
X198489Y1187747D01*
X198448Y1187728D01*
X198405Y1187720D01*
X198359Y1187688D01*
X198308Y1187665D01*
X198278Y1187632D01*
X198241Y1187607D01*
X198211Y1187560D01*
X198173Y1187518D01*
X198158Y1187477D01*
X198134Y1187440D01*
X198125Y1187384D01*
X198106Y1187331D01*
X198107Y1187279D01*
X198101Y1187243D01*
X198109Y1187211D01*
X198109Y1187206D01*
X198109Y1187204D01*
X198109Y1187203D01*
X198110Y1187165D01*
X198949Y1182844D01*
X198961Y1182815D01*
X198969Y1182773D01*
X200438Y1178623D01*
X200454Y1178596D01*
X200468Y1178556D01*
X202534Y1174669D01*
X202554Y1174645D01*
X202573Y1174607D01*
X205191Y1171068D01*
X205215Y1171047D01*
X205240Y1171012D01*
X208352Y1167900D01*
X208367Y1167890D01*
X208375Y1167879D01*
X208390Y1167870D01*
X208408Y1167851D01*
X211947Y1165233D01*
X211975Y1165220D01*
X212009Y1165194D01*
X215896Y1163128D01*
X215926Y1163119D01*
X215963Y1163098D01*
X220113Y1161629D01*
X220144Y1161624D01*
X220184Y1161609D01*
X224505Y1160770D01*
X224561Y1160770D01*
X224617Y1160761D01*
X224659Y1160771D01*
G37*
G36*
X686939Y1160771D02*
X686939Y1160771D01*
X686984Y1160772D01*
X687035Y1160794D01*
X687090Y1160807D01*
X687126Y1160833D01*
X687166Y1160851D01*
X687205Y1160892D01*
X687250Y1160925D01*
X687273Y1160963D01*
X687303Y1160995D01*
X687323Y1161048D01*
X687352Y1161096D01*
X687360Y1161147D01*
X687373Y1161181D01*
X687372Y1161215D01*
X687379Y1161260D01*
X687379Y1172260D01*
X687369Y1172313D01*
X687368Y1172366D01*
X687349Y1172409D01*
X687340Y1172455D01*
X687309Y1172499D01*
X687288Y1172548D01*
X687254Y1172580D01*
X687227Y1172619D01*
X687182Y1172648D01*
X687143Y1172684D01*
X687092Y1172705D01*
X687060Y1172726D01*
X687028Y1172731D01*
X686989Y1172747D01*
X684254Y1173358D01*
X681690Y1174386D01*
X679326Y1175813D01*
X677222Y1177602D01*
X675433Y1179706D01*
X674006Y1182070D01*
X672978Y1184634D01*
X672367Y1187369D01*
X672345Y1187418D01*
X672333Y1187470D01*
X672305Y1187508D01*
X672286Y1187550D01*
X672247Y1187587D01*
X672215Y1187630D01*
X672175Y1187654D01*
X672141Y1187686D01*
X672090Y1187704D01*
X672044Y1187732D01*
X671990Y1187741D01*
X671954Y1187754D01*
X671922Y1187752D01*
X671880Y1187759D01*
X660880Y1187759D01*
X660825Y1187748D01*
X660769Y1187747D01*
X660728Y1187728D01*
X660685Y1187720D01*
X660639Y1187688D01*
X660588Y1187665D01*
X660558Y1187632D01*
X660521Y1187607D01*
X660491Y1187560D01*
X660453Y1187518D01*
X660438Y1187477D01*
X660414Y1187440D01*
X660405Y1187384D01*
X660386Y1187331D01*
X660387Y1187279D01*
X660381Y1187243D01*
X660389Y1187211D01*
X660389Y1187206D01*
X660389Y1187204D01*
X660389Y1187203D01*
X660390Y1187165D01*
X661229Y1182844D01*
X661241Y1182815D01*
X661249Y1182773D01*
X662718Y1178623D01*
X662734Y1178596D01*
X662748Y1178556D01*
X664814Y1174669D01*
X664834Y1174645D01*
X664853Y1174607D01*
X667471Y1171068D01*
X667495Y1171047D01*
X667520Y1171012D01*
X670632Y1167900D01*
X670647Y1167890D01*
X670655Y1167879D01*
X670670Y1167870D01*
X670688Y1167851D01*
X674227Y1165233D01*
X674255Y1165220D01*
X674289Y1165194D01*
X678176Y1163128D01*
X678206Y1163119D01*
X678243Y1163098D01*
X682393Y1161629D01*
X682424Y1161624D01*
X682464Y1161609D01*
X686785Y1160770D01*
X686841Y1160770D01*
X686897Y1160761D01*
X686939Y1160771D01*
G37*
G36*
X1134213Y1194771D02*
X1134213Y1194771D01*
X1134266Y1194772D01*
X1134309Y1194791D01*
X1134355Y1194800D01*
X1134399Y1194831D01*
X1134448Y1194852D01*
X1134480Y1194886D01*
X1134519Y1194913D01*
X1134548Y1194958D01*
X1134584Y1194997D01*
X1134605Y1195048D01*
X1134626Y1195080D01*
X1134631Y1195112D01*
X1134647Y1195151D01*
X1135258Y1197886D01*
X1136286Y1200450D01*
X1137713Y1202814D01*
X1139502Y1204918D01*
X1141606Y1206707D01*
X1143970Y1208134D01*
X1146534Y1209162D01*
X1149269Y1209773D01*
X1149318Y1209795D01*
X1149370Y1209807D01*
X1149408Y1209835D01*
X1149450Y1209854D01*
X1149487Y1209893D01*
X1149530Y1209925D01*
X1149554Y1209965D01*
X1149586Y1209999D01*
X1149604Y1210050D01*
X1149632Y1210096D01*
X1149641Y1210150D01*
X1149654Y1210186D01*
X1149652Y1210218D01*
X1149659Y1210260D01*
X1149659Y1221260D01*
X1149648Y1221315D01*
X1149647Y1221371D01*
X1149628Y1221412D01*
X1149620Y1221455D01*
X1149588Y1221501D01*
X1149565Y1221553D01*
X1149532Y1221582D01*
X1149507Y1221619D01*
X1149460Y1221649D01*
X1149418Y1221687D01*
X1149377Y1221702D01*
X1149340Y1221726D01*
X1149284Y1221735D01*
X1149231Y1221754D01*
X1149179Y1221753D01*
X1149143Y1221759D01*
X1149111Y1221751D01*
X1149065Y1221750D01*
X1144744Y1220911D01*
X1144715Y1220899D01*
X1144673Y1220891D01*
X1140523Y1219422D01*
X1140496Y1219406D01*
X1140456Y1219392D01*
X1136569Y1217326D01*
X1136545Y1217306D01*
X1136507Y1217287D01*
X1132968Y1214669D01*
X1132947Y1214645D01*
X1132912Y1214620D01*
X1129800Y1211508D01*
X1129782Y1211482D01*
X1129751Y1211452D01*
X1127133Y1207914D01*
X1127120Y1207885D01*
X1127094Y1207851D01*
X1125028Y1203964D01*
X1125021Y1203941D01*
X1125012Y1203927D01*
X1125011Y1203919D01*
X1124998Y1203897D01*
X1123529Y1199747D01*
X1123524Y1199716D01*
X1123509Y1199676D01*
X1122670Y1195355D01*
X1122670Y1195299D01*
X1122661Y1195243D01*
X1122671Y1195201D01*
X1122672Y1195156D01*
X1122694Y1195105D01*
X1122707Y1195050D01*
X1122733Y1195015D01*
X1122751Y1194974D01*
X1122792Y1194935D01*
X1122825Y1194890D01*
X1122863Y1194867D01*
X1122895Y1194837D01*
X1122948Y1194817D01*
X1122996Y1194788D01*
X1123047Y1194780D01*
X1123081Y1194767D01*
X1123115Y1194768D01*
X1123160Y1194761D01*
X1134160Y1194761D01*
X1134213Y1194771D01*
G37*
G36*
X209653Y1194771D02*
X209653Y1194771D01*
X209706Y1194772D01*
X209749Y1194791D01*
X209795Y1194800D01*
X209839Y1194831D01*
X209888Y1194852D01*
X209920Y1194886D01*
X209959Y1194913D01*
X209988Y1194958D01*
X210024Y1194997D01*
X210045Y1195048D01*
X210066Y1195080D01*
X210071Y1195112D01*
X210087Y1195151D01*
X210698Y1197886D01*
X211726Y1200450D01*
X213153Y1202814D01*
X214942Y1204918D01*
X217046Y1206707D01*
X219410Y1208134D01*
X221974Y1209162D01*
X224709Y1209773D01*
X224758Y1209795D01*
X224810Y1209807D01*
X224848Y1209835D01*
X224890Y1209854D01*
X224927Y1209893D01*
X224970Y1209925D01*
X224994Y1209965D01*
X225026Y1209999D01*
X225044Y1210050D01*
X225072Y1210096D01*
X225081Y1210150D01*
X225094Y1210186D01*
X225092Y1210218D01*
X225099Y1210260D01*
X225099Y1221260D01*
X225088Y1221315D01*
X225087Y1221371D01*
X225068Y1221412D01*
X225060Y1221455D01*
X225028Y1221501D01*
X225005Y1221553D01*
X224972Y1221582D01*
X224947Y1221619D01*
X224900Y1221649D01*
X224858Y1221687D01*
X224817Y1221702D01*
X224780Y1221726D01*
X224724Y1221735D01*
X224671Y1221754D01*
X224619Y1221753D01*
X224583Y1221759D01*
X224551Y1221751D01*
X224505Y1221750D01*
X220184Y1220911D01*
X220155Y1220899D01*
X220113Y1220891D01*
X215963Y1219422D01*
X215936Y1219406D01*
X215896Y1219392D01*
X212009Y1217326D01*
X211985Y1217306D01*
X211947Y1217287D01*
X208408Y1214669D01*
X208387Y1214645D01*
X208352Y1214620D01*
X205240Y1211508D01*
X205222Y1211482D01*
X205191Y1211452D01*
X202573Y1207914D01*
X202560Y1207885D01*
X202534Y1207851D01*
X200468Y1203964D01*
X200461Y1203941D01*
X200452Y1203927D01*
X200451Y1203919D01*
X200438Y1203897D01*
X198969Y1199747D01*
X198964Y1199716D01*
X198949Y1199676D01*
X198110Y1195355D01*
X198110Y1195299D01*
X198101Y1195243D01*
X198111Y1195201D01*
X198112Y1195156D01*
X198134Y1195105D01*
X198147Y1195050D01*
X198173Y1195015D01*
X198191Y1194974D01*
X198232Y1194935D01*
X198265Y1194890D01*
X198303Y1194867D01*
X198335Y1194837D01*
X198388Y1194817D01*
X198436Y1194788D01*
X198487Y1194780D01*
X198521Y1194767D01*
X198555Y1194768D01*
X198600Y1194761D01*
X209600Y1194761D01*
X209653Y1194771D01*
G37*
G36*
X671933Y1194771D02*
X671933Y1194771D01*
X671986Y1194772D01*
X672029Y1194791D01*
X672075Y1194800D01*
X672119Y1194831D01*
X672168Y1194852D01*
X672200Y1194886D01*
X672239Y1194913D01*
X672268Y1194958D01*
X672304Y1194997D01*
X672325Y1195048D01*
X672346Y1195080D01*
X672351Y1195112D01*
X672367Y1195151D01*
X672978Y1197886D01*
X674006Y1200450D01*
X675433Y1202814D01*
X677222Y1204918D01*
X679326Y1206707D01*
X681690Y1208134D01*
X684254Y1209162D01*
X686989Y1209773D01*
X687038Y1209795D01*
X687090Y1209807D01*
X687128Y1209835D01*
X687170Y1209854D01*
X687207Y1209893D01*
X687250Y1209925D01*
X687274Y1209965D01*
X687306Y1209999D01*
X687324Y1210050D01*
X687352Y1210096D01*
X687361Y1210150D01*
X687374Y1210186D01*
X687372Y1210218D01*
X687379Y1210260D01*
X687379Y1221260D01*
X687368Y1221315D01*
X687367Y1221371D01*
X687348Y1221412D01*
X687340Y1221455D01*
X687308Y1221501D01*
X687285Y1221553D01*
X687252Y1221582D01*
X687227Y1221619D01*
X687180Y1221649D01*
X687138Y1221687D01*
X687097Y1221702D01*
X687060Y1221726D01*
X687004Y1221735D01*
X686951Y1221754D01*
X686899Y1221753D01*
X686863Y1221759D01*
X686831Y1221751D01*
X686785Y1221750D01*
X682464Y1220911D01*
X682435Y1220899D01*
X682393Y1220891D01*
X678243Y1219422D01*
X678216Y1219406D01*
X678176Y1219392D01*
X674289Y1217326D01*
X674265Y1217306D01*
X674227Y1217287D01*
X670688Y1214669D01*
X670667Y1214645D01*
X670632Y1214620D01*
X667520Y1211508D01*
X667502Y1211482D01*
X667471Y1211452D01*
X664853Y1207914D01*
X664840Y1207885D01*
X664814Y1207851D01*
X662748Y1203964D01*
X662741Y1203941D01*
X662732Y1203927D01*
X662731Y1203919D01*
X662718Y1203897D01*
X661249Y1199747D01*
X661244Y1199716D01*
X661229Y1199676D01*
X660390Y1195355D01*
X660390Y1195299D01*
X660381Y1195243D01*
X660391Y1195201D01*
X660392Y1195156D01*
X660414Y1195105D01*
X660427Y1195050D01*
X660453Y1195015D01*
X660471Y1194974D01*
X660512Y1194935D01*
X660545Y1194890D01*
X660583Y1194867D01*
X660615Y1194837D01*
X660668Y1194817D01*
X660716Y1194788D01*
X660767Y1194780D01*
X660801Y1194767D01*
X660835Y1194768D01*
X660880Y1194761D01*
X671880Y1194761D01*
X671933Y1194771D01*
G37*
G36*
X1134213Y521671D02*
X1134213Y521671D01*
X1134266Y521672D01*
X1134309Y521691D01*
X1134355Y521700D01*
X1134399Y521731D01*
X1134448Y521752D01*
X1134480Y521786D01*
X1134519Y521813D01*
X1134548Y521858D01*
X1134584Y521897D01*
X1134605Y521948D01*
X1134626Y521980D01*
X1134631Y522012D01*
X1134647Y522051D01*
X1135258Y524786D01*
X1136286Y527350D01*
X1137713Y529714D01*
X1139502Y531818D01*
X1141606Y533607D01*
X1143970Y535034D01*
X1146534Y536062D01*
X1149269Y536673D01*
X1149318Y536695D01*
X1149370Y536707D01*
X1149408Y536735D01*
X1149450Y536754D01*
X1149487Y536793D01*
X1149530Y536825D01*
X1149554Y536865D01*
X1149586Y536899D01*
X1149604Y536950D01*
X1149632Y536996D01*
X1149641Y537050D01*
X1149654Y537086D01*
X1149652Y537118D01*
X1149659Y537160D01*
X1149659Y548160D01*
X1149648Y548215D01*
X1149647Y548271D01*
X1149628Y548312D01*
X1149620Y548355D01*
X1149588Y548401D01*
X1149565Y548453D01*
X1149532Y548482D01*
X1149507Y548519D01*
X1149460Y548549D01*
X1149418Y548587D01*
X1149377Y548602D01*
X1149340Y548626D01*
X1149284Y548635D01*
X1149231Y548654D01*
X1149179Y548653D01*
X1149143Y548659D01*
X1149111Y548651D01*
X1149065Y548650D01*
X1144744Y547811D01*
X1144715Y547799D01*
X1144673Y547791D01*
X1140523Y546322D01*
X1140496Y546306D01*
X1140456Y546292D01*
X1136569Y544226D01*
X1136545Y544206D01*
X1136507Y544187D01*
X1132968Y541569D01*
X1132947Y541545D01*
X1132912Y541520D01*
X1129800Y538408D01*
X1129782Y538382D01*
X1129751Y538352D01*
X1127133Y534814D01*
X1127120Y534785D01*
X1127094Y534751D01*
X1125028Y530864D01*
X1125021Y530841D01*
X1125012Y530827D01*
X1125011Y530819D01*
X1124998Y530797D01*
X1123529Y526647D01*
X1123524Y526616D01*
X1123509Y526576D01*
X1122670Y522255D01*
X1122670Y522199D01*
X1122661Y522143D01*
X1122671Y522101D01*
X1122672Y522056D01*
X1122694Y522005D01*
X1122707Y521950D01*
X1122733Y521915D01*
X1122751Y521874D01*
X1122792Y521835D01*
X1122825Y521790D01*
X1122863Y521767D01*
X1122895Y521737D01*
X1122948Y521717D01*
X1122996Y521688D01*
X1123047Y521680D01*
X1123081Y521667D01*
X1123115Y521668D01*
X1123160Y521661D01*
X1134160Y521661D01*
X1134213Y521671D01*
G37*
G36*
X209653Y521671D02*
X209653Y521671D01*
X209706Y521672D01*
X209749Y521691D01*
X209795Y521700D01*
X209839Y521731D01*
X209888Y521752D01*
X209920Y521786D01*
X209959Y521813D01*
X209988Y521858D01*
X210024Y521897D01*
X210045Y521948D01*
X210066Y521980D01*
X210071Y522012D01*
X210087Y522051D01*
X210698Y524786D01*
X211726Y527350D01*
X213153Y529714D01*
X214942Y531818D01*
X217046Y533607D01*
X219410Y535034D01*
X221974Y536062D01*
X224709Y536673D01*
X224758Y536695D01*
X224810Y536707D01*
X224848Y536735D01*
X224890Y536754D01*
X224927Y536793D01*
X224970Y536825D01*
X224994Y536865D01*
X225026Y536899D01*
X225044Y536950D01*
X225072Y536996D01*
X225081Y537050D01*
X225094Y537086D01*
X225092Y537118D01*
X225099Y537160D01*
X225099Y548160D01*
X225088Y548215D01*
X225087Y548271D01*
X225068Y548312D01*
X225060Y548355D01*
X225028Y548401D01*
X225005Y548453D01*
X224972Y548482D01*
X224947Y548519D01*
X224900Y548549D01*
X224858Y548587D01*
X224817Y548602D01*
X224780Y548626D01*
X224724Y548635D01*
X224671Y548654D01*
X224619Y548653D01*
X224583Y548659D01*
X224551Y548651D01*
X224505Y548650D01*
X220184Y547811D01*
X220155Y547799D01*
X220113Y547791D01*
X215963Y546322D01*
X215936Y546306D01*
X215896Y546292D01*
X212009Y544226D01*
X211985Y544206D01*
X211947Y544187D01*
X208408Y541569D01*
X208387Y541545D01*
X208352Y541520D01*
X205240Y538408D01*
X205222Y538382D01*
X205191Y538352D01*
X202573Y534814D01*
X202560Y534785D01*
X202534Y534751D01*
X200468Y530864D01*
X200461Y530841D01*
X200452Y530827D01*
X200451Y530819D01*
X200438Y530797D01*
X198969Y526647D01*
X198964Y526616D01*
X198949Y526576D01*
X198110Y522255D01*
X198110Y522199D01*
X198101Y522143D01*
X198111Y522101D01*
X198112Y522056D01*
X198134Y522005D01*
X198147Y521950D01*
X198173Y521915D01*
X198191Y521874D01*
X198232Y521835D01*
X198265Y521790D01*
X198303Y521767D01*
X198335Y521737D01*
X198388Y521717D01*
X198436Y521688D01*
X198487Y521680D01*
X198521Y521667D01*
X198555Y521668D01*
X198600Y521661D01*
X209600Y521661D01*
X209653Y521671D01*
G37*
G36*
X671933Y521671D02*
X671933Y521671D01*
X671986Y521672D01*
X672029Y521691D01*
X672075Y521700D01*
X672119Y521731D01*
X672168Y521752D01*
X672200Y521786D01*
X672239Y521813D01*
X672268Y521858D01*
X672304Y521897D01*
X672325Y521948D01*
X672346Y521980D01*
X672351Y522012D01*
X672367Y522051D01*
X672978Y524786D01*
X674006Y527350D01*
X675433Y529714D01*
X677222Y531818D01*
X679326Y533607D01*
X681690Y535034D01*
X684254Y536062D01*
X686989Y536673D01*
X687038Y536695D01*
X687090Y536707D01*
X687128Y536735D01*
X687170Y536754D01*
X687207Y536793D01*
X687250Y536825D01*
X687274Y536865D01*
X687306Y536899D01*
X687324Y536950D01*
X687352Y536996D01*
X687361Y537050D01*
X687374Y537086D01*
X687372Y537118D01*
X687379Y537160D01*
X687379Y548160D01*
X687368Y548215D01*
X687367Y548271D01*
X687348Y548312D01*
X687340Y548355D01*
X687308Y548401D01*
X687285Y548453D01*
X687252Y548482D01*
X687227Y548519D01*
X687180Y548549D01*
X687138Y548587D01*
X687097Y548602D01*
X687060Y548626D01*
X687004Y548635D01*
X686951Y548654D01*
X686899Y548653D01*
X686863Y548659D01*
X686831Y548651D01*
X686785Y548650D01*
X682464Y547811D01*
X682435Y547799D01*
X682393Y547791D01*
X678243Y546322D01*
X678216Y546306D01*
X678176Y546292D01*
X674289Y544226D01*
X674265Y544206D01*
X674227Y544187D01*
X670688Y541569D01*
X670667Y541545D01*
X670632Y541520D01*
X667520Y538408D01*
X667502Y538382D01*
X667471Y538352D01*
X664853Y534814D01*
X664840Y534785D01*
X664814Y534751D01*
X662748Y530864D01*
X662741Y530841D01*
X662732Y530827D01*
X662731Y530819D01*
X662718Y530797D01*
X661249Y526647D01*
X661244Y526616D01*
X661229Y526576D01*
X660390Y522255D01*
X660390Y522199D01*
X660381Y522143D01*
X660391Y522101D01*
X660392Y522056D01*
X660414Y522005D01*
X660427Y521950D01*
X660453Y521915D01*
X660471Y521874D01*
X660512Y521835D01*
X660545Y521790D01*
X660583Y521767D01*
X660615Y521737D01*
X660668Y521717D01*
X660716Y521688D01*
X660767Y521680D01*
X660801Y521667D01*
X660835Y521668D01*
X660880Y521661D01*
X671880Y521661D01*
X671933Y521671D01*
G37*
G36*
X1183215Y1194772D02*
X1183215Y1194772D01*
X1183271Y1194773D01*
X1183312Y1194792D01*
X1183355Y1194800D01*
X1183401Y1194832D01*
X1183453Y1194855D01*
X1183482Y1194888D01*
X1183519Y1194913D01*
X1183549Y1194960D01*
X1183587Y1195002D01*
X1183602Y1195043D01*
X1183626Y1195080D01*
X1183635Y1195136D01*
X1183654Y1195189D01*
X1183653Y1195241D01*
X1183659Y1195277D01*
X1183651Y1195309D01*
X1183650Y1195355D01*
X1182811Y1199676D01*
X1182799Y1199705D01*
X1182791Y1199747D01*
X1181322Y1203897D01*
X1181306Y1203924D01*
X1181297Y1203951D01*
X1181295Y1203957D01*
X1181294Y1203959D01*
X1181292Y1203964D01*
X1179226Y1207851D01*
X1179206Y1207875D01*
X1179187Y1207914D01*
X1176569Y1211452D01*
X1176545Y1211473D01*
X1176520Y1211508D01*
X1173408Y1214620D01*
X1173382Y1214638D01*
X1173352Y1214669D01*
X1169814Y1217287D01*
X1169785Y1217300D01*
X1169751Y1217326D01*
X1165864Y1219392D01*
X1165834Y1219401D01*
X1165797Y1219422D01*
X1161647Y1220891D01*
X1161616Y1220896D01*
X1161576Y1220911D01*
X1157255Y1221750D01*
X1157199Y1221750D01*
X1157143Y1221759D01*
X1157101Y1221749D01*
X1157056Y1221748D01*
X1157005Y1221726D01*
X1156950Y1221713D01*
X1156915Y1221687D01*
X1156874Y1221669D01*
X1156835Y1221628D01*
X1156790Y1221595D01*
X1156767Y1221557D01*
X1156737Y1221525D01*
X1156717Y1221472D01*
X1156688Y1221424D01*
X1156680Y1221373D01*
X1156667Y1221339D01*
X1156668Y1221305D01*
X1156661Y1221260D01*
X1156661Y1210260D01*
X1156671Y1210207D01*
X1156672Y1210154D01*
X1156691Y1210111D01*
X1156700Y1210065D01*
X1156731Y1210021D01*
X1156752Y1209972D01*
X1156786Y1209940D01*
X1156813Y1209901D01*
X1156858Y1209872D01*
X1156897Y1209836D01*
X1156948Y1209815D01*
X1156980Y1209794D01*
X1157012Y1209789D01*
X1157051Y1209773D01*
X1159786Y1209162D01*
X1162350Y1208134D01*
X1164714Y1206707D01*
X1166818Y1204918D01*
X1168607Y1202814D01*
X1170034Y1200450D01*
X1171062Y1197886D01*
X1171673Y1195151D01*
X1171695Y1195102D01*
X1171707Y1195050D01*
X1171735Y1195012D01*
X1171754Y1194970D01*
X1171793Y1194933D01*
X1171825Y1194890D01*
X1171865Y1194866D01*
X1171899Y1194834D01*
X1171950Y1194816D01*
X1171996Y1194788D01*
X1172050Y1194779D01*
X1172086Y1194766D01*
X1172118Y1194768D01*
X1172160Y1194761D01*
X1183160Y1194761D01*
X1183215Y1194772D01*
G37*
G36*
X720935Y1194772D02*
X720935Y1194772D01*
X720991Y1194773D01*
X721032Y1194792D01*
X721075Y1194800D01*
X721121Y1194832D01*
X721173Y1194855D01*
X721202Y1194888D01*
X721239Y1194913D01*
X721269Y1194960D01*
X721307Y1195002D01*
X721322Y1195043D01*
X721346Y1195080D01*
X721355Y1195136D01*
X721374Y1195189D01*
X721373Y1195241D01*
X721379Y1195277D01*
X721371Y1195309D01*
X721370Y1195355D01*
X720531Y1199676D01*
X720519Y1199705D01*
X720511Y1199747D01*
X719042Y1203897D01*
X719026Y1203924D01*
X719017Y1203951D01*
X719015Y1203957D01*
X719014Y1203959D01*
X719012Y1203964D01*
X716946Y1207851D01*
X716926Y1207875D01*
X716907Y1207914D01*
X714289Y1211452D01*
X714265Y1211473D01*
X714240Y1211508D01*
X711128Y1214620D01*
X711102Y1214638D01*
X711072Y1214669D01*
X707534Y1217287D01*
X707505Y1217300D01*
X707471Y1217326D01*
X703584Y1219392D01*
X703554Y1219401D01*
X703517Y1219422D01*
X699367Y1220891D01*
X699336Y1220896D01*
X699296Y1220911D01*
X694975Y1221750D01*
X694919Y1221750D01*
X694863Y1221759D01*
X694821Y1221749D01*
X694776Y1221748D01*
X694725Y1221726D01*
X694670Y1221713D01*
X694635Y1221687D01*
X694594Y1221669D01*
X694555Y1221628D01*
X694510Y1221595D01*
X694487Y1221557D01*
X694457Y1221525D01*
X694437Y1221472D01*
X694408Y1221424D01*
X694400Y1221373D01*
X694387Y1221339D01*
X694388Y1221305D01*
X694381Y1221260D01*
X694381Y1210260D01*
X694391Y1210207D01*
X694392Y1210154D01*
X694411Y1210111D01*
X694420Y1210065D01*
X694451Y1210021D01*
X694472Y1209972D01*
X694506Y1209940D01*
X694533Y1209901D01*
X694578Y1209872D01*
X694617Y1209836D01*
X694668Y1209815D01*
X694700Y1209794D01*
X694732Y1209789D01*
X694771Y1209773D01*
X697506Y1209162D01*
X700070Y1208134D01*
X702434Y1206707D01*
X704538Y1204918D01*
X706327Y1202814D01*
X707754Y1200450D01*
X708782Y1197886D01*
X709393Y1195151D01*
X709415Y1195102D01*
X709427Y1195050D01*
X709455Y1195012D01*
X709474Y1194970D01*
X709513Y1194933D01*
X709545Y1194890D01*
X709585Y1194866D01*
X709619Y1194834D01*
X709670Y1194816D01*
X709716Y1194788D01*
X709770Y1194779D01*
X709806Y1194766D01*
X709838Y1194768D01*
X709880Y1194761D01*
X720880Y1194761D01*
X720935Y1194772D01*
G37*
G36*
X258655Y1194772D02*
X258655Y1194772D01*
X258711Y1194773D01*
X258752Y1194792D01*
X258795Y1194800D01*
X258841Y1194832D01*
X258893Y1194855D01*
X258922Y1194888D01*
X258959Y1194913D01*
X258989Y1194960D01*
X259027Y1195002D01*
X259042Y1195043D01*
X259066Y1195080D01*
X259075Y1195136D01*
X259094Y1195189D01*
X259093Y1195241D01*
X259099Y1195277D01*
X259091Y1195309D01*
X259090Y1195355D01*
X258251Y1199676D01*
X258239Y1199705D01*
X258231Y1199747D01*
X256762Y1203897D01*
X256746Y1203924D01*
X256737Y1203951D01*
X256735Y1203957D01*
X256734Y1203959D01*
X256732Y1203964D01*
X254666Y1207851D01*
X254646Y1207875D01*
X254627Y1207914D01*
X252009Y1211452D01*
X251985Y1211473D01*
X251960Y1211508D01*
X248848Y1214620D01*
X248822Y1214638D01*
X248792Y1214669D01*
X245254Y1217287D01*
X245225Y1217300D01*
X245191Y1217326D01*
X241304Y1219392D01*
X241274Y1219401D01*
X241237Y1219422D01*
X237087Y1220891D01*
X237056Y1220896D01*
X237016Y1220911D01*
X232695Y1221750D01*
X232639Y1221750D01*
X232583Y1221759D01*
X232541Y1221749D01*
X232496Y1221748D01*
X232445Y1221726D01*
X232390Y1221713D01*
X232355Y1221687D01*
X232314Y1221669D01*
X232275Y1221628D01*
X232230Y1221595D01*
X232207Y1221557D01*
X232177Y1221525D01*
X232157Y1221472D01*
X232128Y1221424D01*
X232120Y1221373D01*
X232107Y1221339D01*
X232108Y1221305D01*
X232101Y1221260D01*
X232101Y1210260D01*
X232111Y1210207D01*
X232112Y1210154D01*
X232131Y1210111D01*
X232140Y1210065D01*
X232171Y1210021D01*
X232192Y1209972D01*
X232226Y1209940D01*
X232253Y1209901D01*
X232298Y1209872D01*
X232337Y1209836D01*
X232388Y1209815D01*
X232420Y1209794D01*
X232452Y1209789D01*
X232491Y1209773D01*
X235226Y1209162D01*
X237790Y1208134D01*
X240154Y1206707D01*
X242258Y1204918D01*
X244047Y1202814D01*
X245474Y1200450D01*
X246502Y1197886D01*
X247113Y1195151D01*
X247135Y1195102D01*
X247147Y1195050D01*
X247175Y1195012D01*
X247194Y1194970D01*
X247233Y1194933D01*
X247265Y1194890D01*
X247305Y1194866D01*
X247339Y1194834D01*
X247390Y1194816D01*
X247436Y1194788D01*
X247490Y1194779D01*
X247526Y1194766D01*
X247558Y1194768D01*
X247600Y1194761D01*
X258600Y1194761D01*
X258655Y1194772D01*
G37*
G36*
X720935Y521672D02*
X720935Y521672D01*
X720991Y521673D01*
X721032Y521692D01*
X721075Y521700D01*
X721121Y521732D01*
X721173Y521755D01*
X721202Y521788D01*
X721239Y521813D01*
X721269Y521860D01*
X721307Y521902D01*
X721322Y521943D01*
X721346Y521980D01*
X721355Y522036D01*
X721374Y522089D01*
X721373Y522141D01*
X721379Y522177D01*
X721371Y522209D01*
X721370Y522255D01*
X720531Y526576D01*
X720519Y526605D01*
X720511Y526647D01*
X719042Y530797D01*
X719026Y530824D01*
X719017Y530851D01*
X719015Y530857D01*
X719014Y530859D01*
X719012Y530864D01*
X716946Y534751D01*
X716926Y534775D01*
X716907Y534814D01*
X714289Y538352D01*
X714265Y538373D01*
X714240Y538408D01*
X711128Y541520D01*
X711102Y541538D01*
X711072Y541569D01*
X707534Y544187D01*
X707505Y544200D01*
X707471Y544226D01*
X703584Y546292D01*
X703554Y546301D01*
X703517Y546322D01*
X699367Y547791D01*
X699336Y547796D01*
X699296Y547811D01*
X694975Y548650D01*
X694919Y548650D01*
X694863Y548659D01*
X694821Y548649D01*
X694776Y548648D01*
X694725Y548626D01*
X694670Y548613D01*
X694635Y548587D01*
X694594Y548569D01*
X694555Y548528D01*
X694510Y548495D01*
X694487Y548457D01*
X694457Y548425D01*
X694437Y548372D01*
X694408Y548324D01*
X694400Y548273D01*
X694387Y548239D01*
X694388Y548205D01*
X694381Y548160D01*
X694381Y537160D01*
X694391Y537107D01*
X694392Y537054D01*
X694411Y537011D01*
X694420Y536965D01*
X694451Y536921D01*
X694472Y536872D01*
X694506Y536840D01*
X694533Y536801D01*
X694578Y536772D01*
X694617Y536736D01*
X694668Y536715D01*
X694700Y536694D01*
X694732Y536689D01*
X694771Y536673D01*
X697506Y536062D01*
X700070Y535034D01*
X702434Y533607D01*
X704538Y531818D01*
X706327Y529714D01*
X707754Y527350D01*
X708782Y524786D01*
X709393Y522051D01*
X709415Y522002D01*
X709427Y521950D01*
X709455Y521912D01*
X709474Y521870D01*
X709513Y521833D01*
X709545Y521790D01*
X709585Y521766D01*
X709619Y521734D01*
X709670Y521716D01*
X709716Y521688D01*
X709770Y521679D01*
X709806Y521666D01*
X709838Y521668D01*
X709880Y521661D01*
X720880Y521661D01*
X720935Y521672D01*
G37*
G36*
X258655Y521672D02*
X258655Y521672D01*
X258711Y521673D01*
X258752Y521692D01*
X258795Y521700D01*
X258841Y521732D01*
X258893Y521755D01*
X258922Y521788D01*
X258959Y521813D01*
X258989Y521860D01*
X259027Y521902D01*
X259042Y521943D01*
X259066Y521980D01*
X259075Y522036D01*
X259094Y522089D01*
X259093Y522141D01*
X259099Y522177D01*
X259091Y522209D01*
X259090Y522255D01*
X258251Y526576D01*
X258239Y526605D01*
X258231Y526647D01*
X256762Y530797D01*
X256746Y530824D01*
X256737Y530851D01*
X256735Y530857D01*
X256734Y530859D01*
X256732Y530864D01*
X254666Y534751D01*
X254646Y534775D01*
X254627Y534814D01*
X252009Y538352D01*
X251985Y538373D01*
X251960Y538408D01*
X248848Y541520D01*
X248822Y541538D01*
X248792Y541569D01*
X245254Y544187D01*
X245225Y544200D01*
X245191Y544226D01*
X241304Y546292D01*
X241274Y546301D01*
X241237Y546322D01*
X237087Y547791D01*
X237056Y547796D01*
X237016Y547811D01*
X232695Y548650D01*
X232639Y548650D01*
X232583Y548659D01*
X232541Y548649D01*
X232496Y548648D01*
X232445Y548626D01*
X232390Y548613D01*
X232355Y548587D01*
X232314Y548569D01*
X232275Y548528D01*
X232230Y548495D01*
X232207Y548457D01*
X232177Y548425D01*
X232157Y548372D01*
X232128Y548324D01*
X232120Y548273D01*
X232107Y548239D01*
X232108Y548205D01*
X232101Y548160D01*
X232101Y537160D01*
X232111Y537107D01*
X232112Y537054D01*
X232131Y537011D01*
X232140Y536965D01*
X232171Y536921D01*
X232192Y536872D01*
X232226Y536840D01*
X232253Y536801D01*
X232298Y536772D01*
X232337Y536736D01*
X232388Y536715D01*
X232420Y536694D01*
X232452Y536689D01*
X232491Y536673D01*
X235226Y536062D01*
X237790Y535034D01*
X240154Y533607D01*
X242258Y531818D01*
X244047Y529714D01*
X245474Y527350D01*
X246502Y524786D01*
X247113Y522051D01*
X247135Y522002D01*
X247147Y521950D01*
X247175Y521912D01*
X247194Y521870D01*
X247233Y521833D01*
X247265Y521790D01*
X247305Y521766D01*
X247339Y521734D01*
X247390Y521716D01*
X247436Y521688D01*
X247490Y521679D01*
X247526Y521666D01*
X247558Y521668D01*
X247600Y521661D01*
X258600Y521661D01*
X258655Y521672D01*
G37*
G36*
X1183215Y521672D02*
X1183215Y521672D01*
X1183271Y521673D01*
X1183312Y521692D01*
X1183355Y521700D01*
X1183401Y521732D01*
X1183453Y521755D01*
X1183482Y521788D01*
X1183519Y521813D01*
X1183549Y521860D01*
X1183587Y521902D01*
X1183602Y521943D01*
X1183626Y521980D01*
X1183635Y522036D01*
X1183654Y522089D01*
X1183653Y522141D01*
X1183659Y522177D01*
X1183651Y522209D01*
X1183650Y522255D01*
X1182811Y526576D01*
X1182799Y526605D01*
X1182791Y526647D01*
X1181322Y530797D01*
X1181306Y530824D01*
X1181297Y530851D01*
X1181295Y530857D01*
X1181294Y530859D01*
X1181292Y530864D01*
X1179226Y534751D01*
X1179206Y534775D01*
X1179187Y534814D01*
X1176569Y538352D01*
X1176545Y538373D01*
X1176520Y538408D01*
X1173408Y541520D01*
X1173382Y541538D01*
X1173352Y541569D01*
X1169814Y544187D01*
X1169785Y544200D01*
X1169751Y544226D01*
X1165864Y546292D01*
X1165834Y546301D01*
X1165797Y546322D01*
X1161647Y547791D01*
X1161616Y547796D01*
X1161576Y547811D01*
X1157255Y548650D01*
X1157199Y548650D01*
X1157143Y548659D01*
X1157101Y548649D01*
X1157056Y548648D01*
X1157005Y548626D01*
X1156950Y548613D01*
X1156915Y548587D01*
X1156874Y548569D01*
X1156835Y548528D01*
X1156790Y548495D01*
X1156767Y548457D01*
X1156737Y548425D01*
X1156717Y548372D01*
X1156688Y548324D01*
X1156680Y548273D01*
X1156667Y548239D01*
X1156668Y548205D01*
X1156661Y548160D01*
X1156661Y537160D01*
X1156671Y537107D01*
X1156672Y537054D01*
X1156691Y537011D01*
X1156700Y536965D01*
X1156731Y536921D01*
X1156752Y536872D01*
X1156786Y536840D01*
X1156813Y536801D01*
X1156858Y536772D01*
X1156897Y536736D01*
X1156948Y536715D01*
X1156980Y536694D01*
X1157012Y536689D01*
X1157051Y536673D01*
X1159786Y536062D01*
X1162350Y535034D01*
X1164714Y533607D01*
X1166818Y531818D01*
X1168607Y529714D01*
X1170034Y527350D01*
X1171062Y524786D01*
X1171673Y522051D01*
X1171695Y522002D01*
X1171707Y521950D01*
X1171735Y521912D01*
X1171754Y521870D01*
X1171793Y521833D01*
X1171825Y521790D01*
X1171865Y521766D01*
X1171899Y521734D01*
X1171950Y521716D01*
X1171996Y521688D01*
X1172050Y521679D01*
X1172086Y521666D01*
X1172118Y521668D01*
X1172160Y521661D01*
X1183160Y521661D01*
X1183215Y521672D01*
G37*
G36*
X694929Y1160769D02*
X694929Y1160769D01*
X694975Y1160770D01*
X699296Y1161609D01*
X699325Y1161621D01*
X699367Y1161629D01*
X703517Y1163098D01*
X703544Y1163114D01*
X703584Y1163128D01*
X707471Y1165194D01*
X707495Y1165214D01*
X707534Y1165233D01*
X711072Y1167851D01*
X711093Y1167875D01*
X711128Y1167900D01*
X714240Y1171012D01*
X714258Y1171039D01*
X714289Y1171068D01*
X716907Y1174607D01*
X716920Y1174635D01*
X716946Y1174669D01*
X719012Y1178556D01*
X719021Y1178586D01*
X719042Y1178623D01*
X720511Y1182773D01*
X720516Y1182804D01*
X720531Y1182844D01*
X721370Y1187165D01*
X721370Y1187221D01*
X721379Y1187277D01*
X721369Y1187319D01*
X721368Y1187364D01*
X721346Y1187415D01*
X721333Y1187470D01*
X721307Y1187506D01*
X721289Y1187546D01*
X721248Y1187585D01*
X721215Y1187630D01*
X721177Y1187653D01*
X721145Y1187683D01*
X721092Y1187703D01*
X721044Y1187732D01*
X720993Y1187740D01*
X720959Y1187753D01*
X720925Y1187752D01*
X720880Y1187759D01*
X709880Y1187759D01*
X709827Y1187749D01*
X709774Y1187748D01*
X709731Y1187729D01*
X709685Y1187720D01*
X709641Y1187689D01*
X709592Y1187668D01*
X709560Y1187634D01*
X709521Y1187607D01*
X709492Y1187562D01*
X709456Y1187523D01*
X709435Y1187472D01*
X709414Y1187440D01*
X709409Y1187408D01*
X709406Y1187402D01*
X709405Y1187401D01*
X709405Y1187400D01*
X709393Y1187369D01*
X708782Y1184634D01*
X707754Y1182070D01*
X706327Y1179706D01*
X704538Y1177602D01*
X702434Y1175813D01*
X700070Y1174386D01*
X697506Y1173358D01*
X694771Y1172747D01*
X694722Y1172725D01*
X694670Y1172713D01*
X694632Y1172685D01*
X694590Y1172666D01*
X694553Y1172627D01*
X694510Y1172595D01*
X694486Y1172555D01*
X694454Y1172521D01*
X694436Y1172470D01*
X694408Y1172424D01*
X694399Y1172370D01*
X694386Y1172334D01*
X694388Y1172302D01*
X694381Y1172260D01*
X694381Y1161260D01*
X694392Y1161205D01*
X694393Y1161149D01*
X694412Y1161108D01*
X694420Y1161065D01*
X694452Y1161019D01*
X694475Y1160968D01*
X694508Y1160938D01*
X694533Y1160901D01*
X694580Y1160871D01*
X694622Y1160833D01*
X694663Y1160818D01*
X694700Y1160794D01*
X694756Y1160785D01*
X694809Y1160766D01*
X694861Y1160767D01*
X694897Y1160761D01*
X694929Y1160769D01*
G37*
G36*
X1157209Y1160769D02*
X1157209Y1160769D01*
X1157255Y1160770D01*
X1161576Y1161609D01*
X1161605Y1161621D01*
X1161647Y1161629D01*
X1165797Y1163098D01*
X1165824Y1163114D01*
X1165864Y1163128D01*
X1169751Y1165194D01*
X1169775Y1165214D01*
X1169814Y1165233D01*
X1173352Y1167851D01*
X1173373Y1167875D01*
X1173408Y1167900D01*
X1176520Y1171012D01*
X1176538Y1171039D01*
X1176569Y1171068D01*
X1179187Y1174607D01*
X1179200Y1174635D01*
X1179226Y1174669D01*
X1181292Y1178556D01*
X1181301Y1178586D01*
X1181322Y1178623D01*
X1182791Y1182773D01*
X1182796Y1182804D01*
X1182811Y1182844D01*
X1183650Y1187165D01*
X1183650Y1187221D01*
X1183659Y1187277D01*
X1183649Y1187319D01*
X1183648Y1187364D01*
X1183626Y1187415D01*
X1183613Y1187470D01*
X1183587Y1187506D01*
X1183569Y1187546D01*
X1183528Y1187585D01*
X1183495Y1187630D01*
X1183457Y1187653D01*
X1183425Y1187683D01*
X1183372Y1187703D01*
X1183324Y1187732D01*
X1183273Y1187740D01*
X1183239Y1187753D01*
X1183205Y1187752D01*
X1183160Y1187759D01*
X1172160Y1187759D01*
X1172107Y1187749D01*
X1172054Y1187748D01*
X1172011Y1187729D01*
X1171965Y1187720D01*
X1171921Y1187689D01*
X1171872Y1187668D01*
X1171840Y1187634D01*
X1171801Y1187607D01*
X1171772Y1187562D01*
X1171736Y1187523D01*
X1171715Y1187472D01*
X1171694Y1187440D01*
X1171689Y1187408D01*
X1171686Y1187402D01*
X1171685Y1187401D01*
X1171685Y1187400D01*
X1171673Y1187369D01*
X1171062Y1184634D01*
X1170034Y1182070D01*
X1168607Y1179706D01*
X1166818Y1177602D01*
X1164714Y1175813D01*
X1162350Y1174386D01*
X1159786Y1173358D01*
X1157051Y1172747D01*
X1157002Y1172725D01*
X1156950Y1172713D01*
X1156912Y1172685D01*
X1156870Y1172666D01*
X1156833Y1172627D01*
X1156790Y1172595D01*
X1156766Y1172555D01*
X1156734Y1172521D01*
X1156716Y1172470D01*
X1156688Y1172424D01*
X1156679Y1172370D01*
X1156666Y1172334D01*
X1156668Y1172302D01*
X1156661Y1172260D01*
X1156661Y1161260D01*
X1156672Y1161205D01*
X1156673Y1161149D01*
X1156692Y1161108D01*
X1156700Y1161065D01*
X1156732Y1161019D01*
X1156755Y1160968D01*
X1156788Y1160938D01*
X1156813Y1160901D01*
X1156860Y1160871D01*
X1156902Y1160833D01*
X1156943Y1160818D01*
X1156980Y1160794D01*
X1157036Y1160785D01*
X1157089Y1160766D01*
X1157141Y1160767D01*
X1157177Y1160761D01*
X1157209Y1160769D01*
G37*
G36*
X232649Y1160769D02*
X232649Y1160769D01*
X232695Y1160770D01*
X237016Y1161609D01*
X237045Y1161621D01*
X237087Y1161629D01*
X241237Y1163098D01*
X241264Y1163114D01*
X241304Y1163128D01*
X245191Y1165194D01*
X245215Y1165214D01*
X245254Y1165233D01*
X248792Y1167851D01*
X248813Y1167875D01*
X248848Y1167900D01*
X251960Y1171012D01*
X251978Y1171039D01*
X252009Y1171068D01*
X254627Y1174607D01*
X254640Y1174635D01*
X254666Y1174669D01*
X256732Y1178556D01*
X256741Y1178586D01*
X256762Y1178623D01*
X258231Y1182773D01*
X258236Y1182804D01*
X258251Y1182844D01*
X259090Y1187165D01*
X259090Y1187221D01*
X259099Y1187277D01*
X259089Y1187319D01*
X259088Y1187364D01*
X259066Y1187415D01*
X259053Y1187470D01*
X259027Y1187506D01*
X259009Y1187546D01*
X258968Y1187585D01*
X258935Y1187630D01*
X258897Y1187653D01*
X258865Y1187683D01*
X258812Y1187703D01*
X258764Y1187732D01*
X258713Y1187740D01*
X258679Y1187753D01*
X258645Y1187752D01*
X258600Y1187759D01*
X247600Y1187759D01*
X247547Y1187749D01*
X247494Y1187748D01*
X247451Y1187729D01*
X247405Y1187720D01*
X247361Y1187689D01*
X247312Y1187668D01*
X247280Y1187634D01*
X247241Y1187607D01*
X247212Y1187562D01*
X247176Y1187523D01*
X247155Y1187472D01*
X247134Y1187440D01*
X247129Y1187408D01*
X247126Y1187402D01*
X247125Y1187401D01*
X247125Y1187400D01*
X247113Y1187369D01*
X246502Y1184634D01*
X245474Y1182070D01*
X244047Y1179706D01*
X242258Y1177602D01*
X240154Y1175813D01*
X237790Y1174386D01*
X235226Y1173358D01*
X232491Y1172747D01*
X232442Y1172725D01*
X232390Y1172713D01*
X232352Y1172685D01*
X232310Y1172666D01*
X232273Y1172627D01*
X232230Y1172595D01*
X232206Y1172555D01*
X232174Y1172521D01*
X232156Y1172470D01*
X232128Y1172424D01*
X232119Y1172370D01*
X232106Y1172334D01*
X232108Y1172302D01*
X232101Y1172260D01*
X232101Y1161260D01*
X232112Y1161205D01*
X232113Y1161149D01*
X232132Y1161108D01*
X232140Y1161065D01*
X232172Y1161019D01*
X232195Y1160968D01*
X232228Y1160938D01*
X232253Y1160901D01*
X232300Y1160871D01*
X232342Y1160833D01*
X232383Y1160818D01*
X232420Y1160794D01*
X232476Y1160785D01*
X232529Y1160766D01*
X232581Y1160767D01*
X232617Y1160761D01*
X232649Y1160769D01*
G37*
G36*
X1157209Y487669D02*
X1157209Y487669D01*
X1157255Y487670D01*
X1161576Y488509D01*
X1161605Y488521D01*
X1161647Y488529D01*
X1165797Y489998D01*
X1165824Y490014D01*
X1165864Y490028D01*
X1169751Y492094D01*
X1169775Y492114D01*
X1169814Y492133D01*
X1173352Y494751D01*
X1173373Y494775D01*
X1173408Y494800D01*
X1176520Y497912D01*
X1176538Y497939D01*
X1176569Y497968D01*
X1179187Y501507D01*
X1179200Y501535D01*
X1179226Y501569D01*
X1181292Y505456D01*
X1181301Y505486D01*
X1181322Y505523D01*
X1182791Y509673D01*
X1182796Y509704D01*
X1182811Y509744D01*
X1183650Y514065D01*
X1183650Y514121D01*
X1183659Y514177D01*
X1183649Y514219D01*
X1183648Y514264D01*
X1183626Y514315D01*
X1183613Y514370D01*
X1183587Y514406D01*
X1183569Y514446D01*
X1183528Y514485D01*
X1183495Y514530D01*
X1183457Y514553D01*
X1183425Y514583D01*
X1183372Y514603D01*
X1183324Y514632D01*
X1183273Y514640D01*
X1183239Y514653D01*
X1183205Y514652D01*
X1183160Y514659D01*
X1172160Y514659D01*
X1172107Y514649D01*
X1172054Y514648D01*
X1172011Y514629D01*
X1171965Y514620D01*
X1171921Y514589D01*
X1171872Y514568D01*
X1171840Y514534D01*
X1171801Y514507D01*
X1171772Y514462D01*
X1171736Y514423D01*
X1171715Y514372D01*
X1171694Y514340D01*
X1171689Y514308D01*
X1171686Y514302D01*
X1171685Y514301D01*
X1171685Y514300D01*
X1171673Y514269D01*
X1171062Y511534D01*
X1170034Y508970D01*
X1168607Y506606D01*
X1166818Y504502D01*
X1164714Y502713D01*
X1162350Y501286D01*
X1159786Y500258D01*
X1157051Y499647D01*
X1157002Y499625D01*
X1156950Y499613D01*
X1156912Y499585D01*
X1156870Y499566D01*
X1156833Y499527D01*
X1156790Y499495D01*
X1156766Y499455D01*
X1156734Y499421D01*
X1156716Y499370D01*
X1156688Y499324D01*
X1156679Y499270D01*
X1156666Y499234D01*
X1156668Y499202D01*
X1156661Y499160D01*
X1156661Y488160D01*
X1156672Y488105D01*
X1156673Y488049D01*
X1156692Y488008D01*
X1156700Y487965D01*
X1156732Y487919D01*
X1156755Y487868D01*
X1156788Y487838D01*
X1156813Y487801D01*
X1156860Y487771D01*
X1156902Y487733D01*
X1156943Y487718D01*
X1156980Y487694D01*
X1157036Y487685D01*
X1157089Y487666D01*
X1157141Y487667D01*
X1157177Y487661D01*
X1157209Y487669D01*
G37*
G36*
X694929Y487669D02*
X694929Y487669D01*
X694975Y487670D01*
X699296Y488509D01*
X699325Y488521D01*
X699367Y488529D01*
X703517Y489998D01*
X703544Y490014D01*
X703584Y490028D01*
X707471Y492094D01*
X707495Y492114D01*
X707534Y492133D01*
X711072Y494751D01*
X711093Y494775D01*
X711128Y494800D01*
X714240Y497912D01*
X714258Y497939D01*
X714289Y497968D01*
X716907Y501507D01*
X716920Y501535D01*
X716946Y501569D01*
X719012Y505456D01*
X719021Y505486D01*
X719042Y505523D01*
X720511Y509673D01*
X720516Y509704D01*
X720531Y509744D01*
X721370Y514065D01*
X721370Y514121D01*
X721379Y514177D01*
X721369Y514219D01*
X721368Y514264D01*
X721346Y514315D01*
X721333Y514370D01*
X721307Y514406D01*
X721289Y514446D01*
X721248Y514485D01*
X721215Y514530D01*
X721177Y514553D01*
X721145Y514583D01*
X721092Y514603D01*
X721044Y514632D01*
X720993Y514640D01*
X720959Y514653D01*
X720925Y514652D01*
X720880Y514659D01*
X709880Y514659D01*
X709827Y514649D01*
X709774Y514648D01*
X709731Y514629D01*
X709685Y514620D01*
X709641Y514589D01*
X709592Y514568D01*
X709560Y514534D01*
X709521Y514507D01*
X709492Y514462D01*
X709456Y514423D01*
X709435Y514372D01*
X709414Y514340D01*
X709409Y514308D01*
X709406Y514302D01*
X709405Y514301D01*
X709405Y514300D01*
X709393Y514269D01*
X708782Y511534D01*
X707754Y508970D01*
X706327Y506606D01*
X704538Y504502D01*
X702434Y502713D01*
X700070Y501286D01*
X697506Y500258D01*
X694771Y499647D01*
X694722Y499625D01*
X694670Y499613D01*
X694632Y499585D01*
X694590Y499566D01*
X694553Y499527D01*
X694510Y499495D01*
X694486Y499455D01*
X694454Y499421D01*
X694436Y499370D01*
X694408Y499324D01*
X694399Y499270D01*
X694386Y499234D01*
X694388Y499202D01*
X694381Y499160D01*
X694381Y488160D01*
X694392Y488105D01*
X694393Y488049D01*
X694412Y488008D01*
X694420Y487965D01*
X694452Y487919D01*
X694475Y487868D01*
X694508Y487838D01*
X694533Y487801D01*
X694580Y487771D01*
X694622Y487733D01*
X694663Y487718D01*
X694700Y487694D01*
X694756Y487685D01*
X694809Y487666D01*
X694861Y487667D01*
X694897Y487661D01*
X694929Y487669D01*
G37*
G36*
X232649Y487669D02*
X232649Y487669D01*
X232695Y487670D01*
X237016Y488509D01*
X237045Y488521D01*
X237087Y488529D01*
X241237Y489998D01*
X241264Y490014D01*
X241304Y490028D01*
X245191Y492094D01*
X245215Y492114D01*
X245254Y492133D01*
X248792Y494751D01*
X248813Y494775D01*
X248848Y494800D01*
X251960Y497912D01*
X251978Y497939D01*
X252009Y497968D01*
X254627Y501507D01*
X254640Y501535D01*
X254666Y501569D01*
X256732Y505456D01*
X256741Y505486D01*
X256762Y505523D01*
X258231Y509673D01*
X258236Y509704D01*
X258251Y509744D01*
X259090Y514065D01*
X259090Y514121D01*
X259099Y514177D01*
X259089Y514219D01*
X259088Y514264D01*
X259066Y514315D01*
X259053Y514370D01*
X259027Y514406D01*
X259009Y514446D01*
X258968Y514485D01*
X258935Y514530D01*
X258897Y514553D01*
X258865Y514583D01*
X258812Y514603D01*
X258764Y514632D01*
X258713Y514640D01*
X258679Y514653D01*
X258645Y514652D01*
X258600Y514659D01*
X247600Y514659D01*
X247547Y514649D01*
X247494Y514648D01*
X247451Y514629D01*
X247405Y514620D01*
X247361Y514589D01*
X247312Y514568D01*
X247280Y514534D01*
X247241Y514507D01*
X247212Y514462D01*
X247176Y514423D01*
X247155Y514372D01*
X247134Y514340D01*
X247129Y514308D01*
X247126Y514302D01*
X247125Y514301D01*
X247125Y514300D01*
X247113Y514269D01*
X246502Y511534D01*
X245474Y508970D01*
X244047Y506606D01*
X242258Y504502D01*
X240154Y502713D01*
X237790Y501286D01*
X235226Y500258D01*
X232491Y499647D01*
X232442Y499625D01*
X232390Y499613D01*
X232352Y499585D01*
X232310Y499566D01*
X232273Y499527D01*
X232230Y499495D01*
X232206Y499455D01*
X232174Y499421D01*
X232156Y499370D01*
X232128Y499324D01*
X232119Y499270D01*
X232106Y499234D01*
X232108Y499202D01*
X232101Y499160D01*
X232101Y488160D01*
X232112Y488105D01*
X232113Y488049D01*
X232132Y488008D01*
X232140Y487965D01*
X232172Y487919D01*
X232195Y487868D01*
X232228Y487838D01*
X232253Y487801D01*
X232300Y487771D01*
X232342Y487733D01*
X232383Y487718D01*
X232420Y487694D01*
X232476Y487685D01*
X232529Y487666D01*
X232581Y487667D01*
X232617Y487661D01*
X232649Y487669D01*
G37*
G36*
X271600Y717051D02*
X271600Y717051D01*
X271601Y717051D01*
X272669Y717070D01*
X272676Y717075D01*
X272680Y717071D01*
X273717Y717327D01*
X273722Y717334D01*
X273728Y717331D01*
X274682Y717812D01*
X274686Y717819D01*
X274691Y717818D01*
X275515Y718499D01*
X275516Y718507D01*
X275522Y718507D01*
X276173Y719354D01*
X276173Y719362D01*
X276179Y719363D01*
X276626Y720334D01*
X276624Y720342D01*
X276629Y720344D01*
X276848Y721390D01*
X276845Y721397D01*
X276849Y721400D01*
X276849Y733400D01*
X276846Y733405D01*
X276849Y733408D01*
X276669Y734503D01*
X276663Y734509D01*
X276666Y734514D01*
X276247Y735542D01*
X276240Y735546D01*
X276242Y735551D01*
X275605Y736460D01*
X275597Y736463D01*
X275597Y736468D01*
X274774Y737212D01*
X274766Y737213D01*
X274765Y737219D01*
X273797Y737761D01*
X273788Y737760D01*
X273786Y737766D01*
X272722Y738079D01*
X272717Y738077D01*
X272713Y738077D01*
X272711Y738081D01*
X271603Y738149D01*
X271597Y738145D01*
X271593Y738149D01*
X270485Y737979D01*
X270479Y737973D01*
X270474Y737976D01*
X269432Y737564D01*
X269428Y737557D01*
X269423Y737559D01*
X268498Y736925D01*
X268496Y736917D01*
X268490Y736918D01*
X267730Y736095D01*
X267729Y736086D01*
X267723Y736086D01*
X267166Y735114D01*
X267167Y735106D01*
X267161Y735104D01*
X266834Y734032D01*
X266837Y734024D01*
X266832Y734021D01*
X266751Y732904D01*
X266752Y732901D01*
X266751Y732900D01*
X266751Y720900D01*
X266756Y720893D01*
X266752Y720889D01*
X266971Y719945D01*
X266977Y719939D01*
X266975Y719934D01*
X267399Y719062D01*
X267406Y719059D01*
X267404Y719053D01*
X268011Y718297D01*
X268019Y718295D01*
X268019Y718289D01*
X268779Y717688D01*
X268788Y717688D01*
X268789Y717682D01*
X269664Y717264D01*
X269672Y717266D01*
X269674Y717261D01*
X270620Y717049D01*
X270627Y717052D01*
X270631Y717047D01*
X271600Y717051D01*
G37*
G36*
X733880Y717051D02*
X733880Y717051D01*
X733881Y717051D01*
X734949Y717070D01*
X734956Y717075D01*
X734960Y717071D01*
X735997Y717327D01*
X736002Y717334D01*
X736008Y717331D01*
X736962Y717812D01*
X736966Y717819D01*
X736971Y717818D01*
X737795Y718499D01*
X737796Y718507D01*
X737802Y718507D01*
X738453Y719354D01*
X738453Y719362D01*
X738459Y719363D01*
X738906Y720334D01*
X738904Y720342D01*
X738909Y720344D01*
X739128Y721390D01*
X739125Y721397D01*
X739129Y721400D01*
X739129Y733400D01*
X739126Y733405D01*
X739129Y733408D01*
X738949Y734503D01*
X738943Y734509D01*
X738946Y734514D01*
X738527Y735542D01*
X738520Y735546D01*
X738522Y735551D01*
X737885Y736460D01*
X737877Y736463D01*
X737877Y736468D01*
X737054Y737212D01*
X737046Y737213D01*
X737045Y737219D01*
X736077Y737761D01*
X736068Y737760D01*
X736066Y737766D01*
X735002Y738079D01*
X734997Y738077D01*
X734993Y738077D01*
X734991Y738081D01*
X733883Y738149D01*
X733877Y738145D01*
X733873Y738149D01*
X732765Y737979D01*
X732759Y737973D01*
X732754Y737976D01*
X731712Y737564D01*
X731708Y737557D01*
X731703Y737559D01*
X730778Y736925D01*
X730776Y736917D01*
X730770Y736918D01*
X730010Y736095D01*
X730009Y736086D01*
X730003Y736086D01*
X729446Y735114D01*
X729447Y735106D01*
X729441Y735104D01*
X729114Y734032D01*
X729117Y734024D01*
X729112Y734021D01*
X729031Y732904D01*
X729032Y732901D01*
X729031Y732900D01*
X729031Y720900D01*
X729036Y720893D01*
X729032Y720889D01*
X729251Y719945D01*
X729257Y719939D01*
X729255Y719934D01*
X729679Y719062D01*
X729686Y719059D01*
X729684Y719053D01*
X730291Y718297D01*
X730299Y718295D01*
X730299Y718289D01*
X731059Y717688D01*
X731068Y717688D01*
X731069Y717682D01*
X731944Y717264D01*
X731952Y717266D01*
X731954Y717261D01*
X732900Y717049D01*
X732907Y717052D01*
X732911Y717047D01*
X733880Y717051D01*
G37*
G36*
X1196160Y717051D02*
X1196160Y717051D01*
X1196161Y717051D01*
X1197229Y717070D01*
X1197236Y717075D01*
X1197240Y717071D01*
X1198277Y717327D01*
X1198282Y717334D01*
X1198288Y717331D01*
X1199242Y717812D01*
X1199246Y717819D01*
X1199251Y717818D01*
X1200075Y718499D01*
X1200076Y718507D01*
X1200082Y718507D01*
X1200733Y719354D01*
X1200733Y719362D01*
X1200739Y719363D01*
X1201186Y720334D01*
X1201184Y720342D01*
X1201189Y720344D01*
X1201408Y721390D01*
X1201405Y721397D01*
X1201409Y721400D01*
X1201409Y733400D01*
X1201406Y733405D01*
X1201409Y733408D01*
X1201229Y734503D01*
X1201223Y734509D01*
X1201226Y734514D01*
X1200807Y735542D01*
X1200800Y735546D01*
X1200802Y735551D01*
X1200165Y736460D01*
X1200157Y736463D01*
X1200157Y736468D01*
X1199334Y737212D01*
X1199326Y737213D01*
X1199325Y737219D01*
X1198357Y737761D01*
X1198348Y737760D01*
X1198346Y737766D01*
X1197282Y738079D01*
X1197277Y738077D01*
X1197273Y738077D01*
X1197271Y738081D01*
X1196163Y738149D01*
X1196157Y738145D01*
X1196153Y738149D01*
X1195045Y737979D01*
X1195039Y737973D01*
X1195034Y737976D01*
X1193992Y737564D01*
X1193988Y737557D01*
X1193983Y737559D01*
X1193058Y736925D01*
X1193056Y736917D01*
X1193050Y736918D01*
X1192290Y736095D01*
X1192289Y736086D01*
X1192283Y736086D01*
X1191726Y735114D01*
X1191727Y735106D01*
X1191721Y735104D01*
X1191394Y734032D01*
X1191397Y734024D01*
X1191392Y734021D01*
X1191311Y732904D01*
X1191312Y732901D01*
X1191311Y732900D01*
X1191311Y720900D01*
X1191316Y720893D01*
X1191312Y720889D01*
X1191531Y719945D01*
X1191537Y719939D01*
X1191535Y719934D01*
X1191959Y719062D01*
X1191966Y719059D01*
X1191964Y719053D01*
X1192571Y718297D01*
X1192579Y718295D01*
X1192579Y718289D01*
X1193339Y717688D01*
X1193348Y717688D01*
X1193349Y717682D01*
X1194224Y717264D01*
X1194232Y717266D01*
X1194234Y717261D01*
X1195180Y717049D01*
X1195187Y717052D01*
X1195191Y717047D01*
X1196160Y717051D01*
G37*
G36*
X733880Y43951D02*
X733880Y43951D01*
X733881Y43951D01*
X734949Y43970D01*
X734956Y43975D01*
X734960Y43971D01*
X735997Y44227D01*
X736002Y44234D01*
X736008Y44231D01*
X736962Y44712D01*
X736966Y44719D01*
X736971Y44718D01*
X737795Y45399D01*
X737796Y45407D01*
X737802Y45407D01*
X738453Y46254D01*
X738453Y46262D01*
X738459Y46263D01*
X738906Y47234D01*
X738904Y47242D01*
X738909Y47244D01*
X739128Y48290D01*
X739125Y48297D01*
X739129Y48300D01*
X739129Y60300D01*
X739126Y60305D01*
X739129Y60308D01*
X738949Y61403D01*
X738943Y61409D01*
X738946Y61414D01*
X738527Y62442D01*
X738520Y62446D01*
X738522Y62451D01*
X737885Y63360D01*
X737877Y63363D01*
X737877Y63368D01*
X737054Y64112D01*
X737046Y64113D01*
X737045Y64119D01*
X736077Y64661D01*
X736068Y64660D01*
X736066Y64666D01*
X735002Y64979D01*
X734997Y64977D01*
X734993Y64977D01*
X734991Y64981D01*
X733883Y65049D01*
X733877Y65045D01*
X733873Y65049D01*
X732765Y64879D01*
X732759Y64873D01*
X732754Y64876D01*
X731712Y64464D01*
X731708Y64457D01*
X731703Y64459D01*
X730778Y63825D01*
X730776Y63817D01*
X730770Y63818D01*
X730010Y62995D01*
X730009Y62986D01*
X730003Y62986D01*
X729446Y62014D01*
X729447Y62006D01*
X729441Y62004D01*
X729114Y60932D01*
X729117Y60924D01*
X729112Y60921D01*
X729031Y59804D01*
X729032Y59801D01*
X729031Y59800D01*
X729031Y47800D01*
X729036Y47793D01*
X729032Y47789D01*
X729251Y46845D01*
X729257Y46839D01*
X729255Y46834D01*
X729679Y45962D01*
X729686Y45959D01*
X729684Y45953D01*
X730291Y45197D01*
X730299Y45195D01*
X730299Y45189D01*
X731059Y44588D01*
X731068Y44588D01*
X731069Y44582D01*
X731944Y44164D01*
X731952Y44166D01*
X731954Y44161D01*
X732900Y43949D01*
X732907Y43952D01*
X732911Y43947D01*
X733880Y43951D01*
G37*
G36*
X1196160Y43951D02*
X1196160Y43951D01*
X1196161Y43951D01*
X1197229Y43970D01*
X1197236Y43975D01*
X1197240Y43971D01*
X1198277Y44227D01*
X1198282Y44234D01*
X1198288Y44231D01*
X1199242Y44712D01*
X1199246Y44719D01*
X1199251Y44718D01*
X1200075Y45399D01*
X1200076Y45407D01*
X1200082Y45407D01*
X1200733Y46254D01*
X1200733Y46262D01*
X1200739Y46263D01*
X1201186Y47234D01*
X1201184Y47242D01*
X1201189Y47244D01*
X1201408Y48290D01*
X1201405Y48297D01*
X1201409Y48300D01*
X1201409Y60300D01*
X1201406Y60305D01*
X1201409Y60308D01*
X1201229Y61403D01*
X1201223Y61409D01*
X1201226Y61414D01*
X1200807Y62442D01*
X1200800Y62446D01*
X1200802Y62451D01*
X1200165Y63360D01*
X1200157Y63363D01*
X1200157Y63368D01*
X1199334Y64112D01*
X1199326Y64113D01*
X1199325Y64119D01*
X1198357Y64661D01*
X1198348Y64660D01*
X1198346Y64666D01*
X1197282Y64979D01*
X1197277Y64977D01*
X1197273Y64977D01*
X1197271Y64981D01*
X1196163Y65049D01*
X1196157Y65045D01*
X1196153Y65049D01*
X1195045Y64879D01*
X1195039Y64873D01*
X1195034Y64876D01*
X1193992Y64464D01*
X1193988Y64457D01*
X1193983Y64459D01*
X1193058Y63825D01*
X1193056Y63817D01*
X1193050Y63818D01*
X1192290Y62995D01*
X1192289Y62986D01*
X1192283Y62986D01*
X1191726Y62014D01*
X1191727Y62006D01*
X1191721Y62004D01*
X1191394Y60932D01*
X1191397Y60924D01*
X1191392Y60921D01*
X1191311Y59804D01*
X1191312Y59801D01*
X1191311Y59800D01*
X1191311Y47800D01*
X1191316Y47793D01*
X1191312Y47789D01*
X1191531Y46845D01*
X1191537Y46839D01*
X1191535Y46834D01*
X1191959Y45962D01*
X1191966Y45959D01*
X1191964Y45953D01*
X1192571Y45197D01*
X1192579Y45195D01*
X1192579Y45189D01*
X1193339Y44588D01*
X1193348Y44588D01*
X1193349Y44582D01*
X1194224Y44164D01*
X1194232Y44166D01*
X1194234Y44161D01*
X1195180Y43949D01*
X1195187Y43952D01*
X1195191Y43947D01*
X1196160Y43951D01*
G37*
G36*
X271600Y43951D02*
X271600Y43951D01*
X271601Y43951D01*
X272669Y43970D01*
X272676Y43975D01*
X272680Y43971D01*
X273717Y44227D01*
X273722Y44234D01*
X273728Y44231D01*
X274682Y44712D01*
X274686Y44719D01*
X274691Y44718D01*
X275515Y45399D01*
X275516Y45407D01*
X275522Y45407D01*
X276173Y46254D01*
X276173Y46262D01*
X276179Y46263D01*
X276626Y47234D01*
X276624Y47242D01*
X276629Y47244D01*
X276848Y48290D01*
X276845Y48297D01*
X276849Y48300D01*
X276849Y60300D01*
X276846Y60305D01*
X276849Y60308D01*
X276669Y61403D01*
X276663Y61409D01*
X276666Y61414D01*
X276247Y62442D01*
X276240Y62446D01*
X276242Y62451D01*
X275605Y63360D01*
X275597Y63363D01*
X275597Y63368D01*
X274774Y64112D01*
X274766Y64113D01*
X274765Y64119D01*
X273797Y64661D01*
X273788Y64660D01*
X273786Y64666D01*
X272722Y64979D01*
X272717Y64977D01*
X272713Y64977D01*
X272711Y64981D01*
X271603Y65049D01*
X271597Y65045D01*
X271593Y65049D01*
X270485Y64879D01*
X270479Y64873D01*
X270474Y64876D01*
X269432Y64464D01*
X269428Y64457D01*
X269423Y64459D01*
X268498Y63825D01*
X268496Y63817D01*
X268490Y63818D01*
X267730Y62995D01*
X267729Y62986D01*
X267723Y62986D01*
X267166Y62014D01*
X267167Y62006D01*
X267161Y62004D01*
X266834Y60932D01*
X266837Y60924D01*
X266832Y60921D01*
X266751Y59804D01*
X266752Y59801D01*
X266751Y59800D01*
X266751Y47800D01*
X266756Y47793D01*
X266752Y47789D01*
X266971Y46845D01*
X266977Y46839D01*
X266975Y46834D01*
X267399Y45962D01*
X267406Y45959D01*
X267404Y45953D01*
X268011Y45197D01*
X268019Y45195D01*
X268019Y45189D01*
X268779Y44588D01*
X268788Y44588D01*
X268789Y44582D01*
X269664Y44164D01*
X269672Y44166D01*
X269674Y44161D01*
X270620Y43949D01*
X270627Y43952D01*
X270631Y43947D01*
X271600Y43951D01*
G37*
G36*
X186181Y717060D02*
X186181Y717060D01*
X186188Y717065D01*
X186192Y717061D01*
X187244Y717311D01*
X187249Y717317D01*
X187254Y717314D01*
X188224Y717791D01*
X188227Y717799D01*
X188233Y717797D01*
X189072Y718478D01*
X189074Y718486D01*
X189080Y718486D01*
X189746Y719337D01*
X189747Y719345D01*
X189752Y719346D01*
X190213Y720323D01*
X190211Y720331D01*
X190217Y720334D01*
X190448Y721389D01*
X190445Y721397D01*
X190449Y721400D01*
X190449Y733400D01*
X190445Y733405D01*
X190449Y733408D01*
X190256Y734514D01*
X190250Y734519D01*
X190253Y734524D01*
X189820Y735559D01*
X189813Y735563D01*
X189815Y735568D01*
X189162Y736481D01*
X189154Y736483D01*
X189155Y736489D01*
X188316Y737233D01*
X188307Y737234D01*
X188307Y737239D01*
X187323Y737778D01*
X187315Y737777D01*
X187313Y737782D01*
X186234Y738089D01*
X186226Y738086D01*
X186223Y738091D01*
X185103Y738149D01*
X185098Y738146D01*
X185095Y738149D01*
X184049Y738031D01*
X184043Y738025D01*
X184038Y738029D01*
X183044Y737681D01*
X183040Y737674D01*
X183035Y737676D01*
X182143Y737116D01*
X182141Y737109D01*
X182135Y737109D01*
X181391Y736365D01*
X181389Y736357D01*
X181384Y736357D01*
X180824Y735465D01*
X180824Y735457D01*
X180819Y735456D01*
X180471Y734462D01*
X180474Y734454D01*
X180469Y734451D01*
X180351Y733406D01*
X180353Y733402D01*
X180351Y733400D01*
X180351Y721400D01*
X180354Y721395D01*
X180351Y721392D01*
X180509Y720396D01*
X180515Y720390D01*
X180512Y720385D01*
X180887Y719449D01*
X180894Y719445D01*
X180892Y719439D01*
X181466Y718610D01*
X181474Y718607D01*
X181473Y718602D01*
X182217Y717921D01*
X182226Y717920D01*
X182226Y717914D01*
X183103Y717416D01*
X183112Y717417D01*
X183114Y717412D01*
X184079Y717121D01*
X184087Y717124D01*
X184090Y717119D01*
X185097Y717051D01*
X185099Y717052D01*
X185100Y717051D01*
X186181Y717060D01*
G37*
G36*
X1110741Y717060D02*
X1110741Y717060D01*
X1110748Y717065D01*
X1110752Y717061D01*
X1111804Y717311D01*
X1111809Y717317D01*
X1111814Y717314D01*
X1112784Y717791D01*
X1112787Y717799D01*
X1112793Y717797D01*
X1113632Y718478D01*
X1113634Y718486D01*
X1113640Y718486D01*
X1114306Y719337D01*
X1114307Y719345D01*
X1114312Y719346D01*
X1114773Y720323D01*
X1114771Y720331D01*
X1114777Y720334D01*
X1115008Y721389D01*
X1115005Y721397D01*
X1115009Y721400D01*
X1115009Y733400D01*
X1115005Y733405D01*
X1115009Y733408D01*
X1114816Y734514D01*
X1114810Y734519D01*
X1114813Y734524D01*
X1114380Y735559D01*
X1114373Y735563D01*
X1114375Y735568D01*
X1113722Y736481D01*
X1113714Y736483D01*
X1113715Y736489D01*
X1112876Y737233D01*
X1112867Y737234D01*
X1112867Y737239D01*
X1111883Y737778D01*
X1111875Y737777D01*
X1111873Y737782D01*
X1110794Y738089D01*
X1110786Y738086D01*
X1110783Y738091D01*
X1109663Y738149D01*
X1109658Y738146D01*
X1109655Y738149D01*
X1108609Y738031D01*
X1108603Y738025D01*
X1108598Y738029D01*
X1107604Y737681D01*
X1107600Y737674D01*
X1107595Y737676D01*
X1106703Y737116D01*
X1106701Y737109D01*
X1106695Y737109D01*
X1105951Y736365D01*
X1105949Y736357D01*
X1105944Y736357D01*
X1105384Y735465D01*
X1105384Y735457D01*
X1105379Y735456D01*
X1105031Y734462D01*
X1105034Y734454D01*
X1105029Y734451D01*
X1104911Y733406D01*
X1104913Y733402D01*
X1104911Y733400D01*
X1104911Y721400D01*
X1104914Y721395D01*
X1104911Y721392D01*
X1105069Y720396D01*
X1105075Y720390D01*
X1105072Y720385D01*
X1105447Y719449D01*
X1105454Y719445D01*
X1105452Y719439D01*
X1106026Y718610D01*
X1106034Y718607D01*
X1106033Y718602D01*
X1106777Y717921D01*
X1106786Y717920D01*
X1106786Y717914D01*
X1107663Y717416D01*
X1107672Y717417D01*
X1107674Y717412D01*
X1108639Y717121D01*
X1108647Y717124D01*
X1108650Y717119D01*
X1109657Y717051D01*
X1109659Y717052D01*
X1109660Y717051D01*
X1110741Y717060D01*
G37*
G36*
X648461Y717060D02*
X648461Y717060D01*
X648468Y717065D01*
X648472Y717061D01*
X649524Y717311D01*
X649529Y717317D01*
X649534Y717314D01*
X650504Y717791D01*
X650507Y717799D01*
X650513Y717797D01*
X651352Y718478D01*
X651354Y718486D01*
X651360Y718486D01*
X652026Y719337D01*
X652027Y719345D01*
X652032Y719346D01*
X652493Y720323D01*
X652491Y720331D01*
X652497Y720334D01*
X652728Y721389D01*
X652725Y721397D01*
X652729Y721400D01*
X652729Y733400D01*
X652725Y733405D01*
X652729Y733408D01*
X652536Y734514D01*
X652530Y734519D01*
X652533Y734524D01*
X652100Y735559D01*
X652093Y735563D01*
X652095Y735568D01*
X651442Y736481D01*
X651434Y736483D01*
X651435Y736489D01*
X650596Y737233D01*
X650587Y737234D01*
X650587Y737239D01*
X649603Y737778D01*
X649595Y737777D01*
X649593Y737782D01*
X648514Y738089D01*
X648506Y738086D01*
X648503Y738091D01*
X647383Y738149D01*
X647378Y738146D01*
X647375Y738149D01*
X646329Y738031D01*
X646323Y738025D01*
X646318Y738029D01*
X645324Y737681D01*
X645320Y737674D01*
X645315Y737676D01*
X644423Y737116D01*
X644421Y737109D01*
X644415Y737109D01*
X643671Y736365D01*
X643669Y736357D01*
X643664Y736357D01*
X643104Y735465D01*
X643104Y735457D01*
X643099Y735456D01*
X642751Y734462D01*
X642754Y734454D01*
X642749Y734451D01*
X642631Y733406D01*
X642633Y733402D01*
X642631Y733400D01*
X642631Y721400D01*
X642634Y721395D01*
X642631Y721392D01*
X642789Y720396D01*
X642795Y720390D01*
X642792Y720385D01*
X643167Y719449D01*
X643174Y719445D01*
X643172Y719439D01*
X643746Y718610D01*
X643754Y718607D01*
X643753Y718602D01*
X644497Y717921D01*
X644506Y717920D01*
X644506Y717914D01*
X645383Y717416D01*
X645392Y717417D01*
X645394Y717412D01*
X646359Y717121D01*
X646367Y717124D01*
X646370Y717119D01*
X647377Y717051D01*
X647379Y717052D01*
X647380Y717051D01*
X648461Y717060D01*
G37*
G36*
X1110741Y43960D02*
X1110741Y43960D01*
X1110748Y43965D01*
X1110752Y43961D01*
X1111804Y44211D01*
X1111809Y44217D01*
X1111814Y44214D01*
X1112784Y44691D01*
X1112787Y44699D01*
X1112793Y44697D01*
X1113632Y45378D01*
X1113634Y45386D01*
X1113640Y45386D01*
X1114306Y46237D01*
X1114307Y46245D01*
X1114312Y46246D01*
X1114773Y47223D01*
X1114771Y47231D01*
X1114777Y47234D01*
X1115008Y48289D01*
X1115005Y48297D01*
X1115009Y48300D01*
X1115009Y60300D01*
X1115005Y60305D01*
X1115009Y60308D01*
X1114816Y61414D01*
X1114810Y61419D01*
X1114813Y61424D01*
X1114380Y62459D01*
X1114373Y62463D01*
X1114375Y62468D01*
X1113722Y63381D01*
X1113714Y63383D01*
X1113715Y63389D01*
X1112876Y64133D01*
X1112867Y64134D01*
X1112867Y64139D01*
X1111883Y64678D01*
X1111875Y64677D01*
X1111873Y64682D01*
X1110794Y64989D01*
X1110786Y64986D01*
X1110783Y64991D01*
X1109663Y65049D01*
X1109658Y65046D01*
X1109655Y65049D01*
X1108609Y64931D01*
X1108603Y64925D01*
X1108598Y64929D01*
X1107604Y64581D01*
X1107600Y64574D01*
X1107595Y64576D01*
X1106703Y64016D01*
X1106701Y64009D01*
X1106695Y64009D01*
X1105951Y63265D01*
X1105949Y63257D01*
X1105944Y63257D01*
X1105384Y62365D01*
X1105384Y62357D01*
X1105379Y62356D01*
X1105031Y61362D01*
X1105034Y61354D01*
X1105029Y61351D01*
X1104911Y60306D01*
X1104913Y60302D01*
X1104911Y60300D01*
X1104911Y48300D01*
X1104914Y48295D01*
X1104911Y48292D01*
X1105069Y47296D01*
X1105075Y47290D01*
X1105072Y47285D01*
X1105447Y46349D01*
X1105454Y46345D01*
X1105452Y46339D01*
X1106026Y45510D01*
X1106034Y45507D01*
X1106033Y45502D01*
X1106777Y44821D01*
X1106786Y44820D01*
X1106786Y44814D01*
X1107663Y44316D01*
X1107672Y44317D01*
X1107674Y44312D01*
X1108639Y44021D01*
X1108647Y44024D01*
X1108650Y44019D01*
X1109657Y43951D01*
X1109659Y43952D01*
X1109660Y43951D01*
X1110741Y43960D01*
G37*
G36*
X648461Y43960D02*
X648461Y43960D01*
X648468Y43965D01*
X648472Y43961D01*
X649524Y44211D01*
X649529Y44217D01*
X649534Y44214D01*
X650504Y44691D01*
X650507Y44699D01*
X650513Y44697D01*
X651352Y45378D01*
X651354Y45386D01*
X651360Y45386D01*
X652026Y46237D01*
X652027Y46245D01*
X652032Y46246D01*
X652493Y47223D01*
X652491Y47231D01*
X652497Y47234D01*
X652728Y48289D01*
X652725Y48297D01*
X652729Y48300D01*
X652729Y60300D01*
X652725Y60305D01*
X652729Y60308D01*
X652536Y61414D01*
X652530Y61419D01*
X652533Y61424D01*
X652100Y62459D01*
X652093Y62463D01*
X652095Y62468D01*
X651442Y63381D01*
X651434Y63383D01*
X651435Y63389D01*
X650596Y64133D01*
X650587Y64134D01*
X650587Y64139D01*
X649603Y64678D01*
X649595Y64677D01*
X649593Y64682D01*
X648514Y64989D01*
X648506Y64986D01*
X648503Y64991D01*
X647383Y65049D01*
X647378Y65046D01*
X647375Y65049D01*
X646329Y64931D01*
X646323Y64925D01*
X646318Y64929D01*
X645324Y64581D01*
X645320Y64574D01*
X645315Y64576D01*
X644423Y64016D01*
X644421Y64009D01*
X644415Y64009D01*
X643671Y63265D01*
X643669Y63257D01*
X643664Y63257D01*
X643104Y62365D01*
X643104Y62357D01*
X643099Y62356D01*
X642751Y61362D01*
X642754Y61354D01*
X642749Y61351D01*
X642631Y60306D01*
X642633Y60302D01*
X642631Y60300D01*
X642631Y48300D01*
X642634Y48295D01*
X642631Y48292D01*
X642789Y47296D01*
X642795Y47290D01*
X642792Y47285D01*
X643167Y46349D01*
X643174Y46345D01*
X643172Y46339D01*
X643746Y45510D01*
X643754Y45507D01*
X643753Y45502D01*
X644497Y44821D01*
X644506Y44820D01*
X644506Y44814D01*
X645383Y44316D01*
X645392Y44317D01*
X645394Y44312D01*
X646359Y44021D01*
X646367Y44024D01*
X646370Y44019D01*
X647377Y43951D01*
X647379Y43952D01*
X647380Y43951D01*
X648461Y43960D01*
G37*
G36*
X186181Y43960D02*
X186181Y43960D01*
X186188Y43965D01*
X186192Y43961D01*
X187244Y44211D01*
X187249Y44217D01*
X187254Y44214D01*
X188224Y44691D01*
X188227Y44699D01*
X188233Y44697D01*
X189072Y45378D01*
X189074Y45386D01*
X189080Y45386D01*
X189746Y46237D01*
X189747Y46245D01*
X189752Y46246D01*
X190213Y47223D01*
X190211Y47231D01*
X190217Y47234D01*
X190448Y48289D01*
X190445Y48297D01*
X190449Y48300D01*
X190449Y60300D01*
X190445Y60305D01*
X190449Y60308D01*
X190256Y61414D01*
X190250Y61419D01*
X190253Y61424D01*
X189820Y62459D01*
X189813Y62463D01*
X189815Y62468D01*
X189162Y63381D01*
X189154Y63383D01*
X189155Y63389D01*
X188316Y64133D01*
X188307Y64134D01*
X188307Y64139D01*
X187323Y64678D01*
X187315Y64677D01*
X187313Y64682D01*
X186234Y64989D01*
X186226Y64986D01*
X186223Y64991D01*
X185103Y65049D01*
X185098Y65046D01*
X185095Y65049D01*
X184049Y64931D01*
X184043Y64925D01*
X184038Y64929D01*
X183044Y64581D01*
X183040Y64574D01*
X183035Y64576D01*
X182143Y64016D01*
X182141Y64009D01*
X182135Y64009D01*
X181391Y63265D01*
X181389Y63257D01*
X181384Y63257D01*
X180824Y62365D01*
X180824Y62357D01*
X180819Y62356D01*
X180471Y61362D01*
X180474Y61354D01*
X180469Y61351D01*
X180351Y60306D01*
X180353Y60302D01*
X180351Y60300D01*
X180351Y48300D01*
X180354Y48295D01*
X180351Y48292D01*
X180509Y47296D01*
X180515Y47290D01*
X180512Y47285D01*
X180887Y46349D01*
X180894Y46345D01*
X180892Y46339D01*
X181466Y45510D01*
X181474Y45507D01*
X181473Y45502D01*
X182217Y44821D01*
X182226Y44820D01*
X182226Y44814D01*
X183103Y44316D01*
X183112Y44317D01*
X183114Y44312D01*
X184079Y44021D01*
X184087Y44024D01*
X184090Y44019D01*
X185097Y43951D01*
X185099Y43952D01*
X185100Y43951D01*
X186181Y43960D01*
G37*
G36*
X1196664Y677555D02*
X1196664Y677555D01*
X1196667Y677551D01*
X1197743Y677706D01*
X1197748Y677712D01*
X1197753Y677709D01*
X1198767Y678099D01*
X1198771Y678106D01*
X1198777Y678105D01*
X1199679Y678711D01*
X1199681Y678719D01*
X1199687Y678718D01*
X1200431Y679510D01*
X1200432Y679518D01*
X1200438Y679518D01*
X1200987Y680456D01*
X1200986Y680464D01*
X1200992Y680466D01*
X1201319Y681502D01*
X1201316Y681510D01*
X1201321Y681513D01*
X1201409Y682596D01*
X1201407Y682599D01*
X1201409Y682600D01*
X1201409Y688600D01*
X1201406Y688604D01*
X1201409Y688606D01*
X1201259Y689739D01*
X1201253Y689745D01*
X1201256Y689750D01*
X1200858Y690820D01*
X1200851Y690824D01*
X1200853Y690830D01*
X1200226Y691785D01*
X1200218Y691788D01*
X1200219Y691793D01*
X1199396Y692585D01*
X1199388Y692586D01*
X1199387Y692592D01*
X1198408Y693181D01*
X1198400Y693180D01*
X1198398Y693185D01*
X1197313Y693541D01*
X1197305Y693539D01*
X1197302Y693543D01*
X1196165Y693649D01*
X1196156Y693644D01*
X1196151Y693648D01*
X1195014Y693441D01*
X1195008Y693435D01*
X1195003Y693438D01*
X1193941Y692983D01*
X1193937Y692976D01*
X1193931Y692978D01*
X1192996Y692298D01*
X1192994Y692290D01*
X1192988Y692291D01*
X1192228Y691420D01*
X1192228Y691412D01*
X1192222Y691411D01*
X1191675Y690392D01*
X1191676Y690384D01*
X1191671Y690382D01*
X1191667Y690369D01*
X1191654Y690320D01*
X1191653Y690320D01*
X1191654Y690320D01*
X1191640Y690271D01*
X1191626Y690221D01*
X1191613Y690172D01*
X1191599Y690123D01*
X1191586Y690074D01*
X1191572Y690024D01*
X1191559Y689975D01*
X1191545Y689926D01*
X1191531Y689877D01*
X1191518Y689827D01*
X1191504Y689778D01*
X1191491Y689729D01*
X1191477Y689680D01*
X1191464Y689630D01*
X1191450Y689581D01*
X1191437Y689532D01*
X1191436Y689532D01*
X1191423Y689483D01*
X1191409Y689433D01*
X1191364Y689268D01*
X1191367Y689260D01*
X1191362Y689257D01*
X1191311Y688102D01*
X1191312Y688101D01*
X1191311Y688100D01*
X1191311Y682100D01*
X1191315Y682094D01*
X1191312Y682091D01*
X1191524Y681010D01*
X1191530Y681005D01*
X1191527Y681000D01*
X1191974Y679994D01*
X1191981Y679990D01*
X1191979Y679984D01*
X1192639Y679103D01*
X1192647Y679100D01*
X1192647Y679095D01*
X1193486Y678382D01*
X1193494Y678382D01*
X1193495Y678376D01*
X1194472Y677868D01*
X1194480Y677869D01*
X1194482Y677864D01*
X1195547Y677586D01*
X1195555Y677589D01*
X1195558Y677585D01*
X1196659Y677551D01*
X1196664Y677555D01*
G37*
G36*
X272104Y677555D02*
X272104Y677555D01*
X272107Y677551D01*
X273183Y677706D01*
X273188Y677712D01*
X273193Y677709D01*
X274207Y678099D01*
X274211Y678106D01*
X274217Y678105D01*
X275119Y678711D01*
X275121Y678719D01*
X275127Y678718D01*
X275871Y679510D01*
X275872Y679518D01*
X275878Y679518D01*
X276427Y680456D01*
X276426Y680464D01*
X276432Y680466D01*
X276759Y681502D01*
X276756Y681510D01*
X276761Y681513D01*
X276849Y682596D01*
X276847Y682599D01*
X276849Y682600D01*
X276849Y688600D01*
X276846Y688604D01*
X276849Y688606D01*
X276699Y689739D01*
X276693Y689745D01*
X276696Y689750D01*
X276298Y690820D01*
X276291Y690824D01*
X276293Y690830D01*
X275666Y691785D01*
X275658Y691788D01*
X275659Y691793D01*
X274836Y692585D01*
X274828Y692586D01*
X274827Y692592D01*
X273848Y693181D01*
X273840Y693180D01*
X273838Y693185D01*
X272753Y693541D01*
X272745Y693539D01*
X272742Y693543D01*
X271605Y693649D01*
X271596Y693644D01*
X271591Y693648D01*
X270454Y693441D01*
X270448Y693435D01*
X270443Y693438D01*
X269381Y692983D01*
X269377Y692976D01*
X269371Y692978D01*
X268436Y692298D01*
X268434Y692290D01*
X268428Y692291D01*
X267668Y691420D01*
X267668Y691412D01*
X267662Y691411D01*
X267115Y690392D01*
X267116Y690384D01*
X267111Y690382D01*
X267107Y690369D01*
X267094Y690320D01*
X267093Y690320D01*
X267094Y690320D01*
X267080Y690271D01*
X267066Y690221D01*
X267053Y690172D01*
X267039Y690123D01*
X267026Y690074D01*
X267012Y690024D01*
X266999Y689975D01*
X266985Y689926D01*
X266971Y689877D01*
X266958Y689827D01*
X266944Y689778D01*
X266931Y689729D01*
X266917Y689680D01*
X266904Y689630D01*
X266890Y689581D01*
X266877Y689532D01*
X266876Y689532D01*
X266863Y689483D01*
X266849Y689433D01*
X266804Y689268D01*
X266807Y689260D01*
X266802Y689257D01*
X266751Y688102D01*
X266752Y688101D01*
X266751Y688100D01*
X266751Y682100D01*
X266755Y682094D01*
X266752Y682091D01*
X266964Y681010D01*
X266970Y681005D01*
X266967Y681000D01*
X267414Y679994D01*
X267421Y679990D01*
X267419Y679984D01*
X268079Y679103D01*
X268087Y679100D01*
X268087Y679095D01*
X268926Y678382D01*
X268934Y678382D01*
X268935Y678376D01*
X269912Y677868D01*
X269920Y677869D01*
X269922Y677864D01*
X270987Y677586D01*
X270995Y677589D01*
X270998Y677585D01*
X272099Y677551D01*
X272104Y677555D01*
G37*
G36*
X734384Y677555D02*
X734384Y677555D01*
X734387Y677551D01*
X735463Y677706D01*
X735468Y677712D01*
X735473Y677709D01*
X736487Y678099D01*
X736491Y678106D01*
X736497Y678105D01*
X737399Y678711D01*
X737401Y678719D01*
X737407Y678718D01*
X738151Y679510D01*
X738152Y679518D01*
X738158Y679518D01*
X738707Y680456D01*
X738706Y680464D01*
X738712Y680466D01*
X739039Y681502D01*
X739036Y681510D01*
X739041Y681513D01*
X739129Y682596D01*
X739127Y682599D01*
X739129Y682600D01*
X739129Y688600D01*
X739126Y688604D01*
X739129Y688606D01*
X738979Y689739D01*
X738973Y689745D01*
X738976Y689750D01*
X738578Y690820D01*
X738571Y690824D01*
X738573Y690830D01*
X737946Y691785D01*
X737938Y691788D01*
X737939Y691793D01*
X737116Y692585D01*
X737108Y692586D01*
X737107Y692592D01*
X736128Y693181D01*
X736120Y693180D01*
X736118Y693185D01*
X735033Y693541D01*
X735025Y693539D01*
X735022Y693543D01*
X733885Y693649D01*
X733876Y693644D01*
X733871Y693648D01*
X732734Y693441D01*
X732728Y693435D01*
X732723Y693438D01*
X731661Y692983D01*
X731657Y692976D01*
X731651Y692978D01*
X730716Y692298D01*
X730714Y692290D01*
X730708Y692291D01*
X729948Y691420D01*
X729948Y691412D01*
X729942Y691411D01*
X729395Y690392D01*
X729396Y690384D01*
X729391Y690382D01*
X729387Y690369D01*
X729374Y690320D01*
X729373Y690320D01*
X729374Y690320D01*
X729360Y690271D01*
X729346Y690221D01*
X729333Y690172D01*
X729319Y690123D01*
X729306Y690074D01*
X729292Y690024D01*
X729279Y689975D01*
X729265Y689926D01*
X729251Y689877D01*
X729238Y689827D01*
X729224Y689778D01*
X729211Y689729D01*
X729197Y689680D01*
X729184Y689630D01*
X729170Y689581D01*
X729157Y689532D01*
X729156Y689532D01*
X729143Y689483D01*
X729129Y689433D01*
X729084Y689268D01*
X729087Y689260D01*
X729082Y689257D01*
X729031Y688102D01*
X729032Y688101D01*
X729031Y688100D01*
X729031Y682100D01*
X729035Y682094D01*
X729032Y682091D01*
X729244Y681010D01*
X729250Y681005D01*
X729247Y681000D01*
X729694Y679994D01*
X729701Y679990D01*
X729699Y679984D01*
X730359Y679103D01*
X730367Y679100D01*
X730367Y679095D01*
X731206Y678382D01*
X731214Y678382D01*
X731215Y678376D01*
X732192Y677868D01*
X732200Y677869D01*
X732202Y677864D01*
X733267Y677586D01*
X733275Y677589D01*
X733278Y677585D01*
X734379Y677551D01*
X734384Y677555D01*
G37*
G36*
X272104Y4455D02*
X272104Y4455D01*
X272107Y4451D01*
X273183Y4606D01*
X273188Y4612D01*
X273193Y4609D01*
X274207Y4999D01*
X274211Y5006D01*
X274217Y5005D01*
X275119Y5611D01*
X275121Y5619D01*
X275127Y5618D01*
X275871Y6410D01*
X275872Y6418D01*
X275878Y6418D01*
X276427Y7356D01*
X276426Y7364D01*
X276432Y7366D01*
X276759Y8402D01*
X276756Y8410D01*
X276761Y8413D01*
X276849Y9496D01*
X276847Y9499D01*
X276849Y9500D01*
X276849Y15500D01*
X276846Y15504D01*
X276849Y15506D01*
X276699Y16639D01*
X276693Y16645D01*
X276696Y16650D01*
X276298Y17720D01*
X276291Y17724D01*
X276293Y17730D01*
X275666Y18685D01*
X275658Y18688D01*
X275659Y18693D01*
X274836Y19485D01*
X274828Y19486D01*
X274827Y19492D01*
X273848Y20081D01*
X273840Y20080D01*
X273838Y20085D01*
X272753Y20441D01*
X272745Y20439D01*
X272742Y20443D01*
X271605Y20549D01*
X271596Y20544D01*
X271591Y20548D01*
X270454Y20341D01*
X270448Y20335D01*
X270443Y20338D01*
X269381Y19883D01*
X269377Y19876D01*
X269371Y19878D01*
X268436Y19198D01*
X268434Y19190D01*
X268428Y19191D01*
X267668Y18320D01*
X267668Y18312D01*
X267662Y18311D01*
X267115Y17292D01*
X267116Y17284D01*
X267111Y17282D01*
X267107Y17269D01*
X267094Y17220D01*
X267093Y17220D01*
X267094Y17220D01*
X267080Y17171D01*
X267066Y17121D01*
X267053Y17072D01*
X267039Y17023D01*
X267026Y16974D01*
X267012Y16924D01*
X266999Y16875D01*
X266985Y16826D01*
X266971Y16777D01*
X266958Y16727D01*
X266944Y16678D01*
X266931Y16629D01*
X266917Y16580D01*
X266904Y16530D01*
X266890Y16481D01*
X266877Y16432D01*
X266876Y16432D01*
X266863Y16383D01*
X266849Y16333D01*
X266804Y16168D01*
X266807Y16160D01*
X266802Y16157D01*
X266751Y15002D01*
X266752Y15001D01*
X266751Y15000D01*
X266751Y9000D01*
X266755Y8994D01*
X266752Y8991D01*
X266964Y7910D01*
X266970Y7905D01*
X266967Y7900D01*
X267414Y6894D01*
X267421Y6890D01*
X267419Y6884D01*
X268079Y6003D01*
X268087Y6000D01*
X268087Y5995D01*
X268926Y5282D01*
X268934Y5282D01*
X268935Y5276D01*
X269912Y4768D01*
X269920Y4769D01*
X269922Y4764D01*
X270987Y4486D01*
X270995Y4489D01*
X270998Y4485D01*
X272099Y4451D01*
X272104Y4455D01*
G37*
G36*
X734384Y4455D02*
X734384Y4455D01*
X734387Y4451D01*
X735463Y4606D01*
X735468Y4612D01*
X735473Y4609D01*
X736487Y4999D01*
X736491Y5006D01*
X736497Y5005D01*
X737399Y5611D01*
X737401Y5619D01*
X737407Y5618D01*
X738151Y6410D01*
X738152Y6418D01*
X738158Y6418D01*
X738707Y7356D01*
X738706Y7364D01*
X738712Y7366D01*
X739039Y8402D01*
X739036Y8410D01*
X739041Y8413D01*
X739129Y9496D01*
X739127Y9499D01*
X739129Y9500D01*
X739129Y15500D01*
X739126Y15504D01*
X739129Y15506D01*
X738979Y16639D01*
X738973Y16645D01*
X738976Y16650D01*
X738578Y17720D01*
X738571Y17724D01*
X738573Y17730D01*
X737946Y18685D01*
X737938Y18688D01*
X737939Y18693D01*
X737116Y19485D01*
X737108Y19486D01*
X737107Y19492D01*
X736128Y20081D01*
X736120Y20080D01*
X736118Y20085D01*
X735033Y20441D01*
X735025Y20439D01*
X735022Y20443D01*
X733885Y20549D01*
X733876Y20544D01*
X733871Y20548D01*
X732734Y20341D01*
X732728Y20335D01*
X732723Y20338D01*
X731661Y19883D01*
X731657Y19876D01*
X731651Y19878D01*
X730716Y19198D01*
X730714Y19190D01*
X730708Y19191D01*
X729948Y18320D01*
X729948Y18312D01*
X729942Y18311D01*
X729395Y17292D01*
X729396Y17284D01*
X729391Y17282D01*
X729387Y17269D01*
X729374Y17220D01*
X729373Y17220D01*
X729374Y17220D01*
X729360Y17171D01*
X729346Y17121D01*
X729333Y17072D01*
X729319Y17023D01*
X729306Y16974D01*
X729292Y16924D01*
X729279Y16875D01*
X729265Y16826D01*
X729251Y16777D01*
X729238Y16727D01*
X729224Y16678D01*
X729211Y16629D01*
X729197Y16580D01*
X729184Y16530D01*
X729170Y16481D01*
X729157Y16432D01*
X729156Y16432D01*
X729143Y16383D01*
X729129Y16333D01*
X729084Y16168D01*
X729087Y16160D01*
X729082Y16157D01*
X729031Y15002D01*
X729032Y15001D01*
X729031Y15000D01*
X729031Y9000D01*
X729035Y8994D01*
X729032Y8991D01*
X729244Y7910D01*
X729250Y7905D01*
X729247Y7900D01*
X729694Y6894D01*
X729701Y6890D01*
X729699Y6884D01*
X730359Y6003D01*
X730367Y6000D01*
X730367Y5995D01*
X731206Y5282D01*
X731214Y5282D01*
X731215Y5276D01*
X732192Y4768D01*
X732200Y4769D01*
X732202Y4764D01*
X733267Y4486D01*
X733275Y4489D01*
X733278Y4485D01*
X734379Y4451D01*
X734384Y4455D01*
G37*
G36*
X1196664Y4455D02*
X1196664Y4455D01*
X1196667Y4451D01*
X1197743Y4606D01*
X1197748Y4612D01*
X1197753Y4609D01*
X1198767Y4999D01*
X1198771Y5006D01*
X1198777Y5005D01*
X1199679Y5611D01*
X1199681Y5619D01*
X1199687Y5618D01*
X1200431Y6410D01*
X1200432Y6418D01*
X1200438Y6418D01*
X1200987Y7356D01*
X1200986Y7364D01*
X1200992Y7366D01*
X1201319Y8402D01*
X1201316Y8410D01*
X1201321Y8413D01*
X1201409Y9496D01*
X1201407Y9499D01*
X1201409Y9500D01*
X1201409Y15500D01*
X1201406Y15504D01*
X1201409Y15506D01*
X1201259Y16639D01*
X1201253Y16645D01*
X1201256Y16650D01*
X1200858Y17720D01*
X1200851Y17724D01*
X1200853Y17730D01*
X1200226Y18685D01*
X1200218Y18688D01*
X1200219Y18693D01*
X1199396Y19485D01*
X1199388Y19486D01*
X1199387Y19492D01*
X1198408Y20081D01*
X1198400Y20080D01*
X1198398Y20085D01*
X1197313Y20441D01*
X1197305Y20439D01*
X1197302Y20443D01*
X1196165Y20549D01*
X1196156Y20544D01*
X1196151Y20548D01*
X1195014Y20341D01*
X1195008Y20335D01*
X1195003Y20338D01*
X1193941Y19883D01*
X1193937Y19876D01*
X1193931Y19878D01*
X1192996Y19198D01*
X1192994Y19190D01*
X1192988Y19191D01*
X1192228Y18320D01*
X1192228Y18312D01*
X1192222Y18311D01*
X1191675Y17292D01*
X1191676Y17284D01*
X1191671Y17282D01*
X1191667Y17269D01*
X1191654Y17220D01*
X1191653Y17220D01*
X1191654Y17220D01*
X1191640Y17171D01*
X1191626Y17121D01*
X1191613Y17072D01*
X1191599Y17023D01*
X1191586Y16974D01*
X1191572Y16924D01*
X1191559Y16875D01*
X1191545Y16826D01*
X1191531Y16777D01*
X1191518Y16727D01*
X1191504Y16678D01*
X1191491Y16629D01*
X1191477Y16580D01*
X1191464Y16530D01*
X1191450Y16481D01*
X1191437Y16432D01*
X1191436Y16432D01*
X1191423Y16383D01*
X1191409Y16333D01*
X1191364Y16168D01*
X1191367Y16160D01*
X1191362Y16157D01*
X1191311Y15002D01*
X1191312Y15001D01*
X1191311Y15000D01*
X1191311Y9000D01*
X1191315Y8994D01*
X1191312Y8991D01*
X1191524Y7910D01*
X1191530Y7905D01*
X1191527Y7900D01*
X1191974Y6894D01*
X1191981Y6890D01*
X1191979Y6884D01*
X1192639Y6003D01*
X1192647Y6000D01*
X1192647Y5995D01*
X1193486Y5282D01*
X1193494Y5282D01*
X1193495Y5276D01*
X1194472Y4768D01*
X1194480Y4769D01*
X1194482Y4764D01*
X1195547Y4486D01*
X1195555Y4489D01*
X1195558Y4485D01*
X1196659Y4451D01*
X1196664Y4455D01*
G37*
G36*
X1110162Y677555D02*
X1110162Y677555D01*
X1110167Y677551D01*
X1111254Y677696D01*
X1111260Y677702D01*
X1111265Y677699D01*
X1112293Y678083D01*
X1112298Y678089D01*
X1112303Y678088D01*
X1113220Y678690D01*
X1113223Y678698D01*
X1113229Y678697D01*
X1113989Y679489D01*
X1113990Y679497D01*
X1113996Y679498D01*
X1114560Y680439D01*
X1114560Y680442D01*
X1114561Y680443D01*
X1114560Y680445D01*
X1114559Y680447D01*
X1114565Y680449D01*
X1114906Y681492D01*
X1114904Y681500D01*
X1114908Y681503D01*
X1115009Y682596D01*
X1115007Y682598D01*
X1115009Y682600D01*
X1115009Y688600D01*
X1115007Y688603D01*
X1115009Y688605D01*
X1114908Y689697D01*
X1114903Y689703D01*
X1114906Y689708D01*
X1114565Y690751D01*
X1114558Y690756D01*
X1114560Y690761D01*
X1113996Y691702D01*
X1113988Y691705D01*
X1113989Y691711D01*
X1113229Y692503D01*
X1113221Y692504D01*
X1113220Y692510D01*
X1112303Y693113D01*
X1112295Y693112D01*
X1112293Y693118D01*
X1111265Y693501D01*
X1111257Y693499D01*
X1111254Y693504D01*
X1110167Y693649D01*
X1110159Y693645D01*
X1110155Y693649D01*
X1109018Y693543D01*
X1109012Y693538D01*
X1109007Y693541D01*
X1107922Y693185D01*
X1107917Y693178D01*
X1107912Y693181D01*
X1106933Y692592D01*
X1106930Y692584D01*
X1106924Y692585D01*
X1106101Y691793D01*
X1106100Y691785D01*
X1106094Y691785D01*
X1105467Y690830D01*
X1105468Y690822D01*
X1105462Y690820D01*
X1105064Y689750D01*
X1105066Y689742D01*
X1105061Y689739D01*
X1104911Y688606D01*
X1104914Y688602D01*
X1104911Y688600D01*
X1104911Y682600D01*
X1104914Y682596D01*
X1104911Y682594D01*
X1105061Y681461D01*
X1105067Y681455D01*
X1105064Y681450D01*
X1105462Y680380D01*
X1105469Y680376D01*
X1105467Y680370D01*
X1106094Y679415D01*
X1106102Y679412D01*
X1106101Y679407D01*
X1106924Y678615D01*
X1106932Y678614D01*
X1106933Y678608D01*
X1107912Y678019D01*
X1107920Y678020D01*
X1107922Y678015D01*
X1109007Y677659D01*
X1109015Y677662D01*
X1109018Y677657D01*
X1110155Y677551D01*
X1110162Y677555D01*
G37*
G36*
X185602Y677555D02*
X185602Y677555D01*
X185607Y677551D01*
X186694Y677696D01*
X186700Y677702D01*
X186705Y677699D01*
X187733Y678083D01*
X187738Y678089D01*
X187743Y678088D01*
X188660Y678690D01*
X188663Y678698D01*
X188669Y678697D01*
X189429Y679489D01*
X189430Y679497D01*
X189436Y679498D01*
X190000Y680439D01*
X190000Y680442D01*
X190001Y680443D01*
X190000Y680445D01*
X189999Y680447D01*
X190005Y680449D01*
X190346Y681492D01*
X190344Y681500D01*
X190348Y681503D01*
X190449Y682596D01*
X190447Y682598D01*
X190449Y682600D01*
X190449Y688600D01*
X190447Y688603D01*
X190449Y688605D01*
X190348Y689697D01*
X190343Y689703D01*
X190346Y689708D01*
X190005Y690751D01*
X189998Y690756D01*
X190000Y690761D01*
X189436Y691702D01*
X189428Y691705D01*
X189429Y691711D01*
X188669Y692503D01*
X188661Y692504D01*
X188660Y692510D01*
X187743Y693113D01*
X187735Y693112D01*
X187733Y693118D01*
X186705Y693501D01*
X186697Y693499D01*
X186694Y693504D01*
X185607Y693649D01*
X185599Y693645D01*
X185595Y693649D01*
X184458Y693543D01*
X184452Y693538D01*
X184447Y693541D01*
X183362Y693185D01*
X183357Y693178D01*
X183352Y693181D01*
X182373Y692592D01*
X182370Y692584D01*
X182364Y692585D01*
X181541Y691793D01*
X181540Y691785D01*
X181534Y691785D01*
X180907Y690830D01*
X180908Y690822D01*
X180902Y690820D01*
X180504Y689750D01*
X180506Y689742D01*
X180501Y689739D01*
X180351Y688606D01*
X180354Y688602D01*
X180351Y688600D01*
X180351Y682600D01*
X180354Y682596D01*
X180351Y682594D01*
X180501Y681461D01*
X180507Y681455D01*
X180504Y681450D01*
X180902Y680380D01*
X180909Y680376D01*
X180907Y680370D01*
X181534Y679415D01*
X181542Y679412D01*
X181541Y679407D01*
X182364Y678615D01*
X182372Y678614D01*
X182373Y678608D01*
X183352Y678019D01*
X183360Y678020D01*
X183362Y678015D01*
X184447Y677659D01*
X184455Y677662D01*
X184458Y677657D01*
X185595Y677551D01*
X185602Y677555D01*
G37*
G36*
X647882Y677555D02*
X647882Y677555D01*
X647887Y677551D01*
X648974Y677696D01*
X648980Y677702D01*
X648985Y677699D01*
X650013Y678083D01*
X650018Y678089D01*
X650023Y678088D01*
X650940Y678690D01*
X650943Y678698D01*
X650949Y678697D01*
X651709Y679489D01*
X651710Y679497D01*
X651716Y679498D01*
X652280Y680439D01*
X652280Y680442D01*
X652281Y680443D01*
X652280Y680445D01*
X652279Y680447D01*
X652285Y680449D01*
X652626Y681492D01*
X652624Y681500D01*
X652628Y681503D01*
X652729Y682596D01*
X652727Y682598D01*
X652729Y682600D01*
X652729Y688600D01*
X652727Y688603D01*
X652729Y688605D01*
X652628Y689697D01*
X652623Y689703D01*
X652626Y689708D01*
X652285Y690751D01*
X652278Y690756D01*
X652280Y690761D01*
X651716Y691702D01*
X651708Y691705D01*
X651709Y691711D01*
X650949Y692503D01*
X650941Y692504D01*
X650940Y692510D01*
X650023Y693113D01*
X650015Y693112D01*
X650013Y693118D01*
X648985Y693501D01*
X648977Y693499D01*
X648974Y693504D01*
X647887Y693649D01*
X647879Y693645D01*
X647875Y693649D01*
X646738Y693543D01*
X646732Y693538D01*
X646727Y693541D01*
X645642Y693185D01*
X645637Y693178D01*
X645632Y693181D01*
X644653Y692592D01*
X644650Y692584D01*
X644644Y692585D01*
X643821Y691793D01*
X643820Y691785D01*
X643814Y691785D01*
X643187Y690830D01*
X643188Y690822D01*
X643182Y690820D01*
X642784Y689750D01*
X642786Y689742D01*
X642781Y689739D01*
X642631Y688606D01*
X642634Y688602D01*
X642631Y688600D01*
X642631Y682600D01*
X642634Y682596D01*
X642631Y682594D01*
X642781Y681461D01*
X642787Y681455D01*
X642784Y681450D01*
X643182Y680380D01*
X643189Y680376D01*
X643187Y680370D01*
X643814Y679415D01*
X643822Y679412D01*
X643821Y679407D01*
X644644Y678615D01*
X644652Y678614D01*
X644653Y678608D01*
X645632Y678019D01*
X645640Y678020D01*
X645642Y678015D01*
X646727Y677659D01*
X646735Y677662D01*
X646738Y677657D01*
X647875Y677551D01*
X647882Y677555D01*
G37*
G36*
X185602Y4455D02*
X185602Y4455D01*
X185607Y4451D01*
X186694Y4596D01*
X186700Y4602D01*
X186705Y4599D01*
X187733Y4983D01*
X187738Y4989D01*
X187743Y4988D01*
X188660Y5590D01*
X188663Y5598D01*
X188669Y5597D01*
X189429Y6389D01*
X189430Y6397D01*
X189436Y6398D01*
X190000Y7339D01*
X190000Y7342D01*
X190001Y7343D01*
X190000Y7345D01*
X189999Y7347D01*
X190005Y7349D01*
X190346Y8392D01*
X190344Y8400D01*
X190348Y8403D01*
X190449Y9496D01*
X190447Y9498D01*
X190449Y9500D01*
X190449Y15500D01*
X190447Y15503D01*
X190449Y15505D01*
X190348Y16597D01*
X190343Y16603D01*
X190346Y16608D01*
X190005Y17651D01*
X189998Y17656D01*
X190000Y17661D01*
X189436Y18602D01*
X189428Y18605D01*
X189429Y18611D01*
X188669Y19403D01*
X188661Y19404D01*
X188660Y19410D01*
X187743Y20013D01*
X187735Y20012D01*
X187733Y20018D01*
X186705Y20401D01*
X186697Y20399D01*
X186694Y20404D01*
X185607Y20549D01*
X185599Y20545D01*
X185595Y20549D01*
X184458Y20443D01*
X184452Y20438D01*
X184447Y20441D01*
X183362Y20085D01*
X183357Y20078D01*
X183352Y20081D01*
X182373Y19492D01*
X182370Y19484D01*
X182364Y19485D01*
X181541Y18693D01*
X181540Y18685D01*
X181534Y18685D01*
X180907Y17730D01*
X180908Y17722D01*
X180902Y17720D01*
X180504Y16650D01*
X180506Y16642D01*
X180501Y16639D01*
X180351Y15506D01*
X180354Y15502D01*
X180351Y15500D01*
X180351Y9500D01*
X180354Y9496D01*
X180351Y9494D01*
X180501Y8361D01*
X180507Y8355D01*
X180504Y8350D01*
X180902Y7280D01*
X180909Y7276D01*
X180907Y7270D01*
X181534Y6315D01*
X181542Y6312D01*
X181541Y6307D01*
X182364Y5515D01*
X182372Y5514D01*
X182373Y5508D01*
X183352Y4919D01*
X183360Y4920D01*
X183362Y4915D01*
X184447Y4559D01*
X184455Y4562D01*
X184458Y4557D01*
X185595Y4451D01*
X185602Y4455D01*
G37*
G36*
X1110162Y4455D02*
X1110162Y4455D01*
X1110167Y4451D01*
X1111254Y4596D01*
X1111260Y4602D01*
X1111265Y4599D01*
X1112293Y4983D01*
X1112298Y4989D01*
X1112303Y4988D01*
X1113220Y5590D01*
X1113223Y5598D01*
X1113229Y5597D01*
X1113989Y6389D01*
X1113990Y6397D01*
X1113996Y6398D01*
X1114560Y7339D01*
X1114560Y7342D01*
X1114561Y7343D01*
X1114560Y7345D01*
X1114559Y7347D01*
X1114565Y7349D01*
X1114906Y8392D01*
X1114904Y8400D01*
X1114908Y8403D01*
X1115009Y9496D01*
X1115007Y9498D01*
X1115009Y9500D01*
X1115009Y15500D01*
X1115007Y15503D01*
X1115009Y15505D01*
X1114908Y16597D01*
X1114903Y16603D01*
X1114906Y16608D01*
X1114565Y17651D01*
X1114558Y17656D01*
X1114560Y17661D01*
X1113996Y18602D01*
X1113988Y18605D01*
X1113989Y18611D01*
X1113229Y19403D01*
X1113221Y19404D01*
X1113220Y19410D01*
X1112303Y20013D01*
X1112295Y20012D01*
X1112293Y20018D01*
X1111265Y20401D01*
X1111257Y20399D01*
X1111254Y20404D01*
X1110167Y20549D01*
X1110159Y20545D01*
X1110155Y20549D01*
X1109018Y20443D01*
X1109012Y20438D01*
X1109007Y20441D01*
X1107922Y20085D01*
X1107917Y20078D01*
X1107912Y20081D01*
X1106933Y19492D01*
X1106930Y19484D01*
X1106924Y19485D01*
X1106101Y18693D01*
X1106100Y18685D01*
X1106094Y18685D01*
X1105467Y17730D01*
X1105468Y17722D01*
X1105462Y17720D01*
X1105064Y16650D01*
X1105066Y16642D01*
X1105061Y16639D01*
X1104911Y15506D01*
X1104914Y15502D01*
X1104911Y15500D01*
X1104911Y9500D01*
X1104914Y9496D01*
X1104911Y9494D01*
X1105061Y8361D01*
X1105067Y8355D01*
X1105064Y8350D01*
X1105462Y7280D01*
X1105469Y7276D01*
X1105467Y7270D01*
X1106094Y6315D01*
X1106102Y6312D01*
X1106101Y6307D01*
X1106924Y5515D01*
X1106932Y5514D01*
X1106933Y5508D01*
X1107912Y4919D01*
X1107920Y4920D01*
X1107922Y4915D01*
X1109007Y4559D01*
X1109015Y4562D01*
X1109018Y4557D01*
X1110155Y4451D01*
X1110162Y4455D01*
G37*
G36*
X647882Y4455D02*
X647882Y4455D01*
X647887Y4451D01*
X648974Y4596D01*
X648980Y4602D01*
X648985Y4599D01*
X650013Y4983D01*
X650018Y4989D01*
X650023Y4988D01*
X650940Y5590D01*
X650943Y5598D01*
X650949Y5597D01*
X651709Y6389D01*
X651710Y6397D01*
X651716Y6398D01*
X652280Y7339D01*
X652280Y7342D01*
X652281Y7343D01*
X652280Y7345D01*
X652279Y7347D01*
X652285Y7349D01*
X652626Y8392D01*
X652624Y8400D01*
X652628Y8403D01*
X652729Y9496D01*
X652727Y9498D01*
X652729Y9500D01*
X652729Y15500D01*
X652727Y15503D01*
X652729Y15505D01*
X652628Y16597D01*
X652623Y16603D01*
X652626Y16608D01*
X652285Y17651D01*
X652278Y17656D01*
X652280Y17661D01*
X651716Y18602D01*
X651708Y18605D01*
X651709Y18611D01*
X650949Y19403D01*
X650941Y19404D01*
X650940Y19410D01*
X650023Y20013D01*
X650015Y20012D01*
X650013Y20018D01*
X648985Y20401D01*
X648977Y20399D01*
X648974Y20404D01*
X647887Y20549D01*
X647879Y20545D01*
X647875Y20549D01*
X646738Y20443D01*
X646732Y20438D01*
X646727Y20441D01*
X645642Y20085D01*
X645637Y20078D01*
X645632Y20081D01*
X644653Y19492D01*
X644650Y19484D01*
X644644Y19485D01*
X643821Y18693D01*
X643820Y18685D01*
X643814Y18685D01*
X643187Y17730D01*
X643188Y17722D01*
X643182Y17720D01*
X642784Y16650D01*
X642786Y16642D01*
X642781Y16639D01*
X642631Y15506D01*
X642634Y15502D01*
X642631Y15500D01*
X642631Y9500D01*
X642634Y9496D01*
X642631Y9494D01*
X642781Y8361D01*
X642787Y8355D01*
X642784Y8350D01*
X643182Y7280D01*
X643189Y7276D01*
X643187Y7270D01*
X643814Y6315D01*
X643822Y6312D01*
X643821Y6307D01*
X644644Y5515D01*
X644652Y5514D01*
X644653Y5508D01*
X645632Y4919D01*
X645640Y4920D01*
X645642Y4915D01*
X646727Y4559D01*
X646735Y4562D01*
X646738Y4557D01*
X647875Y4451D01*
X647882Y4455D01*
G37*
D10*
X236100Y60100D03*
X231100Y60100D03*
D11*
X260850Y60100D03*
X253100Y60100D03*
D10*
X246100Y60100D03*
X241100Y60100D03*
X221100Y60100D03*
X226100Y60100D03*
D11*
X196350Y60100D03*
X204100Y60100D03*
D10*
X211100Y60100D03*
X216100Y60100D03*
D12*
X171450Y40250D03*
X171450Y23250D03*
X285750Y40250D03*
X285750Y23250D03*
D13*
X14050Y256600D03*
X14050Y200600D03*
D14*
X50800Y243600D03*
X50800Y233600D03*
X50800Y223600D03*
X50800Y213600D03*
D15*
X414900Y304800D03*
X397900Y304800D03*
X414900Y330200D03*
X397900Y330200D03*
D16*
X434340Y133350D03*
X378460Y133350D03*
X434340Y171450D03*
X378460Y171450D03*
D17*
X15900Y113999D03*
X25400Y113999D03*
X34900Y113999D03*
X34900Y140001D03*
X15900Y140001D03*
D15*
X33900Y177800D03*
X16900Y177800D03*
D12*
X38100Y97400D03*
X38100Y80400D03*
D15*
X33900Y158750D03*
X16900Y158750D03*
D18*
X20130Y67000D02*
X20130Y60000D01*
X13130Y60000D01*
X13130Y67000D01*
X20130Y67000D01*
X20130Y62850D02*
X13130Y62850D01*
X13130Y65700D02*
X20130Y65700D01*
X37670Y67000D02*
X37670Y60000D01*
X30670Y60000D01*
X30670Y67000D01*
X37670Y67000D01*
X37670Y62850D02*
X30670Y62850D01*
X30670Y65700D02*
X37670Y65700D01*
D12*
X12700Y97400D03*
X12700Y80400D03*
D19*
X111600Y75100D03*
X91600Y75100D03*
D20*
X135600Y23100D03*
X67600Y23100D03*
D15*
X84700Y190500D03*
X67700Y190500D03*
X84700Y171450D03*
X67700Y171450D03*
X84700Y152400D03*
X67700Y152400D03*
X423300Y101600D03*
X440300Y101600D03*
D18*
X437070Y92400D02*
X437070Y85400D01*
X437070Y92400D02*
X444070Y92400D01*
X444070Y85400D01*
X437070Y85400D01*
X437070Y88250D02*
X444070Y88250D01*
X444070Y91100D02*
X437070Y91100D01*
X419530Y92400D02*
X419530Y85400D01*
X419530Y92400D02*
X426530Y92400D01*
X426530Y85400D01*
X419530Y85400D01*
X419530Y88250D02*
X426530Y88250D01*
X426530Y91100D02*
X419530Y91100D01*
D21*
X332100Y132800D03*
X125100Y132800D03*
D22*
X138600Y200550D03*
X148600Y200550D03*
X153600Y200550D03*
X143600Y200550D03*
X158600Y200550D03*
X168600Y200550D03*
X173600Y200550D03*
X163600Y200550D03*
X178600Y200550D03*
X188600Y200550D03*
X193600Y200550D03*
X183600Y200550D03*
X198600Y200550D03*
X208600Y200550D03*
X213600Y200550D03*
X203600Y200550D03*
X218600Y200550D03*
X228600Y200550D03*
X233600Y200550D03*
X223600Y200550D03*
X238600Y200550D03*
X243600Y200550D03*
X268600Y200550D03*
X273600Y200550D03*
X278600Y200550D03*
X288600Y200550D03*
X293600Y200550D03*
X283600Y200550D03*
X298600Y200550D03*
X308600Y200550D03*
X313600Y200550D03*
X303600Y200550D03*
X318600Y200550D03*
X136100Y125050D03*
X146100Y125050D03*
X151100Y125050D03*
X141100Y125050D03*
X156100Y125050D03*
X166100Y125050D03*
X171100Y125050D03*
X161100Y125050D03*
X176100Y125050D03*
X186100Y125050D03*
X191100Y125050D03*
X181100Y125050D03*
X196100Y125050D03*
X206100Y125050D03*
X211100Y125050D03*
X201100Y125050D03*
X216100Y125050D03*
X226100Y125050D03*
X231100Y125050D03*
X221100Y125050D03*
X236100Y125050D03*
X241100Y125050D03*
X266100Y125050D03*
X271100Y125050D03*
X276100Y125050D03*
X286100Y125050D03*
X291100Y125050D03*
X281100Y125050D03*
X296100Y125050D03*
X306100Y125050D03*
X311100Y125050D03*
X301100Y125050D03*
X316100Y125050D03*
X321100Y125050D03*
D15*
X397900Y355600D03*
X414900Y355600D03*
D13*
X443150Y200600D03*
X443150Y256600D03*
D14*
X406400Y213600D03*
X406400Y223600D03*
X406400Y233600D03*
X406400Y243600D03*
D23*
X288800Y561900D03*
D24*
X330200Y515900D03*
D23*
X371600Y561900D03*
X85600Y561900D03*
D24*
X127000Y515900D03*
D23*
X168400Y561900D03*
D25*
X406400Y468850D03*
X406400Y496350D03*
D26*
X391150Y482600D03*
X421650Y482600D03*
D25*
X406400Y405350D03*
X406400Y432850D03*
D26*
X391150Y419100D03*
X421650Y419100D03*
D27*
X228600Y100400D03*
X228600Y77400D03*
X203200Y100400D03*
X203200Y77400D03*
X254000Y100400D03*
X254000Y77400D03*
D28*
X59700Y127000D03*
X92700Y127000D03*
D10*
X698380Y60100D03*
X693380Y60100D03*
D11*
X723130Y60100D03*
X715380Y60100D03*
D10*
X708380Y60100D03*
X703380Y60100D03*
X683380Y60100D03*
X688380Y60100D03*
D11*
X658630Y60100D03*
X666380Y60100D03*
D10*
X673380Y60100D03*
X678380Y60100D03*
D12*
X633730Y40250D03*
X633730Y23250D03*
X748030Y40250D03*
X748030Y23250D03*
D13*
X476330Y256600D03*
X476330Y200600D03*
D14*
X513080Y243600D03*
X513080Y233600D03*
X513080Y223600D03*
X513080Y213600D03*
D15*
X877180Y304800D03*
X860180Y304800D03*
X877180Y330200D03*
X860180Y330200D03*
D16*
X896620Y133350D03*
X840740Y133350D03*
X896620Y171450D03*
X840740Y171450D03*
D17*
X478180Y113999D03*
X487680Y113999D03*
X497180Y113999D03*
X497180Y140001D03*
X478180Y140001D03*
D15*
X496180Y177800D03*
X479180Y177800D03*
D12*
X500380Y97400D03*
X500380Y80400D03*
D15*
X496180Y158750D03*
X479180Y158750D03*
D18*
X482410Y67000D02*
X482410Y60000D01*
X475410Y60000D01*
X475410Y67000D01*
X482410Y67000D01*
X482410Y62850D02*
X475410Y62850D01*
X475410Y65700D02*
X482410Y65700D01*
X499950Y67000D02*
X499950Y60000D01*
X492950Y60000D01*
X492950Y67000D01*
X499950Y67000D01*
X499950Y62850D02*
X492950Y62850D01*
X492950Y65700D02*
X499950Y65700D01*
D12*
X474980Y97400D03*
X474980Y80400D03*
D19*
X573880Y75100D03*
X553880Y75100D03*
D20*
X597880Y23100D03*
X529880Y23100D03*
D15*
X546980Y190500D03*
X529980Y190500D03*
X546980Y171450D03*
X529980Y171450D03*
X546980Y152400D03*
X529980Y152400D03*
X885580Y101600D03*
X902580Y101600D03*
D18*
X899350Y92400D02*
X899350Y85400D01*
X899350Y92400D02*
X906350Y92400D01*
X906350Y85400D01*
X899350Y85400D01*
X899350Y88250D02*
X906350Y88250D01*
X906350Y91100D02*
X899350Y91100D01*
X881810Y92400D02*
X881810Y85400D01*
X881810Y92400D02*
X888810Y92400D01*
X888810Y85400D01*
X881810Y85400D01*
X881810Y88250D02*
X888810Y88250D01*
X888810Y91100D02*
X881810Y91100D01*
D21*
X794380Y132800D03*
X587380Y132800D03*
D22*
X600880Y200550D03*
X610880Y200550D03*
X615880Y200550D03*
X605880Y200550D03*
X620880Y200550D03*
X630880Y200550D03*
X635880Y200550D03*
X625880Y200550D03*
X640880Y200550D03*
X650880Y200550D03*
X655880Y200550D03*
X645880Y200550D03*
X660880Y200550D03*
X670880Y200550D03*
X675880Y200550D03*
X665880Y200550D03*
X680880Y200550D03*
X690880Y200550D03*
X695880Y200550D03*
X685880Y200550D03*
X700880Y200550D03*
X705880Y200550D03*
X730880Y200550D03*
X735880Y200550D03*
X740880Y200550D03*
X750880Y200550D03*
X755880Y200550D03*
X745880Y200550D03*
X760880Y200550D03*
X770880Y200550D03*
X775880Y200550D03*
X765880Y200550D03*
X780880Y200550D03*
X598380Y125050D03*
X608380Y125050D03*
X613380Y125050D03*
X603380Y125050D03*
X618380Y125050D03*
X628380Y125050D03*
X633380Y125050D03*
X623380Y125050D03*
X638380Y125050D03*
X648380Y125050D03*
X653380Y125050D03*
X643380Y125050D03*
X658380Y125050D03*
X668380Y125050D03*
X673380Y125050D03*
X663380Y125050D03*
X678380Y125050D03*
X688380Y125050D03*
X693380Y125050D03*
X683380Y125050D03*
X698380Y125050D03*
X703380Y125050D03*
X728380Y125050D03*
X733380Y125050D03*
X738380Y125050D03*
X748380Y125050D03*
X753380Y125050D03*
X743380Y125050D03*
X758380Y125050D03*
X768380Y125050D03*
X773380Y125050D03*
X763380Y125050D03*
X778380Y125050D03*
X783380Y125050D03*
D15*
X860180Y355600D03*
X877180Y355600D03*
D13*
X905430Y200600D03*
X905430Y256600D03*
D14*
X868680Y213600D03*
X868680Y223600D03*
X868680Y233600D03*
X868680Y243600D03*
D23*
X751080Y561900D03*
D24*
X792480Y515900D03*
D23*
X833880Y561900D03*
X547880Y561900D03*
D24*
X589280Y515900D03*
D23*
X630680Y561900D03*
D25*
X868680Y468850D03*
X868680Y496350D03*
D26*
X853430Y482600D03*
X883930Y482600D03*
D25*
X868680Y405350D03*
X868680Y432850D03*
D26*
X853430Y419100D03*
X883930Y419100D03*
D27*
X690880Y100400D03*
X690880Y77400D03*
X665480Y100400D03*
X665480Y77400D03*
X716280Y100400D03*
X716280Y77400D03*
D28*
X521980Y127000D03*
X554980Y127000D03*
D10*
X1160660Y60100D03*
X1155660Y60100D03*
D11*
X1185410Y60100D03*
X1177660Y60100D03*
D10*
X1170660Y60100D03*
X1165660Y60100D03*
X1145660Y60100D03*
X1150660Y60100D03*
D11*
X1120910Y60100D03*
X1128660Y60100D03*
D10*
X1135660Y60100D03*
X1140660Y60100D03*
D12*
X1096010Y40250D03*
X1096010Y23250D03*
X1210310Y40250D03*
X1210310Y23250D03*
D13*
X938610Y256600D03*
X938610Y200600D03*
D14*
X975360Y243600D03*
X975360Y233600D03*
X975360Y223600D03*
X975360Y213600D03*
D15*
X1339460Y304800D03*
X1322460Y304800D03*
X1339460Y330200D03*
X1322460Y330200D03*
D16*
X1358900Y133350D03*
X1303020Y133350D03*
X1358900Y171450D03*
X1303020Y171450D03*
D17*
X940460Y113999D03*
X949960Y113999D03*
X959460Y113999D03*
X959460Y140001D03*
X940460Y140001D03*
D15*
X958460Y177800D03*
X941460Y177800D03*
D12*
X962660Y97400D03*
X962660Y80400D03*
D15*
X958460Y158750D03*
X941460Y158750D03*
D18*
X944690Y67000D02*
X944690Y60000D01*
X937690Y60000D01*
X937690Y67000D01*
X944690Y67000D01*
X944690Y62850D02*
X937690Y62850D01*
X937690Y65700D02*
X944690Y65700D01*
X962230Y67000D02*
X962230Y60000D01*
X955230Y60000D01*
X955230Y67000D01*
X962230Y67000D01*
X962230Y62850D02*
X955230Y62850D01*
X955230Y65700D02*
X962230Y65700D01*
D12*
X937260Y97400D03*
X937260Y80400D03*
D19*
X1036160Y75100D03*
X1016160Y75100D03*
D20*
X1060160Y23100D03*
X992160Y23100D03*
D15*
X1009260Y190500D03*
X992260Y190500D03*
X1009260Y171450D03*
X992260Y171450D03*
X1009260Y152400D03*
X992260Y152400D03*
X1347860Y101600D03*
X1364860Y101600D03*
D18*
X1361630Y92400D02*
X1361630Y85400D01*
X1361630Y92400D02*
X1368630Y92400D01*
X1368630Y85400D01*
X1361630Y85400D01*
X1361630Y88250D02*
X1368630Y88250D01*
X1368630Y91100D02*
X1361630Y91100D01*
X1344090Y92400D02*
X1344090Y85400D01*
X1344090Y92400D02*
X1351090Y92400D01*
X1351090Y85400D01*
X1344090Y85400D01*
X1344090Y88250D02*
X1351090Y88250D01*
X1351090Y91100D02*
X1344090Y91100D01*
D21*
X1256660Y132800D03*
X1049660Y132800D03*
D22*
X1063160Y200550D03*
X1073160Y200550D03*
X1078160Y200550D03*
X1068160Y200550D03*
X1083160Y200550D03*
X1093160Y200550D03*
X1098160Y200550D03*
X1088160Y200550D03*
X1103160Y200550D03*
X1113160Y200550D03*
X1118160Y200550D03*
X1108160Y200550D03*
X1123160Y200550D03*
X1133160Y200550D03*
X1138160Y200550D03*
X1128160Y200550D03*
X1143160Y200550D03*
X1153160Y200550D03*
X1158160Y200550D03*
X1148160Y200550D03*
X1163160Y200550D03*
X1168160Y200550D03*
X1193160Y200550D03*
X1198160Y200550D03*
X1203160Y200550D03*
X1213160Y200550D03*
X1218160Y200550D03*
X1208160Y200550D03*
X1223160Y200550D03*
X1233160Y200550D03*
X1238160Y200550D03*
X1228160Y200550D03*
X1243160Y200550D03*
X1060660Y125050D03*
X1070660Y125050D03*
X1075660Y125050D03*
X1065660Y125050D03*
X1080660Y125050D03*
X1090660Y125050D03*
X1095660Y125050D03*
X1085660Y125050D03*
X1100660Y125050D03*
X1110660Y125050D03*
X1115660Y125050D03*
X1105660Y125050D03*
X1120660Y125050D03*
X1130660Y125050D03*
X1135660Y125050D03*
X1125660Y125050D03*
X1140660Y125050D03*
X1150660Y125050D03*
X1155660Y125050D03*
X1145660Y125050D03*
X1160660Y125050D03*
X1165660Y125050D03*
X1190660Y125050D03*
X1195660Y125050D03*
X1200660Y125050D03*
X1210660Y125050D03*
X1215660Y125050D03*
X1205660Y125050D03*
X1220660Y125050D03*
X1230660Y125050D03*
X1235660Y125050D03*
X1225660Y125050D03*
X1240660Y125050D03*
X1245660Y125050D03*
D15*
X1322460Y355600D03*
X1339460Y355600D03*
D13*
X1367710Y200600D03*
X1367710Y256600D03*
D14*
X1330960Y213600D03*
X1330960Y223600D03*
X1330960Y233600D03*
X1330960Y243600D03*
D23*
X1213360Y561900D03*
D24*
X1254760Y515900D03*
D23*
X1296160Y561900D03*
X1010160Y561900D03*
D24*
X1051560Y515900D03*
D23*
X1092960Y561900D03*
D25*
X1330960Y468850D03*
X1330960Y496350D03*
D26*
X1315710Y482600D03*
X1346210Y482600D03*
D25*
X1330960Y405350D03*
X1330960Y432850D03*
D26*
X1315710Y419100D03*
X1346210Y419100D03*
D27*
X1153160Y100400D03*
X1153160Y77400D03*
X1127760Y100400D03*
X1127760Y77400D03*
X1178560Y100400D03*
X1178560Y77400D03*
D28*
X984260Y127000D03*
X1017260Y127000D03*
D10*
X236100Y733200D03*
X231100Y733200D03*
D11*
X260850Y733200D03*
X253100Y733200D03*
D10*
X246100Y733200D03*
X241100Y733200D03*
X221100Y733200D03*
X226100Y733200D03*
D11*
X196350Y733200D03*
X204100Y733200D03*
D10*
X211100Y733200D03*
X216100Y733200D03*
D12*
X171450Y713350D03*
X171450Y696350D03*
X285750Y713350D03*
X285750Y696350D03*
D13*
X14050Y929700D03*
X14050Y873700D03*
D14*
X50800Y916700D03*
X50800Y906700D03*
X50800Y896700D03*
X50800Y886700D03*
D15*
X414900Y977900D03*
X397900Y977900D03*
X414900Y1003300D03*
X397900Y1003300D03*
D16*
X434340Y806450D03*
X378460Y806450D03*
X434340Y844550D03*
X378460Y844550D03*
D17*
X15900Y787099D03*
X25400Y787099D03*
X34900Y787099D03*
X34900Y813101D03*
X15900Y813101D03*
D15*
X33900Y850900D03*
X16900Y850900D03*
D12*
X38100Y770500D03*
X38100Y753500D03*
D15*
X33900Y831850D03*
X16900Y831850D03*
D18*
X20130Y740100D02*
X20130Y733100D01*
X13130Y733100D01*
X13130Y740100D01*
X20130Y740100D01*
X20130Y735950D02*
X13130Y735950D01*
X13130Y738800D02*
X20130Y738800D01*
X37670Y740100D02*
X37670Y733100D01*
X30670Y733100D01*
X30670Y740100D01*
X37670Y740100D01*
X37670Y735950D02*
X30670Y735950D01*
X30670Y738800D02*
X37670Y738800D01*
D12*
X12700Y770500D03*
X12700Y753500D03*
D19*
X111600Y748200D03*
X91600Y748200D03*
D20*
X135600Y696200D03*
X67600Y696200D03*
D15*
X84700Y863600D03*
X67700Y863600D03*
X84700Y844550D03*
X67700Y844550D03*
X84700Y825500D03*
X67700Y825500D03*
X423300Y774700D03*
X440300Y774700D03*
D18*
X437070Y765500D02*
X437070Y758500D01*
X437070Y765500D02*
X444070Y765500D01*
X444070Y758500D01*
X437070Y758500D01*
X437070Y761350D02*
X444070Y761350D01*
X444070Y764200D02*
X437070Y764200D01*
X419530Y765500D02*
X419530Y758500D01*
X419530Y765500D02*
X426530Y765500D01*
X426530Y758500D01*
X419530Y758500D01*
X419530Y761350D02*
X426530Y761350D01*
X426530Y764200D02*
X419530Y764200D01*
D21*
X332100Y805900D03*
X125100Y805900D03*
D22*
X138600Y873650D03*
X148600Y873650D03*
X153600Y873650D03*
X143600Y873650D03*
X158600Y873650D03*
X168600Y873650D03*
X173600Y873650D03*
X163600Y873650D03*
X178600Y873650D03*
X188600Y873650D03*
X193600Y873650D03*
X183600Y873650D03*
X198600Y873650D03*
X208600Y873650D03*
X213600Y873650D03*
X203600Y873650D03*
X218600Y873650D03*
X228600Y873650D03*
X233600Y873650D03*
X223600Y873650D03*
X238600Y873650D03*
X243600Y873650D03*
X268600Y873650D03*
X273600Y873650D03*
X278600Y873650D03*
X288600Y873650D03*
X293600Y873650D03*
X283600Y873650D03*
X298600Y873650D03*
X308600Y873650D03*
X313600Y873650D03*
X303600Y873650D03*
X318600Y873650D03*
X136100Y798150D03*
X146100Y798150D03*
X151100Y798150D03*
X141100Y798150D03*
X156100Y798150D03*
X166100Y798150D03*
X171100Y798150D03*
X161100Y798150D03*
X176100Y798150D03*
X186100Y798150D03*
X191100Y798150D03*
X181100Y798150D03*
X196100Y798150D03*
X206100Y798150D03*
X211100Y798150D03*
X201100Y798150D03*
X216100Y798150D03*
X226100Y798150D03*
X231100Y798150D03*
X221100Y798150D03*
X236100Y798150D03*
X241100Y798150D03*
X266100Y798150D03*
X271100Y798150D03*
X276100Y798150D03*
X286100Y798150D03*
X291100Y798150D03*
X281100Y798150D03*
X296100Y798150D03*
X306100Y798150D03*
X311100Y798150D03*
X301100Y798150D03*
X316100Y798150D03*
X321100Y798150D03*
D15*
X397900Y1028700D03*
X414900Y1028700D03*
D13*
X443150Y873700D03*
X443150Y929700D03*
D14*
X406400Y886700D03*
X406400Y896700D03*
X406400Y906700D03*
X406400Y916700D03*
D23*
X288800Y1235000D03*
D24*
X330200Y1189000D03*
D23*
X371600Y1235000D03*
X85600Y1235000D03*
D24*
X127000Y1189000D03*
D23*
X168400Y1235000D03*
D25*
X406400Y1141950D03*
X406400Y1169450D03*
D26*
X391150Y1155700D03*
X421650Y1155700D03*
D25*
X406400Y1078450D03*
X406400Y1105950D03*
D26*
X391150Y1092200D03*
X421650Y1092200D03*
D27*
X228600Y773500D03*
X228600Y750500D03*
X203200Y773500D03*
X203200Y750500D03*
X254000Y773500D03*
X254000Y750500D03*
D28*
X59700Y800100D03*
X92700Y800100D03*
D10*
X698380Y733200D03*
X693380Y733200D03*
D11*
X723130Y733200D03*
X715380Y733200D03*
D10*
X708380Y733200D03*
X703380Y733200D03*
X683380Y733200D03*
X688380Y733200D03*
D11*
X658630Y733200D03*
X666380Y733200D03*
D10*
X673380Y733200D03*
X678380Y733200D03*
D12*
X633730Y713350D03*
X633730Y696350D03*
X748030Y713350D03*
X748030Y696350D03*
D13*
X476330Y929700D03*
X476330Y873700D03*
D14*
X513080Y916700D03*
X513080Y906700D03*
X513080Y896700D03*
X513080Y886700D03*
D15*
X877180Y977900D03*
X860180Y977900D03*
X877180Y1003300D03*
X860180Y1003300D03*
D16*
X896620Y806450D03*
X840740Y806450D03*
X896620Y844550D03*
X840740Y844550D03*
D17*
X478180Y787099D03*
X487680Y787099D03*
X497180Y787099D03*
X497180Y813101D03*
X478180Y813101D03*
D15*
X496180Y850900D03*
X479180Y850900D03*
D12*
X500380Y770500D03*
X500380Y753500D03*
D15*
X496180Y831850D03*
X479180Y831850D03*
D18*
X482410Y740100D02*
X482410Y733100D01*
X475410Y733100D01*
X475410Y740100D01*
X482410Y740100D01*
X482410Y735950D02*
X475410Y735950D01*
X475410Y738800D02*
X482410Y738800D01*
X499950Y740100D02*
X499950Y733100D01*
X492950Y733100D01*
X492950Y740100D01*
X499950Y740100D01*
X499950Y735950D02*
X492950Y735950D01*
X492950Y738800D02*
X499950Y738800D01*
D12*
X474980Y770500D03*
X474980Y753500D03*
D19*
X573880Y748200D03*
X553880Y748200D03*
D20*
X597880Y696200D03*
X529880Y696200D03*
D15*
X546980Y863600D03*
X529980Y863600D03*
X546980Y844550D03*
X529980Y844550D03*
X546980Y825500D03*
X529980Y825500D03*
X885580Y774700D03*
X902580Y774700D03*
D18*
X899350Y765500D02*
X899350Y758500D01*
X899350Y765500D02*
X906350Y765500D01*
X906350Y758500D01*
X899350Y758500D01*
X899350Y761350D02*
X906350Y761350D01*
X906350Y764200D02*
X899350Y764200D01*
X881810Y765500D02*
X881810Y758500D01*
X881810Y765500D02*
X888810Y765500D01*
X888810Y758500D01*
X881810Y758500D01*
X881810Y761350D02*
X888810Y761350D01*
X888810Y764200D02*
X881810Y764200D01*
D21*
X794380Y805900D03*
X587380Y805900D03*
D22*
X600880Y873650D03*
X610880Y873650D03*
X615880Y873650D03*
X605880Y873650D03*
X620880Y873650D03*
X630880Y873650D03*
X635880Y873650D03*
X625880Y873650D03*
X640880Y873650D03*
X650880Y873650D03*
X655880Y873650D03*
X645880Y873650D03*
X660880Y873650D03*
X670880Y873650D03*
X675880Y873650D03*
X665880Y873650D03*
X680880Y873650D03*
X690880Y873650D03*
X695880Y873650D03*
X685880Y873650D03*
X700880Y873650D03*
X705880Y873650D03*
X730880Y873650D03*
X735880Y873650D03*
X740880Y873650D03*
X750880Y873650D03*
X755880Y873650D03*
X745880Y873650D03*
X760880Y873650D03*
X770880Y873650D03*
X775880Y873650D03*
X765880Y873650D03*
X780880Y873650D03*
X598380Y798150D03*
X608380Y798150D03*
X613380Y798150D03*
X603380Y798150D03*
X618380Y798150D03*
X628380Y798150D03*
X633380Y798150D03*
X623380Y798150D03*
X638380Y798150D03*
X648380Y798150D03*
X653380Y798150D03*
X643380Y798150D03*
X658380Y798150D03*
X668380Y798150D03*
X673380Y798150D03*
X663380Y798150D03*
X678380Y798150D03*
X688380Y798150D03*
X693380Y798150D03*
X683380Y798150D03*
X698380Y798150D03*
X703380Y798150D03*
X728380Y798150D03*
X733380Y798150D03*
X738380Y798150D03*
X748380Y798150D03*
X753380Y798150D03*
X743380Y798150D03*
X758380Y798150D03*
X768380Y798150D03*
X773380Y798150D03*
X763380Y798150D03*
X778380Y798150D03*
X783380Y798150D03*
D15*
X860180Y1028700D03*
X877180Y1028700D03*
D13*
X905430Y873700D03*
X905430Y929700D03*
D14*
X868680Y886700D03*
X868680Y896700D03*
X868680Y906700D03*
X868680Y916700D03*
D23*
X751080Y1235000D03*
D24*
X792480Y1189000D03*
D23*
X833880Y1235000D03*
X547880Y1235000D03*
D24*
X589280Y1189000D03*
D23*
X630680Y1235000D03*
D25*
X868680Y1141950D03*
X868680Y1169450D03*
D26*
X853430Y1155700D03*
X883930Y1155700D03*
D25*
X868680Y1078450D03*
X868680Y1105950D03*
D26*
X853430Y1092200D03*
X883930Y1092200D03*
D27*
X690880Y773500D03*
X690880Y750500D03*
X665480Y773500D03*
X665480Y750500D03*
X716280Y773500D03*
X716280Y750500D03*
D28*
X521980Y800100D03*
X554980Y800100D03*
D10*
X1160660Y733200D03*
X1155660Y733200D03*
D11*
X1185410Y733200D03*
X1177660Y733200D03*
D10*
X1170660Y733200D03*
X1165660Y733200D03*
X1145660Y733200D03*
X1150660Y733200D03*
D11*
X1120910Y733200D03*
X1128660Y733200D03*
D10*
X1135660Y733200D03*
X1140660Y733200D03*
D12*
X1096010Y713350D03*
X1096010Y696350D03*
X1210310Y713350D03*
X1210310Y696350D03*
D13*
X938610Y929700D03*
X938610Y873700D03*
D14*
X975360Y916700D03*
X975360Y906700D03*
X975360Y896700D03*
X975360Y886700D03*
D15*
X1339460Y977900D03*
X1322460Y977900D03*
X1339460Y1003300D03*
X1322460Y1003300D03*
D16*
X1358900Y806450D03*
X1303020Y806450D03*
X1358900Y844550D03*
X1303020Y844550D03*
D17*
X940460Y787099D03*
X949960Y787099D03*
X959460Y787099D03*
X959460Y813101D03*
X940460Y813101D03*
D15*
X958460Y850900D03*
X941460Y850900D03*
D12*
X962660Y770500D03*
X962660Y753500D03*
D15*
X958460Y831850D03*
X941460Y831850D03*
D18*
X944690Y740100D02*
X944690Y733100D01*
X937690Y733100D01*
X937690Y740100D01*
X944690Y740100D01*
X944690Y735950D02*
X937690Y735950D01*
X937690Y738800D02*
X944690Y738800D01*
X962230Y740100D02*
X962230Y733100D01*
X955230Y733100D01*
X955230Y740100D01*
X962230Y740100D01*
X962230Y735950D02*
X955230Y735950D01*
X955230Y738800D02*
X962230Y738800D01*
D12*
X937260Y770500D03*
X937260Y753500D03*
D19*
X1036160Y748200D03*
X1016160Y748200D03*
D20*
X1060160Y696200D03*
X992160Y696200D03*
D15*
X1009260Y863600D03*
X992260Y863600D03*
X1009260Y844550D03*
X992260Y844550D03*
X1009260Y825500D03*
X992260Y825500D03*
X1347860Y774700D03*
X1364860Y774700D03*
D18*
X1361630Y765500D02*
X1361630Y758500D01*
X1361630Y765500D02*
X1368630Y765500D01*
X1368630Y758500D01*
X1361630Y758500D01*
X1361630Y761350D02*
X1368630Y761350D01*
X1368630Y764200D02*
X1361630Y764200D01*
X1344090Y765500D02*
X1344090Y758500D01*
X1344090Y765500D02*
X1351090Y765500D01*
X1351090Y758500D01*
X1344090Y758500D01*
X1344090Y761350D02*
X1351090Y761350D01*
X1351090Y764200D02*
X1344090Y764200D01*
D21*
X1256660Y805900D03*
X1049660Y805900D03*
D22*
X1063160Y873650D03*
X1073160Y873650D03*
X1078160Y873650D03*
X1068160Y873650D03*
X1083160Y873650D03*
X1093160Y873650D03*
X1098160Y873650D03*
X1088160Y873650D03*
X1103160Y873650D03*
X1113160Y873650D03*
X1118160Y873650D03*
X1108160Y873650D03*
X1123160Y873650D03*
X1133160Y873650D03*
X1138160Y873650D03*
X1128160Y873650D03*
X1143160Y873650D03*
X1153160Y873650D03*
X1158160Y873650D03*
X1148160Y873650D03*
X1163160Y873650D03*
X1168160Y873650D03*
X1193160Y873650D03*
X1198160Y873650D03*
X1203160Y873650D03*
X1213160Y873650D03*
X1218160Y873650D03*
X1208160Y873650D03*
X1223160Y873650D03*
X1233160Y873650D03*
X1238160Y873650D03*
X1228160Y873650D03*
X1243160Y873650D03*
X1060660Y798150D03*
X1070660Y798150D03*
X1075660Y798150D03*
X1065660Y798150D03*
X1080660Y798150D03*
X1090660Y798150D03*
X1095660Y798150D03*
X1085660Y798150D03*
X1100660Y798150D03*
X1110660Y798150D03*
X1115660Y798150D03*
X1105660Y798150D03*
X1120660Y798150D03*
X1130660Y798150D03*
X1135660Y798150D03*
X1125660Y798150D03*
X1140660Y798150D03*
X1150660Y798150D03*
X1155660Y798150D03*
X1145660Y798150D03*
X1160660Y798150D03*
X1165660Y798150D03*
X1190660Y798150D03*
X1195660Y798150D03*
X1200660Y798150D03*
X1210660Y798150D03*
X1215660Y798150D03*
X1205660Y798150D03*
X1220660Y798150D03*
X1230660Y798150D03*
X1235660Y798150D03*
X1225660Y798150D03*
X1240660Y798150D03*
X1245660Y798150D03*
D15*
X1322460Y1028700D03*
X1339460Y1028700D03*
D13*
X1367710Y873700D03*
X1367710Y929700D03*
D14*
X1330960Y886700D03*
X1330960Y896700D03*
X1330960Y906700D03*
X1330960Y916700D03*
D23*
X1213360Y1235000D03*
D24*
X1254760Y1189000D03*
D23*
X1296160Y1235000D03*
X1010160Y1235000D03*
D24*
X1051560Y1189000D03*
D23*
X1092960Y1235000D03*
D25*
X1330960Y1141950D03*
X1330960Y1169450D03*
D26*
X1315710Y1155700D03*
X1346210Y1155700D03*
D25*
X1330960Y1078450D03*
X1330960Y1105950D03*
D26*
X1315710Y1092200D03*
X1346210Y1092200D03*
D27*
X1153160Y773500D03*
X1153160Y750500D03*
X1127760Y773500D03*
X1127760Y750500D03*
X1178560Y773500D03*
X1178560Y750500D03*
D28*
X984260Y800100D03*
X1017260Y800100D03*
M02*
