G04 EAGLE Gerber RS-274X export*
G75*
%MOMM*%
%FSLAX34Y34*%
%LPD*%
%INSoldermask Top*%
%IPPOS*%
%AMOC8*
5,1,8,0,0,1.08239X$1,22.5*%
G01*
%ADD10R,0.503200X1.203200*%
%ADD11R,0.803200X1.203200*%
%ADD12C,0.853200*%
%ADD13R,1.203200X1.303200*%
%ADD14C,0.838200*%
%ADD15C,3.505200*%
%ADD16R,2.203200X1.403200*%
%ADD17R,1.553200X0.803200*%
%ADD18R,1.303200X1.203200*%
%ADD19R,1.727200X0.965200*%
%ADD20C,2.082800*%
%ADD21C,6.203200*%
%ADD22R,0.753200X1.403200*%
%ADD23C,0.505344*%
%ADD24R,1.203200X4.803200*%
%ADD25R,1.803200X3.603200*%
%ADD26C,1.303200*%
%ADD27C,1.803200*%
%ADD28R,0.503200X1.753200*%
%ADD29R,1.403200X2.953200*%
%ADD30R,1.353200X7.203200*%
%ADD31R,1.103200X2.403200*%
%ADD32R,2.403200X1.053200*%
%ADD33R,1.253200X1.203200*%
%ADD34R,1.033200X0.833200*%
%ADD35R,1.403200X2.703200*%
%ADD36C,1.203200*%
%ADD37C,1.270000*%
%ADD38C,1.703200*%

G36*
X648964Y715983D02*
X648964Y715983D01*
X648970Y715989D01*
X648975Y715985D01*
X650205Y716350D01*
X650210Y716357D01*
X650215Y716355D01*
X651334Y716985D01*
X651337Y716992D01*
X651343Y716991D01*
X652293Y717854D01*
X652294Y717862D01*
X652300Y717862D01*
X653034Y718915D01*
X653034Y718923D01*
X653039Y718925D01*
X653521Y720115D01*
X653519Y720120D01*
X653523Y720123D01*
X653522Y720124D01*
X653524Y720125D01*
X653729Y721392D01*
X653726Y721397D01*
X653729Y721400D01*
X653729Y733400D01*
X653726Y733404D01*
X653729Y733407D01*
X653574Y734529D01*
X653569Y734534D01*
X653572Y734538D01*
X653201Y735609D01*
X653195Y735613D01*
X653197Y735618D01*
X652624Y736595D01*
X652618Y736598D01*
X652619Y736603D01*
X651866Y737450D01*
X651859Y737452D01*
X651859Y737457D01*
X650956Y738141D01*
X650949Y738141D01*
X650948Y738146D01*
X649929Y738641D01*
X649922Y738639D01*
X649920Y738644D01*
X648823Y738931D01*
X648817Y738928D01*
X648814Y738932D01*
X647683Y738999D01*
X647677Y738999D01*
X646546Y738932D01*
X646541Y738927D01*
X646537Y738931D01*
X645440Y738644D01*
X645436Y738638D01*
X645431Y738641D01*
X644412Y738146D01*
X644409Y738140D01*
X644404Y738141D01*
X643501Y737457D01*
X643499Y737450D01*
X643494Y737450D01*
X642741Y736603D01*
X642741Y736596D01*
X642736Y736595D01*
X642163Y735618D01*
X642164Y735615D01*
X642163Y735614D01*
X642164Y735613D01*
X642164Y735611D01*
X642159Y735609D01*
X641788Y734538D01*
X641790Y734533D01*
X641787Y734531D01*
X641787Y734530D01*
X641786Y734529D01*
X641631Y733407D01*
X641634Y733402D01*
X641631Y733400D01*
X641631Y721400D01*
X641634Y721395D01*
X641631Y721392D01*
X641836Y720125D01*
X641842Y720119D01*
X641839Y720115D01*
X642321Y718925D01*
X642328Y718921D01*
X642326Y718915D01*
X643060Y717862D01*
X643068Y717860D01*
X643067Y717854D01*
X644017Y716991D01*
X644026Y716990D01*
X644026Y716985D01*
X645145Y716355D01*
X645153Y716356D01*
X645155Y716350D01*
X646385Y715985D01*
X646393Y715988D01*
X646396Y715983D01*
X647677Y715901D01*
X647681Y715904D01*
X647683Y715901D01*
X648964Y715983D01*
G37*
G36*
X735364Y715983D02*
X735364Y715983D01*
X735370Y715989D01*
X735375Y715985D01*
X736605Y716350D01*
X736610Y716357D01*
X736615Y716355D01*
X737734Y716985D01*
X737737Y716992D01*
X737743Y716991D01*
X738693Y717854D01*
X738694Y717862D01*
X738700Y717862D01*
X739434Y718915D01*
X739434Y718923D01*
X739439Y718925D01*
X739921Y720115D01*
X739919Y720120D01*
X739923Y720123D01*
X739922Y720124D01*
X739924Y720125D01*
X740129Y721392D01*
X740126Y721397D01*
X740129Y721400D01*
X740129Y733400D01*
X740126Y733404D01*
X740129Y733407D01*
X739974Y734529D01*
X739969Y734534D01*
X739972Y734538D01*
X739601Y735609D01*
X739595Y735613D01*
X739597Y735618D01*
X739024Y736595D01*
X739018Y736598D01*
X739019Y736603D01*
X738266Y737450D01*
X738259Y737452D01*
X738259Y737457D01*
X737356Y738141D01*
X737349Y738141D01*
X737348Y738146D01*
X736329Y738641D01*
X736322Y738639D01*
X736320Y738644D01*
X735223Y738931D01*
X735217Y738928D01*
X735214Y738932D01*
X734083Y738999D01*
X734077Y738999D01*
X732946Y738932D01*
X732941Y738927D01*
X732937Y738931D01*
X731840Y738644D01*
X731836Y738638D01*
X731831Y738641D01*
X730812Y738146D01*
X730809Y738140D01*
X730804Y738141D01*
X729901Y737457D01*
X729899Y737450D01*
X729894Y737450D01*
X729141Y736603D01*
X729141Y736596D01*
X729136Y736595D01*
X728563Y735618D01*
X728564Y735615D01*
X728563Y735614D01*
X728564Y735613D01*
X728564Y735611D01*
X728559Y735609D01*
X728188Y734538D01*
X728190Y734533D01*
X728187Y734531D01*
X728187Y734530D01*
X728186Y734529D01*
X728031Y733407D01*
X728034Y733402D01*
X728031Y733400D01*
X728031Y721400D01*
X728034Y721395D01*
X728031Y721392D01*
X728236Y720125D01*
X728242Y720119D01*
X728239Y720115D01*
X728721Y718925D01*
X728728Y718921D01*
X728726Y718915D01*
X729460Y717862D01*
X729468Y717860D01*
X729467Y717854D01*
X730417Y716991D01*
X730426Y716990D01*
X730426Y716985D01*
X731545Y716355D01*
X731553Y716356D01*
X731555Y716350D01*
X732785Y715985D01*
X732793Y715988D01*
X732796Y715983D01*
X734077Y715901D01*
X734081Y715904D01*
X734083Y715901D01*
X735364Y715983D01*
G37*
G36*
X1111244Y715983D02*
X1111244Y715983D01*
X1111250Y715989D01*
X1111255Y715985D01*
X1112485Y716350D01*
X1112490Y716357D01*
X1112495Y716355D01*
X1113614Y716985D01*
X1113617Y716992D01*
X1113623Y716991D01*
X1114573Y717854D01*
X1114574Y717862D01*
X1114580Y717862D01*
X1115314Y718915D01*
X1115314Y718923D01*
X1115319Y718925D01*
X1115801Y720115D01*
X1115799Y720120D01*
X1115803Y720123D01*
X1115802Y720124D01*
X1115804Y720125D01*
X1116009Y721392D01*
X1116006Y721397D01*
X1116009Y721400D01*
X1116009Y733400D01*
X1116006Y733404D01*
X1116009Y733407D01*
X1115854Y734529D01*
X1115849Y734534D01*
X1115852Y734538D01*
X1115481Y735609D01*
X1115475Y735613D01*
X1115477Y735618D01*
X1114904Y736595D01*
X1114898Y736598D01*
X1114899Y736603D01*
X1114146Y737450D01*
X1114139Y737452D01*
X1114139Y737457D01*
X1113236Y738141D01*
X1113229Y738141D01*
X1113228Y738146D01*
X1112209Y738641D01*
X1112202Y738639D01*
X1112200Y738644D01*
X1111103Y738931D01*
X1111097Y738928D01*
X1111094Y738932D01*
X1109963Y738999D01*
X1109957Y738999D01*
X1108826Y738932D01*
X1108821Y738927D01*
X1108817Y738931D01*
X1107720Y738644D01*
X1107716Y738638D01*
X1107711Y738641D01*
X1106692Y738146D01*
X1106689Y738140D01*
X1106684Y738141D01*
X1105781Y737457D01*
X1105779Y737450D01*
X1105774Y737450D01*
X1105021Y736603D01*
X1105021Y736596D01*
X1105016Y736595D01*
X1104443Y735618D01*
X1104444Y735615D01*
X1104443Y735614D01*
X1104444Y735613D01*
X1104444Y735611D01*
X1104439Y735609D01*
X1104068Y734538D01*
X1104070Y734533D01*
X1104067Y734531D01*
X1104067Y734530D01*
X1104066Y734529D01*
X1103911Y733407D01*
X1103914Y733402D01*
X1103911Y733400D01*
X1103911Y721400D01*
X1103914Y721395D01*
X1103911Y721392D01*
X1104116Y720125D01*
X1104122Y720119D01*
X1104119Y720115D01*
X1104601Y718925D01*
X1104608Y718921D01*
X1104606Y718915D01*
X1105340Y717862D01*
X1105348Y717860D01*
X1105347Y717854D01*
X1106297Y716991D01*
X1106306Y716990D01*
X1106306Y716985D01*
X1107425Y716355D01*
X1107433Y716356D01*
X1107435Y716350D01*
X1108665Y715985D01*
X1108673Y715988D01*
X1108676Y715983D01*
X1109957Y715901D01*
X1109961Y715904D01*
X1109963Y715901D01*
X1111244Y715983D01*
G37*
G36*
X1197644Y715983D02*
X1197644Y715983D01*
X1197650Y715989D01*
X1197655Y715985D01*
X1198885Y716350D01*
X1198890Y716357D01*
X1198895Y716355D01*
X1200014Y716985D01*
X1200017Y716992D01*
X1200023Y716991D01*
X1200973Y717854D01*
X1200974Y717862D01*
X1200980Y717862D01*
X1201714Y718915D01*
X1201714Y718923D01*
X1201719Y718925D01*
X1202201Y720115D01*
X1202199Y720120D01*
X1202203Y720123D01*
X1202202Y720124D01*
X1202204Y720125D01*
X1202409Y721392D01*
X1202406Y721397D01*
X1202409Y721400D01*
X1202409Y733400D01*
X1202406Y733404D01*
X1202409Y733407D01*
X1202254Y734529D01*
X1202249Y734534D01*
X1202252Y734538D01*
X1201881Y735609D01*
X1201875Y735613D01*
X1201877Y735618D01*
X1201304Y736595D01*
X1201298Y736598D01*
X1201299Y736603D01*
X1200546Y737450D01*
X1200539Y737452D01*
X1200539Y737457D01*
X1199636Y738141D01*
X1199629Y738141D01*
X1199628Y738146D01*
X1198609Y738641D01*
X1198602Y738639D01*
X1198600Y738644D01*
X1197503Y738931D01*
X1197497Y738928D01*
X1197494Y738932D01*
X1196363Y738999D01*
X1196357Y738999D01*
X1195226Y738932D01*
X1195221Y738927D01*
X1195217Y738931D01*
X1194120Y738644D01*
X1194116Y738638D01*
X1194111Y738641D01*
X1193092Y738146D01*
X1193089Y738140D01*
X1193084Y738141D01*
X1192181Y737457D01*
X1192179Y737450D01*
X1192174Y737450D01*
X1191421Y736603D01*
X1191421Y736596D01*
X1191416Y736595D01*
X1190843Y735618D01*
X1190844Y735615D01*
X1190843Y735614D01*
X1190844Y735613D01*
X1190844Y735611D01*
X1190839Y735609D01*
X1190468Y734538D01*
X1190470Y734533D01*
X1190467Y734531D01*
X1190467Y734530D01*
X1190466Y734529D01*
X1190311Y733407D01*
X1190314Y733402D01*
X1190311Y733400D01*
X1190311Y721400D01*
X1190314Y721395D01*
X1190311Y721392D01*
X1190516Y720125D01*
X1190522Y720119D01*
X1190519Y720115D01*
X1191001Y718925D01*
X1191008Y718921D01*
X1191006Y718915D01*
X1191740Y717862D01*
X1191748Y717860D01*
X1191747Y717854D01*
X1192697Y716991D01*
X1192706Y716990D01*
X1192706Y716985D01*
X1193825Y716355D01*
X1193833Y716356D01*
X1193835Y716350D01*
X1195065Y715985D01*
X1195073Y715988D01*
X1195076Y715983D01*
X1196357Y715901D01*
X1196361Y715904D01*
X1196363Y715901D01*
X1197644Y715983D01*
G37*
G36*
X273084Y715983D02*
X273084Y715983D01*
X273090Y715989D01*
X273095Y715985D01*
X274325Y716350D01*
X274330Y716357D01*
X274335Y716355D01*
X275454Y716985D01*
X275457Y716992D01*
X275463Y716991D01*
X276413Y717854D01*
X276414Y717862D01*
X276420Y717862D01*
X277154Y718915D01*
X277154Y718923D01*
X277159Y718925D01*
X277641Y720115D01*
X277639Y720120D01*
X277643Y720123D01*
X277642Y720124D01*
X277644Y720125D01*
X277849Y721392D01*
X277846Y721397D01*
X277849Y721400D01*
X277849Y733400D01*
X277846Y733404D01*
X277849Y733407D01*
X277694Y734529D01*
X277689Y734534D01*
X277692Y734538D01*
X277321Y735609D01*
X277315Y735613D01*
X277317Y735618D01*
X276744Y736595D01*
X276738Y736598D01*
X276739Y736603D01*
X275986Y737450D01*
X275979Y737452D01*
X275979Y737457D01*
X275076Y738141D01*
X275069Y738141D01*
X275068Y738146D01*
X274049Y738641D01*
X274042Y738639D01*
X274040Y738644D01*
X272943Y738931D01*
X272937Y738928D01*
X272934Y738932D01*
X271803Y738999D01*
X271797Y738999D01*
X270666Y738932D01*
X270661Y738927D01*
X270657Y738931D01*
X269560Y738644D01*
X269556Y738638D01*
X269551Y738641D01*
X268532Y738146D01*
X268529Y738140D01*
X268524Y738141D01*
X267621Y737457D01*
X267619Y737450D01*
X267614Y737450D01*
X266861Y736603D01*
X266861Y736596D01*
X266856Y736595D01*
X266283Y735618D01*
X266284Y735615D01*
X266283Y735614D01*
X266284Y735613D01*
X266284Y735611D01*
X266279Y735609D01*
X265908Y734538D01*
X265910Y734533D01*
X265907Y734531D01*
X265907Y734530D01*
X265906Y734529D01*
X265751Y733407D01*
X265754Y733402D01*
X265751Y733400D01*
X265751Y721400D01*
X265754Y721395D01*
X265751Y721392D01*
X265956Y720125D01*
X265962Y720119D01*
X265959Y720115D01*
X266441Y718925D01*
X266448Y718921D01*
X266446Y718915D01*
X267180Y717862D01*
X267188Y717860D01*
X267187Y717854D01*
X268137Y716991D01*
X268146Y716990D01*
X268146Y716985D01*
X269265Y716355D01*
X269273Y716356D01*
X269275Y716350D01*
X270505Y715985D01*
X270513Y715988D01*
X270516Y715983D01*
X271797Y715901D01*
X271801Y715904D01*
X271803Y715901D01*
X273084Y715983D01*
G37*
G36*
X186684Y715983D02*
X186684Y715983D01*
X186690Y715989D01*
X186695Y715985D01*
X187925Y716350D01*
X187930Y716357D01*
X187935Y716355D01*
X189054Y716985D01*
X189057Y716992D01*
X189063Y716991D01*
X190013Y717854D01*
X190014Y717862D01*
X190020Y717862D01*
X190754Y718915D01*
X190754Y718923D01*
X190759Y718925D01*
X191241Y720115D01*
X191239Y720120D01*
X191243Y720123D01*
X191242Y720124D01*
X191244Y720125D01*
X191449Y721392D01*
X191446Y721397D01*
X191449Y721400D01*
X191449Y733400D01*
X191446Y733404D01*
X191449Y733407D01*
X191294Y734529D01*
X191289Y734534D01*
X191292Y734538D01*
X190921Y735609D01*
X190915Y735613D01*
X190917Y735618D01*
X190344Y736595D01*
X190338Y736598D01*
X190339Y736603D01*
X189586Y737450D01*
X189579Y737452D01*
X189579Y737457D01*
X188676Y738141D01*
X188669Y738141D01*
X188668Y738146D01*
X187649Y738641D01*
X187642Y738639D01*
X187640Y738644D01*
X186543Y738931D01*
X186537Y738928D01*
X186534Y738932D01*
X185403Y738999D01*
X185397Y738999D01*
X184266Y738932D01*
X184261Y738927D01*
X184257Y738931D01*
X183160Y738644D01*
X183156Y738638D01*
X183151Y738641D01*
X182132Y738146D01*
X182129Y738140D01*
X182124Y738141D01*
X181221Y737457D01*
X181219Y737450D01*
X181214Y737450D01*
X180461Y736603D01*
X180461Y736596D01*
X180456Y736595D01*
X179883Y735618D01*
X179884Y735615D01*
X179883Y735614D01*
X179884Y735613D01*
X179884Y735611D01*
X179879Y735609D01*
X179508Y734538D01*
X179510Y734533D01*
X179507Y734531D01*
X179507Y734530D01*
X179506Y734529D01*
X179351Y733407D01*
X179354Y733402D01*
X179351Y733400D01*
X179351Y721400D01*
X179354Y721395D01*
X179351Y721392D01*
X179556Y720125D01*
X179562Y720119D01*
X179559Y720115D01*
X180041Y718925D01*
X180048Y718921D01*
X180046Y718915D01*
X180780Y717862D01*
X180788Y717860D01*
X180787Y717854D01*
X181737Y716991D01*
X181746Y716990D01*
X181746Y716985D01*
X182865Y716355D01*
X182873Y716356D01*
X182875Y716350D01*
X184105Y715985D01*
X184113Y715988D01*
X184116Y715983D01*
X185397Y715901D01*
X185401Y715904D01*
X185403Y715901D01*
X186684Y715983D01*
G37*
G36*
X273084Y42883D02*
X273084Y42883D01*
X273090Y42889D01*
X273095Y42885D01*
X274325Y43250D01*
X274330Y43257D01*
X274335Y43255D01*
X275454Y43885D01*
X275457Y43892D01*
X275463Y43891D01*
X276413Y44754D01*
X276414Y44762D01*
X276420Y44762D01*
X277154Y45815D01*
X277154Y45823D01*
X277159Y45825D01*
X277641Y47015D01*
X277639Y47020D01*
X277643Y47023D01*
X277642Y47024D01*
X277644Y47025D01*
X277849Y48292D01*
X277846Y48297D01*
X277849Y48300D01*
X277849Y60300D01*
X277846Y60304D01*
X277849Y60307D01*
X277694Y61429D01*
X277689Y61434D01*
X277692Y61438D01*
X277321Y62509D01*
X277315Y62513D01*
X277317Y62518D01*
X276744Y63495D01*
X276738Y63498D01*
X276739Y63503D01*
X275986Y64350D01*
X275979Y64352D01*
X275979Y64357D01*
X275076Y65041D01*
X275069Y65041D01*
X275068Y65046D01*
X274049Y65541D01*
X274042Y65539D01*
X274040Y65544D01*
X272943Y65831D01*
X272937Y65828D01*
X272934Y65832D01*
X271803Y65899D01*
X271797Y65899D01*
X270666Y65832D01*
X270661Y65827D01*
X270657Y65831D01*
X269560Y65544D01*
X269556Y65538D01*
X269551Y65541D01*
X268532Y65046D01*
X268529Y65040D01*
X268524Y65041D01*
X267621Y64357D01*
X267619Y64350D01*
X267614Y64350D01*
X266861Y63503D01*
X266861Y63496D01*
X266856Y63495D01*
X266283Y62518D01*
X266284Y62515D01*
X266283Y62514D01*
X266284Y62513D01*
X266284Y62511D01*
X266279Y62509D01*
X265908Y61438D01*
X265910Y61433D01*
X265907Y61431D01*
X265907Y61430D01*
X265906Y61429D01*
X265751Y60307D01*
X265754Y60302D01*
X265751Y60300D01*
X265751Y48300D01*
X265754Y48295D01*
X265751Y48292D01*
X265956Y47025D01*
X265962Y47019D01*
X265959Y47015D01*
X266441Y45825D01*
X266448Y45821D01*
X266446Y45815D01*
X267180Y44762D01*
X267188Y44760D01*
X267187Y44754D01*
X268137Y43891D01*
X268146Y43890D01*
X268146Y43885D01*
X269265Y43255D01*
X269273Y43256D01*
X269275Y43250D01*
X270505Y42885D01*
X270513Y42888D01*
X270516Y42883D01*
X271797Y42801D01*
X271801Y42804D01*
X271803Y42801D01*
X273084Y42883D01*
G37*
G36*
X1197644Y42883D02*
X1197644Y42883D01*
X1197650Y42889D01*
X1197655Y42885D01*
X1198885Y43250D01*
X1198890Y43257D01*
X1198895Y43255D01*
X1200014Y43885D01*
X1200017Y43892D01*
X1200023Y43891D01*
X1200973Y44754D01*
X1200974Y44762D01*
X1200980Y44762D01*
X1201714Y45815D01*
X1201714Y45823D01*
X1201719Y45825D01*
X1202201Y47015D01*
X1202199Y47020D01*
X1202203Y47023D01*
X1202202Y47024D01*
X1202204Y47025D01*
X1202409Y48292D01*
X1202406Y48297D01*
X1202409Y48300D01*
X1202409Y60300D01*
X1202406Y60304D01*
X1202409Y60307D01*
X1202254Y61429D01*
X1202249Y61434D01*
X1202252Y61438D01*
X1201881Y62509D01*
X1201875Y62513D01*
X1201877Y62518D01*
X1201304Y63495D01*
X1201298Y63498D01*
X1201299Y63503D01*
X1200546Y64350D01*
X1200539Y64352D01*
X1200539Y64357D01*
X1199636Y65041D01*
X1199629Y65041D01*
X1199628Y65046D01*
X1198609Y65541D01*
X1198602Y65539D01*
X1198600Y65544D01*
X1197503Y65831D01*
X1197497Y65828D01*
X1197494Y65832D01*
X1196363Y65899D01*
X1196357Y65899D01*
X1195226Y65832D01*
X1195221Y65827D01*
X1195217Y65831D01*
X1194120Y65544D01*
X1194116Y65538D01*
X1194111Y65541D01*
X1193092Y65046D01*
X1193089Y65040D01*
X1193084Y65041D01*
X1192181Y64357D01*
X1192179Y64350D01*
X1192174Y64350D01*
X1191421Y63503D01*
X1191421Y63496D01*
X1191416Y63495D01*
X1190843Y62518D01*
X1190844Y62515D01*
X1190843Y62514D01*
X1190844Y62513D01*
X1190844Y62511D01*
X1190839Y62509D01*
X1190468Y61438D01*
X1190470Y61433D01*
X1190467Y61431D01*
X1190467Y61430D01*
X1190466Y61429D01*
X1190311Y60307D01*
X1190314Y60302D01*
X1190311Y60300D01*
X1190311Y48300D01*
X1190314Y48295D01*
X1190311Y48292D01*
X1190516Y47025D01*
X1190522Y47019D01*
X1190519Y47015D01*
X1191001Y45825D01*
X1191008Y45821D01*
X1191006Y45815D01*
X1191740Y44762D01*
X1191748Y44760D01*
X1191747Y44754D01*
X1192697Y43891D01*
X1192706Y43890D01*
X1192706Y43885D01*
X1193825Y43255D01*
X1193833Y43256D01*
X1193835Y43250D01*
X1195065Y42885D01*
X1195073Y42888D01*
X1195076Y42883D01*
X1196357Y42801D01*
X1196361Y42804D01*
X1196363Y42801D01*
X1197644Y42883D01*
G37*
G36*
X648964Y42883D02*
X648964Y42883D01*
X648970Y42889D01*
X648975Y42885D01*
X650205Y43250D01*
X650210Y43257D01*
X650215Y43255D01*
X651334Y43885D01*
X651337Y43892D01*
X651343Y43891D01*
X652293Y44754D01*
X652294Y44762D01*
X652300Y44762D01*
X653034Y45815D01*
X653034Y45823D01*
X653039Y45825D01*
X653521Y47015D01*
X653519Y47020D01*
X653523Y47023D01*
X653522Y47024D01*
X653524Y47025D01*
X653729Y48292D01*
X653726Y48297D01*
X653729Y48300D01*
X653729Y60300D01*
X653726Y60304D01*
X653729Y60307D01*
X653574Y61429D01*
X653569Y61434D01*
X653572Y61438D01*
X653201Y62509D01*
X653195Y62513D01*
X653197Y62518D01*
X652624Y63495D01*
X652618Y63498D01*
X652619Y63503D01*
X651866Y64350D01*
X651859Y64352D01*
X651859Y64357D01*
X650956Y65041D01*
X650949Y65041D01*
X650948Y65046D01*
X649929Y65541D01*
X649922Y65539D01*
X649920Y65544D01*
X648823Y65831D01*
X648817Y65828D01*
X648814Y65832D01*
X647683Y65899D01*
X647677Y65899D01*
X646546Y65832D01*
X646541Y65827D01*
X646537Y65831D01*
X645440Y65544D01*
X645436Y65538D01*
X645431Y65541D01*
X644412Y65046D01*
X644409Y65040D01*
X644404Y65041D01*
X643501Y64357D01*
X643499Y64350D01*
X643494Y64350D01*
X642741Y63503D01*
X642741Y63496D01*
X642736Y63495D01*
X642163Y62518D01*
X642164Y62515D01*
X642163Y62514D01*
X642164Y62513D01*
X642164Y62511D01*
X642159Y62509D01*
X641788Y61438D01*
X641790Y61433D01*
X641787Y61431D01*
X641787Y61430D01*
X641786Y61429D01*
X641631Y60307D01*
X641634Y60302D01*
X641631Y60300D01*
X641631Y48300D01*
X641634Y48295D01*
X641631Y48292D01*
X641836Y47025D01*
X641842Y47019D01*
X641839Y47015D01*
X642321Y45825D01*
X642328Y45821D01*
X642326Y45815D01*
X643060Y44762D01*
X643068Y44760D01*
X643067Y44754D01*
X644017Y43891D01*
X644026Y43890D01*
X644026Y43885D01*
X645145Y43255D01*
X645153Y43256D01*
X645155Y43250D01*
X646385Y42885D01*
X646393Y42888D01*
X646396Y42883D01*
X647677Y42801D01*
X647681Y42804D01*
X647683Y42801D01*
X648964Y42883D01*
G37*
G36*
X735364Y42883D02*
X735364Y42883D01*
X735370Y42889D01*
X735375Y42885D01*
X736605Y43250D01*
X736610Y43257D01*
X736615Y43255D01*
X737734Y43885D01*
X737737Y43892D01*
X737743Y43891D01*
X738693Y44754D01*
X738694Y44762D01*
X738700Y44762D01*
X739434Y45815D01*
X739434Y45823D01*
X739439Y45825D01*
X739921Y47015D01*
X739919Y47020D01*
X739923Y47023D01*
X739922Y47024D01*
X739924Y47025D01*
X740129Y48292D01*
X740126Y48297D01*
X740129Y48300D01*
X740129Y60300D01*
X740126Y60304D01*
X740129Y60307D01*
X739974Y61429D01*
X739969Y61434D01*
X739972Y61438D01*
X739601Y62509D01*
X739595Y62513D01*
X739597Y62518D01*
X739024Y63495D01*
X739018Y63498D01*
X739019Y63503D01*
X738266Y64350D01*
X738259Y64352D01*
X738259Y64357D01*
X737356Y65041D01*
X737349Y65041D01*
X737348Y65046D01*
X736329Y65541D01*
X736322Y65539D01*
X736320Y65544D01*
X735223Y65831D01*
X735217Y65828D01*
X735214Y65832D01*
X734083Y65899D01*
X734077Y65899D01*
X732946Y65832D01*
X732941Y65827D01*
X732937Y65831D01*
X731840Y65544D01*
X731836Y65538D01*
X731831Y65541D01*
X730812Y65046D01*
X730809Y65040D01*
X730804Y65041D01*
X729901Y64357D01*
X729899Y64350D01*
X729894Y64350D01*
X729141Y63503D01*
X729141Y63496D01*
X729136Y63495D01*
X728563Y62518D01*
X728564Y62515D01*
X728563Y62514D01*
X728564Y62513D01*
X728564Y62511D01*
X728559Y62509D01*
X728188Y61438D01*
X728190Y61433D01*
X728187Y61431D01*
X728187Y61430D01*
X728186Y61429D01*
X728031Y60307D01*
X728034Y60302D01*
X728031Y60300D01*
X728031Y48300D01*
X728034Y48295D01*
X728031Y48292D01*
X728236Y47025D01*
X728242Y47019D01*
X728239Y47015D01*
X728721Y45825D01*
X728728Y45821D01*
X728726Y45815D01*
X729460Y44762D01*
X729468Y44760D01*
X729467Y44754D01*
X730417Y43891D01*
X730426Y43890D01*
X730426Y43885D01*
X731545Y43255D01*
X731553Y43256D01*
X731555Y43250D01*
X732785Y42885D01*
X732793Y42888D01*
X732796Y42883D01*
X734077Y42801D01*
X734081Y42804D01*
X734083Y42801D01*
X735364Y42883D01*
G37*
G36*
X1111244Y42883D02*
X1111244Y42883D01*
X1111250Y42889D01*
X1111255Y42885D01*
X1112485Y43250D01*
X1112490Y43257D01*
X1112495Y43255D01*
X1113614Y43885D01*
X1113617Y43892D01*
X1113623Y43891D01*
X1114573Y44754D01*
X1114574Y44762D01*
X1114580Y44762D01*
X1115314Y45815D01*
X1115314Y45823D01*
X1115319Y45825D01*
X1115801Y47015D01*
X1115799Y47020D01*
X1115803Y47023D01*
X1115802Y47024D01*
X1115804Y47025D01*
X1116009Y48292D01*
X1116006Y48297D01*
X1116009Y48300D01*
X1116009Y60300D01*
X1116006Y60304D01*
X1116009Y60307D01*
X1115854Y61429D01*
X1115849Y61434D01*
X1115852Y61438D01*
X1115481Y62509D01*
X1115475Y62513D01*
X1115477Y62518D01*
X1114904Y63495D01*
X1114898Y63498D01*
X1114899Y63503D01*
X1114146Y64350D01*
X1114139Y64352D01*
X1114139Y64357D01*
X1113236Y65041D01*
X1113229Y65041D01*
X1113228Y65046D01*
X1112209Y65541D01*
X1112202Y65539D01*
X1112200Y65544D01*
X1111103Y65831D01*
X1111097Y65828D01*
X1111094Y65832D01*
X1109963Y65899D01*
X1109957Y65899D01*
X1108826Y65832D01*
X1108821Y65827D01*
X1108817Y65831D01*
X1107720Y65544D01*
X1107716Y65538D01*
X1107711Y65541D01*
X1106692Y65046D01*
X1106689Y65040D01*
X1106684Y65041D01*
X1105781Y64357D01*
X1105779Y64350D01*
X1105774Y64350D01*
X1105021Y63503D01*
X1105021Y63496D01*
X1105016Y63495D01*
X1104443Y62518D01*
X1104444Y62515D01*
X1104443Y62514D01*
X1104444Y62513D01*
X1104444Y62511D01*
X1104439Y62509D01*
X1104068Y61438D01*
X1104070Y61433D01*
X1104067Y61431D01*
X1104067Y61430D01*
X1104066Y61429D01*
X1103911Y60307D01*
X1103914Y60302D01*
X1103911Y60300D01*
X1103911Y48300D01*
X1103914Y48295D01*
X1103911Y48292D01*
X1104116Y47025D01*
X1104122Y47019D01*
X1104119Y47015D01*
X1104601Y45825D01*
X1104608Y45821D01*
X1104606Y45815D01*
X1105340Y44762D01*
X1105348Y44760D01*
X1105347Y44754D01*
X1106297Y43891D01*
X1106306Y43890D01*
X1106306Y43885D01*
X1107425Y43255D01*
X1107433Y43256D01*
X1107435Y43250D01*
X1108665Y42885D01*
X1108673Y42888D01*
X1108676Y42883D01*
X1109957Y42801D01*
X1109961Y42804D01*
X1109963Y42801D01*
X1111244Y42883D01*
G37*
G36*
X186684Y42883D02*
X186684Y42883D01*
X186690Y42889D01*
X186695Y42885D01*
X187925Y43250D01*
X187930Y43257D01*
X187935Y43255D01*
X189054Y43885D01*
X189057Y43892D01*
X189063Y43891D01*
X190013Y44754D01*
X190014Y44762D01*
X190020Y44762D01*
X190754Y45815D01*
X190754Y45823D01*
X190759Y45825D01*
X191241Y47015D01*
X191239Y47020D01*
X191243Y47023D01*
X191242Y47024D01*
X191244Y47025D01*
X191449Y48292D01*
X191446Y48297D01*
X191449Y48300D01*
X191449Y60300D01*
X191446Y60304D01*
X191449Y60307D01*
X191294Y61429D01*
X191289Y61434D01*
X191292Y61438D01*
X190921Y62509D01*
X190915Y62513D01*
X190917Y62518D01*
X190344Y63495D01*
X190338Y63498D01*
X190339Y63503D01*
X189586Y64350D01*
X189579Y64352D01*
X189579Y64357D01*
X188676Y65041D01*
X188669Y65041D01*
X188668Y65046D01*
X187649Y65541D01*
X187642Y65539D01*
X187640Y65544D01*
X186543Y65831D01*
X186537Y65828D01*
X186534Y65832D01*
X185403Y65899D01*
X185397Y65899D01*
X184266Y65832D01*
X184261Y65827D01*
X184257Y65831D01*
X183160Y65544D01*
X183156Y65538D01*
X183151Y65541D01*
X182132Y65046D01*
X182129Y65040D01*
X182124Y65041D01*
X181221Y64357D01*
X181219Y64350D01*
X181214Y64350D01*
X180461Y63503D01*
X180461Y63496D01*
X180456Y63495D01*
X179883Y62518D01*
X179884Y62515D01*
X179883Y62514D01*
X179884Y62513D01*
X179884Y62511D01*
X179879Y62509D01*
X179508Y61438D01*
X179510Y61433D01*
X179507Y61431D01*
X179507Y61430D01*
X179506Y61429D01*
X179351Y60307D01*
X179354Y60302D01*
X179351Y60300D01*
X179351Y48300D01*
X179354Y48295D01*
X179351Y48292D01*
X179556Y47025D01*
X179562Y47019D01*
X179559Y47015D01*
X180041Y45825D01*
X180048Y45821D01*
X180046Y45815D01*
X180780Y44762D01*
X180788Y44760D01*
X180787Y44754D01*
X181737Y43891D01*
X181746Y43890D01*
X181746Y43885D01*
X182865Y43255D01*
X182873Y43256D01*
X182875Y43250D01*
X184105Y42885D01*
X184113Y42888D01*
X184116Y42883D01*
X185397Y42801D01*
X185401Y42804D01*
X185403Y42801D01*
X186684Y42883D01*
G37*
G36*
X186571Y676711D02*
X186571Y676711D01*
X186576Y676716D01*
X186580Y676713D01*
X187703Y677048D01*
X187707Y677054D01*
X187711Y677052D01*
X188747Y677600D01*
X188750Y677606D01*
X188755Y677605D01*
X189663Y678344D01*
X189665Y678351D01*
X189670Y678351D01*
X190417Y679253D01*
X190417Y679261D01*
X190423Y679261D01*
X190979Y680292D01*
X190978Y680299D01*
X190983Y680301D01*
X191327Y681420D01*
X191325Y681427D01*
X191329Y681430D01*
X191449Y682595D01*
X191447Y682598D01*
X191449Y682600D01*
X191449Y688600D01*
X191447Y688603D01*
X191449Y688605D01*
X191338Y689781D01*
X191333Y689786D01*
X191336Y689790D01*
X190998Y690922D01*
X190992Y690926D01*
X190994Y690931D01*
X190442Y691975D01*
X190435Y691978D01*
X190437Y691983D01*
X189691Y692899D01*
X189684Y692900D01*
X189684Y692906D01*
X188775Y693659D01*
X188767Y693659D01*
X188767Y693664D01*
X187727Y694225D01*
X187720Y694224D01*
X187718Y694229D01*
X186589Y694576D01*
X186583Y694574D01*
X186580Y694578D01*
X185405Y694699D01*
X185398Y694695D01*
X185394Y694699D01*
X184054Y694542D01*
X184048Y694537D01*
X184043Y694540D01*
X182772Y694089D01*
X182767Y694082D01*
X182762Y694084D01*
X181623Y693362D01*
X181620Y693354D01*
X181614Y693355D01*
X180664Y692397D01*
X180663Y692389D01*
X180657Y692388D01*
X179944Y691243D01*
X179945Y691235D01*
X179939Y691233D01*
X179499Y689957D01*
X179501Y689950D01*
X179497Y689947D01*
X179351Y688605D01*
X179353Y688602D01*
X179351Y688600D01*
X179351Y682600D01*
X179353Y682597D01*
X179351Y682594D01*
X179506Y681265D01*
X179512Y681259D01*
X179509Y681255D01*
X179956Y679994D01*
X179963Y679989D01*
X179961Y679984D01*
X180678Y678854D01*
X180685Y678851D01*
X180684Y678845D01*
X181635Y677903D01*
X181643Y677902D01*
X181643Y677896D01*
X182779Y677189D01*
X182787Y677190D01*
X182789Y677184D01*
X184054Y676748D01*
X184059Y676749D01*
X184060Y676749D01*
X184063Y676749D01*
X184065Y676745D01*
X185395Y676601D01*
X185401Y676605D01*
X185405Y676601D01*
X186571Y676711D01*
G37*
G36*
X648851Y676711D02*
X648851Y676711D01*
X648856Y676716D01*
X648860Y676713D01*
X649983Y677048D01*
X649987Y677054D01*
X649991Y677052D01*
X651027Y677600D01*
X651030Y677606D01*
X651035Y677605D01*
X651943Y678344D01*
X651945Y678351D01*
X651950Y678351D01*
X652697Y679253D01*
X652697Y679261D01*
X652703Y679261D01*
X653259Y680292D01*
X653258Y680299D01*
X653263Y680301D01*
X653607Y681420D01*
X653605Y681427D01*
X653609Y681430D01*
X653729Y682595D01*
X653727Y682598D01*
X653729Y682600D01*
X653729Y688600D01*
X653727Y688603D01*
X653729Y688605D01*
X653618Y689781D01*
X653613Y689786D01*
X653616Y689790D01*
X653278Y690922D01*
X653272Y690926D01*
X653274Y690931D01*
X652722Y691975D01*
X652715Y691978D01*
X652717Y691983D01*
X651971Y692899D01*
X651964Y692900D01*
X651964Y692906D01*
X651055Y693659D01*
X651047Y693659D01*
X651047Y693664D01*
X650007Y694225D01*
X650000Y694224D01*
X649998Y694229D01*
X648869Y694576D01*
X648863Y694574D01*
X648860Y694578D01*
X647685Y694699D01*
X647678Y694695D01*
X647674Y694699D01*
X646334Y694542D01*
X646328Y694537D01*
X646323Y694540D01*
X645052Y694089D01*
X645047Y694082D01*
X645042Y694084D01*
X643903Y693362D01*
X643900Y693354D01*
X643894Y693355D01*
X642944Y692397D01*
X642943Y692389D01*
X642937Y692388D01*
X642224Y691243D01*
X642225Y691235D01*
X642219Y691233D01*
X641779Y689957D01*
X641781Y689950D01*
X641777Y689947D01*
X641631Y688605D01*
X641633Y688602D01*
X641631Y688600D01*
X641631Y682600D01*
X641633Y682597D01*
X641631Y682594D01*
X641786Y681265D01*
X641792Y681259D01*
X641789Y681255D01*
X642236Y679994D01*
X642243Y679989D01*
X642241Y679984D01*
X642958Y678854D01*
X642965Y678851D01*
X642964Y678845D01*
X643915Y677903D01*
X643923Y677902D01*
X643923Y677896D01*
X645059Y677189D01*
X645067Y677190D01*
X645069Y677184D01*
X646334Y676748D01*
X646339Y676749D01*
X646340Y676749D01*
X646343Y676749D01*
X646345Y676745D01*
X647675Y676601D01*
X647681Y676605D01*
X647685Y676601D01*
X648851Y676711D01*
G37*
G36*
X1111131Y676711D02*
X1111131Y676711D01*
X1111136Y676716D01*
X1111140Y676713D01*
X1112263Y677048D01*
X1112267Y677054D01*
X1112271Y677052D01*
X1113307Y677600D01*
X1113310Y677606D01*
X1113315Y677605D01*
X1114223Y678344D01*
X1114225Y678351D01*
X1114230Y678351D01*
X1114977Y679253D01*
X1114977Y679261D01*
X1114983Y679261D01*
X1115539Y680292D01*
X1115538Y680299D01*
X1115543Y680301D01*
X1115887Y681420D01*
X1115885Y681427D01*
X1115889Y681430D01*
X1116009Y682595D01*
X1116007Y682598D01*
X1116009Y682600D01*
X1116009Y688600D01*
X1116007Y688603D01*
X1116009Y688605D01*
X1115898Y689781D01*
X1115893Y689786D01*
X1115896Y689790D01*
X1115558Y690922D01*
X1115552Y690926D01*
X1115554Y690931D01*
X1115002Y691975D01*
X1114995Y691978D01*
X1114997Y691983D01*
X1114251Y692899D01*
X1114244Y692900D01*
X1114244Y692906D01*
X1113335Y693659D01*
X1113327Y693659D01*
X1113327Y693664D01*
X1112287Y694225D01*
X1112280Y694224D01*
X1112278Y694229D01*
X1111149Y694576D01*
X1111143Y694574D01*
X1111140Y694578D01*
X1109965Y694699D01*
X1109958Y694695D01*
X1109954Y694699D01*
X1108614Y694542D01*
X1108608Y694537D01*
X1108603Y694540D01*
X1107332Y694089D01*
X1107327Y694082D01*
X1107322Y694084D01*
X1106183Y693362D01*
X1106180Y693354D01*
X1106174Y693355D01*
X1105224Y692397D01*
X1105223Y692389D01*
X1105217Y692388D01*
X1104504Y691243D01*
X1104505Y691235D01*
X1104499Y691233D01*
X1104059Y689957D01*
X1104061Y689950D01*
X1104057Y689947D01*
X1103911Y688605D01*
X1103913Y688602D01*
X1103911Y688600D01*
X1103911Y682600D01*
X1103913Y682597D01*
X1103911Y682594D01*
X1104066Y681265D01*
X1104072Y681259D01*
X1104069Y681255D01*
X1104516Y679994D01*
X1104523Y679989D01*
X1104521Y679984D01*
X1105238Y678854D01*
X1105245Y678851D01*
X1105244Y678845D01*
X1106195Y677903D01*
X1106203Y677902D01*
X1106203Y677896D01*
X1107339Y677189D01*
X1107347Y677190D01*
X1107349Y677184D01*
X1108614Y676748D01*
X1108619Y676749D01*
X1108620Y676749D01*
X1108623Y676749D01*
X1108625Y676745D01*
X1109955Y676601D01*
X1109961Y676605D01*
X1109965Y676601D01*
X1111131Y676711D01*
G37*
G36*
X1197531Y676711D02*
X1197531Y676711D01*
X1197536Y676716D01*
X1197540Y676713D01*
X1198663Y677048D01*
X1198667Y677054D01*
X1198671Y677052D01*
X1199707Y677600D01*
X1199710Y677606D01*
X1199715Y677605D01*
X1200623Y678344D01*
X1200625Y678351D01*
X1200630Y678351D01*
X1201377Y679253D01*
X1201377Y679261D01*
X1201383Y679261D01*
X1201939Y680292D01*
X1201938Y680299D01*
X1201943Y680301D01*
X1202287Y681420D01*
X1202285Y681427D01*
X1202289Y681430D01*
X1202409Y682595D01*
X1202407Y682598D01*
X1202409Y682600D01*
X1202409Y688600D01*
X1202407Y688603D01*
X1202409Y688605D01*
X1202298Y689781D01*
X1202293Y689786D01*
X1202296Y689790D01*
X1201958Y690922D01*
X1201952Y690926D01*
X1201954Y690931D01*
X1201402Y691975D01*
X1201395Y691978D01*
X1201397Y691983D01*
X1200651Y692899D01*
X1200644Y692900D01*
X1200644Y692906D01*
X1199735Y693659D01*
X1199727Y693659D01*
X1199727Y693664D01*
X1198687Y694225D01*
X1198680Y694224D01*
X1198678Y694229D01*
X1197549Y694576D01*
X1197543Y694574D01*
X1197540Y694578D01*
X1196365Y694699D01*
X1196358Y694695D01*
X1196354Y694699D01*
X1195014Y694542D01*
X1195008Y694537D01*
X1195003Y694540D01*
X1193732Y694089D01*
X1193727Y694082D01*
X1193722Y694084D01*
X1192583Y693362D01*
X1192580Y693354D01*
X1192574Y693355D01*
X1191624Y692397D01*
X1191623Y692389D01*
X1191617Y692388D01*
X1190904Y691243D01*
X1190905Y691235D01*
X1190899Y691233D01*
X1190459Y689957D01*
X1190461Y689950D01*
X1190457Y689947D01*
X1190311Y688605D01*
X1190313Y688602D01*
X1190311Y688600D01*
X1190311Y682600D01*
X1190313Y682597D01*
X1190311Y682594D01*
X1190466Y681265D01*
X1190472Y681259D01*
X1190469Y681255D01*
X1190916Y679994D01*
X1190923Y679989D01*
X1190921Y679984D01*
X1191638Y678854D01*
X1191645Y678851D01*
X1191644Y678845D01*
X1192595Y677903D01*
X1192603Y677902D01*
X1192603Y677896D01*
X1193739Y677189D01*
X1193747Y677190D01*
X1193749Y677184D01*
X1195014Y676748D01*
X1195019Y676749D01*
X1195020Y676749D01*
X1195023Y676749D01*
X1195025Y676745D01*
X1196355Y676601D01*
X1196361Y676605D01*
X1196365Y676601D01*
X1197531Y676711D01*
G37*
G36*
X272971Y676711D02*
X272971Y676711D01*
X272976Y676716D01*
X272980Y676713D01*
X274103Y677048D01*
X274107Y677054D01*
X274111Y677052D01*
X275147Y677600D01*
X275150Y677606D01*
X275155Y677605D01*
X276063Y678344D01*
X276065Y678351D01*
X276070Y678351D01*
X276817Y679253D01*
X276817Y679261D01*
X276823Y679261D01*
X277379Y680292D01*
X277378Y680299D01*
X277383Y680301D01*
X277727Y681420D01*
X277725Y681427D01*
X277729Y681430D01*
X277849Y682595D01*
X277847Y682598D01*
X277849Y682600D01*
X277849Y688600D01*
X277847Y688603D01*
X277849Y688605D01*
X277738Y689781D01*
X277733Y689786D01*
X277736Y689790D01*
X277398Y690922D01*
X277392Y690926D01*
X277394Y690931D01*
X276842Y691975D01*
X276835Y691978D01*
X276837Y691983D01*
X276091Y692899D01*
X276084Y692900D01*
X276084Y692906D01*
X275175Y693659D01*
X275167Y693659D01*
X275167Y693664D01*
X274127Y694225D01*
X274120Y694224D01*
X274118Y694229D01*
X272989Y694576D01*
X272983Y694574D01*
X272980Y694578D01*
X271805Y694699D01*
X271798Y694695D01*
X271794Y694699D01*
X270454Y694542D01*
X270448Y694537D01*
X270443Y694540D01*
X269172Y694089D01*
X269167Y694082D01*
X269162Y694084D01*
X268023Y693362D01*
X268020Y693354D01*
X268014Y693355D01*
X267064Y692397D01*
X267063Y692389D01*
X267057Y692388D01*
X266344Y691243D01*
X266345Y691235D01*
X266339Y691233D01*
X265899Y689957D01*
X265901Y689950D01*
X265897Y689947D01*
X265751Y688605D01*
X265753Y688602D01*
X265751Y688600D01*
X265751Y682600D01*
X265753Y682597D01*
X265751Y682594D01*
X265906Y681265D01*
X265912Y681259D01*
X265909Y681255D01*
X266356Y679994D01*
X266363Y679989D01*
X266361Y679984D01*
X267078Y678854D01*
X267085Y678851D01*
X267084Y678845D01*
X268035Y677903D01*
X268043Y677902D01*
X268043Y677896D01*
X269179Y677189D01*
X269187Y677190D01*
X269189Y677184D01*
X270454Y676748D01*
X270459Y676749D01*
X270460Y676749D01*
X270463Y676749D01*
X270465Y676745D01*
X271795Y676601D01*
X271801Y676605D01*
X271805Y676601D01*
X272971Y676711D01*
G37*
G36*
X735251Y676711D02*
X735251Y676711D01*
X735256Y676716D01*
X735260Y676713D01*
X736383Y677048D01*
X736387Y677054D01*
X736391Y677052D01*
X737427Y677600D01*
X737430Y677606D01*
X737435Y677605D01*
X738343Y678344D01*
X738345Y678351D01*
X738350Y678351D01*
X739097Y679253D01*
X739097Y679261D01*
X739103Y679261D01*
X739659Y680292D01*
X739658Y680299D01*
X739663Y680301D01*
X740007Y681420D01*
X740005Y681427D01*
X740009Y681430D01*
X740129Y682595D01*
X740127Y682598D01*
X740129Y682600D01*
X740129Y688600D01*
X740127Y688603D01*
X740129Y688605D01*
X740018Y689781D01*
X740013Y689786D01*
X740016Y689790D01*
X739678Y690922D01*
X739672Y690926D01*
X739674Y690931D01*
X739122Y691975D01*
X739115Y691978D01*
X739117Y691983D01*
X738371Y692899D01*
X738364Y692900D01*
X738364Y692906D01*
X737455Y693659D01*
X737447Y693659D01*
X737447Y693664D01*
X736407Y694225D01*
X736400Y694224D01*
X736398Y694229D01*
X735269Y694576D01*
X735263Y694574D01*
X735260Y694578D01*
X734085Y694699D01*
X734078Y694695D01*
X734074Y694699D01*
X732734Y694542D01*
X732728Y694537D01*
X732723Y694540D01*
X731452Y694089D01*
X731447Y694082D01*
X731442Y694084D01*
X730303Y693362D01*
X730300Y693354D01*
X730294Y693355D01*
X729344Y692397D01*
X729343Y692389D01*
X729337Y692388D01*
X728624Y691243D01*
X728625Y691235D01*
X728619Y691233D01*
X728179Y689957D01*
X728181Y689950D01*
X728177Y689947D01*
X728031Y688605D01*
X728033Y688602D01*
X728031Y688600D01*
X728031Y682600D01*
X728033Y682597D01*
X728031Y682594D01*
X728186Y681265D01*
X728192Y681259D01*
X728189Y681255D01*
X728636Y679994D01*
X728643Y679989D01*
X728641Y679984D01*
X729358Y678854D01*
X729365Y678851D01*
X729364Y678845D01*
X730315Y677903D01*
X730323Y677902D01*
X730323Y677896D01*
X731459Y677189D01*
X731467Y677190D01*
X731469Y677184D01*
X732734Y676748D01*
X732739Y676749D01*
X732740Y676749D01*
X732743Y676749D01*
X732745Y676745D01*
X734075Y676601D01*
X734081Y676605D01*
X734085Y676601D01*
X735251Y676711D01*
G37*
G36*
X1197531Y3611D02*
X1197531Y3611D01*
X1197536Y3616D01*
X1197540Y3613D01*
X1198663Y3948D01*
X1198667Y3954D01*
X1198671Y3952D01*
X1199707Y4500D01*
X1199710Y4506D01*
X1199715Y4505D01*
X1200623Y5244D01*
X1200625Y5251D01*
X1200630Y5251D01*
X1201377Y6153D01*
X1201377Y6161D01*
X1201383Y6161D01*
X1201939Y7192D01*
X1201938Y7199D01*
X1201943Y7201D01*
X1202287Y8320D01*
X1202285Y8327D01*
X1202289Y8330D01*
X1202409Y9495D01*
X1202407Y9498D01*
X1202409Y9500D01*
X1202409Y15500D01*
X1202407Y15503D01*
X1202409Y15505D01*
X1202298Y16681D01*
X1202293Y16686D01*
X1202296Y16690D01*
X1201958Y17822D01*
X1201952Y17826D01*
X1201954Y17831D01*
X1201402Y18875D01*
X1201395Y18878D01*
X1201397Y18883D01*
X1200651Y19799D01*
X1200644Y19800D01*
X1200644Y19806D01*
X1199735Y20559D01*
X1199727Y20559D01*
X1199727Y20564D01*
X1198687Y21125D01*
X1198680Y21124D01*
X1198678Y21129D01*
X1197549Y21476D01*
X1197543Y21474D01*
X1197540Y21478D01*
X1196365Y21599D01*
X1196358Y21595D01*
X1196354Y21599D01*
X1195014Y21442D01*
X1195008Y21437D01*
X1195003Y21440D01*
X1193732Y20989D01*
X1193727Y20982D01*
X1193722Y20984D01*
X1192583Y20262D01*
X1192580Y20254D01*
X1192574Y20255D01*
X1191624Y19297D01*
X1191623Y19289D01*
X1191617Y19288D01*
X1190904Y18143D01*
X1190905Y18135D01*
X1190899Y18133D01*
X1190459Y16857D01*
X1190461Y16850D01*
X1190457Y16847D01*
X1190311Y15505D01*
X1190313Y15502D01*
X1190311Y15500D01*
X1190311Y9500D01*
X1190313Y9497D01*
X1190311Y9494D01*
X1190466Y8165D01*
X1190472Y8159D01*
X1190469Y8155D01*
X1190916Y6894D01*
X1190923Y6889D01*
X1190921Y6884D01*
X1191638Y5754D01*
X1191645Y5751D01*
X1191644Y5745D01*
X1192595Y4803D01*
X1192603Y4802D01*
X1192603Y4796D01*
X1193739Y4089D01*
X1193747Y4090D01*
X1193749Y4084D01*
X1195014Y3648D01*
X1195019Y3649D01*
X1195020Y3649D01*
X1195023Y3649D01*
X1195025Y3645D01*
X1196355Y3501D01*
X1196361Y3505D01*
X1196365Y3501D01*
X1197531Y3611D01*
G37*
G36*
X1111131Y3611D02*
X1111131Y3611D01*
X1111136Y3616D01*
X1111140Y3613D01*
X1112263Y3948D01*
X1112267Y3954D01*
X1112271Y3952D01*
X1113307Y4500D01*
X1113310Y4506D01*
X1113315Y4505D01*
X1114223Y5244D01*
X1114225Y5251D01*
X1114230Y5251D01*
X1114977Y6153D01*
X1114977Y6161D01*
X1114983Y6161D01*
X1115539Y7192D01*
X1115538Y7199D01*
X1115543Y7201D01*
X1115887Y8320D01*
X1115885Y8327D01*
X1115889Y8330D01*
X1116009Y9495D01*
X1116007Y9498D01*
X1116009Y9500D01*
X1116009Y15500D01*
X1116007Y15503D01*
X1116009Y15505D01*
X1115898Y16681D01*
X1115893Y16686D01*
X1115896Y16690D01*
X1115558Y17822D01*
X1115552Y17826D01*
X1115554Y17831D01*
X1115002Y18875D01*
X1114995Y18878D01*
X1114997Y18883D01*
X1114251Y19799D01*
X1114244Y19800D01*
X1114244Y19806D01*
X1113335Y20559D01*
X1113327Y20559D01*
X1113327Y20564D01*
X1112287Y21125D01*
X1112280Y21124D01*
X1112278Y21129D01*
X1111149Y21476D01*
X1111143Y21474D01*
X1111140Y21478D01*
X1109965Y21599D01*
X1109958Y21595D01*
X1109954Y21599D01*
X1108614Y21442D01*
X1108608Y21437D01*
X1108603Y21440D01*
X1107332Y20989D01*
X1107327Y20982D01*
X1107322Y20984D01*
X1106183Y20262D01*
X1106180Y20254D01*
X1106174Y20255D01*
X1105224Y19297D01*
X1105223Y19289D01*
X1105217Y19288D01*
X1104504Y18143D01*
X1104505Y18135D01*
X1104499Y18133D01*
X1104059Y16857D01*
X1104061Y16850D01*
X1104057Y16847D01*
X1103911Y15505D01*
X1103913Y15502D01*
X1103911Y15500D01*
X1103911Y9500D01*
X1103913Y9497D01*
X1103911Y9494D01*
X1104066Y8165D01*
X1104072Y8159D01*
X1104069Y8155D01*
X1104516Y6894D01*
X1104523Y6889D01*
X1104521Y6884D01*
X1105238Y5754D01*
X1105245Y5751D01*
X1105244Y5745D01*
X1106195Y4803D01*
X1106203Y4802D01*
X1106203Y4796D01*
X1107339Y4089D01*
X1107347Y4090D01*
X1107349Y4084D01*
X1108614Y3648D01*
X1108619Y3649D01*
X1108620Y3649D01*
X1108623Y3649D01*
X1108625Y3645D01*
X1109955Y3501D01*
X1109961Y3505D01*
X1109965Y3501D01*
X1111131Y3611D01*
G37*
G36*
X186571Y3611D02*
X186571Y3611D01*
X186576Y3616D01*
X186580Y3613D01*
X187703Y3948D01*
X187707Y3954D01*
X187711Y3952D01*
X188747Y4500D01*
X188750Y4506D01*
X188755Y4505D01*
X189663Y5244D01*
X189665Y5251D01*
X189670Y5251D01*
X190417Y6153D01*
X190417Y6161D01*
X190423Y6161D01*
X190979Y7192D01*
X190978Y7199D01*
X190983Y7201D01*
X191327Y8320D01*
X191325Y8327D01*
X191329Y8330D01*
X191449Y9495D01*
X191447Y9498D01*
X191449Y9500D01*
X191449Y15500D01*
X191447Y15503D01*
X191449Y15505D01*
X191338Y16681D01*
X191333Y16686D01*
X191336Y16690D01*
X190998Y17822D01*
X190992Y17826D01*
X190994Y17831D01*
X190442Y18875D01*
X190435Y18878D01*
X190437Y18883D01*
X189691Y19799D01*
X189684Y19800D01*
X189684Y19806D01*
X188775Y20559D01*
X188767Y20559D01*
X188767Y20564D01*
X187727Y21125D01*
X187720Y21124D01*
X187718Y21129D01*
X186589Y21476D01*
X186583Y21474D01*
X186580Y21478D01*
X185405Y21599D01*
X185398Y21595D01*
X185394Y21599D01*
X184054Y21442D01*
X184048Y21437D01*
X184043Y21440D01*
X182772Y20989D01*
X182767Y20982D01*
X182762Y20984D01*
X181623Y20262D01*
X181620Y20254D01*
X181614Y20255D01*
X180664Y19297D01*
X180663Y19289D01*
X180657Y19288D01*
X179944Y18143D01*
X179945Y18135D01*
X179939Y18133D01*
X179499Y16857D01*
X179501Y16850D01*
X179497Y16847D01*
X179351Y15505D01*
X179353Y15502D01*
X179351Y15500D01*
X179351Y9500D01*
X179353Y9497D01*
X179351Y9494D01*
X179506Y8165D01*
X179512Y8159D01*
X179509Y8155D01*
X179956Y6894D01*
X179963Y6889D01*
X179961Y6884D01*
X180678Y5754D01*
X180685Y5751D01*
X180684Y5745D01*
X181635Y4803D01*
X181643Y4802D01*
X181643Y4796D01*
X182779Y4089D01*
X182787Y4090D01*
X182789Y4084D01*
X184054Y3648D01*
X184059Y3649D01*
X184060Y3649D01*
X184063Y3649D01*
X184065Y3645D01*
X185395Y3501D01*
X185401Y3505D01*
X185405Y3501D01*
X186571Y3611D01*
G37*
G36*
X272971Y3611D02*
X272971Y3611D01*
X272976Y3616D01*
X272980Y3613D01*
X274103Y3948D01*
X274107Y3954D01*
X274111Y3952D01*
X275147Y4500D01*
X275150Y4506D01*
X275155Y4505D01*
X276063Y5244D01*
X276065Y5251D01*
X276070Y5251D01*
X276817Y6153D01*
X276817Y6161D01*
X276823Y6161D01*
X277379Y7192D01*
X277378Y7199D01*
X277383Y7201D01*
X277727Y8320D01*
X277725Y8327D01*
X277729Y8330D01*
X277849Y9495D01*
X277847Y9498D01*
X277849Y9500D01*
X277849Y15500D01*
X277847Y15503D01*
X277849Y15505D01*
X277738Y16681D01*
X277733Y16686D01*
X277736Y16690D01*
X277398Y17822D01*
X277392Y17826D01*
X277394Y17831D01*
X276842Y18875D01*
X276835Y18878D01*
X276837Y18883D01*
X276091Y19799D01*
X276084Y19800D01*
X276084Y19806D01*
X275175Y20559D01*
X275167Y20559D01*
X275167Y20564D01*
X274127Y21125D01*
X274120Y21124D01*
X274118Y21129D01*
X272989Y21476D01*
X272983Y21474D01*
X272980Y21478D01*
X271805Y21599D01*
X271798Y21595D01*
X271794Y21599D01*
X270454Y21442D01*
X270448Y21437D01*
X270443Y21440D01*
X269172Y20989D01*
X269167Y20982D01*
X269162Y20984D01*
X268023Y20262D01*
X268020Y20254D01*
X268014Y20255D01*
X267064Y19297D01*
X267063Y19289D01*
X267057Y19288D01*
X266344Y18143D01*
X266345Y18135D01*
X266339Y18133D01*
X265899Y16857D01*
X265901Y16850D01*
X265897Y16847D01*
X265751Y15505D01*
X265753Y15502D01*
X265751Y15500D01*
X265751Y9500D01*
X265753Y9497D01*
X265751Y9494D01*
X265906Y8165D01*
X265912Y8159D01*
X265909Y8155D01*
X266356Y6894D01*
X266363Y6889D01*
X266361Y6884D01*
X267078Y5754D01*
X267085Y5751D01*
X267084Y5745D01*
X268035Y4803D01*
X268043Y4802D01*
X268043Y4796D01*
X269179Y4089D01*
X269187Y4090D01*
X269189Y4084D01*
X270454Y3648D01*
X270459Y3649D01*
X270460Y3649D01*
X270463Y3649D01*
X270465Y3645D01*
X271795Y3501D01*
X271801Y3505D01*
X271805Y3501D01*
X272971Y3611D01*
G37*
G36*
X735251Y3611D02*
X735251Y3611D01*
X735256Y3616D01*
X735260Y3613D01*
X736383Y3948D01*
X736387Y3954D01*
X736391Y3952D01*
X737427Y4500D01*
X737430Y4506D01*
X737435Y4505D01*
X738343Y5244D01*
X738345Y5251D01*
X738350Y5251D01*
X739097Y6153D01*
X739097Y6161D01*
X739103Y6161D01*
X739659Y7192D01*
X739658Y7199D01*
X739663Y7201D01*
X740007Y8320D01*
X740005Y8327D01*
X740009Y8330D01*
X740129Y9495D01*
X740127Y9498D01*
X740129Y9500D01*
X740129Y15500D01*
X740127Y15503D01*
X740129Y15505D01*
X740018Y16681D01*
X740013Y16686D01*
X740016Y16690D01*
X739678Y17822D01*
X739672Y17826D01*
X739674Y17831D01*
X739122Y18875D01*
X739115Y18878D01*
X739117Y18883D01*
X738371Y19799D01*
X738364Y19800D01*
X738364Y19806D01*
X737455Y20559D01*
X737447Y20559D01*
X737447Y20564D01*
X736407Y21125D01*
X736400Y21124D01*
X736398Y21129D01*
X735269Y21476D01*
X735263Y21474D01*
X735260Y21478D01*
X734085Y21599D01*
X734078Y21595D01*
X734074Y21599D01*
X732734Y21442D01*
X732728Y21437D01*
X732723Y21440D01*
X731452Y20989D01*
X731447Y20982D01*
X731442Y20984D01*
X730303Y20262D01*
X730300Y20254D01*
X730294Y20255D01*
X729344Y19297D01*
X729343Y19289D01*
X729337Y19288D01*
X728624Y18143D01*
X728625Y18135D01*
X728619Y18133D01*
X728179Y16857D01*
X728181Y16850D01*
X728177Y16847D01*
X728031Y15505D01*
X728033Y15502D01*
X728031Y15500D01*
X728031Y9500D01*
X728033Y9497D01*
X728031Y9494D01*
X728186Y8165D01*
X728192Y8159D01*
X728189Y8155D01*
X728636Y6894D01*
X728643Y6889D01*
X728641Y6884D01*
X729358Y5754D01*
X729365Y5751D01*
X729364Y5745D01*
X730315Y4803D01*
X730323Y4802D01*
X730323Y4796D01*
X731459Y4089D01*
X731467Y4090D01*
X731469Y4084D01*
X732734Y3648D01*
X732739Y3649D01*
X732740Y3649D01*
X732743Y3649D01*
X732745Y3645D01*
X734075Y3501D01*
X734081Y3505D01*
X734085Y3501D01*
X735251Y3611D01*
G37*
G36*
X648851Y3611D02*
X648851Y3611D01*
X648856Y3616D01*
X648860Y3613D01*
X649983Y3948D01*
X649987Y3954D01*
X649991Y3952D01*
X651027Y4500D01*
X651030Y4506D01*
X651035Y4505D01*
X651943Y5244D01*
X651945Y5251D01*
X651950Y5251D01*
X652697Y6153D01*
X652697Y6161D01*
X652703Y6161D01*
X653259Y7192D01*
X653258Y7199D01*
X653263Y7201D01*
X653607Y8320D01*
X653605Y8327D01*
X653609Y8330D01*
X653729Y9495D01*
X653727Y9498D01*
X653729Y9500D01*
X653729Y15500D01*
X653727Y15503D01*
X653729Y15505D01*
X653618Y16681D01*
X653613Y16686D01*
X653616Y16690D01*
X653278Y17822D01*
X653272Y17826D01*
X653274Y17831D01*
X652722Y18875D01*
X652715Y18878D01*
X652717Y18883D01*
X651971Y19799D01*
X651964Y19800D01*
X651964Y19806D01*
X651055Y20559D01*
X651047Y20559D01*
X651047Y20564D01*
X650007Y21125D01*
X650000Y21124D01*
X649998Y21129D01*
X648869Y21476D01*
X648863Y21474D01*
X648860Y21478D01*
X647685Y21599D01*
X647678Y21595D01*
X647674Y21599D01*
X646334Y21442D01*
X646328Y21437D01*
X646323Y21440D01*
X645052Y20989D01*
X645047Y20982D01*
X645042Y20984D01*
X643903Y20262D01*
X643900Y20254D01*
X643894Y20255D01*
X642944Y19297D01*
X642943Y19289D01*
X642937Y19288D01*
X642224Y18143D01*
X642225Y18135D01*
X642219Y18133D01*
X641779Y16857D01*
X641781Y16850D01*
X641777Y16847D01*
X641631Y15505D01*
X641633Y15502D01*
X641631Y15500D01*
X641631Y9500D01*
X641633Y9497D01*
X641631Y9494D01*
X641786Y8165D01*
X641792Y8159D01*
X641789Y8155D01*
X642236Y6894D01*
X642243Y6889D01*
X642241Y6884D01*
X642958Y5754D01*
X642965Y5751D01*
X642964Y5745D01*
X643915Y4803D01*
X643923Y4802D01*
X643923Y4796D01*
X645059Y4089D01*
X645067Y4090D01*
X645069Y4084D01*
X646334Y3648D01*
X646339Y3649D01*
X646340Y3649D01*
X646343Y3649D01*
X646345Y3645D01*
X647675Y3501D01*
X647681Y3505D01*
X647685Y3501D01*
X648851Y3611D01*
G37*
D10*
X236100Y60100D03*
X231100Y60100D03*
D11*
X260850Y60100D03*
X253100Y60100D03*
D10*
X246100Y60100D03*
X241100Y60100D03*
X221100Y60100D03*
X226100Y60100D03*
D11*
X196350Y60100D03*
X204100Y60100D03*
D10*
X211100Y60100D03*
X216100Y60100D03*
D12*
X199700Y49050D03*
X257500Y49050D03*
D13*
X171450Y40250D03*
X171450Y23250D03*
X285750Y40250D03*
X285750Y23250D03*
D14*
X449580Y7620D03*
X7620Y589280D03*
D15*
X25400Y571500D03*
X25400Y25400D03*
X431800Y571500D03*
X431800Y25400D03*
D16*
X14050Y256600D03*
X14050Y200600D03*
D17*
X50800Y243600D03*
X50800Y233600D03*
X50800Y223600D03*
X50800Y213600D03*
D18*
X414900Y304800D03*
X397900Y304800D03*
X414900Y330200D03*
X397900Y330200D03*
D19*
X434340Y133350D03*
X378460Y133350D03*
X434340Y171450D03*
X378460Y171450D03*
D20*
X177800Y101600D03*
X152400Y101600D03*
X444500Y279400D03*
X444500Y304800D03*
X444500Y330200D03*
X444500Y355600D03*
D21*
X228600Y518160D03*
D22*
X15900Y113999D03*
X25400Y113999D03*
X34900Y113999D03*
X34900Y140001D03*
X15900Y140001D03*
D18*
X33900Y177800D03*
X16900Y177800D03*
D13*
X38100Y97400D03*
X38100Y80400D03*
D18*
X33900Y158750D03*
X16900Y158750D03*
D23*
X20120Y66990D02*
X20120Y60010D01*
X13140Y60010D01*
X13140Y66990D01*
X20120Y66990D01*
X20120Y64810D02*
X13140Y64810D01*
X37660Y66990D02*
X37660Y60010D01*
X30680Y60010D01*
X30680Y66990D01*
X37660Y66990D01*
X37660Y64810D02*
X30680Y64810D01*
D13*
X12700Y97400D03*
X12700Y80400D03*
D24*
X111600Y75100D03*
X91600Y75100D03*
D25*
X135600Y23100D03*
X67600Y23100D03*
D20*
X88900Y25400D03*
X114300Y25400D03*
D18*
X84700Y190500D03*
X67700Y190500D03*
X84700Y171450D03*
X67700Y171450D03*
X84700Y152400D03*
X67700Y152400D03*
D20*
X38100Y279400D03*
X368300Y152400D03*
D18*
X423300Y101600D03*
X440300Y101600D03*
D23*
X437080Y92390D02*
X437080Y85410D01*
X437080Y92390D02*
X444060Y92390D01*
X444060Y85410D01*
X437080Y85410D01*
X437080Y90210D02*
X444060Y90210D01*
X419540Y92390D02*
X419540Y85410D01*
X419540Y92390D02*
X426520Y92390D01*
X426520Y85410D01*
X419540Y85410D01*
X419540Y90210D02*
X426520Y90210D01*
D26*
X328600Y177800D03*
D27*
X128600Y177800D03*
D28*
X321100Y125050D03*
D29*
X332100Y132800D03*
X125100Y132800D03*
D28*
X318600Y200550D03*
X316100Y125050D03*
X313600Y200550D03*
X311100Y125050D03*
X308600Y200550D03*
X306100Y125050D03*
X303600Y200550D03*
X301100Y125050D03*
X298600Y200550D03*
X296100Y125050D03*
X293600Y200550D03*
X291100Y125050D03*
X288600Y200550D03*
X286100Y125050D03*
X283600Y200550D03*
X281100Y125050D03*
X278600Y200550D03*
X276100Y125050D03*
X273600Y200550D03*
X271100Y125050D03*
X268600Y200550D03*
X266100Y125050D03*
X243600Y200550D03*
X241100Y125050D03*
X238600Y200550D03*
X236100Y125050D03*
X233600Y200550D03*
X231100Y125050D03*
X228600Y200550D03*
X226100Y125050D03*
X223600Y200550D03*
X221100Y125050D03*
X218600Y200550D03*
X216100Y125050D03*
X213600Y200550D03*
X211100Y125050D03*
X208600Y200550D03*
X206100Y125050D03*
X203600Y200550D03*
X201100Y125050D03*
X198600Y200550D03*
X196100Y125050D03*
X193600Y200550D03*
X191100Y125050D03*
X188600Y200550D03*
X186100Y125050D03*
X183600Y200550D03*
X181100Y125050D03*
X178600Y200550D03*
X176100Y125050D03*
X173600Y200550D03*
X171100Y125050D03*
X168600Y200550D03*
X166100Y125050D03*
X163600Y200550D03*
X161100Y125050D03*
X158600Y200550D03*
X156100Y125050D03*
X153600Y200550D03*
X151100Y125050D03*
X148600Y200550D03*
X146100Y125050D03*
X143600Y200550D03*
X141100Y125050D03*
X138600Y200550D03*
X136100Y125050D03*
D20*
X444500Y508000D03*
X444500Y482600D03*
X444500Y457200D03*
X444500Y431800D03*
X444500Y406400D03*
X444500Y381000D03*
D18*
X397900Y355600D03*
X414900Y355600D03*
D16*
X443150Y200600D03*
X443150Y256600D03*
D17*
X406400Y213600D03*
X406400Y223600D03*
X406400Y233600D03*
X406400Y243600D03*
D30*
X288800Y561900D03*
D31*
X330200Y515900D03*
D30*
X371600Y561900D03*
X85600Y561900D03*
D31*
X127000Y515900D03*
D30*
X168400Y561900D03*
D32*
X406400Y468850D03*
X406400Y496350D03*
D33*
X391150Y482600D03*
X421650Y482600D03*
D32*
X406400Y405350D03*
X406400Y432850D03*
D33*
X391150Y419100D03*
X421650Y419100D03*
D34*
X228600Y100400D03*
X228600Y77400D03*
X203200Y100400D03*
X203200Y77400D03*
X254000Y100400D03*
X254000Y77400D03*
D20*
X38100Y508000D03*
X38100Y482600D03*
X38100Y457200D03*
X38100Y431800D03*
X38100Y406400D03*
X38100Y381000D03*
X38100Y355600D03*
D35*
X59700Y127000D03*
X92700Y127000D03*
D20*
X38100Y330200D03*
X38100Y304800D03*
X12700Y279400D03*
X12700Y304800D03*
X12700Y330200D03*
X12700Y355600D03*
X12700Y381000D03*
X12700Y406400D03*
X12700Y431800D03*
X12700Y457200D03*
X12700Y482600D03*
X12700Y508000D03*
D10*
X698380Y60100D03*
X693380Y60100D03*
D11*
X723130Y60100D03*
X715380Y60100D03*
D10*
X708380Y60100D03*
X703380Y60100D03*
X683380Y60100D03*
X688380Y60100D03*
D11*
X658630Y60100D03*
X666380Y60100D03*
D10*
X673380Y60100D03*
X678380Y60100D03*
D12*
X661980Y49050D03*
X719780Y49050D03*
D13*
X633730Y40250D03*
X633730Y23250D03*
X748030Y40250D03*
X748030Y23250D03*
D14*
X911860Y7620D03*
X469900Y589280D03*
D15*
X487680Y571500D03*
X487680Y25400D03*
X894080Y571500D03*
X894080Y25400D03*
D16*
X476330Y256600D03*
X476330Y200600D03*
D17*
X513080Y243600D03*
X513080Y233600D03*
X513080Y223600D03*
X513080Y213600D03*
D18*
X877180Y304800D03*
X860180Y304800D03*
X877180Y330200D03*
X860180Y330200D03*
D19*
X896620Y133350D03*
X840740Y133350D03*
X896620Y171450D03*
X840740Y171450D03*
D20*
X640080Y101600D03*
X614680Y101600D03*
X906780Y279400D03*
X906780Y304800D03*
X906780Y330200D03*
X906780Y355600D03*
D21*
X690880Y518160D03*
D22*
X478180Y113999D03*
X487680Y113999D03*
X497180Y113999D03*
X497180Y140001D03*
X478180Y140001D03*
D18*
X496180Y177800D03*
X479180Y177800D03*
D13*
X500380Y97400D03*
X500380Y80400D03*
D18*
X496180Y158750D03*
X479180Y158750D03*
D23*
X482400Y66990D02*
X482400Y60010D01*
X475420Y60010D01*
X475420Y66990D01*
X482400Y66990D01*
X482400Y64810D02*
X475420Y64810D01*
X499940Y66990D02*
X499940Y60010D01*
X492960Y60010D01*
X492960Y66990D01*
X499940Y66990D01*
X499940Y64810D02*
X492960Y64810D01*
D13*
X474980Y97400D03*
X474980Y80400D03*
D24*
X573880Y75100D03*
X553880Y75100D03*
D25*
X597880Y23100D03*
X529880Y23100D03*
D20*
X551180Y25400D03*
X576580Y25400D03*
D18*
X546980Y190500D03*
X529980Y190500D03*
X546980Y171450D03*
X529980Y171450D03*
X546980Y152400D03*
X529980Y152400D03*
D20*
X500380Y279400D03*
X830580Y152400D03*
D18*
X885580Y101600D03*
X902580Y101600D03*
D23*
X899360Y92390D02*
X899360Y85410D01*
X899360Y92390D02*
X906340Y92390D01*
X906340Y85410D01*
X899360Y85410D01*
X899360Y90210D02*
X906340Y90210D01*
X881820Y92390D02*
X881820Y85410D01*
X881820Y92390D02*
X888800Y92390D01*
X888800Y85410D01*
X881820Y85410D01*
X881820Y90210D02*
X888800Y90210D01*
D26*
X790880Y177800D03*
D27*
X590880Y177800D03*
D28*
X783380Y125050D03*
D29*
X794380Y132800D03*
X587380Y132800D03*
D28*
X780880Y200550D03*
X778380Y125050D03*
X775880Y200550D03*
X773380Y125050D03*
X770880Y200550D03*
X768380Y125050D03*
X765880Y200550D03*
X763380Y125050D03*
X760880Y200550D03*
X758380Y125050D03*
X755880Y200550D03*
X753380Y125050D03*
X750880Y200550D03*
X748380Y125050D03*
X745880Y200550D03*
X743380Y125050D03*
X740880Y200550D03*
X738380Y125050D03*
X735880Y200550D03*
X733380Y125050D03*
X730880Y200550D03*
X728380Y125050D03*
X705880Y200550D03*
X703380Y125050D03*
X700880Y200550D03*
X698380Y125050D03*
X695880Y200550D03*
X693380Y125050D03*
X690880Y200550D03*
X688380Y125050D03*
X685880Y200550D03*
X683380Y125050D03*
X680880Y200550D03*
X678380Y125050D03*
X675880Y200550D03*
X673380Y125050D03*
X670880Y200550D03*
X668380Y125050D03*
X665880Y200550D03*
X663380Y125050D03*
X660880Y200550D03*
X658380Y125050D03*
X655880Y200550D03*
X653380Y125050D03*
X650880Y200550D03*
X648380Y125050D03*
X645880Y200550D03*
X643380Y125050D03*
X640880Y200550D03*
X638380Y125050D03*
X635880Y200550D03*
X633380Y125050D03*
X630880Y200550D03*
X628380Y125050D03*
X625880Y200550D03*
X623380Y125050D03*
X620880Y200550D03*
X618380Y125050D03*
X615880Y200550D03*
X613380Y125050D03*
X610880Y200550D03*
X608380Y125050D03*
X605880Y200550D03*
X603380Y125050D03*
X600880Y200550D03*
X598380Y125050D03*
D20*
X906780Y508000D03*
X906780Y482600D03*
X906780Y457200D03*
X906780Y431800D03*
X906780Y406400D03*
X906780Y381000D03*
D18*
X860180Y355600D03*
X877180Y355600D03*
D16*
X905430Y200600D03*
X905430Y256600D03*
D17*
X868680Y213600D03*
X868680Y223600D03*
X868680Y233600D03*
X868680Y243600D03*
D30*
X751080Y561900D03*
D31*
X792480Y515900D03*
D30*
X833880Y561900D03*
X547880Y561900D03*
D31*
X589280Y515900D03*
D30*
X630680Y561900D03*
D32*
X868680Y468850D03*
X868680Y496350D03*
D33*
X853430Y482600D03*
X883930Y482600D03*
D32*
X868680Y405350D03*
X868680Y432850D03*
D33*
X853430Y419100D03*
X883930Y419100D03*
D34*
X690880Y100400D03*
X690880Y77400D03*
X665480Y100400D03*
X665480Y77400D03*
X716280Y100400D03*
X716280Y77400D03*
D20*
X500380Y508000D03*
X500380Y482600D03*
X500380Y457200D03*
X500380Y431800D03*
X500380Y406400D03*
X500380Y381000D03*
X500380Y355600D03*
D35*
X521980Y127000D03*
X554980Y127000D03*
D20*
X500380Y330200D03*
X500380Y304800D03*
X474980Y279400D03*
X474980Y304800D03*
X474980Y330200D03*
X474980Y355600D03*
X474980Y381000D03*
X474980Y406400D03*
X474980Y431800D03*
X474980Y457200D03*
X474980Y482600D03*
X474980Y508000D03*
D10*
X1160660Y60100D03*
X1155660Y60100D03*
D11*
X1185410Y60100D03*
X1177660Y60100D03*
D10*
X1170660Y60100D03*
X1165660Y60100D03*
X1145660Y60100D03*
X1150660Y60100D03*
D11*
X1120910Y60100D03*
X1128660Y60100D03*
D10*
X1135660Y60100D03*
X1140660Y60100D03*
D12*
X1124260Y49050D03*
X1182060Y49050D03*
D13*
X1096010Y40250D03*
X1096010Y23250D03*
X1210310Y40250D03*
X1210310Y23250D03*
D14*
X1374140Y7620D03*
X932180Y589280D03*
D15*
X949960Y571500D03*
X949960Y25400D03*
X1356360Y571500D03*
X1356360Y25400D03*
D16*
X938610Y256600D03*
X938610Y200600D03*
D17*
X975360Y243600D03*
X975360Y233600D03*
X975360Y223600D03*
X975360Y213600D03*
D18*
X1339460Y304800D03*
X1322460Y304800D03*
X1339460Y330200D03*
X1322460Y330200D03*
D19*
X1358900Y133350D03*
X1303020Y133350D03*
X1358900Y171450D03*
X1303020Y171450D03*
D20*
X1102360Y101600D03*
X1076960Y101600D03*
X1369060Y279400D03*
X1369060Y304800D03*
X1369060Y330200D03*
X1369060Y355600D03*
D21*
X1153160Y518160D03*
D22*
X940460Y113999D03*
X949960Y113999D03*
X959460Y113999D03*
X959460Y140001D03*
X940460Y140001D03*
D18*
X958460Y177800D03*
X941460Y177800D03*
D13*
X962660Y97400D03*
X962660Y80400D03*
D18*
X958460Y158750D03*
X941460Y158750D03*
D23*
X944680Y66990D02*
X944680Y60010D01*
X937700Y60010D01*
X937700Y66990D01*
X944680Y66990D01*
X944680Y64810D02*
X937700Y64810D01*
X962220Y66990D02*
X962220Y60010D01*
X955240Y60010D01*
X955240Y66990D01*
X962220Y66990D01*
X962220Y64810D02*
X955240Y64810D01*
D13*
X937260Y97400D03*
X937260Y80400D03*
D24*
X1036160Y75100D03*
X1016160Y75100D03*
D25*
X1060160Y23100D03*
X992160Y23100D03*
D20*
X1013460Y25400D03*
X1038860Y25400D03*
D18*
X1009260Y190500D03*
X992260Y190500D03*
X1009260Y171450D03*
X992260Y171450D03*
X1009260Y152400D03*
X992260Y152400D03*
D20*
X962660Y279400D03*
X1292860Y152400D03*
D18*
X1347860Y101600D03*
X1364860Y101600D03*
D23*
X1361640Y92390D02*
X1361640Y85410D01*
X1361640Y92390D02*
X1368620Y92390D01*
X1368620Y85410D01*
X1361640Y85410D01*
X1361640Y90210D02*
X1368620Y90210D01*
X1344100Y92390D02*
X1344100Y85410D01*
X1344100Y92390D02*
X1351080Y92390D01*
X1351080Y85410D01*
X1344100Y85410D01*
X1344100Y90210D02*
X1351080Y90210D01*
D26*
X1253160Y177800D03*
D27*
X1053160Y177800D03*
D28*
X1245660Y125050D03*
D29*
X1256660Y132800D03*
X1049660Y132800D03*
D28*
X1243160Y200550D03*
X1240660Y125050D03*
X1238160Y200550D03*
X1235660Y125050D03*
X1233160Y200550D03*
X1230660Y125050D03*
X1228160Y200550D03*
X1225660Y125050D03*
X1223160Y200550D03*
X1220660Y125050D03*
X1218160Y200550D03*
X1215660Y125050D03*
X1213160Y200550D03*
X1210660Y125050D03*
X1208160Y200550D03*
X1205660Y125050D03*
X1203160Y200550D03*
X1200660Y125050D03*
X1198160Y200550D03*
X1195660Y125050D03*
X1193160Y200550D03*
X1190660Y125050D03*
X1168160Y200550D03*
X1165660Y125050D03*
X1163160Y200550D03*
X1160660Y125050D03*
X1158160Y200550D03*
X1155660Y125050D03*
X1153160Y200550D03*
X1150660Y125050D03*
X1148160Y200550D03*
X1145660Y125050D03*
X1143160Y200550D03*
X1140660Y125050D03*
X1138160Y200550D03*
X1135660Y125050D03*
X1133160Y200550D03*
X1130660Y125050D03*
X1128160Y200550D03*
X1125660Y125050D03*
X1123160Y200550D03*
X1120660Y125050D03*
X1118160Y200550D03*
X1115660Y125050D03*
X1113160Y200550D03*
X1110660Y125050D03*
X1108160Y200550D03*
X1105660Y125050D03*
X1103160Y200550D03*
X1100660Y125050D03*
X1098160Y200550D03*
X1095660Y125050D03*
X1093160Y200550D03*
X1090660Y125050D03*
X1088160Y200550D03*
X1085660Y125050D03*
X1083160Y200550D03*
X1080660Y125050D03*
X1078160Y200550D03*
X1075660Y125050D03*
X1073160Y200550D03*
X1070660Y125050D03*
X1068160Y200550D03*
X1065660Y125050D03*
X1063160Y200550D03*
X1060660Y125050D03*
D20*
X1369060Y508000D03*
X1369060Y482600D03*
X1369060Y457200D03*
X1369060Y431800D03*
X1369060Y406400D03*
X1369060Y381000D03*
D18*
X1322460Y355600D03*
X1339460Y355600D03*
D16*
X1367710Y200600D03*
X1367710Y256600D03*
D17*
X1330960Y213600D03*
X1330960Y223600D03*
X1330960Y233600D03*
X1330960Y243600D03*
D30*
X1213360Y561900D03*
D31*
X1254760Y515900D03*
D30*
X1296160Y561900D03*
X1010160Y561900D03*
D31*
X1051560Y515900D03*
D30*
X1092960Y561900D03*
D32*
X1330960Y468850D03*
X1330960Y496350D03*
D33*
X1315710Y482600D03*
X1346210Y482600D03*
D32*
X1330960Y405350D03*
X1330960Y432850D03*
D33*
X1315710Y419100D03*
X1346210Y419100D03*
D34*
X1153160Y100400D03*
X1153160Y77400D03*
X1127760Y100400D03*
X1127760Y77400D03*
X1178560Y100400D03*
X1178560Y77400D03*
D20*
X962660Y508000D03*
X962660Y482600D03*
X962660Y457200D03*
X962660Y431800D03*
X962660Y406400D03*
X962660Y381000D03*
X962660Y355600D03*
D35*
X984260Y127000D03*
X1017260Y127000D03*
D20*
X962660Y330200D03*
X962660Y304800D03*
X937260Y279400D03*
X937260Y304800D03*
X937260Y330200D03*
X937260Y355600D03*
X937260Y381000D03*
X937260Y406400D03*
X937260Y431800D03*
X937260Y457200D03*
X937260Y482600D03*
X937260Y508000D03*
D10*
X236100Y733200D03*
X231100Y733200D03*
D11*
X260850Y733200D03*
X253100Y733200D03*
D10*
X246100Y733200D03*
X241100Y733200D03*
X221100Y733200D03*
X226100Y733200D03*
D11*
X196350Y733200D03*
X204100Y733200D03*
D10*
X211100Y733200D03*
X216100Y733200D03*
D12*
X199700Y722150D03*
X257500Y722150D03*
D13*
X171450Y713350D03*
X171450Y696350D03*
X285750Y713350D03*
X285750Y696350D03*
D14*
X449580Y680720D03*
X7620Y1262380D03*
D15*
X25400Y1244600D03*
X25400Y698500D03*
X431800Y1244600D03*
X431800Y698500D03*
D16*
X14050Y929700D03*
X14050Y873700D03*
D17*
X50800Y916700D03*
X50800Y906700D03*
X50800Y896700D03*
X50800Y886700D03*
D18*
X414900Y977900D03*
X397900Y977900D03*
X414900Y1003300D03*
X397900Y1003300D03*
D19*
X434340Y806450D03*
X378460Y806450D03*
X434340Y844550D03*
X378460Y844550D03*
D20*
X177800Y774700D03*
X152400Y774700D03*
X444500Y952500D03*
X444500Y977900D03*
X444500Y1003300D03*
X444500Y1028700D03*
D21*
X228600Y1191260D03*
D22*
X15900Y787099D03*
X25400Y787099D03*
X34900Y787099D03*
X34900Y813101D03*
X15900Y813101D03*
D18*
X33900Y850900D03*
X16900Y850900D03*
D13*
X38100Y770500D03*
X38100Y753500D03*
D18*
X33900Y831850D03*
X16900Y831850D03*
D23*
X20120Y740090D02*
X20120Y733110D01*
X13140Y733110D01*
X13140Y740090D01*
X20120Y740090D01*
X20120Y737910D02*
X13140Y737910D01*
X37660Y740090D02*
X37660Y733110D01*
X30680Y733110D01*
X30680Y740090D01*
X37660Y740090D01*
X37660Y737910D02*
X30680Y737910D01*
D13*
X12700Y770500D03*
X12700Y753500D03*
D24*
X111600Y748200D03*
X91600Y748200D03*
D25*
X135600Y696200D03*
X67600Y696200D03*
D20*
X88900Y698500D03*
X114300Y698500D03*
D18*
X84700Y863600D03*
X67700Y863600D03*
X84700Y844550D03*
X67700Y844550D03*
X84700Y825500D03*
X67700Y825500D03*
D20*
X38100Y952500D03*
X368300Y825500D03*
D18*
X423300Y774700D03*
X440300Y774700D03*
D23*
X437080Y765490D02*
X437080Y758510D01*
X437080Y765490D02*
X444060Y765490D01*
X444060Y758510D01*
X437080Y758510D01*
X437080Y763310D02*
X444060Y763310D01*
X419540Y765490D02*
X419540Y758510D01*
X419540Y765490D02*
X426520Y765490D01*
X426520Y758510D01*
X419540Y758510D01*
X419540Y763310D02*
X426520Y763310D01*
D26*
X328600Y850900D03*
D27*
X128600Y850900D03*
D28*
X321100Y798150D03*
D29*
X332100Y805900D03*
X125100Y805900D03*
D28*
X318600Y873650D03*
X316100Y798150D03*
X313600Y873650D03*
X311100Y798150D03*
X308600Y873650D03*
X306100Y798150D03*
X303600Y873650D03*
X301100Y798150D03*
X298600Y873650D03*
X296100Y798150D03*
X293600Y873650D03*
X291100Y798150D03*
X288600Y873650D03*
X286100Y798150D03*
X283600Y873650D03*
X281100Y798150D03*
X278600Y873650D03*
X276100Y798150D03*
X273600Y873650D03*
X271100Y798150D03*
X268600Y873650D03*
X266100Y798150D03*
X243600Y873650D03*
X241100Y798150D03*
X238600Y873650D03*
X236100Y798150D03*
X233600Y873650D03*
X231100Y798150D03*
X228600Y873650D03*
X226100Y798150D03*
X223600Y873650D03*
X221100Y798150D03*
X218600Y873650D03*
X216100Y798150D03*
X213600Y873650D03*
X211100Y798150D03*
X208600Y873650D03*
X206100Y798150D03*
X203600Y873650D03*
X201100Y798150D03*
X198600Y873650D03*
X196100Y798150D03*
X193600Y873650D03*
X191100Y798150D03*
X188600Y873650D03*
X186100Y798150D03*
X183600Y873650D03*
X181100Y798150D03*
X178600Y873650D03*
X176100Y798150D03*
X173600Y873650D03*
X171100Y798150D03*
X168600Y873650D03*
X166100Y798150D03*
X163600Y873650D03*
X161100Y798150D03*
X158600Y873650D03*
X156100Y798150D03*
X153600Y873650D03*
X151100Y798150D03*
X148600Y873650D03*
X146100Y798150D03*
X143600Y873650D03*
X141100Y798150D03*
X138600Y873650D03*
X136100Y798150D03*
D20*
X444500Y1181100D03*
X444500Y1155700D03*
X444500Y1130300D03*
X444500Y1104900D03*
X444500Y1079500D03*
X444500Y1054100D03*
D18*
X397900Y1028700D03*
X414900Y1028700D03*
D16*
X443150Y873700D03*
X443150Y929700D03*
D17*
X406400Y886700D03*
X406400Y896700D03*
X406400Y906700D03*
X406400Y916700D03*
D30*
X288800Y1235000D03*
D31*
X330200Y1189000D03*
D30*
X371600Y1235000D03*
X85600Y1235000D03*
D31*
X127000Y1189000D03*
D30*
X168400Y1235000D03*
D32*
X406400Y1141950D03*
X406400Y1169450D03*
D33*
X391150Y1155700D03*
X421650Y1155700D03*
D32*
X406400Y1078450D03*
X406400Y1105950D03*
D33*
X391150Y1092200D03*
X421650Y1092200D03*
D34*
X228600Y773500D03*
X228600Y750500D03*
X203200Y773500D03*
X203200Y750500D03*
X254000Y773500D03*
X254000Y750500D03*
D20*
X38100Y1181100D03*
X38100Y1155700D03*
X38100Y1130300D03*
X38100Y1104900D03*
X38100Y1079500D03*
X38100Y1054100D03*
X38100Y1028700D03*
D35*
X59700Y800100D03*
X92700Y800100D03*
D20*
X38100Y1003300D03*
X38100Y977900D03*
X12700Y952500D03*
X12700Y977900D03*
X12700Y1003300D03*
X12700Y1028700D03*
X12700Y1054100D03*
X12700Y1079500D03*
X12700Y1104900D03*
X12700Y1130300D03*
X12700Y1155700D03*
X12700Y1181100D03*
D10*
X698380Y733200D03*
X693380Y733200D03*
D11*
X723130Y733200D03*
X715380Y733200D03*
D10*
X708380Y733200D03*
X703380Y733200D03*
X683380Y733200D03*
X688380Y733200D03*
D11*
X658630Y733200D03*
X666380Y733200D03*
D10*
X673380Y733200D03*
X678380Y733200D03*
D12*
X661980Y722150D03*
X719780Y722150D03*
D13*
X633730Y713350D03*
X633730Y696350D03*
X748030Y713350D03*
X748030Y696350D03*
D14*
X911860Y680720D03*
X469900Y1262380D03*
D15*
X487680Y1244600D03*
X487680Y698500D03*
X894080Y1244600D03*
X894080Y698500D03*
D16*
X476330Y929700D03*
X476330Y873700D03*
D17*
X513080Y916700D03*
X513080Y906700D03*
X513080Y896700D03*
X513080Y886700D03*
D18*
X877180Y977900D03*
X860180Y977900D03*
X877180Y1003300D03*
X860180Y1003300D03*
D19*
X896620Y806450D03*
X840740Y806450D03*
X896620Y844550D03*
X840740Y844550D03*
D20*
X640080Y774700D03*
X614680Y774700D03*
X906780Y952500D03*
X906780Y977900D03*
X906780Y1003300D03*
X906780Y1028700D03*
D21*
X690880Y1191260D03*
D22*
X478180Y787099D03*
X487680Y787099D03*
X497180Y787099D03*
X497180Y813101D03*
X478180Y813101D03*
D18*
X496180Y850900D03*
X479180Y850900D03*
D13*
X500380Y770500D03*
X500380Y753500D03*
D18*
X496180Y831850D03*
X479180Y831850D03*
D23*
X482400Y740090D02*
X482400Y733110D01*
X475420Y733110D01*
X475420Y740090D01*
X482400Y740090D01*
X482400Y737910D02*
X475420Y737910D01*
X499940Y740090D02*
X499940Y733110D01*
X492960Y733110D01*
X492960Y740090D01*
X499940Y740090D01*
X499940Y737910D02*
X492960Y737910D01*
D13*
X474980Y770500D03*
X474980Y753500D03*
D24*
X573880Y748200D03*
X553880Y748200D03*
D25*
X597880Y696200D03*
X529880Y696200D03*
D20*
X551180Y698500D03*
X576580Y698500D03*
D18*
X546980Y863600D03*
X529980Y863600D03*
X546980Y844550D03*
X529980Y844550D03*
X546980Y825500D03*
X529980Y825500D03*
D20*
X500380Y952500D03*
X830580Y825500D03*
D18*
X885580Y774700D03*
X902580Y774700D03*
D23*
X899360Y765490D02*
X899360Y758510D01*
X899360Y765490D02*
X906340Y765490D01*
X906340Y758510D01*
X899360Y758510D01*
X899360Y763310D02*
X906340Y763310D01*
X881820Y765490D02*
X881820Y758510D01*
X881820Y765490D02*
X888800Y765490D01*
X888800Y758510D01*
X881820Y758510D01*
X881820Y763310D02*
X888800Y763310D01*
D26*
X790880Y850900D03*
D27*
X590880Y850900D03*
D28*
X783380Y798150D03*
D29*
X794380Y805900D03*
X587380Y805900D03*
D28*
X780880Y873650D03*
X778380Y798150D03*
X775880Y873650D03*
X773380Y798150D03*
X770880Y873650D03*
X768380Y798150D03*
X765880Y873650D03*
X763380Y798150D03*
X760880Y873650D03*
X758380Y798150D03*
X755880Y873650D03*
X753380Y798150D03*
X750880Y873650D03*
X748380Y798150D03*
X745880Y873650D03*
X743380Y798150D03*
X740880Y873650D03*
X738380Y798150D03*
X735880Y873650D03*
X733380Y798150D03*
X730880Y873650D03*
X728380Y798150D03*
X705880Y873650D03*
X703380Y798150D03*
X700880Y873650D03*
X698380Y798150D03*
X695880Y873650D03*
X693380Y798150D03*
X690880Y873650D03*
X688380Y798150D03*
X685880Y873650D03*
X683380Y798150D03*
X680880Y873650D03*
X678380Y798150D03*
X675880Y873650D03*
X673380Y798150D03*
X670880Y873650D03*
X668380Y798150D03*
X665880Y873650D03*
X663380Y798150D03*
X660880Y873650D03*
X658380Y798150D03*
X655880Y873650D03*
X653380Y798150D03*
X650880Y873650D03*
X648380Y798150D03*
X645880Y873650D03*
X643380Y798150D03*
X640880Y873650D03*
X638380Y798150D03*
X635880Y873650D03*
X633380Y798150D03*
X630880Y873650D03*
X628380Y798150D03*
X625880Y873650D03*
X623380Y798150D03*
X620880Y873650D03*
X618380Y798150D03*
X615880Y873650D03*
X613380Y798150D03*
X610880Y873650D03*
X608380Y798150D03*
X605880Y873650D03*
X603380Y798150D03*
X600880Y873650D03*
X598380Y798150D03*
D20*
X906780Y1181100D03*
X906780Y1155700D03*
X906780Y1130300D03*
X906780Y1104900D03*
X906780Y1079500D03*
X906780Y1054100D03*
D18*
X860180Y1028700D03*
X877180Y1028700D03*
D16*
X905430Y873700D03*
X905430Y929700D03*
D17*
X868680Y886700D03*
X868680Y896700D03*
X868680Y906700D03*
X868680Y916700D03*
D30*
X751080Y1235000D03*
D31*
X792480Y1189000D03*
D30*
X833880Y1235000D03*
X547880Y1235000D03*
D31*
X589280Y1189000D03*
D30*
X630680Y1235000D03*
D32*
X868680Y1141950D03*
X868680Y1169450D03*
D33*
X853430Y1155700D03*
X883930Y1155700D03*
D32*
X868680Y1078450D03*
X868680Y1105950D03*
D33*
X853430Y1092200D03*
X883930Y1092200D03*
D34*
X690880Y773500D03*
X690880Y750500D03*
X665480Y773500D03*
X665480Y750500D03*
X716280Y773500D03*
X716280Y750500D03*
D20*
X500380Y1181100D03*
X500380Y1155700D03*
X500380Y1130300D03*
X500380Y1104900D03*
X500380Y1079500D03*
X500380Y1054100D03*
X500380Y1028700D03*
D35*
X521980Y800100D03*
X554980Y800100D03*
D20*
X500380Y1003300D03*
X500380Y977900D03*
X474980Y952500D03*
X474980Y977900D03*
X474980Y1003300D03*
X474980Y1028700D03*
X474980Y1054100D03*
X474980Y1079500D03*
X474980Y1104900D03*
X474980Y1130300D03*
X474980Y1155700D03*
X474980Y1181100D03*
D10*
X1160660Y733200D03*
X1155660Y733200D03*
D11*
X1185410Y733200D03*
X1177660Y733200D03*
D10*
X1170660Y733200D03*
X1165660Y733200D03*
X1145660Y733200D03*
X1150660Y733200D03*
D11*
X1120910Y733200D03*
X1128660Y733200D03*
D10*
X1135660Y733200D03*
X1140660Y733200D03*
D12*
X1124260Y722150D03*
X1182060Y722150D03*
D13*
X1096010Y713350D03*
X1096010Y696350D03*
X1210310Y713350D03*
X1210310Y696350D03*
D14*
X1374140Y680720D03*
X932180Y1262380D03*
D15*
X949960Y1244600D03*
X949960Y698500D03*
X1356360Y1244600D03*
X1356360Y698500D03*
D16*
X938610Y929700D03*
X938610Y873700D03*
D17*
X975360Y916700D03*
X975360Y906700D03*
X975360Y896700D03*
X975360Y886700D03*
D18*
X1339460Y977900D03*
X1322460Y977900D03*
X1339460Y1003300D03*
X1322460Y1003300D03*
D19*
X1358900Y806450D03*
X1303020Y806450D03*
X1358900Y844550D03*
X1303020Y844550D03*
D20*
X1102360Y774700D03*
X1076960Y774700D03*
X1369060Y952500D03*
X1369060Y977900D03*
X1369060Y1003300D03*
X1369060Y1028700D03*
D21*
X1153160Y1191260D03*
D22*
X940460Y787099D03*
X949960Y787099D03*
X959460Y787099D03*
X959460Y813101D03*
X940460Y813101D03*
D18*
X958460Y850900D03*
X941460Y850900D03*
D13*
X962660Y770500D03*
X962660Y753500D03*
D18*
X958460Y831850D03*
X941460Y831850D03*
D23*
X944680Y740090D02*
X944680Y733110D01*
X937700Y733110D01*
X937700Y740090D01*
X944680Y740090D01*
X944680Y737910D02*
X937700Y737910D01*
X962220Y740090D02*
X962220Y733110D01*
X955240Y733110D01*
X955240Y740090D01*
X962220Y740090D01*
X962220Y737910D02*
X955240Y737910D01*
D13*
X937260Y770500D03*
X937260Y753500D03*
D24*
X1036160Y748200D03*
X1016160Y748200D03*
D25*
X1060160Y696200D03*
X992160Y696200D03*
D20*
X1013460Y698500D03*
X1038860Y698500D03*
D18*
X1009260Y863600D03*
X992260Y863600D03*
X1009260Y844550D03*
X992260Y844550D03*
X1009260Y825500D03*
X992260Y825500D03*
D20*
X962660Y952500D03*
X1292860Y825500D03*
D18*
X1347860Y774700D03*
X1364860Y774700D03*
D23*
X1361640Y765490D02*
X1361640Y758510D01*
X1361640Y765490D02*
X1368620Y765490D01*
X1368620Y758510D01*
X1361640Y758510D01*
X1361640Y763310D02*
X1368620Y763310D01*
X1344100Y765490D02*
X1344100Y758510D01*
X1344100Y765490D02*
X1351080Y765490D01*
X1351080Y758510D01*
X1344100Y758510D01*
X1344100Y763310D02*
X1351080Y763310D01*
D26*
X1253160Y850900D03*
D27*
X1053160Y850900D03*
D28*
X1245660Y798150D03*
D29*
X1256660Y805900D03*
X1049660Y805900D03*
D28*
X1243160Y873650D03*
X1240660Y798150D03*
X1238160Y873650D03*
X1235660Y798150D03*
X1233160Y873650D03*
X1230660Y798150D03*
X1228160Y873650D03*
X1225660Y798150D03*
X1223160Y873650D03*
X1220660Y798150D03*
X1218160Y873650D03*
X1215660Y798150D03*
X1213160Y873650D03*
X1210660Y798150D03*
X1208160Y873650D03*
X1205660Y798150D03*
X1203160Y873650D03*
X1200660Y798150D03*
X1198160Y873650D03*
X1195660Y798150D03*
X1193160Y873650D03*
X1190660Y798150D03*
X1168160Y873650D03*
X1165660Y798150D03*
X1163160Y873650D03*
X1160660Y798150D03*
X1158160Y873650D03*
X1155660Y798150D03*
X1153160Y873650D03*
X1150660Y798150D03*
X1148160Y873650D03*
X1145660Y798150D03*
X1143160Y873650D03*
X1140660Y798150D03*
X1138160Y873650D03*
X1135660Y798150D03*
X1133160Y873650D03*
X1130660Y798150D03*
X1128160Y873650D03*
X1125660Y798150D03*
X1123160Y873650D03*
X1120660Y798150D03*
X1118160Y873650D03*
X1115660Y798150D03*
X1113160Y873650D03*
X1110660Y798150D03*
X1108160Y873650D03*
X1105660Y798150D03*
X1103160Y873650D03*
X1100660Y798150D03*
X1098160Y873650D03*
X1095660Y798150D03*
X1093160Y873650D03*
X1090660Y798150D03*
X1088160Y873650D03*
X1085660Y798150D03*
X1083160Y873650D03*
X1080660Y798150D03*
X1078160Y873650D03*
X1075660Y798150D03*
X1073160Y873650D03*
X1070660Y798150D03*
X1068160Y873650D03*
X1065660Y798150D03*
X1063160Y873650D03*
X1060660Y798150D03*
D20*
X1369060Y1181100D03*
X1369060Y1155700D03*
X1369060Y1130300D03*
X1369060Y1104900D03*
X1369060Y1079500D03*
X1369060Y1054100D03*
D18*
X1322460Y1028700D03*
X1339460Y1028700D03*
D16*
X1367710Y873700D03*
X1367710Y929700D03*
D17*
X1330960Y886700D03*
X1330960Y896700D03*
X1330960Y906700D03*
X1330960Y916700D03*
D30*
X1213360Y1235000D03*
D31*
X1254760Y1189000D03*
D30*
X1296160Y1235000D03*
X1010160Y1235000D03*
D31*
X1051560Y1189000D03*
D30*
X1092960Y1235000D03*
D32*
X1330960Y1141950D03*
X1330960Y1169450D03*
D33*
X1315710Y1155700D03*
X1346210Y1155700D03*
D32*
X1330960Y1078450D03*
X1330960Y1105950D03*
D33*
X1315710Y1092200D03*
X1346210Y1092200D03*
D34*
X1153160Y773500D03*
X1153160Y750500D03*
X1127760Y773500D03*
X1127760Y750500D03*
X1178560Y773500D03*
X1178560Y750500D03*
D20*
X962660Y1181100D03*
X962660Y1155700D03*
X962660Y1130300D03*
X962660Y1104900D03*
X962660Y1079500D03*
X962660Y1054100D03*
X962660Y1028700D03*
D35*
X984260Y800100D03*
X1017260Y800100D03*
D20*
X962660Y1003300D03*
X962660Y977900D03*
X937260Y952500D03*
X937260Y977900D03*
X937260Y1003300D03*
X937260Y1028700D03*
X937260Y1054100D03*
X937260Y1079500D03*
X937260Y1104900D03*
X937260Y1130300D03*
X937260Y1155700D03*
X937260Y1181100D03*
D36*
X68580Y1362075D03*
X1312545Y1362075D03*
D37*
X59525Y-92075D02*
X59528Y-91853D01*
X59536Y-91631D01*
X59550Y-91409D01*
X59569Y-91187D01*
X59593Y-90967D01*
X59623Y-90746D01*
X59658Y-90527D01*
X59699Y-90308D01*
X59745Y-90091D01*
X59796Y-89875D01*
X59853Y-89660D01*
X59915Y-89446D01*
X59982Y-89235D01*
X60054Y-89024D01*
X60132Y-88816D01*
X60214Y-88610D01*
X60302Y-88406D01*
X60394Y-88203D01*
X60492Y-88004D01*
X60594Y-87807D01*
X60701Y-87612D01*
X60813Y-87420D01*
X60930Y-87231D01*
X61051Y-87044D01*
X61177Y-86861D01*
X61307Y-86681D01*
X61442Y-86504D01*
X61580Y-86331D01*
X61723Y-86161D01*
X61871Y-85994D01*
X62022Y-85831D01*
X62177Y-85672D01*
X62336Y-85517D01*
X62499Y-85366D01*
X62666Y-85218D01*
X62836Y-85075D01*
X63009Y-84937D01*
X63186Y-84802D01*
X63366Y-84672D01*
X63549Y-84546D01*
X63736Y-84425D01*
X63925Y-84308D01*
X64117Y-84196D01*
X64312Y-84089D01*
X64509Y-83987D01*
X64708Y-83889D01*
X64911Y-83797D01*
X65115Y-83709D01*
X65321Y-83627D01*
X65529Y-83549D01*
X65740Y-83477D01*
X65951Y-83410D01*
X66165Y-83348D01*
X66380Y-83291D01*
X66596Y-83240D01*
X66813Y-83194D01*
X67032Y-83153D01*
X67251Y-83118D01*
X67472Y-83088D01*
X67692Y-83064D01*
X67914Y-83045D01*
X68136Y-83031D01*
X68358Y-83023D01*
X68580Y-83020D01*
X68802Y-83023D01*
X69024Y-83031D01*
X69246Y-83045D01*
X69468Y-83064D01*
X69688Y-83088D01*
X69909Y-83118D01*
X70128Y-83153D01*
X70347Y-83194D01*
X70564Y-83240D01*
X70780Y-83291D01*
X70995Y-83348D01*
X71209Y-83410D01*
X71420Y-83477D01*
X71631Y-83549D01*
X71839Y-83627D01*
X72045Y-83709D01*
X72249Y-83797D01*
X72452Y-83889D01*
X72651Y-83987D01*
X72848Y-84089D01*
X73043Y-84196D01*
X73235Y-84308D01*
X73424Y-84425D01*
X73611Y-84546D01*
X73794Y-84672D01*
X73974Y-84802D01*
X74151Y-84937D01*
X74324Y-85075D01*
X74494Y-85218D01*
X74661Y-85366D01*
X74824Y-85517D01*
X74983Y-85672D01*
X75138Y-85831D01*
X75289Y-85994D01*
X75437Y-86161D01*
X75580Y-86331D01*
X75718Y-86504D01*
X75853Y-86681D01*
X75983Y-86861D01*
X76109Y-87044D01*
X76230Y-87231D01*
X76347Y-87420D01*
X76459Y-87612D01*
X76566Y-87807D01*
X76668Y-88004D01*
X76766Y-88203D01*
X76858Y-88406D01*
X76946Y-88610D01*
X77028Y-88816D01*
X77106Y-89024D01*
X77178Y-89235D01*
X77245Y-89446D01*
X77307Y-89660D01*
X77364Y-89875D01*
X77415Y-90091D01*
X77461Y-90308D01*
X77502Y-90527D01*
X77537Y-90746D01*
X77567Y-90967D01*
X77591Y-91187D01*
X77610Y-91409D01*
X77624Y-91631D01*
X77632Y-91853D01*
X77635Y-92075D01*
X77632Y-92297D01*
X77624Y-92519D01*
X77610Y-92741D01*
X77591Y-92963D01*
X77567Y-93183D01*
X77537Y-93404D01*
X77502Y-93623D01*
X77461Y-93842D01*
X77415Y-94059D01*
X77364Y-94275D01*
X77307Y-94490D01*
X77245Y-94704D01*
X77178Y-94915D01*
X77106Y-95126D01*
X77028Y-95334D01*
X76946Y-95540D01*
X76858Y-95744D01*
X76766Y-95947D01*
X76668Y-96146D01*
X76566Y-96343D01*
X76459Y-96538D01*
X76347Y-96730D01*
X76230Y-96919D01*
X76109Y-97106D01*
X75983Y-97289D01*
X75853Y-97469D01*
X75718Y-97646D01*
X75580Y-97819D01*
X75437Y-97989D01*
X75289Y-98156D01*
X75138Y-98319D01*
X74983Y-98478D01*
X74824Y-98633D01*
X74661Y-98784D01*
X74494Y-98932D01*
X74324Y-99075D01*
X74151Y-99213D01*
X73974Y-99348D01*
X73794Y-99478D01*
X73611Y-99604D01*
X73424Y-99725D01*
X73235Y-99842D01*
X73043Y-99954D01*
X72848Y-100061D01*
X72651Y-100163D01*
X72452Y-100261D01*
X72249Y-100353D01*
X72045Y-100441D01*
X71839Y-100523D01*
X71631Y-100601D01*
X71420Y-100673D01*
X71209Y-100740D01*
X70995Y-100802D01*
X70780Y-100859D01*
X70564Y-100910D01*
X70347Y-100956D01*
X70128Y-100997D01*
X69909Y-101032D01*
X69688Y-101062D01*
X69468Y-101086D01*
X69246Y-101105D01*
X69024Y-101119D01*
X68802Y-101127D01*
X68580Y-101130D01*
X68358Y-101127D01*
X68136Y-101119D01*
X67914Y-101105D01*
X67692Y-101086D01*
X67472Y-101062D01*
X67251Y-101032D01*
X67032Y-100997D01*
X66813Y-100956D01*
X66596Y-100910D01*
X66380Y-100859D01*
X66165Y-100802D01*
X65951Y-100740D01*
X65740Y-100673D01*
X65529Y-100601D01*
X65321Y-100523D01*
X65115Y-100441D01*
X64911Y-100353D01*
X64708Y-100261D01*
X64509Y-100163D01*
X64312Y-100061D01*
X64117Y-99954D01*
X63925Y-99842D01*
X63736Y-99725D01*
X63549Y-99604D01*
X63366Y-99478D01*
X63186Y-99348D01*
X63009Y-99213D01*
X62836Y-99075D01*
X62666Y-98932D01*
X62499Y-98784D01*
X62336Y-98633D01*
X62177Y-98478D01*
X62022Y-98319D01*
X61871Y-98156D01*
X61723Y-97989D01*
X61580Y-97819D01*
X61442Y-97646D01*
X61307Y-97469D01*
X61177Y-97289D01*
X61051Y-97106D01*
X60930Y-96919D01*
X60813Y-96730D01*
X60701Y-96538D01*
X60594Y-96343D01*
X60492Y-96146D01*
X60394Y-95947D01*
X60302Y-95744D01*
X60214Y-95540D01*
X60132Y-95334D01*
X60054Y-95126D01*
X59982Y-94915D01*
X59915Y-94704D01*
X59853Y-94490D01*
X59796Y-94275D01*
X59745Y-94059D01*
X59699Y-93842D01*
X59658Y-93623D01*
X59623Y-93404D01*
X59593Y-93183D01*
X59569Y-92963D01*
X59550Y-92741D01*
X59536Y-92519D01*
X59528Y-92297D01*
X59525Y-92075D01*
D38*
X68580Y-92075D03*
M02*
