G04 EAGLE Gerber RS-274X export*
G75*
%MOMM*%
%FSLAX34Y34*%
%LPD*%
%INSolderpaste Top*%
%IPPOS*%
%AMOC8*
5,1,8,0,0,1.08239X$1,22.5*%
G01*
%ADD10R,0.300000X1.000000*%
%ADD11R,0.600000X1.000000*%
%ADD12R,1.000000X1.100000*%
%ADD13R,2.000000X1.200000*%
%ADD14R,1.350000X0.600000*%
%ADD15R,1.100000X1.000000*%
%ADD16R,0.762000X1.524000*%
%ADD17R,0.550000X1.200000*%
%ADD18C,0.300000*%
%ADD19R,1.000000X4.600000*%
%ADD20R,1.600000X3.400000*%
%ADD21R,1.200000X2.750000*%
%ADD22R,0.300000X1.750000*%
%ADD23R,2.200000X0.850000*%
%ADD24R,1.050000X1.000000*%
%ADD25R,0.830000X0.630000*%
%ADD26R,1.200000X2.500000*%
%ADD27R,1.100000X2.400000*%
%ADD28R,1.250000X7.000000*%

G36*
X1149219Y1153151D02*
X1149219Y1153151D01*
X1149264Y1153152D01*
X1149315Y1153174D01*
X1149370Y1153187D01*
X1149406Y1153213D01*
X1149446Y1153231D01*
X1149485Y1153272D01*
X1149530Y1153305D01*
X1149553Y1153343D01*
X1149583Y1153375D01*
X1149603Y1153428D01*
X1149632Y1153476D01*
X1149640Y1153527D01*
X1149653Y1153561D01*
X1149652Y1153595D01*
X1149659Y1153640D01*
X1149659Y1164640D01*
X1149649Y1164693D01*
X1149648Y1164746D01*
X1149629Y1164789D01*
X1149620Y1164835D01*
X1149589Y1164879D01*
X1149568Y1164928D01*
X1149534Y1164960D01*
X1149507Y1164999D01*
X1149462Y1165028D01*
X1149423Y1165064D01*
X1149372Y1165085D01*
X1149340Y1165106D01*
X1149308Y1165111D01*
X1149269Y1165127D01*
X1146534Y1165738D01*
X1143970Y1166766D01*
X1141606Y1168193D01*
X1139502Y1169982D01*
X1137713Y1172086D01*
X1136286Y1174450D01*
X1135258Y1177014D01*
X1134647Y1179749D01*
X1134625Y1179798D01*
X1134613Y1179850D01*
X1134585Y1179888D01*
X1134566Y1179930D01*
X1134527Y1179967D01*
X1134495Y1180010D01*
X1134455Y1180034D01*
X1134421Y1180066D01*
X1134370Y1180084D01*
X1134324Y1180112D01*
X1134270Y1180121D01*
X1134234Y1180134D01*
X1134202Y1180132D01*
X1134160Y1180139D01*
X1123160Y1180139D01*
X1123105Y1180128D01*
X1123049Y1180127D01*
X1123008Y1180108D01*
X1122965Y1180100D01*
X1122919Y1180068D01*
X1122868Y1180045D01*
X1122838Y1180012D01*
X1122801Y1179987D01*
X1122771Y1179940D01*
X1122733Y1179898D01*
X1122718Y1179857D01*
X1122694Y1179820D01*
X1122685Y1179764D01*
X1122666Y1179711D01*
X1122667Y1179659D01*
X1122661Y1179623D01*
X1122669Y1179591D01*
X1122669Y1179586D01*
X1122669Y1179584D01*
X1122669Y1179583D01*
X1122670Y1179545D01*
X1123509Y1175224D01*
X1123521Y1175195D01*
X1123529Y1175153D01*
X1124998Y1171003D01*
X1125014Y1170976D01*
X1125028Y1170936D01*
X1127094Y1167049D01*
X1127114Y1167025D01*
X1127133Y1166987D01*
X1129751Y1163448D01*
X1129775Y1163427D01*
X1129800Y1163392D01*
X1132912Y1160280D01*
X1132927Y1160270D01*
X1132935Y1160259D01*
X1132950Y1160250D01*
X1132968Y1160231D01*
X1136507Y1157613D01*
X1136535Y1157600D01*
X1136569Y1157574D01*
X1140456Y1155508D01*
X1140486Y1155499D01*
X1140523Y1155478D01*
X1144673Y1154009D01*
X1144704Y1154004D01*
X1144744Y1153989D01*
X1149065Y1153150D01*
X1149121Y1153150D01*
X1149177Y1153141D01*
X1149219Y1153151D01*
G37*
G36*
X686939Y480051D02*
X686939Y480051D01*
X686984Y480052D01*
X687035Y480074D01*
X687090Y480087D01*
X687126Y480113D01*
X687166Y480131D01*
X687205Y480172D01*
X687250Y480205D01*
X687273Y480243D01*
X687303Y480275D01*
X687323Y480328D01*
X687352Y480376D01*
X687360Y480427D01*
X687373Y480461D01*
X687372Y480495D01*
X687379Y480540D01*
X687379Y491540D01*
X687369Y491593D01*
X687368Y491646D01*
X687349Y491689D01*
X687340Y491735D01*
X687309Y491779D01*
X687288Y491828D01*
X687254Y491860D01*
X687227Y491899D01*
X687182Y491928D01*
X687143Y491964D01*
X687092Y491985D01*
X687060Y492006D01*
X687028Y492011D01*
X686989Y492027D01*
X684254Y492638D01*
X681690Y493666D01*
X679326Y495093D01*
X677222Y496882D01*
X675433Y498986D01*
X674006Y501350D01*
X672978Y503914D01*
X672367Y506649D01*
X672345Y506698D01*
X672333Y506750D01*
X672305Y506788D01*
X672286Y506830D01*
X672247Y506867D01*
X672215Y506910D01*
X672175Y506934D01*
X672141Y506966D01*
X672090Y506984D01*
X672044Y507012D01*
X671990Y507021D01*
X671954Y507034D01*
X671922Y507032D01*
X671880Y507039D01*
X660880Y507039D01*
X660825Y507028D01*
X660769Y507027D01*
X660728Y507008D01*
X660685Y507000D01*
X660639Y506968D01*
X660588Y506945D01*
X660558Y506912D01*
X660521Y506887D01*
X660491Y506840D01*
X660453Y506798D01*
X660438Y506757D01*
X660414Y506720D01*
X660405Y506664D01*
X660386Y506611D01*
X660387Y506559D01*
X660381Y506523D01*
X660389Y506491D01*
X660389Y506486D01*
X660389Y506484D01*
X660389Y506483D01*
X660390Y506445D01*
X661229Y502124D01*
X661241Y502095D01*
X661249Y502053D01*
X662718Y497903D01*
X662734Y497876D01*
X662748Y497836D01*
X664814Y493949D01*
X664834Y493925D01*
X664853Y493887D01*
X667471Y490348D01*
X667495Y490327D01*
X667520Y490292D01*
X670632Y487180D01*
X670647Y487170D01*
X670655Y487159D01*
X670670Y487150D01*
X670688Y487131D01*
X674227Y484513D01*
X674255Y484500D01*
X674289Y484474D01*
X678176Y482408D01*
X678206Y482399D01*
X678243Y482378D01*
X682393Y480909D01*
X682424Y480904D01*
X682464Y480889D01*
X686785Y480050D01*
X686841Y480050D01*
X686897Y480041D01*
X686939Y480051D01*
G37*
G36*
X1149219Y480051D02*
X1149219Y480051D01*
X1149264Y480052D01*
X1149315Y480074D01*
X1149370Y480087D01*
X1149406Y480113D01*
X1149446Y480131D01*
X1149485Y480172D01*
X1149530Y480205D01*
X1149553Y480243D01*
X1149583Y480275D01*
X1149603Y480328D01*
X1149632Y480376D01*
X1149640Y480427D01*
X1149653Y480461D01*
X1149652Y480495D01*
X1149659Y480540D01*
X1149659Y491540D01*
X1149649Y491593D01*
X1149648Y491646D01*
X1149629Y491689D01*
X1149620Y491735D01*
X1149589Y491779D01*
X1149568Y491828D01*
X1149534Y491860D01*
X1149507Y491899D01*
X1149462Y491928D01*
X1149423Y491964D01*
X1149372Y491985D01*
X1149340Y492006D01*
X1149308Y492011D01*
X1149269Y492027D01*
X1146534Y492638D01*
X1143970Y493666D01*
X1141606Y495093D01*
X1139502Y496882D01*
X1137713Y498986D01*
X1136286Y501350D01*
X1135258Y503914D01*
X1134647Y506649D01*
X1134625Y506698D01*
X1134613Y506750D01*
X1134585Y506788D01*
X1134566Y506830D01*
X1134527Y506867D01*
X1134495Y506910D01*
X1134455Y506934D01*
X1134421Y506966D01*
X1134370Y506984D01*
X1134324Y507012D01*
X1134270Y507021D01*
X1134234Y507034D01*
X1134202Y507032D01*
X1134160Y507039D01*
X1123160Y507039D01*
X1123105Y507028D01*
X1123049Y507027D01*
X1123008Y507008D01*
X1122965Y507000D01*
X1122919Y506968D01*
X1122868Y506945D01*
X1122838Y506912D01*
X1122801Y506887D01*
X1122771Y506840D01*
X1122733Y506798D01*
X1122718Y506757D01*
X1122694Y506720D01*
X1122685Y506664D01*
X1122666Y506611D01*
X1122667Y506559D01*
X1122661Y506523D01*
X1122669Y506491D01*
X1122669Y506486D01*
X1122669Y506484D01*
X1122669Y506483D01*
X1122670Y506445D01*
X1123509Y502124D01*
X1123521Y502095D01*
X1123529Y502053D01*
X1124998Y497903D01*
X1125014Y497876D01*
X1125028Y497836D01*
X1127094Y493949D01*
X1127114Y493925D01*
X1127133Y493887D01*
X1129751Y490348D01*
X1129775Y490327D01*
X1129800Y490292D01*
X1132912Y487180D01*
X1132927Y487170D01*
X1132935Y487159D01*
X1132950Y487150D01*
X1132968Y487131D01*
X1136507Y484513D01*
X1136535Y484500D01*
X1136569Y484474D01*
X1140456Y482408D01*
X1140486Y482399D01*
X1140523Y482378D01*
X1144673Y480909D01*
X1144704Y480904D01*
X1144744Y480889D01*
X1149065Y480050D01*
X1149121Y480050D01*
X1149177Y480041D01*
X1149219Y480051D01*
G37*
G36*
X224659Y480051D02*
X224659Y480051D01*
X224704Y480052D01*
X224755Y480074D01*
X224810Y480087D01*
X224846Y480113D01*
X224886Y480131D01*
X224925Y480172D01*
X224970Y480205D01*
X224993Y480243D01*
X225023Y480275D01*
X225043Y480328D01*
X225072Y480376D01*
X225080Y480427D01*
X225093Y480461D01*
X225092Y480495D01*
X225099Y480540D01*
X225099Y491540D01*
X225089Y491593D01*
X225088Y491646D01*
X225069Y491689D01*
X225060Y491735D01*
X225029Y491779D01*
X225008Y491828D01*
X224974Y491860D01*
X224947Y491899D01*
X224902Y491928D01*
X224863Y491964D01*
X224812Y491985D01*
X224780Y492006D01*
X224748Y492011D01*
X224709Y492027D01*
X221974Y492638D01*
X219410Y493666D01*
X217046Y495093D01*
X214942Y496882D01*
X213153Y498986D01*
X211726Y501350D01*
X210698Y503914D01*
X210087Y506649D01*
X210065Y506698D01*
X210053Y506750D01*
X210025Y506788D01*
X210006Y506830D01*
X209967Y506867D01*
X209935Y506910D01*
X209895Y506934D01*
X209861Y506966D01*
X209810Y506984D01*
X209764Y507012D01*
X209710Y507021D01*
X209674Y507034D01*
X209642Y507032D01*
X209600Y507039D01*
X198600Y507039D01*
X198545Y507028D01*
X198489Y507027D01*
X198448Y507008D01*
X198405Y507000D01*
X198359Y506968D01*
X198308Y506945D01*
X198278Y506912D01*
X198241Y506887D01*
X198211Y506840D01*
X198173Y506798D01*
X198158Y506757D01*
X198134Y506720D01*
X198125Y506664D01*
X198106Y506611D01*
X198107Y506559D01*
X198101Y506523D01*
X198109Y506491D01*
X198109Y506486D01*
X198109Y506484D01*
X198109Y506483D01*
X198110Y506445D01*
X198949Y502124D01*
X198961Y502095D01*
X198969Y502053D01*
X200438Y497903D01*
X200454Y497876D01*
X200468Y497836D01*
X202534Y493949D01*
X202554Y493925D01*
X202573Y493887D01*
X205191Y490348D01*
X205215Y490327D01*
X205240Y490292D01*
X208352Y487180D01*
X208367Y487170D01*
X208375Y487159D01*
X208390Y487150D01*
X208408Y487131D01*
X211947Y484513D01*
X211975Y484500D01*
X212009Y484474D01*
X215896Y482408D01*
X215926Y482399D01*
X215963Y482378D01*
X220113Y480909D01*
X220144Y480904D01*
X220184Y480889D01*
X224505Y480050D01*
X224561Y480050D01*
X224617Y480041D01*
X224659Y480051D01*
G37*
G36*
X224659Y1153151D02*
X224659Y1153151D01*
X224704Y1153152D01*
X224755Y1153174D01*
X224810Y1153187D01*
X224846Y1153213D01*
X224886Y1153231D01*
X224925Y1153272D01*
X224970Y1153305D01*
X224993Y1153343D01*
X225023Y1153375D01*
X225043Y1153428D01*
X225072Y1153476D01*
X225080Y1153527D01*
X225093Y1153561D01*
X225092Y1153595D01*
X225099Y1153640D01*
X225099Y1164640D01*
X225089Y1164693D01*
X225088Y1164746D01*
X225069Y1164789D01*
X225060Y1164835D01*
X225029Y1164879D01*
X225008Y1164928D01*
X224974Y1164960D01*
X224947Y1164999D01*
X224902Y1165028D01*
X224863Y1165064D01*
X224812Y1165085D01*
X224780Y1165106D01*
X224748Y1165111D01*
X224709Y1165127D01*
X221974Y1165738D01*
X219410Y1166766D01*
X217046Y1168193D01*
X214942Y1169982D01*
X213153Y1172086D01*
X211726Y1174450D01*
X210698Y1177014D01*
X210087Y1179749D01*
X210065Y1179798D01*
X210053Y1179850D01*
X210025Y1179888D01*
X210006Y1179930D01*
X209967Y1179967D01*
X209935Y1180010D01*
X209895Y1180034D01*
X209861Y1180066D01*
X209810Y1180084D01*
X209764Y1180112D01*
X209710Y1180121D01*
X209674Y1180134D01*
X209642Y1180132D01*
X209600Y1180139D01*
X198600Y1180139D01*
X198545Y1180128D01*
X198489Y1180127D01*
X198448Y1180108D01*
X198405Y1180100D01*
X198359Y1180068D01*
X198308Y1180045D01*
X198278Y1180012D01*
X198241Y1179987D01*
X198211Y1179940D01*
X198173Y1179898D01*
X198158Y1179857D01*
X198134Y1179820D01*
X198125Y1179764D01*
X198106Y1179711D01*
X198107Y1179659D01*
X198101Y1179623D01*
X198109Y1179591D01*
X198109Y1179586D01*
X198109Y1179584D01*
X198109Y1179583D01*
X198110Y1179545D01*
X198949Y1175224D01*
X198961Y1175195D01*
X198969Y1175153D01*
X200438Y1171003D01*
X200454Y1170976D01*
X200468Y1170936D01*
X202534Y1167049D01*
X202554Y1167025D01*
X202573Y1166987D01*
X205191Y1163448D01*
X205215Y1163427D01*
X205240Y1163392D01*
X208352Y1160280D01*
X208367Y1160270D01*
X208375Y1160259D01*
X208390Y1160250D01*
X208408Y1160231D01*
X211947Y1157613D01*
X211975Y1157600D01*
X212009Y1157574D01*
X215896Y1155508D01*
X215926Y1155499D01*
X215963Y1155478D01*
X220113Y1154009D01*
X220144Y1154004D01*
X220184Y1153989D01*
X224505Y1153150D01*
X224561Y1153150D01*
X224617Y1153141D01*
X224659Y1153151D01*
G37*
G36*
X686939Y1153151D02*
X686939Y1153151D01*
X686984Y1153152D01*
X687035Y1153174D01*
X687090Y1153187D01*
X687126Y1153213D01*
X687166Y1153231D01*
X687205Y1153272D01*
X687250Y1153305D01*
X687273Y1153343D01*
X687303Y1153375D01*
X687323Y1153428D01*
X687352Y1153476D01*
X687360Y1153527D01*
X687373Y1153561D01*
X687372Y1153595D01*
X687379Y1153640D01*
X687379Y1164640D01*
X687369Y1164693D01*
X687368Y1164746D01*
X687349Y1164789D01*
X687340Y1164835D01*
X687309Y1164879D01*
X687288Y1164928D01*
X687254Y1164960D01*
X687227Y1164999D01*
X687182Y1165028D01*
X687143Y1165064D01*
X687092Y1165085D01*
X687060Y1165106D01*
X687028Y1165111D01*
X686989Y1165127D01*
X684254Y1165738D01*
X681690Y1166766D01*
X679326Y1168193D01*
X677222Y1169982D01*
X675433Y1172086D01*
X674006Y1174450D01*
X672978Y1177014D01*
X672367Y1179749D01*
X672345Y1179798D01*
X672333Y1179850D01*
X672305Y1179888D01*
X672286Y1179930D01*
X672247Y1179967D01*
X672215Y1180010D01*
X672175Y1180034D01*
X672141Y1180066D01*
X672090Y1180084D01*
X672044Y1180112D01*
X671990Y1180121D01*
X671954Y1180134D01*
X671922Y1180132D01*
X671880Y1180139D01*
X660880Y1180139D01*
X660825Y1180128D01*
X660769Y1180127D01*
X660728Y1180108D01*
X660685Y1180100D01*
X660639Y1180068D01*
X660588Y1180045D01*
X660558Y1180012D01*
X660521Y1179987D01*
X660491Y1179940D01*
X660453Y1179898D01*
X660438Y1179857D01*
X660414Y1179820D01*
X660405Y1179764D01*
X660386Y1179711D01*
X660387Y1179659D01*
X660381Y1179623D01*
X660389Y1179591D01*
X660389Y1179586D01*
X660389Y1179584D01*
X660389Y1179583D01*
X660390Y1179545D01*
X661229Y1175224D01*
X661241Y1175195D01*
X661249Y1175153D01*
X662718Y1171003D01*
X662734Y1170976D01*
X662748Y1170936D01*
X664814Y1167049D01*
X664834Y1167025D01*
X664853Y1166987D01*
X667471Y1163448D01*
X667495Y1163427D01*
X667520Y1163392D01*
X670632Y1160280D01*
X670647Y1160270D01*
X670655Y1160259D01*
X670670Y1160250D01*
X670688Y1160231D01*
X674227Y1157613D01*
X674255Y1157600D01*
X674289Y1157574D01*
X678176Y1155508D01*
X678206Y1155499D01*
X678243Y1155478D01*
X682393Y1154009D01*
X682424Y1154004D01*
X682464Y1153989D01*
X686785Y1153150D01*
X686841Y1153150D01*
X686897Y1153141D01*
X686939Y1153151D01*
G37*
G36*
X1134213Y1187151D02*
X1134213Y1187151D01*
X1134266Y1187152D01*
X1134309Y1187171D01*
X1134355Y1187180D01*
X1134399Y1187211D01*
X1134448Y1187232D01*
X1134480Y1187266D01*
X1134519Y1187293D01*
X1134548Y1187338D01*
X1134584Y1187377D01*
X1134605Y1187428D01*
X1134626Y1187460D01*
X1134631Y1187492D01*
X1134647Y1187531D01*
X1135258Y1190266D01*
X1136286Y1192830D01*
X1137713Y1195194D01*
X1139502Y1197298D01*
X1141606Y1199087D01*
X1143970Y1200514D01*
X1146534Y1201542D01*
X1149269Y1202153D01*
X1149318Y1202175D01*
X1149370Y1202187D01*
X1149408Y1202215D01*
X1149450Y1202234D01*
X1149487Y1202273D01*
X1149530Y1202305D01*
X1149554Y1202345D01*
X1149586Y1202379D01*
X1149604Y1202430D01*
X1149632Y1202476D01*
X1149641Y1202530D01*
X1149654Y1202566D01*
X1149652Y1202598D01*
X1149659Y1202640D01*
X1149659Y1213640D01*
X1149648Y1213695D01*
X1149647Y1213751D01*
X1149628Y1213792D01*
X1149620Y1213835D01*
X1149588Y1213881D01*
X1149565Y1213933D01*
X1149532Y1213962D01*
X1149507Y1213999D01*
X1149460Y1214029D01*
X1149418Y1214067D01*
X1149377Y1214082D01*
X1149340Y1214106D01*
X1149284Y1214115D01*
X1149231Y1214134D01*
X1149179Y1214133D01*
X1149143Y1214139D01*
X1149111Y1214131D01*
X1149065Y1214130D01*
X1144744Y1213291D01*
X1144715Y1213279D01*
X1144673Y1213271D01*
X1140523Y1211802D01*
X1140496Y1211786D01*
X1140456Y1211772D01*
X1136569Y1209706D01*
X1136545Y1209686D01*
X1136507Y1209667D01*
X1132968Y1207049D01*
X1132947Y1207025D01*
X1132912Y1207000D01*
X1129800Y1203888D01*
X1129782Y1203862D01*
X1129751Y1203832D01*
X1127133Y1200294D01*
X1127120Y1200265D01*
X1127094Y1200231D01*
X1125028Y1196344D01*
X1125021Y1196321D01*
X1125012Y1196307D01*
X1125011Y1196299D01*
X1124998Y1196277D01*
X1123529Y1192127D01*
X1123524Y1192096D01*
X1123509Y1192056D01*
X1122670Y1187735D01*
X1122670Y1187679D01*
X1122661Y1187623D01*
X1122671Y1187581D01*
X1122672Y1187536D01*
X1122694Y1187485D01*
X1122707Y1187430D01*
X1122733Y1187395D01*
X1122751Y1187354D01*
X1122792Y1187315D01*
X1122825Y1187270D01*
X1122863Y1187247D01*
X1122895Y1187217D01*
X1122948Y1187197D01*
X1122996Y1187168D01*
X1123047Y1187160D01*
X1123081Y1187147D01*
X1123115Y1187148D01*
X1123160Y1187141D01*
X1134160Y1187141D01*
X1134213Y1187151D01*
G37*
G36*
X209653Y1187151D02*
X209653Y1187151D01*
X209706Y1187152D01*
X209749Y1187171D01*
X209795Y1187180D01*
X209839Y1187211D01*
X209888Y1187232D01*
X209920Y1187266D01*
X209959Y1187293D01*
X209988Y1187338D01*
X210024Y1187377D01*
X210045Y1187428D01*
X210066Y1187460D01*
X210071Y1187492D01*
X210087Y1187531D01*
X210698Y1190266D01*
X211726Y1192830D01*
X213153Y1195194D01*
X214942Y1197298D01*
X217046Y1199087D01*
X219410Y1200514D01*
X221974Y1201542D01*
X224709Y1202153D01*
X224758Y1202175D01*
X224810Y1202187D01*
X224848Y1202215D01*
X224890Y1202234D01*
X224927Y1202273D01*
X224970Y1202305D01*
X224994Y1202345D01*
X225026Y1202379D01*
X225044Y1202430D01*
X225072Y1202476D01*
X225081Y1202530D01*
X225094Y1202566D01*
X225092Y1202598D01*
X225099Y1202640D01*
X225099Y1213640D01*
X225088Y1213695D01*
X225087Y1213751D01*
X225068Y1213792D01*
X225060Y1213835D01*
X225028Y1213881D01*
X225005Y1213933D01*
X224972Y1213962D01*
X224947Y1213999D01*
X224900Y1214029D01*
X224858Y1214067D01*
X224817Y1214082D01*
X224780Y1214106D01*
X224724Y1214115D01*
X224671Y1214134D01*
X224619Y1214133D01*
X224583Y1214139D01*
X224551Y1214131D01*
X224505Y1214130D01*
X220184Y1213291D01*
X220155Y1213279D01*
X220113Y1213271D01*
X215963Y1211802D01*
X215936Y1211786D01*
X215896Y1211772D01*
X212009Y1209706D01*
X211985Y1209686D01*
X211947Y1209667D01*
X208408Y1207049D01*
X208387Y1207025D01*
X208352Y1207000D01*
X205240Y1203888D01*
X205222Y1203862D01*
X205191Y1203832D01*
X202573Y1200294D01*
X202560Y1200265D01*
X202534Y1200231D01*
X200468Y1196344D01*
X200461Y1196321D01*
X200452Y1196307D01*
X200451Y1196299D01*
X200438Y1196277D01*
X198969Y1192127D01*
X198964Y1192096D01*
X198949Y1192056D01*
X198110Y1187735D01*
X198110Y1187679D01*
X198101Y1187623D01*
X198111Y1187581D01*
X198112Y1187536D01*
X198134Y1187485D01*
X198147Y1187430D01*
X198173Y1187395D01*
X198191Y1187354D01*
X198232Y1187315D01*
X198265Y1187270D01*
X198303Y1187247D01*
X198335Y1187217D01*
X198388Y1187197D01*
X198436Y1187168D01*
X198487Y1187160D01*
X198521Y1187147D01*
X198555Y1187148D01*
X198600Y1187141D01*
X209600Y1187141D01*
X209653Y1187151D01*
G37*
G36*
X671933Y1187151D02*
X671933Y1187151D01*
X671986Y1187152D01*
X672029Y1187171D01*
X672075Y1187180D01*
X672119Y1187211D01*
X672168Y1187232D01*
X672200Y1187266D01*
X672239Y1187293D01*
X672268Y1187338D01*
X672304Y1187377D01*
X672325Y1187428D01*
X672346Y1187460D01*
X672351Y1187492D01*
X672367Y1187531D01*
X672978Y1190266D01*
X674006Y1192830D01*
X675433Y1195194D01*
X677222Y1197298D01*
X679326Y1199087D01*
X681690Y1200514D01*
X684254Y1201542D01*
X686989Y1202153D01*
X687038Y1202175D01*
X687090Y1202187D01*
X687128Y1202215D01*
X687170Y1202234D01*
X687207Y1202273D01*
X687250Y1202305D01*
X687274Y1202345D01*
X687306Y1202379D01*
X687324Y1202430D01*
X687352Y1202476D01*
X687361Y1202530D01*
X687374Y1202566D01*
X687372Y1202598D01*
X687379Y1202640D01*
X687379Y1213640D01*
X687368Y1213695D01*
X687367Y1213751D01*
X687348Y1213792D01*
X687340Y1213835D01*
X687308Y1213881D01*
X687285Y1213933D01*
X687252Y1213962D01*
X687227Y1213999D01*
X687180Y1214029D01*
X687138Y1214067D01*
X687097Y1214082D01*
X687060Y1214106D01*
X687004Y1214115D01*
X686951Y1214134D01*
X686899Y1214133D01*
X686863Y1214139D01*
X686831Y1214131D01*
X686785Y1214130D01*
X682464Y1213291D01*
X682435Y1213279D01*
X682393Y1213271D01*
X678243Y1211802D01*
X678216Y1211786D01*
X678176Y1211772D01*
X674289Y1209706D01*
X674265Y1209686D01*
X674227Y1209667D01*
X670688Y1207049D01*
X670667Y1207025D01*
X670632Y1207000D01*
X667520Y1203888D01*
X667502Y1203862D01*
X667471Y1203832D01*
X664853Y1200294D01*
X664840Y1200265D01*
X664814Y1200231D01*
X662748Y1196344D01*
X662741Y1196321D01*
X662732Y1196307D01*
X662731Y1196299D01*
X662718Y1196277D01*
X661249Y1192127D01*
X661244Y1192096D01*
X661229Y1192056D01*
X660390Y1187735D01*
X660390Y1187679D01*
X660381Y1187623D01*
X660391Y1187581D01*
X660392Y1187536D01*
X660414Y1187485D01*
X660427Y1187430D01*
X660453Y1187395D01*
X660471Y1187354D01*
X660512Y1187315D01*
X660545Y1187270D01*
X660583Y1187247D01*
X660615Y1187217D01*
X660668Y1187197D01*
X660716Y1187168D01*
X660767Y1187160D01*
X660801Y1187147D01*
X660835Y1187148D01*
X660880Y1187141D01*
X671880Y1187141D01*
X671933Y1187151D01*
G37*
G36*
X1134213Y514051D02*
X1134213Y514051D01*
X1134266Y514052D01*
X1134309Y514071D01*
X1134355Y514080D01*
X1134399Y514111D01*
X1134448Y514132D01*
X1134480Y514166D01*
X1134519Y514193D01*
X1134548Y514238D01*
X1134584Y514277D01*
X1134605Y514328D01*
X1134626Y514360D01*
X1134631Y514392D01*
X1134647Y514431D01*
X1135258Y517166D01*
X1136286Y519730D01*
X1137713Y522094D01*
X1139502Y524198D01*
X1141606Y525987D01*
X1143970Y527414D01*
X1146534Y528442D01*
X1149269Y529053D01*
X1149318Y529075D01*
X1149370Y529087D01*
X1149408Y529115D01*
X1149450Y529134D01*
X1149487Y529173D01*
X1149530Y529205D01*
X1149554Y529245D01*
X1149586Y529279D01*
X1149604Y529330D01*
X1149632Y529376D01*
X1149641Y529430D01*
X1149654Y529466D01*
X1149652Y529498D01*
X1149659Y529540D01*
X1149659Y540540D01*
X1149648Y540595D01*
X1149647Y540651D01*
X1149628Y540692D01*
X1149620Y540735D01*
X1149588Y540781D01*
X1149565Y540833D01*
X1149532Y540862D01*
X1149507Y540899D01*
X1149460Y540929D01*
X1149418Y540967D01*
X1149377Y540982D01*
X1149340Y541006D01*
X1149284Y541015D01*
X1149231Y541034D01*
X1149179Y541033D01*
X1149143Y541039D01*
X1149111Y541031D01*
X1149065Y541030D01*
X1144744Y540191D01*
X1144715Y540179D01*
X1144673Y540171D01*
X1140523Y538702D01*
X1140496Y538686D01*
X1140456Y538672D01*
X1136569Y536606D01*
X1136545Y536586D01*
X1136507Y536567D01*
X1132968Y533949D01*
X1132947Y533925D01*
X1132912Y533900D01*
X1129800Y530788D01*
X1129782Y530762D01*
X1129751Y530732D01*
X1127133Y527194D01*
X1127120Y527165D01*
X1127094Y527131D01*
X1125028Y523244D01*
X1125021Y523221D01*
X1125012Y523207D01*
X1125011Y523199D01*
X1124998Y523177D01*
X1123529Y519027D01*
X1123524Y518996D01*
X1123509Y518956D01*
X1122670Y514635D01*
X1122670Y514579D01*
X1122661Y514523D01*
X1122671Y514481D01*
X1122672Y514436D01*
X1122694Y514385D01*
X1122707Y514330D01*
X1122733Y514295D01*
X1122751Y514254D01*
X1122792Y514215D01*
X1122825Y514170D01*
X1122863Y514147D01*
X1122895Y514117D01*
X1122948Y514097D01*
X1122996Y514068D01*
X1123047Y514060D01*
X1123081Y514047D01*
X1123115Y514048D01*
X1123160Y514041D01*
X1134160Y514041D01*
X1134213Y514051D01*
G37*
G36*
X209653Y514051D02*
X209653Y514051D01*
X209706Y514052D01*
X209749Y514071D01*
X209795Y514080D01*
X209839Y514111D01*
X209888Y514132D01*
X209920Y514166D01*
X209959Y514193D01*
X209988Y514238D01*
X210024Y514277D01*
X210045Y514328D01*
X210066Y514360D01*
X210071Y514392D01*
X210087Y514431D01*
X210698Y517166D01*
X211726Y519730D01*
X213153Y522094D01*
X214942Y524198D01*
X217046Y525987D01*
X219410Y527414D01*
X221974Y528442D01*
X224709Y529053D01*
X224758Y529075D01*
X224810Y529087D01*
X224848Y529115D01*
X224890Y529134D01*
X224927Y529173D01*
X224970Y529205D01*
X224994Y529245D01*
X225026Y529279D01*
X225044Y529330D01*
X225072Y529376D01*
X225081Y529430D01*
X225094Y529466D01*
X225092Y529498D01*
X225099Y529540D01*
X225099Y540540D01*
X225088Y540595D01*
X225087Y540651D01*
X225068Y540692D01*
X225060Y540735D01*
X225028Y540781D01*
X225005Y540833D01*
X224972Y540862D01*
X224947Y540899D01*
X224900Y540929D01*
X224858Y540967D01*
X224817Y540982D01*
X224780Y541006D01*
X224724Y541015D01*
X224671Y541034D01*
X224619Y541033D01*
X224583Y541039D01*
X224551Y541031D01*
X224505Y541030D01*
X220184Y540191D01*
X220155Y540179D01*
X220113Y540171D01*
X215963Y538702D01*
X215936Y538686D01*
X215896Y538672D01*
X212009Y536606D01*
X211985Y536586D01*
X211947Y536567D01*
X208408Y533949D01*
X208387Y533925D01*
X208352Y533900D01*
X205240Y530788D01*
X205222Y530762D01*
X205191Y530732D01*
X202573Y527194D01*
X202560Y527165D01*
X202534Y527131D01*
X200468Y523244D01*
X200461Y523221D01*
X200452Y523207D01*
X200451Y523199D01*
X200438Y523177D01*
X198969Y519027D01*
X198964Y518996D01*
X198949Y518956D01*
X198110Y514635D01*
X198110Y514579D01*
X198101Y514523D01*
X198111Y514481D01*
X198112Y514436D01*
X198134Y514385D01*
X198147Y514330D01*
X198173Y514295D01*
X198191Y514254D01*
X198232Y514215D01*
X198265Y514170D01*
X198303Y514147D01*
X198335Y514117D01*
X198388Y514097D01*
X198436Y514068D01*
X198487Y514060D01*
X198521Y514047D01*
X198555Y514048D01*
X198600Y514041D01*
X209600Y514041D01*
X209653Y514051D01*
G37*
G36*
X671933Y514051D02*
X671933Y514051D01*
X671986Y514052D01*
X672029Y514071D01*
X672075Y514080D01*
X672119Y514111D01*
X672168Y514132D01*
X672200Y514166D01*
X672239Y514193D01*
X672268Y514238D01*
X672304Y514277D01*
X672325Y514328D01*
X672346Y514360D01*
X672351Y514392D01*
X672367Y514431D01*
X672978Y517166D01*
X674006Y519730D01*
X675433Y522094D01*
X677222Y524198D01*
X679326Y525987D01*
X681690Y527414D01*
X684254Y528442D01*
X686989Y529053D01*
X687038Y529075D01*
X687090Y529087D01*
X687128Y529115D01*
X687170Y529134D01*
X687207Y529173D01*
X687250Y529205D01*
X687274Y529245D01*
X687306Y529279D01*
X687324Y529330D01*
X687352Y529376D01*
X687361Y529430D01*
X687374Y529466D01*
X687372Y529498D01*
X687379Y529540D01*
X687379Y540540D01*
X687368Y540595D01*
X687367Y540651D01*
X687348Y540692D01*
X687340Y540735D01*
X687308Y540781D01*
X687285Y540833D01*
X687252Y540862D01*
X687227Y540899D01*
X687180Y540929D01*
X687138Y540967D01*
X687097Y540982D01*
X687060Y541006D01*
X687004Y541015D01*
X686951Y541034D01*
X686899Y541033D01*
X686863Y541039D01*
X686831Y541031D01*
X686785Y541030D01*
X682464Y540191D01*
X682435Y540179D01*
X682393Y540171D01*
X678243Y538702D01*
X678216Y538686D01*
X678176Y538672D01*
X674289Y536606D01*
X674265Y536586D01*
X674227Y536567D01*
X670688Y533949D01*
X670667Y533925D01*
X670632Y533900D01*
X667520Y530788D01*
X667502Y530762D01*
X667471Y530732D01*
X664853Y527194D01*
X664840Y527165D01*
X664814Y527131D01*
X662748Y523244D01*
X662741Y523221D01*
X662732Y523207D01*
X662731Y523199D01*
X662718Y523177D01*
X661249Y519027D01*
X661244Y518996D01*
X661229Y518956D01*
X660390Y514635D01*
X660390Y514579D01*
X660381Y514523D01*
X660391Y514481D01*
X660392Y514436D01*
X660414Y514385D01*
X660427Y514330D01*
X660453Y514295D01*
X660471Y514254D01*
X660512Y514215D01*
X660545Y514170D01*
X660583Y514147D01*
X660615Y514117D01*
X660668Y514097D01*
X660716Y514068D01*
X660767Y514060D01*
X660801Y514047D01*
X660835Y514048D01*
X660880Y514041D01*
X671880Y514041D01*
X671933Y514051D01*
G37*
G36*
X1183215Y1187152D02*
X1183215Y1187152D01*
X1183271Y1187153D01*
X1183312Y1187172D01*
X1183355Y1187180D01*
X1183401Y1187212D01*
X1183453Y1187235D01*
X1183482Y1187268D01*
X1183519Y1187293D01*
X1183549Y1187340D01*
X1183587Y1187382D01*
X1183602Y1187423D01*
X1183626Y1187460D01*
X1183635Y1187516D01*
X1183654Y1187569D01*
X1183653Y1187621D01*
X1183659Y1187657D01*
X1183651Y1187689D01*
X1183650Y1187735D01*
X1182811Y1192056D01*
X1182799Y1192085D01*
X1182791Y1192127D01*
X1181322Y1196277D01*
X1181306Y1196304D01*
X1181297Y1196331D01*
X1181295Y1196337D01*
X1181294Y1196339D01*
X1181292Y1196344D01*
X1179226Y1200231D01*
X1179206Y1200255D01*
X1179187Y1200294D01*
X1176569Y1203832D01*
X1176545Y1203853D01*
X1176520Y1203888D01*
X1173408Y1207000D01*
X1173382Y1207018D01*
X1173352Y1207049D01*
X1169814Y1209667D01*
X1169785Y1209680D01*
X1169751Y1209706D01*
X1165864Y1211772D01*
X1165834Y1211781D01*
X1165797Y1211802D01*
X1161647Y1213271D01*
X1161616Y1213276D01*
X1161576Y1213291D01*
X1157255Y1214130D01*
X1157199Y1214130D01*
X1157143Y1214139D01*
X1157101Y1214129D01*
X1157056Y1214128D01*
X1157005Y1214106D01*
X1156950Y1214093D01*
X1156915Y1214067D01*
X1156874Y1214049D01*
X1156835Y1214008D01*
X1156790Y1213975D01*
X1156767Y1213937D01*
X1156737Y1213905D01*
X1156717Y1213852D01*
X1156688Y1213804D01*
X1156680Y1213753D01*
X1156667Y1213719D01*
X1156668Y1213685D01*
X1156661Y1213640D01*
X1156661Y1202640D01*
X1156671Y1202587D01*
X1156672Y1202534D01*
X1156691Y1202491D01*
X1156700Y1202445D01*
X1156731Y1202401D01*
X1156752Y1202352D01*
X1156786Y1202320D01*
X1156813Y1202281D01*
X1156858Y1202252D01*
X1156897Y1202216D01*
X1156948Y1202195D01*
X1156980Y1202174D01*
X1157012Y1202169D01*
X1157051Y1202153D01*
X1159786Y1201542D01*
X1162350Y1200514D01*
X1164714Y1199087D01*
X1166818Y1197298D01*
X1168607Y1195194D01*
X1170034Y1192830D01*
X1171062Y1190266D01*
X1171673Y1187531D01*
X1171695Y1187482D01*
X1171707Y1187430D01*
X1171735Y1187392D01*
X1171754Y1187350D01*
X1171793Y1187313D01*
X1171825Y1187270D01*
X1171865Y1187246D01*
X1171899Y1187214D01*
X1171950Y1187196D01*
X1171996Y1187168D01*
X1172050Y1187159D01*
X1172086Y1187146D01*
X1172118Y1187148D01*
X1172160Y1187141D01*
X1183160Y1187141D01*
X1183215Y1187152D01*
G37*
G36*
X720935Y1187152D02*
X720935Y1187152D01*
X720991Y1187153D01*
X721032Y1187172D01*
X721075Y1187180D01*
X721121Y1187212D01*
X721173Y1187235D01*
X721202Y1187268D01*
X721239Y1187293D01*
X721269Y1187340D01*
X721307Y1187382D01*
X721322Y1187423D01*
X721346Y1187460D01*
X721355Y1187516D01*
X721374Y1187569D01*
X721373Y1187621D01*
X721379Y1187657D01*
X721371Y1187689D01*
X721370Y1187735D01*
X720531Y1192056D01*
X720519Y1192085D01*
X720511Y1192127D01*
X719042Y1196277D01*
X719026Y1196304D01*
X719017Y1196331D01*
X719015Y1196337D01*
X719014Y1196339D01*
X719012Y1196344D01*
X716946Y1200231D01*
X716926Y1200255D01*
X716907Y1200294D01*
X714289Y1203832D01*
X714265Y1203853D01*
X714240Y1203888D01*
X711128Y1207000D01*
X711102Y1207018D01*
X711072Y1207049D01*
X707534Y1209667D01*
X707505Y1209680D01*
X707471Y1209706D01*
X703584Y1211772D01*
X703554Y1211781D01*
X703517Y1211802D01*
X699367Y1213271D01*
X699336Y1213276D01*
X699296Y1213291D01*
X694975Y1214130D01*
X694919Y1214130D01*
X694863Y1214139D01*
X694821Y1214129D01*
X694776Y1214128D01*
X694725Y1214106D01*
X694670Y1214093D01*
X694635Y1214067D01*
X694594Y1214049D01*
X694555Y1214008D01*
X694510Y1213975D01*
X694487Y1213937D01*
X694457Y1213905D01*
X694437Y1213852D01*
X694408Y1213804D01*
X694400Y1213753D01*
X694387Y1213719D01*
X694388Y1213685D01*
X694381Y1213640D01*
X694381Y1202640D01*
X694391Y1202587D01*
X694392Y1202534D01*
X694411Y1202491D01*
X694420Y1202445D01*
X694451Y1202401D01*
X694472Y1202352D01*
X694506Y1202320D01*
X694533Y1202281D01*
X694578Y1202252D01*
X694617Y1202216D01*
X694668Y1202195D01*
X694700Y1202174D01*
X694732Y1202169D01*
X694771Y1202153D01*
X697506Y1201542D01*
X700070Y1200514D01*
X702434Y1199087D01*
X704538Y1197298D01*
X706327Y1195194D01*
X707754Y1192830D01*
X708782Y1190266D01*
X709393Y1187531D01*
X709415Y1187482D01*
X709427Y1187430D01*
X709455Y1187392D01*
X709474Y1187350D01*
X709513Y1187313D01*
X709545Y1187270D01*
X709585Y1187246D01*
X709619Y1187214D01*
X709670Y1187196D01*
X709716Y1187168D01*
X709770Y1187159D01*
X709806Y1187146D01*
X709838Y1187148D01*
X709880Y1187141D01*
X720880Y1187141D01*
X720935Y1187152D01*
G37*
G36*
X258655Y1187152D02*
X258655Y1187152D01*
X258711Y1187153D01*
X258752Y1187172D01*
X258795Y1187180D01*
X258841Y1187212D01*
X258893Y1187235D01*
X258922Y1187268D01*
X258959Y1187293D01*
X258989Y1187340D01*
X259027Y1187382D01*
X259042Y1187423D01*
X259066Y1187460D01*
X259075Y1187516D01*
X259094Y1187569D01*
X259093Y1187621D01*
X259099Y1187657D01*
X259091Y1187689D01*
X259090Y1187735D01*
X258251Y1192056D01*
X258239Y1192085D01*
X258231Y1192127D01*
X256762Y1196277D01*
X256746Y1196304D01*
X256737Y1196331D01*
X256735Y1196337D01*
X256734Y1196339D01*
X256732Y1196344D01*
X254666Y1200231D01*
X254646Y1200255D01*
X254627Y1200294D01*
X252009Y1203832D01*
X251985Y1203853D01*
X251960Y1203888D01*
X248848Y1207000D01*
X248822Y1207018D01*
X248792Y1207049D01*
X245254Y1209667D01*
X245225Y1209680D01*
X245191Y1209706D01*
X241304Y1211772D01*
X241274Y1211781D01*
X241237Y1211802D01*
X237087Y1213271D01*
X237056Y1213276D01*
X237016Y1213291D01*
X232695Y1214130D01*
X232639Y1214130D01*
X232583Y1214139D01*
X232541Y1214129D01*
X232496Y1214128D01*
X232445Y1214106D01*
X232390Y1214093D01*
X232355Y1214067D01*
X232314Y1214049D01*
X232275Y1214008D01*
X232230Y1213975D01*
X232207Y1213937D01*
X232177Y1213905D01*
X232157Y1213852D01*
X232128Y1213804D01*
X232120Y1213753D01*
X232107Y1213719D01*
X232108Y1213685D01*
X232101Y1213640D01*
X232101Y1202640D01*
X232111Y1202587D01*
X232112Y1202534D01*
X232131Y1202491D01*
X232140Y1202445D01*
X232171Y1202401D01*
X232192Y1202352D01*
X232226Y1202320D01*
X232253Y1202281D01*
X232298Y1202252D01*
X232337Y1202216D01*
X232388Y1202195D01*
X232420Y1202174D01*
X232452Y1202169D01*
X232491Y1202153D01*
X235226Y1201542D01*
X237790Y1200514D01*
X240154Y1199087D01*
X242258Y1197298D01*
X244047Y1195194D01*
X245474Y1192830D01*
X246502Y1190266D01*
X247113Y1187531D01*
X247135Y1187482D01*
X247147Y1187430D01*
X247175Y1187392D01*
X247194Y1187350D01*
X247233Y1187313D01*
X247265Y1187270D01*
X247305Y1187246D01*
X247339Y1187214D01*
X247390Y1187196D01*
X247436Y1187168D01*
X247490Y1187159D01*
X247526Y1187146D01*
X247558Y1187148D01*
X247600Y1187141D01*
X258600Y1187141D01*
X258655Y1187152D01*
G37*
G36*
X720935Y514052D02*
X720935Y514052D01*
X720991Y514053D01*
X721032Y514072D01*
X721075Y514080D01*
X721121Y514112D01*
X721173Y514135D01*
X721202Y514168D01*
X721239Y514193D01*
X721269Y514240D01*
X721307Y514282D01*
X721322Y514323D01*
X721346Y514360D01*
X721355Y514416D01*
X721374Y514469D01*
X721373Y514521D01*
X721379Y514557D01*
X721371Y514589D01*
X721370Y514635D01*
X720531Y518956D01*
X720519Y518985D01*
X720511Y519027D01*
X719042Y523177D01*
X719026Y523204D01*
X719017Y523231D01*
X719015Y523237D01*
X719014Y523239D01*
X719012Y523244D01*
X716946Y527131D01*
X716926Y527155D01*
X716907Y527194D01*
X714289Y530732D01*
X714265Y530753D01*
X714240Y530788D01*
X711128Y533900D01*
X711102Y533918D01*
X711072Y533949D01*
X707534Y536567D01*
X707505Y536580D01*
X707471Y536606D01*
X703584Y538672D01*
X703554Y538681D01*
X703517Y538702D01*
X699367Y540171D01*
X699336Y540176D01*
X699296Y540191D01*
X694975Y541030D01*
X694919Y541030D01*
X694863Y541039D01*
X694821Y541029D01*
X694776Y541028D01*
X694725Y541006D01*
X694670Y540993D01*
X694635Y540967D01*
X694594Y540949D01*
X694555Y540908D01*
X694510Y540875D01*
X694487Y540837D01*
X694457Y540805D01*
X694437Y540752D01*
X694408Y540704D01*
X694400Y540653D01*
X694387Y540619D01*
X694388Y540585D01*
X694381Y540540D01*
X694381Y529540D01*
X694391Y529487D01*
X694392Y529434D01*
X694411Y529391D01*
X694420Y529345D01*
X694451Y529301D01*
X694472Y529252D01*
X694506Y529220D01*
X694533Y529181D01*
X694578Y529152D01*
X694617Y529116D01*
X694668Y529095D01*
X694700Y529074D01*
X694732Y529069D01*
X694771Y529053D01*
X697506Y528442D01*
X700070Y527414D01*
X702434Y525987D01*
X704538Y524198D01*
X706327Y522094D01*
X707754Y519730D01*
X708782Y517166D01*
X709393Y514431D01*
X709415Y514382D01*
X709427Y514330D01*
X709455Y514292D01*
X709474Y514250D01*
X709513Y514213D01*
X709545Y514170D01*
X709585Y514146D01*
X709619Y514114D01*
X709670Y514096D01*
X709716Y514068D01*
X709770Y514059D01*
X709806Y514046D01*
X709838Y514048D01*
X709880Y514041D01*
X720880Y514041D01*
X720935Y514052D01*
G37*
G36*
X258655Y514052D02*
X258655Y514052D01*
X258711Y514053D01*
X258752Y514072D01*
X258795Y514080D01*
X258841Y514112D01*
X258893Y514135D01*
X258922Y514168D01*
X258959Y514193D01*
X258989Y514240D01*
X259027Y514282D01*
X259042Y514323D01*
X259066Y514360D01*
X259075Y514416D01*
X259094Y514469D01*
X259093Y514521D01*
X259099Y514557D01*
X259091Y514589D01*
X259090Y514635D01*
X258251Y518956D01*
X258239Y518985D01*
X258231Y519027D01*
X256762Y523177D01*
X256746Y523204D01*
X256737Y523231D01*
X256735Y523237D01*
X256734Y523239D01*
X256732Y523244D01*
X254666Y527131D01*
X254646Y527155D01*
X254627Y527194D01*
X252009Y530732D01*
X251985Y530753D01*
X251960Y530788D01*
X248848Y533900D01*
X248822Y533918D01*
X248792Y533949D01*
X245254Y536567D01*
X245225Y536580D01*
X245191Y536606D01*
X241304Y538672D01*
X241274Y538681D01*
X241237Y538702D01*
X237087Y540171D01*
X237056Y540176D01*
X237016Y540191D01*
X232695Y541030D01*
X232639Y541030D01*
X232583Y541039D01*
X232541Y541029D01*
X232496Y541028D01*
X232445Y541006D01*
X232390Y540993D01*
X232355Y540967D01*
X232314Y540949D01*
X232275Y540908D01*
X232230Y540875D01*
X232207Y540837D01*
X232177Y540805D01*
X232157Y540752D01*
X232128Y540704D01*
X232120Y540653D01*
X232107Y540619D01*
X232108Y540585D01*
X232101Y540540D01*
X232101Y529540D01*
X232111Y529487D01*
X232112Y529434D01*
X232131Y529391D01*
X232140Y529345D01*
X232171Y529301D01*
X232192Y529252D01*
X232226Y529220D01*
X232253Y529181D01*
X232298Y529152D01*
X232337Y529116D01*
X232388Y529095D01*
X232420Y529074D01*
X232452Y529069D01*
X232491Y529053D01*
X235226Y528442D01*
X237790Y527414D01*
X240154Y525987D01*
X242258Y524198D01*
X244047Y522094D01*
X245474Y519730D01*
X246502Y517166D01*
X247113Y514431D01*
X247135Y514382D01*
X247147Y514330D01*
X247175Y514292D01*
X247194Y514250D01*
X247233Y514213D01*
X247265Y514170D01*
X247305Y514146D01*
X247339Y514114D01*
X247390Y514096D01*
X247436Y514068D01*
X247490Y514059D01*
X247526Y514046D01*
X247558Y514048D01*
X247600Y514041D01*
X258600Y514041D01*
X258655Y514052D01*
G37*
G36*
X1183215Y514052D02*
X1183215Y514052D01*
X1183271Y514053D01*
X1183312Y514072D01*
X1183355Y514080D01*
X1183401Y514112D01*
X1183453Y514135D01*
X1183482Y514168D01*
X1183519Y514193D01*
X1183549Y514240D01*
X1183587Y514282D01*
X1183602Y514323D01*
X1183626Y514360D01*
X1183635Y514416D01*
X1183654Y514469D01*
X1183653Y514521D01*
X1183659Y514557D01*
X1183651Y514589D01*
X1183650Y514635D01*
X1182811Y518956D01*
X1182799Y518985D01*
X1182791Y519027D01*
X1181322Y523177D01*
X1181306Y523204D01*
X1181297Y523231D01*
X1181295Y523237D01*
X1181294Y523239D01*
X1181292Y523244D01*
X1179226Y527131D01*
X1179206Y527155D01*
X1179187Y527194D01*
X1176569Y530732D01*
X1176545Y530753D01*
X1176520Y530788D01*
X1173408Y533900D01*
X1173382Y533918D01*
X1173352Y533949D01*
X1169814Y536567D01*
X1169785Y536580D01*
X1169751Y536606D01*
X1165864Y538672D01*
X1165834Y538681D01*
X1165797Y538702D01*
X1161647Y540171D01*
X1161616Y540176D01*
X1161576Y540191D01*
X1157255Y541030D01*
X1157199Y541030D01*
X1157143Y541039D01*
X1157101Y541029D01*
X1157056Y541028D01*
X1157005Y541006D01*
X1156950Y540993D01*
X1156915Y540967D01*
X1156874Y540949D01*
X1156835Y540908D01*
X1156790Y540875D01*
X1156767Y540837D01*
X1156737Y540805D01*
X1156717Y540752D01*
X1156688Y540704D01*
X1156680Y540653D01*
X1156667Y540619D01*
X1156668Y540585D01*
X1156661Y540540D01*
X1156661Y529540D01*
X1156671Y529487D01*
X1156672Y529434D01*
X1156691Y529391D01*
X1156700Y529345D01*
X1156731Y529301D01*
X1156752Y529252D01*
X1156786Y529220D01*
X1156813Y529181D01*
X1156858Y529152D01*
X1156897Y529116D01*
X1156948Y529095D01*
X1156980Y529074D01*
X1157012Y529069D01*
X1157051Y529053D01*
X1159786Y528442D01*
X1162350Y527414D01*
X1164714Y525987D01*
X1166818Y524198D01*
X1168607Y522094D01*
X1170034Y519730D01*
X1171062Y517166D01*
X1171673Y514431D01*
X1171695Y514382D01*
X1171707Y514330D01*
X1171735Y514292D01*
X1171754Y514250D01*
X1171793Y514213D01*
X1171825Y514170D01*
X1171865Y514146D01*
X1171899Y514114D01*
X1171950Y514096D01*
X1171996Y514068D01*
X1172050Y514059D01*
X1172086Y514046D01*
X1172118Y514048D01*
X1172160Y514041D01*
X1183160Y514041D01*
X1183215Y514052D01*
G37*
G36*
X694929Y1153149D02*
X694929Y1153149D01*
X694975Y1153150D01*
X699296Y1153989D01*
X699325Y1154001D01*
X699367Y1154009D01*
X703517Y1155478D01*
X703544Y1155494D01*
X703584Y1155508D01*
X707471Y1157574D01*
X707495Y1157594D01*
X707534Y1157613D01*
X711072Y1160231D01*
X711093Y1160255D01*
X711128Y1160280D01*
X714240Y1163392D01*
X714258Y1163419D01*
X714289Y1163448D01*
X716907Y1166987D01*
X716920Y1167015D01*
X716946Y1167049D01*
X719012Y1170936D01*
X719021Y1170966D01*
X719042Y1171003D01*
X720511Y1175153D01*
X720516Y1175184D01*
X720531Y1175224D01*
X721370Y1179545D01*
X721370Y1179601D01*
X721379Y1179657D01*
X721369Y1179699D01*
X721368Y1179744D01*
X721346Y1179795D01*
X721333Y1179850D01*
X721307Y1179886D01*
X721289Y1179926D01*
X721248Y1179965D01*
X721215Y1180010D01*
X721177Y1180033D01*
X721145Y1180063D01*
X721092Y1180083D01*
X721044Y1180112D01*
X720993Y1180120D01*
X720959Y1180133D01*
X720925Y1180132D01*
X720880Y1180139D01*
X709880Y1180139D01*
X709827Y1180129D01*
X709774Y1180128D01*
X709731Y1180109D01*
X709685Y1180100D01*
X709641Y1180069D01*
X709592Y1180048D01*
X709560Y1180014D01*
X709521Y1179987D01*
X709492Y1179942D01*
X709456Y1179903D01*
X709435Y1179852D01*
X709414Y1179820D01*
X709409Y1179788D01*
X709406Y1179782D01*
X709405Y1179781D01*
X709405Y1179780D01*
X709393Y1179749D01*
X708782Y1177014D01*
X707754Y1174450D01*
X706327Y1172086D01*
X704538Y1169982D01*
X702434Y1168193D01*
X700070Y1166766D01*
X697506Y1165738D01*
X694771Y1165127D01*
X694722Y1165105D01*
X694670Y1165093D01*
X694632Y1165065D01*
X694590Y1165046D01*
X694553Y1165007D01*
X694510Y1164975D01*
X694486Y1164935D01*
X694454Y1164901D01*
X694436Y1164850D01*
X694408Y1164804D01*
X694399Y1164750D01*
X694386Y1164714D01*
X694388Y1164682D01*
X694381Y1164640D01*
X694381Y1153640D01*
X694392Y1153585D01*
X694393Y1153529D01*
X694412Y1153488D01*
X694420Y1153445D01*
X694452Y1153399D01*
X694475Y1153348D01*
X694508Y1153318D01*
X694533Y1153281D01*
X694580Y1153251D01*
X694622Y1153213D01*
X694663Y1153198D01*
X694700Y1153174D01*
X694756Y1153165D01*
X694809Y1153146D01*
X694861Y1153147D01*
X694897Y1153141D01*
X694929Y1153149D01*
G37*
G36*
X1157209Y1153149D02*
X1157209Y1153149D01*
X1157255Y1153150D01*
X1161576Y1153989D01*
X1161605Y1154001D01*
X1161647Y1154009D01*
X1165797Y1155478D01*
X1165824Y1155494D01*
X1165864Y1155508D01*
X1169751Y1157574D01*
X1169775Y1157594D01*
X1169814Y1157613D01*
X1173352Y1160231D01*
X1173373Y1160255D01*
X1173408Y1160280D01*
X1176520Y1163392D01*
X1176538Y1163419D01*
X1176569Y1163448D01*
X1179187Y1166987D01*
X1179200Y1167015D01*
X1179226Y1167049D01*
X1181292Y1170936D01*
X1181301Y1170966D01*
X1181322Y1171003D01*
X1182791Y1175153D01*
X1182796Y1175184D01*
X1182811Y1175224D01*
X1183650Y1179545D01*
X1183650Y1179601D01*
X1183659Y1179657D01*
X1183649Y1179699D01*
X1183648Y1179744D01*
X1183626Y1179795D01*
X1183613Y1179850D01*
X1183587Y1179886D01*
X1183569Y1179926D01*
X1183528Y1179965D01*
X1183495Y1180010D01*
X1183457Y1180033D01*
X1183425Y1180063D01*
X1183372Y1180083D01*
X1183324Y1180112D01*
X1183273Y1180120D01*
X1183239Y1180133D01*
X1183205Y1180132D01*
X1183160Y1180139D01*
X1172160Y1180139D01*
X1172107Y1180129D01*
X1172054Y1180128D01*
X1172011Y1180109D01*
X1171965Y1180100D01*
X1171921Y1180069D01*
X1171872Y1180048D01*
X1171840Y1180014D01*
X1171801Y1179987D01*
X1171772Y1179942D01*
X1171736Y1179903D01*
X1171715Y1179852D01*
X1171694Y1179820D01*
X1171689Y1179788D01*
X1171686Y1179782D01*
X1171685Y1179781D01*
X1171685Y1179780D01*
X1171673Y1179749D01*
X1171062Y1177014D01*
X1170034Y1174450D01*
X1168607Y1172086D01*
X1166818Y1169982D01*
X1164714Y1168193D01*
X1162350Y1166766D01*
X1159786Y1165738D01*
X1157051Y1165127D01*
X1157002Y1165105D01*
X1156950Y1165093D01*
X1156912Y1165065D01*
X1156870Y1165046D01*
X1156833Y1165007D01*
X1156790Y1164975D01*
X1156766Y1164935D01*
X1156734Y1164901D01*
X1156716Y1164850D01*
X1156688Y1164804D01*
X1156679Y1164750D01*
X1156666Y1164714D01*
X1156668Y1164682D01*
X1156661Y1164640D01*
X1156661Y1153640D01*
X1156672Y1153585D01*
X1156673Y1153529D01*
X1156692Y1153488D01*
X1156700Y1153445D01*
X1156732Y1153399D01*
X1156755Y1153348D01*
X1156788Y1153318D01*
X1156813Y1153281D01*
X1156860Y1153251D01*
X1156902Y1153213D01*
X1156943Y1153198D01*
X1156980Y1153174D01*
X1157036Y1153165D01*
X1157089Y1153146D01*
X1157141Y1153147D01*
X1157177Y1153141D01*
X1157209Y1153149D01*
G37*
G36*
X232649Y1153149D02*
X232649Y1153149D01*
X232695Y1153150D01*
X237016Y1153989D01*
X237045Y1154001D01*
X237087Y1154009D01*
X241237Y1155478D01*
X241264Y1155494D01*
X241304Y1155508D01*
X245191Y1157574D01*
X245215Y1157594D01*
X245254Y1157613D01*
X248792Y1160231D01*
X248813Y1160255D01*
X248848Y1160280D01*
X251960Y1163392D01*
X251978Y1163419D01*
X252009Y1163448D01*
X254627Y1166987D01*
X254640Y1167015D01*
X254666Y1167049D01*
X256732Y1170936D01*
X256741Y1170966D01*
X256762Y1171003D01*
X258231Y1175153D01*
X258236Y1175184D01*
X258251Y1175224D01*
X259090Y1179545D01*
X259090Y1179601D01*
X259099Y1179657D01*
X259089Y1179699D01*
X259088Y1179744D01*
X259066Y1179795D01*
X259053Y1179850D01*
X259027Y1179886D01*
X259009Y1179926D01*
X258968Y1179965D01*
X258935Y1180010D01*
X258897Y1180033D01*
X258865Y1180063D01*
X258812Y1180083D01*
X258764Y1180112D01*
X258713Y1180120D01*
X258679Y1180133D01*
X258645Y1180132D01*
X258600Y1180139D01*
X247600Y1180139D01*
X247547Y1180129D01*
X247494Y1180128D01*
X247451Y1180109D01*
X247405Y1180100D01*
X247361Y1180069D01*
X247312Y1180048D01*
X247280Y1180014D01*
X247241Y1179987D01*
X247212Y1179942D01*
X247176Y1179903D01*
X247155Y1179852D01*
X247134Y1179820D01*
X247129Y1179788D01*
X247126Y1179782D01*
X247125Y1179781D01*
X247125Y1179780D01*
X247113Y1179749D01*
X246502Y1177014D01*
X245474Y1174450D01*
X244047Y1172086D01*
X242258Y1169982D01*
X240154Y1168193D01*
X237790Y1166766D01*
X235226Y1165738D01*
X232491Y1165127D01*
X232442Y1165105D01*
X232390Y1165093D01*
X232352Y1165065D01*
X232310Y1165046D01*
X232273Y1165007D01*
X232230Y1164975D01*
X232206Y1164935D01*
X232174Y1164901D01*
X232156Y1164850D01*
X232128Y1164804D01*
X232119Y1164750D01*
X232106Y1164714D01*
X232108Y1164682D01*
X232101Y1164640D01*
X232101Y1153640D01*
X232112Y1153585D01*
X232113Y1153529D01*
X232132Y1153488D01*
X232140Y1153445D01*
X232172Y1153399D01*
X232195Y1153348D01*
X232228Y1153318D01*
X232253Y1153281D01*
X232300Y1153251D01*
X232342Y1153213D01*
X232383Y1153198D01*
X232420Y1153174D01*
X232476Y1153165D01*
X232529Y1153146D01*
X232581Y1153147D01*
X232617Y1153141D01*
X232649Y1153149D01*
G37*
G36*
X1157209Y480049D02*
X1157209Y480049D01*
X1157255Y480050D01*
X1161576Y480889D01*
X1161605Y480901D01*
X1161647Y480909D01*
X1165797Y482378D01*
X1165824Y482394D01*
X1165864Y482408D01*
X1169751Y484474D01*
X1169775Y484494D01*
X1169814Y484513D01*
X1173352Y487131D01*
X1173373Y487155D01*
X1173408Y487180D01*
X1176520Y490292D01*
X1176538Y490319D01*
X1176569Y490348D01*
X1179187Y493887D01*
X1179200Y493915D01*
X1179226Y493949D01*
X1181292Y497836D01*
X1181301Y497866D01*
X1181322Y497903D01*
X1182791Y502053D01*
X1182796Y502084D01*
X1182811Y502124D01*
X1183650Y506445D01*
X1183650Y506501D01*
X1183659Y506557D01*
X1183649Y506599D01*
X1183648Y506644D01*
X1183626Y506695D01*
X1183613Y506750D01*
X1183587Y506786D01*
X1183569Y506826D01*
X1183528Y506865D01*
X1183495Y506910D01*
X1183457Y506933D01*
X1183425Y506963D01*
X1183372Y506983D01*
X1183324Y507012D01*
X1183273Y507020D01*
X1183239Y507033D01*
X1183205Y507032D01*
X1183160Y507039D01*
X1172160Y507039D01*
X1172107Y507029D01*
X1172054Y507028D01*
X1172011Y507009D01*
X1171965Y507000D01*
X1171921Y506969D01*
X1171872Y506948D01*
X1171840Y506914D01*
X1171801Y506887D01*
X1171772Y506842D01*
X1171736Y506803D01*
X1171715Y506752D01*
X1171694Y506720D01*
X1171689Y506688D01*
X1171686Y506682D01*
X1171685Y506681D01*
X1171685Y506680D01*
X1171673Y506649D01*
X1171062Y503914D01*
X1170034Y501350D01*
X1168607Y498986D01*
X1166818Y496882D01*
X1164714Y495093D01*
X1162350Y493666D01*
X1159786Y492638D01*
X1157051Y492027D01*
X1157002Y492005D01*
X1156950Y491993D01*
X1156912Y491965D01*
X1156870Y491946D01*
X1156833Y491907D01*
X1156790Y491875D01*
X1156766Y491835D01*
X1156734Y491801D01*
X1156716Y491750D01*
X1156688Y491704D01*
X1156679Y491650D01*
X1156666Y491614D01*
X1156668Y491582D01*
X1156661Y491540D01*
X1156661Y480540D01*
X1156672Y480485D01*
X1156673Y480429D01*
X1156692Y480388D01*
X1156700Y480345D01*
X1156732Y480299D01*
X1156755Y480248D01*
X1156788Y480218D01*
X1156813Y480181D01*
X1156860Y480151D01*
X1156902Y480113D01*
X1156943Y480098D01*
X1156980Y480074D01*
X1157036Y480065D01*
X1157089Y480046D01*
X1157141Y480047D01*
X1157177Y480041D01*
X1157209Y480049D01*
G37*
G36*
X694929Y480049D02*
X694929Y480049D01*
X694975Y480050D01*
X699296Y480889D01*
X699325Y480901D01*
X699367Y480909D01*
X703517Y482378D01*
X703544Y482394D01*
X703584Y482408D01*
X707471Y484474D01*
X707495Y484494D01*
X707534Y484513D01*
X711072Y487131D01*
X711093Y487155D01*
X711128Y487180D01*
X714240Y490292D01*
X714258Y490319D01*
X714289Y490348D01*
X716907Y493887D01*
X716920Y493915D01*
X716946Y493949D01*
X719012Y497836D01*
X719021Y497866D01*
X719042Y497903D01*
X720511Y502053D01*
X720516Y502084D01*
X720531Y502124D01*
X721370Y506445D01*
X721370Y506501D01*
X721379Y506557D01*
X721369Y506599D01*
X721368Y506644D01*
X721346Y506695D01*
X721333Y506750D01*
X721307Y506786D01*
X721289Y506826D01*
X721248Y506865D01*
X721215Y506910D01*
X721177Y506933D01*
X721145Y506963D01*
X721092Y506983D01*
X721044Y507012D01*
X720993Y507020D01*
X720959Y507033D01*
X720925Y507032D01*
X720880Y507039D01*
X709880Y507039D01*
X709827Y507029D01*
X709774Y507028D01*
X709731Y507009D01*
X709685Y507000D01*
X709641Y506969D01*
X709592Y506948D01*
X709560Y506914D01*
X709521Y506887D01*
X709492Y506842D01*
X709456Y506803D01*
X709435Y506752D01*
X709414Y506720D01*
X709409Y506688D01*
X709406Y506682D01*
X709405Y506681D01*
X709405Y506680D01*
X709393Y506649D01*
X708782Y503914D01*
X707754Y501350D01*
X706327Y498986D01*
X704538Y496882D01*
X702434Y495093D01*
X700070Y493666D01*
X697506Y492638D01*
X694771Y492027D01*
X694722Y492005D01*
X694670Y491993D01*
X694632Y491965D01*
X694590Y491946D01*
X694553Y491907D01*
X694510Y491875D01*
X694486Y491835D01*
X694454Y491801D01*
X694436Y491750D01*
X694408Y491704D01*
X694399Y491650D01*
X694386Y491614D01*
X694388Y491582D01*
X694381Y491540D01*
X694381Y480540D01*
X694392Y480485D01*
X694393Y480429D01*
X694412Y480388D01*
X694420Y480345D01*
X694452Y480299D01*
X694475Y480248D01*
X694508Y480218D01*
X694533Y480181D01*
X694580Y480151D01*
X694622Y480113D01*
X694663Y480098D01*
X694700Y480074D01*
X694756Y480065D01*
X694809Y480046D01*
X694861Y480047D01*
X694897Y480041D01*
X694929Y480049D01*
G37*
G36*
X232649Y480049D02*
X232649Y480049D01*
X232695Y480050D01*
X237016Y480889D01*
X237045Y480901D01*
X237087Y480909D01*
X241237Y482378D01*
X241264Y482394D01*
X241304Y482408D01*
X245191Y484474D01*
X245215Y484494D01*
X245254Y484513D01*
X248792Y487131D01*
X248813Y487155D01*
X248848Y487180D01*
X251960Y490292D01*
X251978Y490319D01*
X252009Y490348D01*
X254627Y493887D01*
X254640Y493915D01*
X254666Y493949D01*
X256732Y497836D01*
X256741Y497866D01*
X256762Y497903D01*
X258231Y502053D01*
X258236Y502084D01*
X258251Y502124D01*
X259090Y506445D01*
X259090Y506501D01*
X259099Y506557D01*
X259089Y506599D01*
X259088Y506644D01*
X259066Y506695D01*
X259053Y506750D01*
X259027Y506786D01*
X259009Y506826D01*
X258968Y506865D01*
X258935Y506910D01*
X258897Y506933D01*
X258865Y506963D01*
X258812Y506983D01*
X258764Y507012D01*
X258713Y507020D01*
X258679Y507033D01*
X258645Y507032D01*
X258600Y507039D01*
X247600Y507039D01*
X247547Y507029D01*
X247494Y507028D01*
X247451Y507009D01*
X247405Y507000D01*
X247361Y506969D01*
X247312Y506948D01*
X247280Y506914D01*
X247241Y506887D01*
X247212Y506842D01*
X247176Y506803D01*
X247155Y506752D01*
X247134Y506720D01*
X247129Y506688D01*
X247126Y506682D01*
X247125Y506681D01*
X247125Y506680D01*
X247113Y506649D01*
X246502Y503914D01*
X245474Y501350D01*
X244047Y498986D01*
X242258Y496882D01*
X240154Y495093D01*
X237790Y493666D01*
X235226Y492638D01*
X232491Y492027D01*
X232442Y492005D01*
X232390Y491993D01*
X232352Y491965D01*
X232310Y491946D01*
X232273Y491907D01*
X232230Y491875D01*
X232206Y491835D01*
X232174Y491801D01*
X232156Y491750D01*
X232128Y491704D01*
X232119Y491650D01*
X232106Y491614D01*
X232108Y491582D01*
X232101Y491540D01*
X232101Y480540D01*
X232112Y480485D01*
X232113Y480429D01*
X232132Y480388D01*
X232140Y480345D01*
X232172Y480299D01*
X232195Y480248D01*
X232228Y480218D01*
X232253Y480181D01*
X232300Y480151D01*
X232342Y480113D01*
X232383Y480098D01*
X232420Y480074D01*
X232476Y480065D01*
X232529Y480046D01*
X232581Y480047D01*
X232617Y480041D01*
X232649Y480049D01*
G37*
G36*
X271600Y717051D02*
X271600Y717051D01*
X271601Y717051D01*
X272669Y717070D01*
X272676Y717075D01*
X272680Y717071D01*
X273717Y717327D01*
X273722Y717334D01*
X273728Y717331D01*
X274682Y717812D01*
X274686Y717819D01*
X274691Y717818D01*
X275515Y718499D01*
X275516Y718507D01*
X275522Y718507D01*
X276173Y719354D01*
X276173Y719362D01*
X276179Y719363D01*
X276626Y720334D01*
X276624Y720342D01*
X276629Y720344D01*
X276848Y721390D01*
X276845Y721397D01*
X276849Y721400D01*
X276849Y733400D01*
X276846Y733405D01*
X276849Y733408D01*
X276669Y734503D01*
X276663Y734509D01*
X276666Y734514D01*
X276247Y735542D01*
X276240Y735546D01*
X276242Y735551D01*
X275605Y736460D01*
X275597Y736463D01*
X275597Y736468D01*
X274774Y737212D01*
X274766Y737213D01*
X274765Y737219D01*
X273797Y737761D01*
X273788Y737760D01*
X273786Y737766D01*
X272722Y738079D01*
X272717Y738077D01*
X272713Y738077D01*
X272711Y738081D01*
X271603Y738149D01*
X271597Y738145D01*
X271593Y738149D01*
X270485Y737979D01*
X270479Y737973D01*
X270474Y737976D01*
X269432Y737564D01*
X269428Y737557D01*
X269423Y737559D01*
X268498Y736925D01*
X268496Y736917D01*
X268490Y736918D01*
X267730Y736095D01*
X267729Y736086D01*
X267723Y736086D01*
X267166Y735114D01*
X267167Y735106D01*
X267161Y735104D01*
X266834Y734032D01*
X266837Y734024D01*
X266832Y734021D01*
X266751Y732904D01*
X266752Y732901D01*
X266751Y732900D01*
X266751Y720900D01*
X266756Y720893D01*
X266752Y720889D01*
X266971Y719945D01*
X266977Y719939D01*
X266975Y719934D01*
X267399Y719062D01*
X267406Y719059D01*
X267404Y719053D01*
X268011Y718297D01*
X268019Y718295D01*
X268019Y718289D01*
X268779Y717688D01*
X268788Y717688D01*
X268789Y717682D01*
X269664Y717264D01*
X269672Y717266D01*
X269674Y717261D01*
X270620Y717049D01*
X270627Y717052D01*
X270631Y717047D01*
X271600Y717051D01*
G37*
G36*
X733880Y717051D02*
X733880Y717051D01*
X733881Y717051D01*
X734949Y717070D01*
X734956Y717075D01*
X734960Y717071D01*
X735997Y717327D01*
X736002Y717334D01*
X736008Y717331D01*
X736962Y717812D01*
X736966Y717819D01*
X736971Y717818D01*
X737795Y718499D01*
X737796Y718507D01*
X737802Y718507D01*
X738453Y719354D01*
X738453Y719362D01*
X738459Y719363D01*
X738906Y720334D01*
X738904Y720342D01*
X738909Y720344D01*
X739128Y721390D01*
X739125Y721397D01*
X739129Y721400D01*
X739129Y733400D01*
X739126Y733405D01*
X739129Y733408D01*
X738949Y734503D01*
X738943Y734509D01*
X738946Y734514D01*
X738527Y735542D01*
X738520Y735546D01*
X738522Y735551D01*
X737885Y736460D01*
X737877Y736463D01*
X737877Y736468D01*
X737054Y737212D01*
X737046Y737213D01*
X737045Y737219D01*
X736077Y737761D01*
X736068Y737760D01*
X736066Y737766D01*
X735002Y738079D01*
X734997Y738077D01*
X734993Y738077D01*
X734991Y738081D01*
X733883Y738149D01*
X733877Y738145D01*
X733873Y738149D01*
X732765Y737979D01*
X732759Y737973D01*
X732754Y737976D01*
X731712Y737564D01*
X731708Y737557D01*
X731703Y737559D01*
X730778Y736925D01*
X730776Y736917D01*
X730770Y736918D01*
X730010Y736095D01*
X730009Y736086D01*
X730003Y736086D01*
X729446Y735114D01*
X729447Y735106D01*
X729441Y735104D01*
X729114Y734032D01*
X729117Y734024D01*
X729112Y734021D01*
X729031Y732904D01*
X729032Y732901D01*
X729031Y732900D01*
X729031Y720900D01*
X729036Y720893D01*
X729032Y720889D01*
X729251Y719945D01*
X729257Y719939D01*
X729255Y719934D01*
X729679Y719062D01*
X729686Y719059D01*
X729684Y719053D01*
X730291Y718297D01*
X730299Y718295D01*
X730299Y718289D01*
X731059Y717688D01*
X731068Y717688D01*
X731069Y717682D01*
X731944Y717264D01*
X731952Y717266D01*
X731954Y717261D01*
X732900Y717049D01*
X732907Y717052D01*
X732911Y717047D01*
X733880Y717051D01*
G37*
G36*
X1196160Y717051D02*
X1196160Y717051D01*
X1196161Y717051D01*
X1197229Y717070D01*
X1197236Y717075D01*
X1197240Y717071D01*
X1198277Y717327D01*
X1198282Y717334D01*
X1198288Y717331D01*
X1199242Y717812D01*
X1199246Y717819D01*
X1199251Y717818D01*
X1200075Y718499D01*
X1200076Y718507D01*
X1200082Y718507D01*
X1200733Y719354D01*
X1200733Y719362D01*
X1200739Y719363D01*
X1201186Y720334D01*
X1201184Y720342D01*
X1201189Y720344D01*
X1201408Y721390D01*
X1201405Y721397D01*
X1201409Y721400D01*
X1201409Y733400D01*
X1201406Y733405D01*
X1201409Y733408D01*
X1201229Y734503D01*
X1201223Y734509D01*
X1201226Y734514D01*
X1200807Y735542D01*
X1200800Y735546D01*
X1200802Y735551D01*
X1200165Y736460D01*
X1200157Y736463D01*
X1200157Y736468D01*
X1199334Y737212D01*
X1199326Y737213D01*
X1199325Y737219D01*
X1198357Y737761D01*
X1198348Y737760D01*
X1198346Y737766D01*
X1197282Y738079D01*
X1197277Y738077D01*
X1197273Y738077D01*
X1197271Y738081D01*
X1196163Y738149D01*
X1196157Y738145D01*
X1196153Y738149D01*
X1195045Y737979D01*
X1195039Y737973D01*
X1195034Y737976D01*
X1193992Y737564D01*
X1193988Y737557D01*
X1193983Y737559D01*
X1193058Y736925D01*
X1193056Y736917D01*
X1193050Y736918D01*
X1192290Y736095D01*
X1192289Y736086D01*
X1192283Y736086D01*
X1191726Y735114D01*
X1191727Y735106D01*
X1191721Y735104D01*
X1191394Y734032D01*
X1191397Y734024D01*
X1191392Y734021D01*
X1191311Y732904D01*
X1191312Y732901D01*
X1191311Y732900D01*
X1191311Y720900D01*
X1191316Y720893D01*
X1191312Y720889D01*
X1191531Y719945D01*
X1191537Y719939D01*
X1191535Y719934D01*
X1191959Y719062D01*
X1191966Y719059D01*
X1191964Y719053D01*
X1192571Y718297D01*
X1192579Y718295D01*
X1192579Y718289D01*
X1193339Y717688D01*
X1193348Y717688D01*
X1193349Y717682D01*
X1194224Y717264D01*
X1194232Y717266D01*
X1194234Y717261D01*
X1195180Y717049D01*
X1195187Y717052D01*
X1195191Y717047D01*
X1196160Y717051D01*
G37*
G36*
X733880Y43951D02*
X733880Y43951D01*
X733881Y43951D01*
X734949Y43970D01*
X734956Y43975D01*
X734960Y43971D01*
X735997Y44227D01*
X736002Y44234D01*
X736008Y44231D01*
X736962Y44712D01*
X736966Y44719D01*
X736971Y44718D01*
X737795Y45399D01*
X737796Y45407D01*
X737802Y45407D01*
X738453Y46254D01*
X738453Y46262D01*
X738459Y46263D01*
X738906Y47234D01*
X738904Y47242D01*
X738909Y47244D01*
X739128Y48290D01*
X739125Y48297D01*
X739129Y48300D01*
X739129Y60300D01*
X739126Y60305D01*
X739129Y60308D01*
X738949Y61403D01*
X738943Y61409D01*
X738946Y61414D01*
X738527Y62442D01*
X738520Y62446D01*
X738522Y62451D01*
X737885Y63360D01*
X737877Y63363D01*
X737877Y63368D01*
X737054Y64112D01*
X737046Y64113D01*
X737045Y64119D01*
X736077Y64661D01*
X736068Y64660D01*
X736066Y64666D01*
X735002Y64979D01*
X734997Y64977D01*
X734993Y64977D01*
X734991Y64981D01*
X733883Y65049D01*
X733877Y65045D01*
X733873Y65049D01*
X732765Y64879D01*
X732759Y64873D01*
X732754Y64876D01*
X731712Y64464D01*
X731708Y64457D01*
X731703Y64459D01*
X730778Y63825D01*
X730776Y63817D01*
X730770Y63818D01*
X730010Y62995D01*
X730009Y62986D01*
X730003Y62986D01*
X729446Y62014D01*
X729447Y62006D01*
X729441Y62004D01*
X729114Y60932D01*
X729117Y60924D01*
X729112Y60921D01*
X729031Y59804D01*
X729032Y59801D01*
X729031Y59800D01*
X729031Y47800D01*
X729036Y47793D01*
X729032Y47789D01*
X729251Y46845D01*
X729257Y46839D01*
X729255Y46834D01*
X729679Y45962D01*
X729686Y45959D01*
X729684Y45953D01*
X730291Y45197D01*
X730299Y45195D01*
X730299Y45189D01*
X731059Y44588D01*
X731068Y44588D01*
X731069Y44582D01*
X731944Y44164D01*
X731952Y44166D01*
X731954Y44161D01*
X732900Y43949D01*
X732907Y43952D01*
X732911Y43947D01*
X733880Y43951D01*
G37*
G36*
X1196160Y43951D02*
X1196160Y43951D01*
X1196161Y43951D01*
X1197229Y43970D01*
X1197236Y43975D01*
X1197240Y43971D01*
X1198277Y44227D01*
X1198282Y44234D01*
X1198288Y44231D01*
X1199242Y44712D01*
X1199246Y44719D01*
X1199251Y44718D01*
X1200075Y45399D01*
X1200076Y45407D01*
X1200082Y45407D01*
X1200733Y46254D01*
X1200733Y46262D01*
X1200739Y46263D01*
X1201186Y47234D01*
X1201184Y47242D01*
X1201189Y47244D01*
X1201408Y48290D01*
X1201405Y48297D01*
X1201409Y48300D01*
X1201409Y60300D01*
X1201406Y60305D01*
X1201409Y60308D01*
X1201229Y61403D01*
X1201223Y61409D01*
X1201226Y61414D01*
X1200807Y62442D01*
X1200800Y62446D01*
X1200802Y62451D01*
X1200165Y63360D01*
X1200157Y63363D01*
X1200157Y63368D01*
X1199334Y64112D01*
X1199326Y64113D01*
X1199325Y64119D01*
X1198357Y64661D01*
X1198348Y64660D01*
X1198346Y64666D01*
X1197282Y64979D01*
X1197277Y64977D01*
X1197273Y64977D01*
X1197271Y64981D01*
X1196163Y65049D01*
X1196157Y65045D01*
X1196153Y65049D01*
X1195045Y64879D01*
X1195039Y64873D01*
X1195034Y64876D01*
X1193992Y64464D01*
X1193988Y64457D01*
X1193983Y64459D01*
X1193058Y63825D01*
X1193056Y63817D01*
X1193050Y63818D01*
X1192290Y62995D01*
X1192289Y62986D01*
X1192283Y62986D01*
X1191726Y62014D01*
X1191727Y62006D01*
X1191721Y62004D01*
X1191394Y60932D01*
X1191397Y60924D01*
X1191392Y60921D01*
X1191311Y59804D01*
X1191312Y59801D01*
X1191311Y59800D01*
X1191311Y47800D01*
X1191316Y47793D01*
X1191312Y47789D01*
X1191531Y46845D01*
X1191537Y46839D01*
X1191535Y46834D01*
X1191959Y45962D01*
X1191966Y45959D01*
X1191964Y45953D01*
X1192571Y45197D01*
X1192579Y45195D01*
X1192579Y45189D01*
X1193339Y44588D01*
X1193348Y44588D01*
X1193349Y44582D01*
X1194224Y44164D01*
X1194232Y44166D01*
X1194234Y44161D01*
X1195180Y43949D01*
X1195187Y43952D01*
X1195191Y43947D01*
X1196160Y43951D01*
G37*
G36*
X271600Y43951D02*
X271600Y43951D01*
X271601Y43951D01*
X272669Y43970D01*
X272676Y43975D01*
X272680Y43971D01*
X273717Y44227D01*
X273722Y44234D01*
X273728Y44231D01*
X274682Y44712D01*
X274686Y44719D01*
X274691Y44718D01*
X275515Y45399D01*
X275516Y45407D01*
X275522Y45407D01*
X276173Y46254D01*
X276173Y46262D01*
X276179Y46263D01*
X276626Y47234D01*
X276624Y47242D01*
X276629Y47244D01*
X276848Y48290D01*
X276845Y48297D01*
X276849Y48300D01*
X276849Y60300D01*
X276846Y60305D01*
X276849Y60308D01*
X276669Y61403D01*
X276663Y61409D01*
X276666Y61414D01*
X276247Y62442D01*
X276240Y62446D01*
X276242Y62451D01*
X275605Y63360D01*
X275597Y63363D01*
X275597Y63368D01*
X274774Y64112D01*
X274766Y64113D01*
X274765Y64119D01*
X273797Y64661D01*
X273788Y64660D01*
X273786Y64666D01*
X272722Y64979D01*
X272717Y64977D01*
X272713Y64977D01*
X272711Y64981D01*
X271603Y65049D01*
X271597Y65045D01*
X271593Y65049D01*
X270485Y64879D01*
X270479Y64873D01*
X270474Y64876D01*
X269432Y64464D01*
X269428Y64457D01*
X269423Y64459D01*
X268498Y63825D01*
X268496Y63817D01*
X268490Y63818D01*
X267730Y62995D01*
X267729Y62986D01*
X267723Y62986D01*
X267166Y62014D01*
X267167Y62006D01*
X267161Y62004D01*
X266834Y60932D01*
X266837Y60924D01*
X266832Y60921D01*
X266751Y59804D01*
X266752Y59801D01*
X266751Y59800D01*
X266751Y47800D01*
X266756Y47793D01*
X266752Y47789D01*
X266971Y46845D01*
X266977Y46839D01*
X266975Y46834D01*
X267399Y45962D01*
X267406Y45959D01*
X267404Y45953D01*
X268011Y45197D01*
X268019Y45195D01*
X268019Y45189D01*
X268779Y44588D01*
X268788Y44588D01*
X268789Y44582D01*
X269664Y44164D01*
X269672Y44166D01*
X269674Y44161D01*
X270620Y43949D01*
X270627Y43952D01*
X270631Y43947D01*
X271600Y43951D01*
G37*
G36*
X186181Y717060D02*
X186181Y717060D01*
X186188Y717065D01*
X186192Y717061D01*
X187244Y717311D01*
X187249Y717317D01*
X187254Y717314D01*
X188224Y717791D01*
X188227Y717799D01*
X188233Y717797D01*
X189072Y718478D01*
X189074Y718486D01*
X189080Y718486D01*
X189746Y719337D01*
X189747Y719345D01*
X189752Y719346D01*
X190213Y720323D01*
X190211Y720331D01*
X190217Y720334D01*
X190448Y721389D01*
X190445Y721397D01*
X190449Y721400D01*
X190449Y733400D01*
X190445Y733405D01*
X190449Y733408D01*
X190256Y734514D01*
X190250Y734519D01*
X190253Y734524D01*
X189820Y735559D01*
X189813Y735563D01*
X189815Y735568D01*
X189162Y736481D01*
X189154Y736483D01*
X189155Y736489D01*
X188316Y737233D01*
X188307Y737234D01*
X188307Y737239D01*
X187323Y737778D01*
X187315Y737777D01*
X187313Y737782D01*
X186234Y738089D01*
X186226Y738086D01*
X186223Y738091D01*
X185103Y738149D01*
X185098Y738146D01*
X185095Y738149D01*
X184049Y738031D01*
X184043Y738025D01*
X184038Y738029D01*
X183044Y737681D01*
X183040Y737674D01*
X183035Y737676D01*
X182143Y737116D01*
X182141Y737109D01*
X182135Y737109D01*
X181391Y736365D01*
X181389Y736357D01*
X181384Y736357D01*
X180824Y735465D01*
X180824Y735457D01*
X180819Y735456D01*
X180471Y734462D01*
X180474Y734454D01*
X180469Y734451D01*
X180351Y733406D01*
X180353Y733402D01*
X180351Y733400D01*
X180351Y721400D01*
X180354Y721395D01*
X180351Y721392D01*
X180509Y720396D01*
X180515Y720390D01*
X180512Y720385D01*
X180887Y719449D01*
X180894Y719445D01*
X180892Y719439D01*
X181466Y718610D01*
X181474Y718607D01*
X181473Y718602D01*
X182217Y717921D01*
X182226Y717920D01*
X182226Y717914D01*
X183103Y717416D01*
X183112Y717417D01*
X183114Y717412D01*
X184079Y717121D01*
X184087Y717124D01*
X184090Y717119D01*
X185097Y717051D01*
X185099Y717052D01*
X185100Y717051D01*
X186181Y717060D01*
G37*
G36*
X1110741Y717060D02*
X1110741Y717060D01*
X1110748Y717065D01*
X1110752Y717061D01*
X1111804Y717311D01*
X1111809Y717317D01*
X1111814Y717314D01*
X1112784Y717791D01*
X1112787Y717799D01*
X1112793Y717797D01*
X1113632Y718478D01*
X1113634Y718486D01*
X1113640Y718486D01*
X1114306Y719337D01*
X1114307Y719345D01*
X1114312Y719346D01*
X1114773Y720323D01*
X1114771Y720331D01*
X1114777Y720334D01*
X1115008Y721389D01*
X1115005Y721397D01*
X1115009Y721400D01*
X1115009Y733400D01*
X1115005Y733405D01*
X1115009Y733408D01*
X1114816Y734514D01*
X1114810Y734519D01*
X1114813Y734524D01*
X1114380Y735559D01*
X1114373Y735563D01*
X1114375Y735568D01*
X1113722Y736481D01*
X1113714Y736483D01*
X1113715Y736489D01*
X1112876Y737233D01*
X1112867Y737234D01*
X1112867Y737239D01*
X1111883Y737778D01*
X1111875Y737777D01*
X1111873Y737782D01*
X1110794Y738089D01*
X1110786Y738086D01*
X1110783Y738091D01*
X1109663Y738149D01*
X1109658Y738146D01*
X1109655Y738149D01*
X1108609Y738031D01*
X1108603Y738025D01*
X1108598Y738029D01*
X1107604Y737681D01*
X1107600Y737674D01*
X1107595Y737676D01*
X1106703Y737116D01*
X1106701Y737109D01*
X1106695Y737109D01*
X1105951Y736365D01*
X1105949Y736357D01*
X1105944Y736357D01*
X1105384Y735465D01*
X1105384Y735457D01*
X1105379Y735456D01*
X1105031Y734462D01*
X1105034Y734454D01*
X1105029Y734451D01*
X1104911Y733406D01*
X1104913Y733402D01*
X1104911Y733400D01*
X1104911Y721400D01*
X1104914Y721395D01*
X1104911Y721392D01*
X1105069Y720396D01*
X1105075Y720390D01*
X1105072Y720385D01*
X1105447Y719449D01*
X1105454Y719445D01*
X1105452Y719439D01*
X1106026Y718610D01*
X1106034Y718607D01*
X1106033Y718602D01*
X1106777Y717921D01*
X1106786Y717920D01*
X1106786Y717914D01*
X1107663Y717416D01*
X1107672Y717417D01*
X1107674Y717412D01*
X1108639Y717121D01*
X1108647Y717124D01*
X1108650Y717119D01*
X1109657Y717051D01*
X1109659Y717052D01*
X1109660Y717051D01*
X1110741Y717060D01*
G37*
G36*
X648461Y717060D02*
X648461Y717060D01*
X648468Y717065D01*
X648472Y717061D01*
X649524Y717311D01*
X649529Y717317D01*
X649534Y717314D01*
X650504Y717791D01*
X650507Y717799D01*
X650513Y717797D01*
X651352Y718478D01*
X651354Y718486D01*
X651360Y718486D01*
X652026Y719337D01*
X652027Y719345D01*
X652032Y719346D01*
X652493Y720323D01*
X652491Y720331D01*
X652497Y720334D01*
X652728Y721389D01*
X652725Y721397D01*
X652729Y721400D01*
X652729Y733400D01*
X652725Y733405D01*
X652729Y733408D01*
X652536Y734514D01*
X652530Y734519D01*
X652533Y734524D01*
X652100Y735559D01*
X652093Y735563D01*
X652095Y735568D01*
X651442Y736481D01*
X651434Y736483D01*
X651435Y736489D01*
X650596Y737233D01*
X650587Y737234D01*
X650587Y737239D01*
X649603Y737778D01*
X649595Y737777D01*
X649593Y737782D01*
X648514Y738089D01*
X648506Y738086D01*
X648503Y738091D01*
X647383Y738149D01*
X647378Y738146D01*
X647375Y738149D01*
X646329Y738031D01*
X646323Y738025D01*
X646318Y738029D01*
X645324Y737681D01*
X645320Y737674D01*
X645315Y737676D01*
X644423Y737116D01*
X644421Y737109D01*
X644415Y737109D01*
X643671Y736365D01*
X643669Y736357D01*
X643664Y736357D01*
X643104Y735465D01*
X643104Y735457D01*
X643099Y735456D01*
X642751Y734462D01*
X642754Y734454D01*
X642749Y734451D01*
X642631Y733406D01*
X642633Y733402D01*
X642631Y733400D01*
X642631Y721400D01*
X642634Y721395D01*
X642631Y721392D01*
X642789Y720396D01*
X642795Y720390D01*
X642792Y720385D01*
X643167Y719449D01*
X643174Y719445D01*
X643172Y719439D01*
X643746Y718610D01*
X643754Y718607D01*
X643753Y718602D01*
X644497Y717921D01*
X644506Y717920D01*
X644506Y717914D01*
X645383Y717416D01*
X645392Y717417D01*
X645394Y717412D01*
X646359Y717121D01*
X646367Y717124D01*
X646370Y717119D01*
X647377Y717051D01*
X647379Y717052D01*
X647380Y717051D01*
X648461Y717060D01*
G37*
G36*
X1110741Y43960D02*
X1110741Y43960D01*
X1110748Y43965D01*
X1110752Y43961D01*
X1111804Y44211D01*
X1111809Y44217D01*
X1111814Y44214D01*
X1112784Y44691D01*
X1112787Y44699D01*
X1112793Y44697D01*
X1113632Y45378D01*
X1113634Y45386D01*
X1113640Y45386D01*
X1114306Y46237D01*
X1114307Y46245D01*
X1114312Y46246D01*
X1114773Y47223D01*
X1114771Y47231D01*
X1114777Y47234D01*
X1115008Y48289D01*
X1115005Y48297D01*
X1115009Y48300D01*
X1115009Y60300D01*
X1115005Y60305D01*
X1115009Y60308D01*
X1114816Y61414D01*
X1114810Y61419D01*
X1114813Y61424D01*
X1114380Y62459D01*
X1114373Y62463D01*
X1114375Y62468D01*
X1113722Y63381D01*
X1113714Y63383D01*
X1113715Y63389D01*
X1112876Y64133D01*
X1112867Y64134D01*
X1112867Y64139D01*
X1111883Y64678D01*
X1111875Y64677D01*
X1111873Y64682D01*
X1110794Y64989D01*
X1110786Y64986D01*
X1110783Y64991D01*
X1109663Y65049D01*
X1109658Y65046D01*
X1109655Y65049D01*
X1108609Y64931D01*
X1108603Y64925D01*
X1108598Y64929D01*
X1107604Y64581D01*
X1107600Y64574D01*
X1107595Y64576D01*
X1106703Y64016D01*
X1106701Y64009D01*
X1106695Y64009D01*
X1105951Y63265D01*
X1105949Y63257D01*
X1105944Y63257D01*
X1105384Y62365D01*
X1105384Y62357D01*
X1105379Y62356D01*
X1105031Y61362D01*
X1105034Y61354D01*
X1105029Y61351D01*
X1104911Y60306D01*
X1104913Y60302D01*
X1104911Y60300D01*
X1104911Y48300D01*
X1104914Y48295D01*
X1104911Y48292D01*
X1105069Y47296D01*
X1105075Y47290D01*
X1105072Y47285D01*
X1105447Y46349D01*
X1105454Y46345D01*
X1105452Y46339D01*
X1106026Y45510D01*
X1106034Y45507D01*
X1106033Y45502D01*
X1106777Y44821D01*
X1106786Y44820D01*
X1106786Y44814D01*
X1107663Y44316D01*
X1107672Y44317D01*
X1107674Y44312D01*
X1108639Y44021D01*
X1108647Y44024D01*
X1108650Y44019D01*
X1109657Y43951D01*
X1109659Y43952D01*
X1109660Y43951D01*
X1110741Y43960D01*
G37*
G36*
X648461Y43960D02*
X648461Y43960D01*
X648468Y43965D01*
X648472Y43961D01*
X649524Y44211D01*
X649529Y44217D01*
X649534Y44214D01*
X650504Y44691D01*
X650507Y44699D01*
X650513Y44697D01*
X651352Y45378D01*
X651354Y45386D01*
X651360Y45386D01*
X652026Y46237D01*
X652027Y46245D01*
X652032Y46246D01*
X652493Y47223D01*
X652491Y47231D01*
X652497Y47234D01*
X652728Y48289D01*
X652725Y48297D01*
X652729Y48300D01*
X652729Y60300D01*
X652725Y60305D01*
X652729Y60308D01*
X652536Y61414D01*
X652530Y61419D01*
X652533Y61424D01*
X652100Y62459D01*
X652093Y62463D01*
X652095Y62468D01*
X651442Y63381D01*
X651434Y63383D01*
X651435Y63389D01*
X650596Y64133D01*
X650587Y64134D01*
X650587Y64139D01*
X649603Y64678D01*
X649595Y64677D01*
X649593Y64682D01*
X648514Y64989D01*
X648506Y64986D01*
X648503Y64991D01*
X647383Y65049D01*
X647378Y65046D01*
X647375Y65049D01*
X646329Y64931D01*
X646323Y64925D01*
X646318Y64929D01*
X645324Y64581D01*
X645320Y64574D01*
X645315Y64576D01*
X644423Y64016D01*
X644421Y64009D01*
X644415Y64009D01*
X643671Y63265D01*
X643669Y63257D01*
X643664Y63257D01*
X643104Y62365D01*
X643104Y62357D01*
X643099Y62356D01*
X642751Y61362D01*
X642754Y61354D01*
X642749Y61351D01*
X642631Y60306D01*
X642633Y60302D01*
X642631Y60300D01*
X642631Y48300D01*
X642634Y48295D01*
X642631Y48292D01*
X642789Y47296D01*
X642795Y47290D01*
X642792Y47285D01*
X643167Y46349D01*
X643174Y46345D01*
X643172Y46339D01*
X643746Y45510D01*
X643754Y45507D01*
X643753Y45502D01*
X644497Y44821D01*
X644506Y44820D01*
X644506Y44814D01*
X645383Y44316D01*
X645392Y44317D01*
X645394Y44312D01*
X646359Y44021D01*
X646367Y44024D01*
X646370Y44019D01*
X647377Y43951D01*
X647379Y43952D01*
X647380Y43951D01*
X648461Y43960D01*
G37*
G36*
X186181Y43960D02*
X186181Y43960D01*
X186188Y43965D01*
X186192Y43961D01*
X187244Y44211D01*
X187249Y44217D01*
X187254Y44214D01*
X188224Y44691D01*
X188227Y44699D01*
X188233Y44697D01*
X189072Y45378D01*
X189074Y45386D01*
X189080Y45386D01*
X189746Y46237D01*
X189747Y46245D01*
X189752Y46246D01*
X190213Y47223D01*
X190211Y47231D01*
X190217Y47234D01*
X190448Y48289D01*
X190445Y48297D01*
X190449Y48300D01*
X190449Y60300D01*
X190445Y60305D01*
X190449Y60308D01*
X190256Y61414D01*
X190250Y61419D01*
X190253Y61424D01*
X189820Y62459D01*
X189813Y62463D01*
X189815Y62468D01*
X189162Y63381D01*
X189154Y63383D01*
X189155Y63389D01*
X188316Y64133D01*
X188307Y64134D01*
X188307Y64139D01*
X187323Y64678D01*
X187315Y64677D01*
X187313Y64682D01*
X186234Y64989D01*
X186226Y64986D01*
X186223Y64991D01*
X185103Y65049D01*
X185098Y65046D01*
X185095Y65049D01*
X184049Y64931D01*
X184043Y64925D01*
X184038Y64929D01*
X183044Y64581D01*
X183040Y64574D01*
X183035Y64576D01*
X182143Y64016D01*
X182141Y64009D01*
X182135Y64009D01*
X181391Y63265D01*
X181389Y63257D01*
X181384Y63257D01*
X180824Y62365D01*
X180824Y62357D01*
X180819Y62356D01*
X180471Y61362D01*
X180474Y61354D01*
X180469Y61351D01*
X180351Y60306D01*
X180353Y60302D01*
X180351Y60300D01*
X180351Y48300D01*
X180354Y48295D01*
X180351Y48292D01*
X180509Y47296D01*
X180515Y47290D01*
X180512Y47285D01*
X180887Y46349D01*
X180894Y46345D01*
X180892Y46339D01*
X181466Y45510D01*
X181474Y45507D01*
X181473Y45502D01*
X182217Y44821D01*
X182226Y44820D01*
X182226Y44814D01*
X183103Y44316D01*
X183112Y44317D01*
X183114Y44312D01*
X184079Y44021D01*
X184087Y44024D01*
X184090Y44019D01*
X185097Y43951D01*
X185099Y43952D01*
X185100Y43951D01*
X186181Y43960D01*
G37*
G36*
X1196664Y677555D02*
X1196664Y677555D01*
X1196667Y677551D01*
X1197743Y677706D01*
X1197748Y677712D01*
X1197753Y677709D01*
X1198767Y678099D01*
X1198771Y678106D01*
X1198777Y678105D01*
X1199679Y678711D01*
X1199681Y678719D01*
X1199687Y678718D01*
X1200431Y679510D01*
X1200432Y679518D01*
X1200438Y679518D01*
X1200987Y680456D01*
X1200986Y680464D01*
X1200992Y680466D01*
X1201319Y681502D01*
X1201316Y681510D01*
X1201321Y681513D01*
X1201409Y682596D01*
X1201407Y682599D01*
X1201409Y682600D01*
X1201409Y688600D01*
X1201406Y688604D01*
X1201409Y688606D01*
X1201259Y689739D01*
X1201253Y689745D01*
X1201256Y689750D01*
X1200858Y690820D01*
X1200851Y690824D01*
X1200853Y690830D01*
X1200226Y691785D01*
X1200218Y691788D01*
X1200219Y691793D01*
X1199396Y692585D01*
X1199388Y692586D01*
X1199387Y692592D01*
X1198408Y693181D01*
X1198400Y693180D01*
X1198398Y693185D01*
X1197313Y693541D01*
X1197305Y693539D01*
X1197302Y693543D01*
X1196165Y693649D01*
X1196156Y693644D01*
X1196151Y693648D01*
X1195014Y693441D01*
X1195008Y693435D01*
X1195003Y693438D01*
X1193941Y692983D01*
X1193937Y692976D01*
X1193931Y692978D01*
X1192996Y692298D01*
X1192994Y692290D01*
X1192988Y692291D01*
X1192228Y691420D01*
X1192228Y691412D01*
X1192222Y691411D01*
X1191675Y690392D01*
X1191676Y690384D01*
X1191671Y690382D01*
X1191667Y690369D01*
X1191654Y690320D01*
X1191653Y690320D01*
X1191654Y690320D01*
X1191640Y690271D01*
X1191626Y690221D01*
X1191613Y690172D01*
X1191599Y690123D01*
X1191586Y690074D01*
X1191572Y690024D01*
X1191559Y689975D01*
X1191545Y689926D01*
X1191531Y689877D01*
X1191518Y689827D01*
X1191504Y689778D01*
X1191491Y689729D01*
X1191477Y689680D01*
X1191464Y689630D01*
X1191450Y689581D01*
X1191437Y689532D01*
X1191436Y689532D01*
X1191423Y689483D01*
X1191409Y689433D01*
X1191364Y689268D01*
X1191367Y689260D01*
X1191362Y689257D01*
X1191311Y688102D01*
X1191312Y688101D01*
X1191311Y688100D01*
X1191311Y682100D01*
X1191315Y682094D01*
X1191312Y682091D01*
X1191524Y681010D01*
X1191530Y681005D01*
X1191527Y681000D01*
X1191974Y679994D01*
X1191981Y679990D01*
X1191979Y679984D01*
X1192639Y679103D01*
X1192647Y679100D01*
X1192647Y679095D01*
X1193486Y678382D01*
X1193494Y678382D01*
X1193495Y678376D01*
X1194472Y677868D01*
X1194480Y677869D01*
X1194482Y677864D01*
X1195547Y677586D01*
X1195555Y677589D01*
X1195558Y677585D01*
X1196659Y677551D01*
X1196664Y677555D01*
G37*
G36*
X272104Y677555D02*
X272104Y677555D01*
X272107Y677551D01*
X273183Y677706D01*
X273188Y677712D01*
X273193Y677709D01*
X274207Y678099D01*
X274211Y678106D01*
X274217Y678105D01*
X275119Y678711D01*
X275121Y678719D01*
X275127Y678718D01*
X275871Y679510D01*
X275872Y679518D01*
X275878Y679518D01*
X276427Y680456D01*
X276426Y680464D01*
X276432Y680466D01*
X276759Y681502D01*
X276756Y681510D01*
X276761Y681513D01*
X276849Y682596D01*
X276847Y682599D01*
X276849Y682600D01*
X276849Y688600D01*
X276846Y688604D01*
X276849Y688606D01*
X276699Y689739D01*
X276693Y689745D01*
X276696Y689750D01*
X276298Y690820D01*
X276291Y690824D01*
X276293Y690830D01*
X275666Y691785D01*
X275658Y691788D01*
X275659Y691793D01*
X274836Y692585D01*
X274828Y692586D01*
X274827Y692592D01*
X273848Y693181D01*
X273840Y693180D01*
X273838Y693185D01*
X272753Y693541D01*
X272745Y693539D01*
X272742Y693543D01*
X271605Y693649D01*
X271596Y693644D01*
X271591Y693648D01*
X270454Y693441D01*
X270448Y693435D01*
X270443Y693438D01*
X269381Y692983D01*
X269377Y692976D01*
X269371Y692978D01*
X268436Y692298D01*
X268434Y692290D01*
X268428Y692291D01*
X267668Y691420D01*
X267668Y691412D01*
X267662Y691411D01*
X267115Y690392D01*
X267116Y690384D01*
X267111Y690382D01*
X267107Y690369D01*
X267094Y690320D01*
X267093Y690320D01*
X267094Y690320D01*
X267080Y690271D01*
X267066Y690221D01*
X267053Y690172D01*
X267039Y690123D01*
X267026Y690074D01*
X267012Y690024D01*
X266999Y689975D01*
X266985Y689926D01*
X266971Y689877D01*
X266958Y689827D01*
X266944Y689778D01*
X266931Y689729D01*
X266917Y689680D01*
X266904Y689630D01*
X266890Y689581D01*
X266877Y689532D01*
X266876Y689532D01*
X266863Y689483D01*
X266849Y689433D01*
X266804Y689268D01*
X266807Y689260D01*
X266802Y689257D01*
X266751Y688102D01*
X266752Y688101D01*
X266751Y688100D01*
X266751Y682100D01*
X266755Y682094D01*
X266752Y682091D01*
X266964Y681010D01*
X266970Y681005D01*
X266967Y681000D01*
X267414Y679994D01*
X267421Y679990D01*
X267419Y679984D01*
X268079Y679103D01*
X268087Y679100D01*
X268087Y679095D01*
X268926Y678382D01*
X268934Y678382D01*
X268935Y678376D01*
X269912Y677868D01*
X269920Y677869D01*
X269922Y677864D01*
X270987Y677586D01*
X270995Y677589D01*
X270998Y677585D01*
X272099Y677551D01*
X272104Y677555D01*
G37*
G36*
X734384Y677555D02*
X734384Y677555D01*
X734387Y677551D01*
X735463Y677706D01*
X735468Y677712D01*
X735473Y677709D01*
X736487Y678099D01*
X736491Y678106D01*
X736497Y678105D01*
X737399Y678711D01*
X737401Y678719D01*
X737407Y678718D01*
X738151Y679510D01*
X738152Y679518D01*
X738158Y679518D01*
X738707Y680456D01*
X738706Y680464D01*
X738712Y680466D01*
X739039Y681502D01*
X739036Y681510D01*
X739041Y681513D01*
X739129Y682596D01*
X739127Y682599D01*
X739129Y682600D01*
X739129Y688600D01*
X739126Y688604D01*
X739129Y688606D01*
X738979Y689739D01*
X738973Y689745D01*
X738976Y689750D01*
X738578Y690820D01*
X738571Y690824D01*
X738573Y690830D01*
X737946Y691785D01*
X737938Y691788D01*
X737939Y691793D01*
X737116Y692585D01*
X737108Y692586D01*
X737107Y692592D01*
X736128Y693181D01*
X736120Y693180D01*
X736118Y693185D01*
X735033Y693541D01*
X735025Y693539D01*
X735022Y693543D01*
X733885Y693649D01*
X733876Y693644D01*
X733871Y693648D01*
X732734Y693441D01*
X732728Y693435D01*
X732723Y693438D01*
X731661Y692983D01*
X731657Y692976D01*
X731651Y692978D01*
X730716Y692298D01*
X730714Y692290D01*
X730708Y692291D01*
X729948Y691420D01*
X729948Y691412D01*
X729942Y691411D01*
X729395Y690392D01*
X729396Y690384D01*
X729391Y690382D01*
X729387Y690369D01*
X729374Y690320D01*
X729373Y690320D01*
X729374Y690320D01*
X729360Y690271D01*
X729346Y690221D01*
X729333Y690172D01*
X729319Y690123D01*
X729306Y690074D01*
X729292Y690024D01*
X729279Y689975D01*
X729265Y689926D01*
X729251Y689877D01*
X729238Y689827D01*
X729224Y689778D01*
X729211Y689729D01*
X729197Y689680D01*
X729184Y689630D01*
X729170Y689581D01*
X729157Y689532D01*
X729156Y689532D01*
X729143Y689483D01*
X729129Y689433D01*
X729084Y689268D01*
X729087Y689260D01*
X729082Y689257D01*
X729031Y688102D01*
X729032Y688101D01*
X729031Y688100D01*
X729031Y682100D01*
X729035Y682094D01*
X729032Y682091D01*
X729244Y681010D01*
X729250Y681005D01*
X729247Y681000D01*
X729694Y679994D01*
X729701Y679990D01*
X729699Y679984D01*
X730359Y679103D01*
X730367Y679100D01*
X730367Y679095D01*
X731206Y678382D01*
X731214Y678382D01*
X731215Y678376D01*
X732192Y677868D01*
X732200Y677869D01*
X732202Y677864D01*
X733267Y677586D01*
X733275Y677589D01*
X733278Y677585D01*
X734379Y677551D01*
X734384Y677555D01*
G37*
G36*
X272104Y4455D02*
X272104Y4455D01*
X272107Y4451D01*
X273183Y4606D01*
X273188Y4612D01*
X273193Y4609D01*
X274207Y4999D01*
X274211Y5006D01*
X274217Y5005D01*
X275119Y5611D01*
X275121Y5619D01*
X275127Y5618D01*
X275871Y6410D01*
X275872Y6418D01*
X275878Y6418D01*
X276427Y7356D01*
X276426Y7364D01*
X276432Y7366D01*
X276759Y8402D01*
X276756Y8410D01*
X276761Y8413D01*
X276849Y9496D01*
X276847Y9499D01*
X276849Y9500D01*
X276849Y15500D01*
X276846Y15504D01*
X276849Y15506D01*
X276699Y16639D01*
X276693Y16645D01*
X276696Y16650D01*
X276298Y17720D01*
X276291Y17724D01*
X276293Y17730D01*
X275666Y18685D01*
X275658Y18688D01*
X275659Y18693D01*
X274836Y19485D01*
X274828Y19486D01*
X274827Y19492D01*
X273848Y20081D01*
X273840Y20080D01*
X273838Y20085D01*
X272753Y20441D01*
X272745Y20439D01*
X272742Y20443D01*
X271605Y20549D01*
X271596Y20544D01*
X271591Y20548D01*
X270454Y20341D01*
X270448Y20335D01*
X270443Y20338D01*
X269381Y19883D01*
X269377Y19876D01*
X269371Y19878D01*
X268436Y19198D01*
X268434Y19190D01*
X268428Y19191D01*
X267668Y18320D01*
X267668Y18312D01*
X267662Y18311D01*
X267115Y17292D01*
X267116Y17284D01*
X267111Y17282D01*
X267107Y17269D01*
X267094Y17220D01*
X267093Y17220D01*
X267094Y17220D01*
X267080Y17171D01*
X267066Y17121D01*
X267053Y17072D01*
X267039Y17023D01*
X267026Y16974D01*
X267012Y16924D01*
X266999Y16875D01*
X266985Y16826D01*
X266971Y16777D01*
X266958Y16727D01*
X266944Y16678D01*
X266931Y16629D01*
X266917Y16580D01*
X266904Y16530D01*
X266890Y16481D01*
X266877Y16432D01*
X266876Y16432D01*
X266863Y16383D01*
X266849Y16333D01*
X266804Y16168D01*
X266807Y16160D01*
X266802Y16157D01*
X266751Y15002D01*
X266752Y15001D01*
X266751Y15000D01*
X266751Y9000D01*
X266755Y8994D01*
X266752Y8991D01*
X266964Y7910D01*
X266970Y7905D01*
X266967Y7900D01*
X267414Y6894D01*
X267421Y6890D01*
X267419Y6884D01*
X268079Y6003D01*
X268087Y6000D01*
X268087Y5995D01*
X268926Y5282D01*
X268934Y5282D01*
X268935Y5276D01*
X269912Y4768D01*
X269920Y4769D01*
X269922Y4764D01*
X270987Y4486D01*
X270995Y4489D01*
X270998Y4485D01*
X272099Y4451D01*
X272104Y4455D01*
G37*
G36*
X734384Y4455D02*
X734384Y4455D01*
X734387Y4451D01*
X735463Y4606D01*
X735468Y4612D01*
X735473Y4609D01*
X736487Y4999D01*
X736491Y5006D01*
X736497Y5005D01*
X737399Y5611D01*
X737401Y5619D01*
X737407Y5618D01*
X738151Y6410D01*
X738152Y6418D01*
X738158Y6418D01*
X738707Y7356D01*
X738706Y7364D01*
X738712Y7366D01*
X739039Y8402D01*
X739036Y8410D01*
X739041Y8413D01*
X739129Y9496D01*
X739127Y9499D01*
X739129Y9500D01*
X739129Y15500D01*
X739126Y15504D01*
X739129Y15506D01*
X738979Y16639D01*
X738973Y16645D01*
X738976Y16650D01*
X738578Y17720D01*
X738571Y17724D01*
X738573Y17730D01*
X737946Y18685D01*
X737938Y18688D01*
X737939Y18693D01*
X737116Y19485D01*
X737108Y19486D01*
X737107Y19492D01*
X736128Y20081D01*
X736120Y20080D01*
X736118Y20085D01*
X735033Y20441D01*
X735025Y20439D01*
X735022Y20443D01*
X733885Y20549D01*
X733876Y20544D01*
X733871Y20548D01*
X732734Y20341D01*
X732728Y20335D01*
X732723Y20338D01*
X731661Y19883D01*
X731657Y19876D01*
X731651Y19878D01*
X730716Y19198D01*
X730714Y19190D01*
X730708Y19191D01*
X729948Y18320D01*
X729948Y18312D01*
X729942Y18311D01*
X729395Y17292D01*
X729396Y17284D01*
X729391Y17282D01*
X729387Y17269D01*
X729374Y17220D01*
X729373Y17220D01*
X729374Y17220D01*
X729360Y17171D01*
X729346Y17121D01*
X729333Y17072D01*
X729319Y17023D01*
X729306Y16974D01*
X729292Y16924D01*
X729279Y16875D01*
X729265Y16826D01*
X729251Y16777D01*
X729238Y16727D01*
X729224Y16678D01*
X729211Y16629D01*
X729197Y16580D01*
X729184Y16530D01*
X729170Y16481D01*
X729157Y16432D01*
X729156Y16432D01*
X729143Y16383D01*
X729129Y16333D01*
X729084Y16168D01*
X729087Y16160D01*
X729082Y16157D01*
X729031Y15002D01*
X729032Y15001D01*
X729031Y15000D01*
X729031Y9000D01*
X729035Y8994D01*
X729032Y8991D01*
X729244Y7910D01*
X729250Y7905D01*
X729247Y7900D01*
X729694Y6894D01*
X729701Y6890D01*
X729699Y6884D01*
X730359Y6003D01*
X730367Y6000D01*
X730367Y5995D01*
X731206Y5282D01*
X731214Y5282D01*
X731215Y5276D01*
X732192Y4768D01*
X732200Y4769D01*
X732202Y4764D01*
X733267Y4486D01*
X733275Y4489D01*
X733278Y4485D01*
X734379Y4451D01*
X734384Y4455D01*
G37*
G36*
X1196664Y4455D02*
X1196664Y4455D01*
X1196667Y4451D01*
X1197743Y4606D01*
X1197748Y4612D01*
X1197753Y4609D01*
X1198767Y4999D01*
X1198771Y5006D01*
X1198777Y5005D01*
X1199679Y5611D01*
X1199681Y5619D01*
X1199687Y5618D01*
X1200431Y6410D01*
X1200432Y6418D01*
X1200438Y6418D01*
X1200987Y7356D01*
X1200986Y7364D01*
X1200992Y7366D01*
X1201319Y8402D01*
X1201316Y8410D01*
X1201321Y8413D01*
X1201409Y9496D01*
X1201407Y9499D01*
X1201409Y9500D01*
X1201409Y15500D01*
X1201406Y15504D01*
X1201409Y15506D01*
X1201259Y16639D01*
X1201253Y16645D01*
X1201256Y16650D01*
X1200858Y17720D01*
X1200851Y17724D01*
X1200853Y17730D01*
X1200226Y18685D01*
X1200218Y18688D01*
X1200219Y18693D01*
X1199396Y19485D01*
X1199388Y19486D01*
X1199387Y19492D01*
X1198408Y20081D01*
X1198400Y20080D01*
X1198398Y20085D01*
X1197313Y20441D01*
X1197305Y20439D01*
X1197302Y20443D01*
X1196165Y20549D01*
X1196156Y20544D01*
X1196151Y20548D01*
X1195014Y20341D01*
X1195008Y20335D01*
X1195003Y20338D01*
X1193941Y19883D01*
X1193937Y19876D01*
X1193931Y19878D01*
X1192996Y19198D01*
X1192994Y19190D01*
X1192988Y19191D01*
X1192228Y18320D01*
X1192228Y18312D01*
X1192222Y18311D01*
X1191675Y17292D01*
X1191676Y17284D01*
X1191671Y17282D01*
X1191667Y17269D01*
X1191654Y17220D01*
X1191653Y17220D01*
X1191654Y17220D01*
X1191640Y17171D01*
X1191626Y17121D01*
X1191613Y17072D01*
X1191599Y17023D01*
X1191586Y16974D01*
X1191572Y16924D01*
X1191559Y16875D01*
X1191545Y16826D01*
X1191531Y16777D01*
X1191518Y16727D01*
X1191504Y16678D01*
X1191491Y16629D01*
X1191477Y16580D01*
X1191464Y16530D01*
X1191450Y16481D01*
X1191437Y16432D01*
X1191436Y16432D01*
X1191423Y16383D01*
X1191409Y16333D01*
X1191364Y16168D01*
X1191367Y16160D01*
X1191362Y16157D01*
X1191311Y15002D01*
X1191312Y15001D01*
X1191311Y15000D01*
X1191311Y9000D01*
X1191315Y8994D01*
X1191312Y8991D01*
X1191524Y7910D01*
X1191530Y7905D01*
X1191527Y7900D01*
X1191974Y6894D01*
X1191981Y6890D01*
X1191979Y6884D01*
X1192639Y6003D01*
X1192647Y6000D01*
X1192647Y5995D01*
X1193486Y5282D01*
X1193494Y5282D01*
X1193495Y5276D01*
X1194472Y4768D01*
X1194480Y4769D01*
X1194482Y4764D01*
X1195547Y4486D01*
X1195555Y4489D01*
X1195558Y4485D01*
X1196659Y4451D01*
X1196664Y4455D01*
G37*
G36*
X1110162Y677555D02*
X1110162Y677555D01*
X1110167Y677551D01*
X1111254Y677696D01*
X1111260Y677702D01*
X1111265Y677699D01*
X1112293Y678083D01*
X1112298Y678089D01*
X1112303Y678088D01*
X1113220Y678690D01*
X1113223Y678698D01*
X1113229Y678697D01*
X1113989Y679489D01*
X1113990Y679497D01*
X1113996Y679498D01*
X1114560Y680439D01*
X1114560Y680442D01*
X1114561Y680443D01*
X1114560Y680445D01*
X1114559Y680447D01*
X1114565Y680449D01*
X1114906Y681492D01*
X1114904Y681500D01*
X1114908Y681503D01*
X1115009Y682596D01*
X1115007Y682598D01*
X1115009Y682600D01*
X1115009Y688600D01*
X1115007Y688603D01*
X1115009Y688605D01*
X1114908Y689697D01*
X1114903Y689703D01*
X1114906Y689708D01*
X1114565Y690751D01*
X1114558Y690756D01*
X1114560Y690761D01*
X1113996Y691702D01*
X1113988Y691705D01*
X1113989Y691711D01*
X1113229Y692503D01*
X1113221Y692504D01*
X1113220Y692510D01*
X1112303Y693113D01*
X1112295Y693112D01*
X1112293Y693118D01*
X1111265Y693501D01*
X1111257Y693499D01*
X1111254Y693504D01*
X1110167Y693649D01*
X1110159Y693645D01*
X1110155Y693649D01*
X1109018Y693543D01*
X1109012Y693538D01*
X1109007Y693541D01*
X1107922Y693185D01*
X1107917Y693178D01*
X1107912Y693181D01*
X1106933Y692592D01*
X1106930Y692584D01*
X1106924Y692585D01*
X1106101Y691793D01*
X1106100Y691785D01*
X1106094Y691785D01*
X1105467Y690830D01*
X1105468Y690822D01*
X1105462Y690820D01*
X1105064Y689750D01*
X1105066Y689742D01*
X1105061Y689739D01*
X1104911Y688606D01*
X1104914Y688602D01*
X1104911Y688600D01*
X1104911Y682600D01*
X1104914Y682596D01*
X1104911Y682594D01*
X1105061Y681461D01*
X1105067Y681455D01*
X1105064Y681450D01*
X1105462Y680380D01*
X1105469Y680376D01*
X1105467Y680370D01*
X1106094Y679415D01*
X1106102Y679412D01*
X1106101Y679407D01*
X1106924Y678615D01*
X1106932Y678614D01*
X1106933Y678608D01*
X1107912Y678019D01*
X1107920Y678020D01*
X1107922Y678015D01*
X1109007Y677659D01*
X1109015Y677662D01*
X1109018Y677657D01*
X1110155Y677551D01*
X1110162Y677555D01*
G37*
G36*
X185602Y677555D02*
X185602Y677555D01*
X185607Y677551D01*
X186694Y677696D01*
X186700Y677702D01*
X186705Y677699D01*
X187733Y678083D01*
X187738Y678089D01*
X187743Y678088D01*
X188660Y678690D01*
X188663Y678698D01*
X188669Y678697D01*
X189429Y679489D01*
X189430Y679497D01*
X189436Y679498D01*
X190000Y680439D01*
X190000Y680442D01*
X190001Y680443D01*
X190000Y680445D01*
X189999Y680447D01*
X190005Y680449D01*
X190346Y681492D01*
X190344Y681500D01*
X190348Y681503D01*
X190449Y682596D01*
X190447Y682598D01*
X190449Y682600D01*
X190449Y688600D01*
X190447Y688603D01*
X190449Y688605D01*
X190348Y689697D01*
X190343Y689703D01*
X190346Y689708D01*
X190005Y690751D01*
X189998Y690756D01*
X190000Y690761D01*
X189436Y691702D01*
X189428Y691705D01*
X189429Y691711D01*
X188669Y692503D01*
X188661Y692504D01*
X188660Y692510D01*
X187743Y693113D01*
X187735Y693112D01*
X187733Y693118D01*
X186705Y693501D01*
X186697Y693499D01*
X186694Y693504D01*
X185607Y693649D01*
X185599Y693645D01*
X185595Y693649D01*
X184458Y693543D01*
X184452Y693538D01*
X184447Y693541D01*
X183362Y693185D01*
X183357Y693178D01*
X183352Y693181D01*
X182373Y692592D01*
X182370Y692584D01*
X182364Y692585D01*
X181541Y691793D01*
X181540Y691785D01*
X181534Y691785D01*
X180907Y690830D01*
X180908Y690822D01*
X180902Y690820D01*
X180504Y689750D01*
X180506Y689742D01*
X180501Y689739D01*
X180351Y688606D01*
X180354Y688602D01*
X180351Y688600D01*
X180351Y682600D01*
X180354Y682596D01*
X180351Y682594D01*
X180501Y681461D01*
X180507Y681455D01*
X180504Y681450D01*
X180902Y680380D01*
X180909Y680376D01*
X180907Y680370D01*
X181534Y679415D01*
X181542Y679412D01*
X181541Y679407D01*
X182364Y678615D01*
X182372Y678614D01*
X182373Y678608D01*
X183352Y678019D01*
X183360Y678020D01*
X183362Y678015D01*
X184447Y677659D01*
X184455Y677662D01*
X184458Y677657D01*
X185595Y677551D01*
X185602Y677555D01*
G37*
G36*
X647882Y677555D02*
X647882Y677555D01*
X647887Y677551D01*
X648974Y677696D01*
X648980Y677702D01*
X648985Y677699D01*
X650013Y678083D01*
X650018Y678089D01*
X650023Y678088D01*
X650940Y678690D01*
X650943Y678698D01*
X650949Y678697D01*
X651709Y679489D01*
X651710Y679497D01*
X651716Y679498D01*
X652280Y680439D01*
X652280Y680442D01*
X652281Y680443D01*
X652280Y680445D01*
X652279Y680447D01*
X652285Y680449D01*
X652626Y681492D01*
X652624Y681500D01*
X652628Y681503D01*
X652729Y682596D01*
X652727Y682598D01*
X652729Y682600D01*
X652729Y688600D01*
X652727Y688603D01*
X652729Y688605D01*
X652628Y689697D01*
X652623Y689703D01*
X652626Y689708D01*
X652285Y690751D01*
X652278Y690756D01*
X652280Y690761D01*
X651716Y691702D01*
X651708Y691705D01*
X651709Y691711D01*
X650949Y692503D01*
X650941Y692504D01*
X650940Y692510D01*
X650023Y693113D01*
X650015Y693112D01*
X650013Y693118D01*
X648985Y693501D01*
X648977Y693499D01*
X648974Y693504D01*
X647887Y693649D01*
X647879Y693645D01*
X647875Y693649D01*
X646738Y693543D01*
X646732Y693538D01*
X646727Y693541D01*
X645642Y693185D01*
X645637Y693178D01*
X645632Y693181D01*
X644653Y692592D01*
X644650Y692584D01*
X644644Y692585D01*
X643821Y691793D01*
X643820Y691785D01*
X643814Y691785D01*
X643187Y690830D01*
X643188Y690822D01*
X643182Y690820D01*
X642784Y689750D01*
X642786Y689742D01*
X642781Y689739D01*
X642631Y688606D01*
X642634Y688602D01*
X642631Y688600D01*
X642631Y682600D01*
X642634Y682596D01*
X642631Y682594D01*
X642781Y681461D01*
X642787Y681455D01*
X642784Y681450D01*
X643182Y680380D01*
X643189Y680376D01*
X643187Y680370D01*
X643814Y679415D01*
X643822Y679412D01*
X643821Y679407D01*
X644644Y678615D01*
X644652Y678614D01*
X644653Y678608D01*
X645632Y678019D01*
X645640Y678020D01*
X645642Y678015D01*
X646727Y677659D01*
X646735Y677662D01*
X646738Y677657D01*
X647875Y677551D01*
X647882Y677555D01*
G37*
G36*
X185602Y4455D02*
X185602Y4455D01*
X185607Y4451D01*
X186694Y4596D01*
X186700Y4602D01*
X186705Y4599D01*
X187733Y4983D01*
X187738Y4989D01*
X187743Y4988D01*
X188660Y5590D01*
X188663Y5598D01*
X188669Y5597D01*
X189429Y6389D01*
X189430Y6397D01*
X189436Y6398D01*
X190000Y7339D01*
X190000Y7342D01*
X190001Y7343D01*
X190000Y7345D01*
X189999Y7347D01*
X190005Y7349D01*
X190346Y8392D01*
X190344Y8400D01*
X190348Y8403D01*
X190449Y9496D01*
X190447Y9498D01*
X190449Y9500D01*
X190449Y15500D01*
X190447Y15503D01*
X190449Y15505D01*
X190348Y16597D01*
X190343Y16603D01*
X190346Y16608D01*
X190005Y17651D01*
X189998Y17656D01*
X190000Y17661D01*
X189436Y18602D01*
X189428Y18605D01*
X189429Y18611D01*
X188669Y19403D01*
X188661Y19404D01*
X188660Y19410D01*
X187743Y20013D01*
X187735Y20012D01*
X187733Y20018D01*
X186705Y20401D01*
X186697Y20399D01*
X186694Y20404D01*
X185607Y20549D01*
X185599Y20545D01*
X185595Y20549D01*
X184458Y20443D01*
X184452Y20438D01*
X184447Y20441D01*
X183362Y20085D01*
X183357Y20078D01*
X183352Y20081D01*
X182373Y19492D01*
X182370Y19484D01*
X182364Y19485D01*
X181541Y18693D01*
X181540Y18685D01*
X181534Y18685D01*
X180907Y17730D01*
X180908Y17722D01*
X180902Y17720D01*
X180504Y16650D01*
X180506Y16642D01*
X180501Y16639D01*
X180351Y15506D01*
X180354Y15502D01*
X180351Y15500D01*
X180351Y9500D01*
X180354Y9496D01*
X180351Y9494D01*
X180501Y8361D01*
X180507Y8355D01*
X180504Y8350D01*
X180902Y7280D01*
X180909Y7276D01*
X180907Y7270D01*
X181534Y6315D01*
X181542Y6312D01*
X181541Y6307D01*
X182364Y5515D01*
X182372Y5514D01*
X182373Y5508D01*
X183352Y4919D01*
X183360Y4920D01*
X183362Y4915D01*
X184447Y4559D01*
X184455Y4562D01*
X184458Y4557D01*
X185595Y4451D01*
X185602Y4455D01*
G37*
G36*
X1110162Y4455D02*
X1110162Y4455D01*
X1110167Y4451D01*
X1111254Y4596D01*
X1111260Y4602D01*
X1111265Y4599D01*
X1112293Y4983D01*
X1112298Y4989D01*
X1112303Y4988D01*
X1113220Y5590D01*
X1113223Y5598D01*
X1113229Y5597D01*
X1113989Y6389D01*
X1113990Y6397D01*
X1113996Y6398D01*
X1114560Y7339D01*
X1114560Y7342D01*
X1114561Y7343D01*
X1114560Y7345D01*
X1114559Y7347D01*
X1114565Y7349D01*
X1114906Y8392D01*
X1114904Y8400D01*
X1114908Y8403D01*
X1115009Y9496D01*
X1115007Y9498D01*
X1115009Y9500D01*
X1115009Y15500D01*
X1115007Y15503D01*
X1115009Y15505D01*
X1114908Y16597D01*
X1114903Y16603D01*
X1114906Y16608D01*
X1114565Y17651D01*
X1114558Y17656D01*
X1114560Y17661D01*
X1113996Y18602D01*
X1113988Y18605D01*
X1113989Y18611D01*
X1113229Y19403D01*
X1113221Y19404D01*
X1113220Y19410D01*
X1112303Y20013D01*
X1112295Y20012D01*
X1112293Y20018D01*
X1111265Y20401D01*
X1111257Y20399D01*
X1111254Y20404D01*
X1110167Y20549D01*
X1110159Y20545D01*
X1110155Y20549D01*
X1109018Y20443D01*
X1109012Y20438D01*
X1109007Y20441D01*
X1107922Y20085D01*
X1107917Y20078D01*
X1107912Y20081D01*
X1106933Y19492D01*
X1106930Y19484D01*
X1106924Y19485D01*
X1106101Y18693D01*
X1106100Y18685D01*
X1106094Y18685D01*
X1105467Y17730D01*
X1105468Y17722D01*
X1105462Y17720D01*
X1105064Y16650D01*
X1105066Y16642D01*
X1105061Y16639D01*
X1104911Y15506D01*
X1104914Y15502D01*
X1104911Y15500D01*
X1104911Y9500D01*
X1104914Y9496D01*
X1104911Y9494D01*
X1105061Y8361D01*
X1105067Y8355D01*
X1105064Y8350D01*
X1105462Y7280D01*
X1105469Y7276D01*
X1105467Y7270D01*
X1106094Y6315D01*
X1106102Y6312D01*
X1106101Y6307D01*
X1106924Y5515D01*
X1106932Y5514D01*
X1106933Y5508D01*
X1107912Y4919D01*
X1107920Y4920D01*
X1107922Y4915D01*
X1109007Y4559D01*
X1109015Y4562D01*
X1109018Y4557D01*
X1110155Y4451D01*
X1110162Y4455D01*
G37*
G36*
X647882Y4455D02*
X647882Y4455D01*
X647887Y4451D01*
X648974Y4596D01*
X648980Y4602D01*
X648985Y4599D01*
X650013Y4983D01*
X650018Y4989D01*
X650023Y4988D01*
X650940Y5590D01*
X650943Y5598D01*
X650949Y5597D01*
X651709Y6389D01*
X651710Y6397D01*
X651716Y6398D01*
X652280Y7339D01*
X652280Y7342D01*
X652281Y7343D01*
X652280Y7345D01*
X652279Y7347D01*
X652285Y7349D01*
X652626Y8392D01*
X652624Y8400D01*
X652628Y8403D01*
X652729Y9496D01*
X652727Y9498D01*
X652729Y9500D01*
X652729Y15500D01*
X652727Y15503D01*
X652729Y15505D01*
X652628Y16597D01*
X652623Y16603D01*
X652626Y16608D01*
X652285Y17651D01*
X652278Y17656D01*
X652280Y17661D01*
X651716Y18602D01*
X651708Y18605D01*
X651709Y18611D01*
X650949Y19403D01*
X650941Y19404D01*
X650940Y19410D01*
X650023Y20013D01*
X650015Y20012D01*
X650013Y20018D01*
X648985Y20401D01*
X648977Y20399D01*
X648974Y20404D01*
X647887Y20549D01*
X647879Y20545D01*
X647875Y20549D01*
X646738Y20443D01*
X646732Y20438D01*
X646727Y20441D01*
X645642Y20085D01*
X645637Y20078D01*
X645632Y20081D01*
X644653Y19492D01*
X644650Y19484D01*
X644644Y19485D01*
X643821Y18693D01*
X643820Y18685D01*
X643814Y18685D01*
X643187Y17730D01*
X643188Y17722D01*
X643182Y17720D01*
X642784Y16650D01*
X642786Y16642D01*
X642781Y16639D01*
X642631Y15506D01*
X642634Y15502D01*
X642631Y15500D01*
X642631Y9500D01*
X642634Y9496D01*
X642631Y9494D01*
X642781Y8361D01*
X642787Y8355D01*
X642784Y8350D01*
X643182Y7280D01*
X643189Y7276D01*
X643187Y7270D01*
X643814Y6315D01*
X643822Y6312D01*
X643821Y6307D01*
X644644Y5515D01*
X644652Y5514D01*
X644653Y5508D01*
X645632Y4919D01*
X645640Y4920D01*
X645642Y4915D01*
X646727Y4559D01*
X646735Y4562D01*
X646738Y4557D01*
X647875Y4451D01*
X647882Y4455D01*
G37*
D10*
X236100Y60100D03*
X231100Y60100D03*
D11*
X260850Y60100D03*
X253100Y60100D03*
D10*
X246100Y60100D03*
X241100Y60100D03*
X221100Y60100D03*
X226100Y60100D03*
D11*
X196350Y60100D03*
X204100Y60100D03*
D10*
X211100Y60100D03*
X216100Y60100D03*
D12*
X171450Y40250D03*
X171450Y23250D03*
X285750Y40250D03*
X285750Y23250D03*
D13*
X14050Y256600D03*
X14050Y200600D03*
D14*
X50800Y243600D03*
X50800Y233600D03*
X50800Y223600D03*
X50800Y213600D03*
D15*
X414900Y304800D03*
X397900Y304800D03*
X414900Y330200D03*
X397900Y330200D03*
D16*
X444500Y180340D03*
X444500Y124460D03*
X406400Y180340D03*
X406400Y124460D03*
D17*
X15900Y113999D03*
X25400Y113999D03*
X34900Y113999D03*
X34900Y140001D03*
X15900Y140001D03*
D15*
X33900Y177800D03*
X16900Y177800D03*
D12*
X38100Y97400D03*
X38100Y80400D03*
D15*
X33900Y158750D03*
X16900Y158750D03*
D18*
X20130Y67000D02*
X20130Y60000D01*
X13130Y60000D01*
X13130Y67000D01*
X20130Y67000D01*
X20130Y62850D02*
X13130Y62850D01*
X13130Y65700D02*
X20130Y65700D01*
X37670Y67000D02*
X37670Y60000D01*
X30670Y60000D01*
X30670Y67000D01*
X37670Y67000D01*
X37670Y62850D02*
X30670Y62850D01*
X30670Y65700D02*
X37670Y65700D01*
D12*
X12700Y97400D03*
X12700Y80400D03*
D19*
X111600Y75100D03*
X91600Y75100D03*
D20*
X135600Y23100D03*
X67600Y23100D03*
D15*
X84700Y190500D03*
X67700Y190500D03*
X84700Y171450D03*
X67700Y171450D03*
X84700Y152400D03*
X67700Y152400D03*
X423300Y101600D03*
X440300Y101600D03*
D18*
X437070Y92400D02*
X437070Y85400D01*
X437070Y92400D02*
X444070Y92400D01*
X444070Y85400D01*
X437070Y85400D01*
X437070Y88250D02*
X444070Y88250D01*
X444070Y91100D02*
X437070Y91100D01*
X419530Y92400D02*
X419530Y85400D01*
X419530Y92400D02*
X426530Y92400D01*
X426530Y85400D01*
X419530Y85400D01*
X419530Y88250D02*
X426530Y88250D01*
X426530Y91100D02*
X419530Y91100D01*
D21*
X332100Y132800D03*
X125100Y132800D03*
D22*
X138600Y200550D03*
X148600Y200550D03*
X153600Y200550D03*
X143600Y200550D03*
X158600Y200550D03*
X168600Y200550D03*
X173600Y200550D03*
X163600Y200550D03*
X178600Y200550D03*
X188600Y200550D03*
X193600Y200550D03*
X183600Y200550D03*
X198600Y200550D03*
X208600Y200550D03*
X213600Y200550D03*
X203600Y200550D03*
X218600Y200550D03*
X228600Y200550D03*
X233600Y200550D03*
X223600Y200550D03*
X238600Y200550D03*
X243600Y200550D03*
X268600Y200550D03*
X273600Y200550D03*
X278600Y200550D03*
X288600Y200550D03*
X293600Y200550D03*
X283600Y200550D03*
X298600Y200550D03*
X308600Y200550D03*
X313600Y200550D03*
X303600Y200550D03*
X318600Y200550D03*
X136100Y125050D03*
X146100Y125050D03*
X151100Y125050D03*
X141100Y125050D03*
X156100Y125050D03*
X166100Y125050D03*
X171100Y125050D03*
X161100Y125050D03*
X176100Y125050D03*
X186100Y125050D03*
X191100Y125050D03*
X181100Y125050D03*
X196100Y125050D03*
X206100Y125050D03*
X211100Y125050D03*
X201100Y125050D03*
X216100Y125050D03*
X226100Y125050D03*
X231100Y125050D03*
X221100Y125050D03*
X236100Y125050D03*
X241100Y125050D03*
X266100Y125050D03*
X271100Y125050D03*
X276100Y125050D03*
X286100Y125050D03*
X291100Y125050D03*
X281100Y125050D03*
X296100Y125050D03*
X306100Y125050D03*
X311100Y125050D03*
X301100Y125050D03*
X316100Y125050D03*
X321100Y125050D03*
D15*
X397900Y355600D03*
X414900Y355600D03*
D13*
X443150Y200600D03*
X443150Y256600D03*
D14*
X406400Y213600D03*
X406400Y223600D03*
X406400Y233600D03*
X406400Y243600D03*
D23*
X406400Y468850D03*
X406400Y496350D03*
D24*
X391150Y482600D03*
X421650Y482600D03*
D23*
X406400Y405350D03*
X406400Y432850D03*
D24*
X391150Y419100D03*
X421650Y419100D03*
D25*
X228600Y100400D03*
X228600Y77400D03*
X203200Y100400D03*
X203200Y77400D03*
X254000Y100400D03*
X254000Y77400D03*
D26*
X59700Y127000D03*
X92700Y127000D03*
D27*
X127000Y515000D03*
D28*
X83950Y561900D03*
X170050Y561900D03*
D27*
X330200Y515000D03*
D28*
X287150Y561900D03*
X373250Y561900D03*
D17*
X358800Y152099D03*
X368300Y152099D03*
X377800Y152099D03*
X377800Y178101D03*
X358800Y178101D03*
D15*
X359800Y133350D03*
X376800Y133350D03*
X359800Y196850D03*
X376800Y196850D03*
D10*
X698380Y60100D03*
X693380Y60100D03*
D11*
X723130Y60100D03*
X715380Y60100D03*
D10*
X708380Y60100D03*
X703380Y60100D03*
X683380Y60100D03*
X688380Y60100D03*
D11*
X658630Y60100D03*
X666380Y60100D03*
D10*
X673380Y60100D03*
X678380Y60100D03*
D12*
X633730Y40250D03*
X633730Y23250D03*
X748030Y40250D03*
X748030Y23250D03*
D13*
X476330Y256600D03*
X476330Y200600D03*
D14*
X513080Y243600D03*
X513080Y233600D03*
X513080Y223600D03*
X513080Y213600D03*
D15*
X877180Y304800D03*
X860180Y304800D03*
X877180Y330200D03*
X860180Y330200D03*
D16*
X906780Y180340D03*
X906780Y124460D03*
X868680Y180340D03*
X868680Y124460D03*
D17*
X478180Y113999D03*
X487680Y113999D03*
X497180Y113999D03*
X497180Y140001D03*
X478180Y140001D03*
D15*
X496180Y177800D03*
X479180Y177800D03*
D12*
X500380Y97400D03*
X500380Y80400D03*
D15*
X496180Y158750D03*
X479180Y158750D03*
D18*
X482410Y67000D02*
X482410Y60000D01*
X475410Y60000D01*
X475410Y67000D01*
X482410Y67000D01*
X482410Y62850D02*
X475410Y62850D01*
X475410Y65700D02*
X482410Y65700D01*
X499950Y67000D02*
X499950Y60000D01*
X492950Y60000D01*
X492950Y67000D01*
X499950Y67000D01*
X499950Y62850D02*
X492950Y62850D01*
X492950Y65700D02*
X499950Y65700D01*
D12*
X474980Y97400D03*
X474980Y80400D03*
D19*
X573880Y75100D03*
X553880Y75100D03*
D20*
X597880Y23100D03*
X529880Y23100D03*
D15*
X546980Y190500D03*
X529980Y190500D03*
X546980Y171450D03*
X529980Y171450D03*
X546980Y152400D03*
X529980Y152400D03*
X885580Y101600D03*
X902580Y101600D03*
D18*
X899350Y92400D02*
X899350Y85400D01*
X899350Y92400D02*
X906350Y92400D01*
X906350Y85400D01*
X899350Y85400D01*
X899350Y88250D02*
X906350Y88250D01*
X906350Y91100D02*
X899350Y91100D01*
X881810Y92400D02*
X881810Y85400D01*
X881810Y92400D02*
X888810Y92400D01*
X888810Y85400D01*
X881810Y85400D01*
X881810Y88250D02*
X888810Y88250D01*
X888810Y91100D02*
X881810Y91100D01*
D21*
X794380Y132800D03*
X587380Y132800D03*
D22*
X600880Y200550D03*
X610880Y200550D03*
X615880Y200550D03*
X605880Y200550D03*
X620880Y200550D03*
X630880Y200550D03*
X635880Y200550D03*
X625880Y200550D03*
X640880Y200550D03*
X650880Y200550D03*
X655880Y200550D03*
X645880Y200550D03*
X660880Y200550D03*
X670880Y200550D03*
X675880Y200550D03*
X665880Y200550D03*
X680880Y200550D03*
X690880Y200550D03*
X695880Y200550D03*
X685880Y200550D03*
X700880Y200550D03*
X705880Y200550D03*
X730880Y200550D03*
X735880Y200550D03*
X740880Y200550D03*
X750880Y200550D03*
X755880Y200550D03*
X745880Y200550D03*
X760880Y200550D03*
X770880Y200550D03*
X775880Y200550D03*
X765880Y200550D03*
X780880Y200550D03*
X598380Y125050D03*
X608380Y125050D03*
X613380Y125050D03*
X603380Y125050D03*
X618380Y125050D03*
X628380Y125050D03*
X633380Y125050D03*
X623380Y125050D03*
X638380Y125050D03*
X648380Y125050D03*
X653380Y125050D03*
X643380Y125050D03*
X658380Y125050D03*
X668380Y125050D03*
X673380Y125050D03*
X663380Y125050D03*
X678380Y125050D03*
X688380Y125050D03*
X693380Y125050D03*
X683380Y125050D03*
X698380Y125050D03*
X703380Y125050D03*
X728380Y125050D03*
X733380Y125050D03*
X738380Y125050D03*
X748380Y125050D03*
X753380Y125050D03*
X743380Y125050D03*
X758380Y125050D03*
X768380Y125050D03*
X773380Y125050D03*
X763380Y125050D03*
X778380Y125050D03*
X783380Y125050D03*
D15*
X860180Y355600D03*
X877180Y355600D03*
D13*
X905430Y200600D03*
X905430Y256600D03*
D14*
X868680Y213600D03*
X868680Y223600D03*
X868680Y233600D03*
X868680Y243600D03*
D23*
X868680Y468850D03*
X868680Y496350D03*
D24*
X853430Y482600D03*
X883930Y482600D03*
D23*
X868680Y405350D03*
X868680Y432850D03*
D24*
X853430Y419100D03*
X883930Y419100D03*
D25*
X690880Y100400D03*
X690880Y77400D03*
X665480Y100400D03*
X665480Y77400D03*
X716280Y100400D03*
X716280Y77400D03*
D26*
X521980Y127000D03*
X554980Y127000D03*
D27*
X589280Y515000D03*
D28*
X546230Y561900D03*
X632330Y561900D03*
D27*
X792480Y515000D03*
D28*
X749430Y561900D03*
X835530Y561900D03*
D17*
X821080Y152099D03*
X830580Y152099D03*
X840080Y152099D03*
X840080Y178101D03*
X821080Y178101D03*
D15*
X822080Y133350D03*
X839080Y133350D03*
X822080Y196850D03*
X839080Y196850D03*
D10*
X1160660Y60100D03*
X1155660Y60100D03*
D11*
X1185410Y60100D03*
X1177660Y60100D03*
D10*
X1170660Y60100D03*
X1165660Y60100D03*
X1145660Y60100D03*
X1150660Y60100D03*
D11*
X1120910Y60100D03*
X1128660Y60100D03*
D10*
X1135660Y60100D03*
X1140660Y60100D03*
D12*
X1096010Y40250D03*
X1096010Y23250D03*
X1210310Y40250D03*
X1210310Y23250D03*
D13*
X938610Y256600D03*
X938610Y200600D03*
D14*
X975360Y243600D03*
X975360Y233600D03*
X975360Y223600D03*
X975360Y213600D03*
D15*
X1339460Y304800D03*
X1322460Y304800D03*
X1339460Y330200D03*
X1322460Y330200D03*
D16*
X1369060Y180340D03*
X1369060Y124460D03*
X1330960Y180340D03*
X1330960Y124460D03*
D17*
X940460Y113999D03*
X949960Y113999D03*
X959460Y113999D03*
X959460Y140001D03*
X940460Y140001D03*
D15*
X958460Y177800D03*
X941460Y177800D03*
D12*
X962660Y97400D03*
X962660Y80400D03*
D15*
X958460Y158750D03*
X941460Y158750D03*
D18*
X944690Y67000D02*
X944690Y60000D01*
X937690Y60000D01*
X937690Y67000D01*
X944690Y67000D01*
X944690Y62850D02*
X937690Y62850D01*
X937690Y65700D02*
X944690Y65700D01*
X962230Y67000D02*
X962230Y60000D01*
X955230Y60000D01*
X955230Y67000D01*
X962230Y67000D01*
X962230Y62850D02*
X955230Y62850D01*
X955230Y65700D02*
X962230Y65700D01*
D12*
X937260Y97400D03*
X937260Y80400D03*
D19*
X1036160Y75100D03*
X1016160Y75100D03*
D20*
X1060160Y23100D03*
X992160Y23100D03*
D15*
X1009260Y190500D03*
X992260Y190500D03*
X1009260Y171450D03*
X992260Y171450D03*
X1009260Y152400D03*
X992260Y152400D03*
X1347860Y101600D03*
X1364860Y101600D03*
D18*
X1361630Y92400D02*
X1361630Y85400D01*
X1361630Y92400D02*
X1368630Y92400D01*
X1368630Y85400D01*
X1361630Y85400D01*
X1361630Y88250D02*
X1368630Y88250D01*
X1368630Y91100D02*
X1361630Y91100D01*
X1344090Y92400D02*
X1344090Y85400D01*
X1344090Y92400D02*
X1351090Y92400D01*
X1351090Y85400D01*
X1344090Y85400D01*
X1344090Y88250D02*
X1351090Y88250D01*
X1351090Y91100D02*
X1344090Y91100D01*
D21*
X1256660Y132800D03*
X1049660Y132800D03*
D22*
X1063160Y200550D03*
X1073160Y200550D03*
X1078160Y200550D03*
X1068160Y200550D03*
X1083160Y200550D03*
X1093160Y200550D03*
X1098160Y200550D03*
X1088160Y200550D03*
X1103160Y200550D03*
X1113160Y200550D03*
X1118160Y200550D03*
X1108160Y200550D03*
X1123160Y200550D03*
X1133160Y200550D03*
X1138160Y200550D03*
X1128160Y200550D03*
X1143160Y200550D03*
X1153160Y200550D03*
X1158160Y200550D03*
X1148160Y200550D03*
X1163160Y200550D03*
X1168160Y200550D03*
X1193160Y200550D03*
X1198160Y200550D03*
X1203160Y200550D03*
X1213160Y200550D03*
X1218160Y200550D03*
X1208160Y200550D03*
X1223160Y200550D03*
X1233160Y200550D03*
X1238160Y200550D03*
X1228160Y200550D03*
X1243160Y200550D03*
X1060660Y125050D03*
X1070660Y125050D03*
X1075660Y125050D03*
X1065660Y125050D03*
X1080660Y125050D03*
X1090660Y125050D03*
X1095660Y125050D03*
X1085660Y125050D03*
X1100660Y125050D03*
X1110660Y125050D03*
X1115660Y125050D03*
X1105660Y125050D03*
X1120660Y125050D03*
X1130660Y125050D03*
X1135660Y125050D03*
X1125660Y125050D03*
X1140660Y125050D03*
X1150660Y125050D03*
X1155660Y125050D03*
X1145660Y125050D03*
X1160660Y125050D03*
X1165660Y125050D03*
X1190660Y125050D03*
X1195660Y125050D03*
X1200660Y125050D03*
X1210660Y125050D03*
X1215660Y125050D03*
X1205660Y125050D03*
X1220660Y125050D03*
X1230660Y125050D03*
X1235660Y125050D03*
X1225660Y125050D03*
X1240660Y125050D03*
X1245660Y125050D03*
D15*
X1322460Y355600D03*
X1339460Y355600D03*
D13*
X1367710Y200600D03*
X1367710Y256600D03*
D14*
X1330960Y213600D03*
X1330960Y223600D03*
X1330960Y233600D03*
X1330960Y243600D03*
D23*
X1330960Y468850D03*
X1330960Y496350D03*
D24*
X1315710Y482600D03*
X1346210Y482600D03*
D23*
X1330960Y405350D03*
X1330960Y432850D03*
D24*
X1315710Y419100D03*
X1346210Y419100D03*
D25*
X1153160Y100400D03*
X1153160Y77400D03*
X1127760Y100400D03*
X1127760Y77400D03*
X1178560Y100400D03*
X1178560Y77400D03*
D26*
X984260Y127000D03*
X1017260Y127000D03*
D27*
X1051560Y515000D03*
D28*
X1008510Y561900D03*
X1094610Y561900D03*
D27*
X1254760Y515000D03*
D28*
X1211710Y561900D03*
X1297810Y561900D03*
D17*
X1283360Y152099D03*
X1292860Y152099D03*
X1302360Y152099D03*
X1302360Y178101D03*
X1283360Y178101D03*
D15*
X1284360Y133350D03*
X1301360Y133350D03*
X1284360Y196850D03*
X1301360Y196850D03*
D10*
X236100Y733200D03*
X231100Y733200D03*
D11*
X260850Y733200D03*
X253100Y733200D03*
D10*
X246100Y733200D03*
X241100Y733200D03*
X221100Y733200D03*
X226100Y733200D03*
D11*
X196350Y733200D03*
X204100Y733200D03*
D10*
X211100Y733200D03*
X216100Y733200D03*
D12*
X171450Y713350D03*
X171450Y696350D03*
X285750Y713350D03*
X285750Y696350D03*
D13*
X14050Y929700D03*
X14050Y873700D03*
D14*
X50800Y916700D03*
X50800Y906700D03*
X50800Y896700D03*
X50800Y886700D03*
D15*
X414900Y977900D03*
X397900Y977900D03*
X414900Y1003300D03*
X397900Y1003300D03*
D16*
X444500Y853440D03*
X444500Y797560D03*
X406400Y853440D03*
X406400Y797560D03*
D17*
X15900Y787099D03*
X25400Y787099D03*
X34900Y787099D03*
X34900Y813101D03*
X15900Y813101D03*
D15*
X33900Y850900D03*
X16900Y850900D03*
D12*
X38100Y770500D03*
X38100Y753500D03*
D15*
X33900Y831850D03*
X16900Y831850D03*
D18*
X20130Y740100D02*
X20130Y733100D01*
X13130Y733100D01*
X13130Y740100D01*
X20130Y740100D01*
X20130Y735950D02*
X13130Y735950D01*
X13130Y738800D02*
X20130Y738800D01*
X37670Y740100D02*
X37670Y733100D01*
X30670Y733100D01*
X30670Y740100D01*
X37670Y740100D01*
X37670Y735950D02*
X30670Y735950D01*
X30670Y738800D02*
X37670Y738800D01*
D12*
X12700Y770500D03*
X12700Y753500D03*
D19*
X111600Y748200D03*
X91600Y748200D03*
D20*
X135600Y696200D03*
X67600Y696200D03*
D15*
X84700Y863600D03*
X67700Y863600D03*
X84700Y844550D03*
X67700Y844550D03*
X84700Y825500D03*
X67700Y825500D03*
X423300Y774700D03*
X440300Y774700D03*
D18*
X437070Y765500D02*
X437070Y758500D01*
X437070Y765500D02*
X444070Y765500D01*
X444070Y758500D01*
X437070Y758500D01*
X437070Y761350D02*
X444070Y761350D01*
X444070Y764200D02*
X437070Y764200D01*
X419530Y765500D02*
X419530Y758500D01*
X419530Y765500D02*
X426530Y765500D01*
X426530Y758500D01*
X419530Y758500D01*
X419530Y761350D02*
X426530Y761350D01*
X426530Y764200D02*
X419530Y764200D01*
D21*
X332100Y805900D03*
X125100Y805900D03*
D22*
X138600Y873650D03*
X148600Y873650D03*
X153600Y873650D03*
X143600Y873650D03*
X158600Y873650D03*
X168600Y873650D03*
X173600Y873650D03*
X163600Y873650D03*
X178600Y873650D03*
X188600Y873650D03*
X193600Y873650D03*
X183600Y873650D03*
X198600Y873650D03*
X208600Y873650D03*
X213600Y873650D03*
X203600Y873650D03*
X218600Y873650D03*
X228600Y873650D03*
X233600Y873650D03*
X223600Y873650D03*
X238600Y873650D03*
X243600Y873650D03*
X268600Y873650D03*
X273600Y873650D03*
X278600Y873650D03*
X288600Y873650D03*
X293600Y873650D03*
X283600Y873650D03*
X298600Y873650D03*
X308600Y873650D03*
X313600Y873650D03*
X303600Y873650D03*
X318600Y873650D03*
X136100Y798150D03*
X146100Y798150D03*
X151100Y798150D03*
X141100Y798150D03*
X156100Y798150D03*
X166100Y798150D03*
X171100Y798150D03*
X161100Y798150D03*
X176100Y798150D03*
X186100Y798150D03*
X191100Y798150D03*
X181100Y798150D03*
X196100Y798150D03*
X206100Y798150D03*
X211100Y798150D03*
X201100Y798150D03*
X216100Y798150D03*
X226100Y798150D03*
X231100Y798150D03*
X221100Y798150D03*
X236100Y798150D03*
X241100Y798150D03*
X266100Y798150D03*
X271100Y798150D03*
X276100Y798150D03*
X286100Y798150D03*
X291100Y798150D03*
X281100Y798150D03*
X296100Y798150D03*
X306100Y798150D03*
X311100Y798150D03*
X301100Y798150D03*
X316100Y798150D03*
X321100Y798150D03*
D15*
X397900Y1028700D03*
X414900Y1028700D03*
D13*
X443150Y873700D03*
X443150Y929700D03*
D14*
X406400Y886700D03*
X406400Y896700D03*
X406400Y906700D03*
X406400Y916700D03*
D23*
X406400Y1141950D03*
X406400Y1169450D03*
D24*
X391150Y1155700D03*
X421650Y1155700D03*
D23*
X406400Y1078450D03*
X406400Y1105950D03*
D24*
X391150Y1092200D03*
X421650Y1092200D03*
D25*
X228600Y773500D03*
X228600Y750500D03*
X203200Y773500D03*
X203200Y750500D03*
X254000Y773500D03*
X254000Y750500D03*
D26*
X59700Y800100D03*
X92700Y800100D03*
D27*
X127000Y1188100D03*
D28*
X83950Y1235000D03*
X170050Y1235000D03*
D27*
X330200Y1188100D03*
D28*
X287150Y1235000D03*
X373250Y1235000D03*
D17*
X358800Y825199D03*
X368300Y825199D03*
X377800Y825199D03*
X377800Y851201D03*
X358800Y851201D03*
D15*
X359800Y806450D03*
X376800Y806450D03*
X359800Y869950D03*
X376800Y869950D03*
D10*
X698380Y733200D03*
X693380Y733200D03*
D11*
X723130Y733200D03*
X715380Y733200D03*
D10*
X708380Y733200D03*
X703380Y733200D03*
X683380Y733200D03*
X688380Y733200D03*
D11*
X658630Y733200D03*
X666380Y733200D03*
D10*
X673380Y733200D03*
X678380Y733200D03*
D12*
X633730Y713350D03*
X633730Y696350D03*
X748030Y713350D03*
X748030Y696350D03*
D13*
X476330Y929700D03*
X476330Y873700D03*
D14*
X513080Y916700D03*
X513080Y906700D03*
X513080Y896700D03*
X513080Y886700D03*
D15*
X877180Y977900D03*
X860180Y977900D03*
X877180Y1003300D03*
X860180Y1003300D03*
D16*
X906780Y853440D03*
X906780Y797560D03*
X868680Y853440D03*
X868680Y797560D03*
D17*
X478180Y787099D03*
X487680Y787099D03*
X497180Y787099D03*
X497180Y813101D03*
X478180Y813101D03*
D15*
X496180Y850900D03*
X479180Y850900D03*
D12*
X500380Y770500D03*
X500380Y753500D03*
D15*
X496180Y831850D03*
X479180Y831850D03*
D18*
X482410Y740100D02*
X482410Y733100D01*
X475410Y733100D01*
X475410Y740100D01*
X482410Y740100D01*
X482410Y735950D02*
X475410Y735950D01*
X475410Y738800D02*
X482410Y738800D01*
X499950Y740100D02*
X499950Y733100D01*
X492950Y733100D01*
X492950Y740100D01*
X499950Y740100D01*
X499950Y735950D02*
X492950Y735950D01*
X492950Y738800D02*
X499950Y738800D01*
D12*
X474980Y770500D03*
X474980Y753500D03*
D19*
X573880Y748200D03*
X553880Y748200D03*
D20*
X597880Y696200D03*
X529880Y696200D03*
D15*
X546980Y863600D03*
X529980Y863600D03*
X546980Y844550D03*
X529980Y844550D03*
X546980Y825500D03*
X529980Y825500D03*
X885580Y774700D03*
X902580Y774700D03*
D18*
X899350Y765500D02*
X899350Y758500D01*
X899350Y765500D02*
X906350Y765500D01*
X906350Y758500D01*
X899350Y758500D01*
X899350Y761350D02*
X906350Y761350D01*
X906350Y764200D02*
X899350Y764200D01*
X881810Y765500D02*
X881810Y758500D01*
X881810Y765500D02*
X888810Y765500D01*
X888810Y758500D01*
X881810Y758500D01*
X881810Y761350D02*
X888810Y761350D01*
X888810Y764200D02*
X881810Y764200D01*
D21*
X794380Y805900D03*
X587380Y805900D03*
D22*
X600880Y873650D03*
X610880Y873650D03*
X615880Y873650D03*
X605880Y873650D03*
X620880Y873650D03*
X630880Y873650D03*
X635880Y873650D03*
X625880Y873650D03*
X640880Y873650D03*
X650880Y873650D03*
X655880Y873650D03*
X645880Y873650D03*
X660880Y873650D03*
X670880Y873650D03*
X675880Y873650D03*
X665880Y873650D03*
X680880Y873650D03*
X690880Y873650D03*
X695880Y873650D03*
X685880Y873650D03*
X700880Y873650D03*
X705880Y873650D03*
X730880Y873650D03*
X735880Y873650D03*
X740880Y873650D03*
X750880Y873650D03*
X755880Y873650D03*
X745880Y873650D03*
X760880Y873650D03*
X770880Y873650D03*
X775880Y873650D03*
X765880Y873650D03*
X780880Y873650D03*
X598380Y798150D03*
X608380Y798150D03*
X613380Y798150D03*
X603380Y798150D03*
X618380Y798150D03*
X628380Y798150D03*
X633380Y798150D03*
X623380Y798150D03*
X638380Y798150D03*
X648380Y798150D03*
X653380Y798150D03*
X643380Y798150D03*
X658380Y798150D03*
X668380Y798150D03*
X673380Y798150D03*
X663380Y798150D03*
X678380Y798150D03*
X688380Y798150D03*
X693380Y798150D03*
X683380Y798150D03*
X698380Y798150D03*
X703380Y798150D03*
X728380Y798150D03*
X733380Y798150D03*
X738380Y798150D03*
X748380Y798150D03*
X753380Y798150D03*
X743380Y798150D03*
X758380Y798150D03*
X768380Y798150D03*
X773380Y798150D03*
X763380Y798150D03*
X778380Y798150D03*
X783380Y798150D03*
D15*
X860180Y1028700D03*
X877180Y1028700D03*
D13*
X905430Y873700D03*
X905430Y929700D03*
D14*
X868680Y886700D03*
X868680Y896700D03*
X868680Y906700D03*
X868680Y916700D03*
D23*
X868680Y1141950D03*
X868680Y1169450D03*
D24*
X853430Y1155700D03*
X883930Y1155700D03*
D23*
X868680Y1078450D03*
X868680Y1105950D03*
D24*
X853430Y1092200D03*
X883930Y1092200D03*
D25*
X690880Y773500D03*
X690880Y750500D03*
X665480Y773500D03*
X665480Y750500D03*
X716280Y773500D03*
X716280Y750500D03*
D26*
X521980Y800100D03*
X554980Y800100D03*
D27*
X589280Y1188100D03*
D28*
X546230Y1235000D03*
X632330Y1235000D03*
D27*
X792480Y1188100D03*
D28*
X749430Y1235000D03*
X835530Y1235000D03*
D17*
X821080Y825199D03*
X830580Y825199D03*
X840080Y825199D03*
X840080Y851201D03*
X821080Y851201D03*
D15*
X822080Y806450D03*
X839080Y806450D03*
X822080Y869950D03*
X839080Y869950D03*
D10*
X1160660Y733200D03*
X1155660Y733200D03*
D11*
X1185410Y733200D03*
X1177660Y733200D03*
D10*
X1170660Y733200D03*
X1165660Y733200D03*
X1145660Y733200D03*
X1150660Y733200D03*
D11*
X1120910Y733200D03*
X1128660Y733200D03*
D10*
X1135660Y733200D03*
X1140660Y733200D03*
D12*
X1096010Y713350D03*
X1096010Y696350D03*
X1210310Y713350D03*
X1210310Y696350D03*
D13*
X938610Y929700D03*
X938610Y873700D03*
D14*
X975360Y916700D03*
X975360Y906700D03*
X975360Y896700D03*
X975360Y886700D03*
D15*
X1339460Y977900D03*
X1322460Y977900D03*
X1339460Y1003300D03*
X1322460Y1003300D03*
D16*
X1369060Y853440D03*
X1369060Y797560D03*
X1330960Y853440D03*
X1330960Y797560D03*
D17*
X940460Y787099D03*
X949960Y787099D03*
X959460Y787099D03*
X959460Y813101D03*
X940460Y813101D03*
D15*
X958460Y850900D03*
X941460Y850900D03*
D12*
X962660Y770500D03*
X962660Y753500D03*
D15*
X958460Y831850D03*
X941460Y831850D03*
D18*
X944690Y740100D02*
X944690Y733100D01*
X937690Y733100D01*
X937690Y740100D01*
X944690Y740100D01*
X944690Y735950D02*
X937690Y735950D01*
X937690Y738800D02*
X944690Y738800D01*
X962230Y740100D02*
X962230Y733100D01*
X955230Y733100D01*
X955230Y740100D01*
X962230Y740100D01*
X962230Y735950D02*
X955230Y735950D01*
X955230Y738800D02*
X962230Y738800D01*
D12*
X937260Y770500D03*
X937260Y753500D03*
D19*
X1036160Y748200D03*
X1016160Y748200D03*
D20*
X1060160Y696200D03*
X992160Y696200D03*
D15*
X1009260Y863600D03*
X992260Y863600D03*
X1009260Y844550D03*
X992260Y844550D03*
X1009260Y825500D03*
X992260Y825500D03*
X1347860Y774700D03*
X1364860Y774700D03*
D18*
X1361630Y765500D02*
X1361630Y758500D01*
X1361630Y765500D02*
X1368630Y765500D01*
X1368630Y758500D01*
X1361630Y758500D01*
X1361630Y761350D02*
X1368630Y761350D01*
X1368630Y764200D02*
X1361630Y764200D01*
X1344090Y765500D02*
X1344090Y758500D01*
X1344090Y765500D02*
X1351090Y765500D01*
X1351090Y758500D01*
X1344090Y758500D01*
X1344090Y761350D02*
X1351090Y761350D01*
X1351090Y764200D02*
X1344090Y764200D01*
D21*
X1256660Y805900D03*
X1049660Y805900D03*
D22*
X1063160Y873650D03*
X1073160Y873650D03*
X1078160Y873650D03*
X1068160Y873650D03*
X1083160Y873650D03*
X1093160Y873650D03*
X1098160Y873650D03*
X1088160Y873650D03*
X1103160Y873650D03*
X1113160Y873650D03*
X1118160Y873650D03*
X1108160Y873650D03*
X1123160Y873650D03*
X1133160Y873650D03*
X1138160Y873650D03*
X1128160Y873650D03*
X1143160Y873650D03*
X1153160Y873650D03*
X1158160Y873650D03*
X1148160Y873650D03*
X1163160Y873650D03*
X1168160Y873650D03*
X1193160Y873650D03*
X1198160Y873650D03*
X1203160Y873650D03*
X1213160Y873650D03*
X1218160Y873650D03*
X1208160Y873650D03*
X1223160Y873650D03*
X1233160Y873650D03*
X1238160Y873650D03*
X1228160Y873650D03*
X1243160Y873650D03*
X1060660Y798150D03*
X1070660Y798150D03*
X1075660Y798150D03*
X1065660Y798150D03*
X1080660Y798150D03*
X1090660Y798150D03*
X1095660Y798150D03*
X1085660Y798150D03*
X1100660Y798150D03*
X1110660Y798150D03*
X1115660Y798150D03*
X1105660Y798150D03*
X1120660Y798150D03*
X1130660Y798150D03*
X1135660Y798150D03*
X1125660Y798150D03*
X1140660Y798150D03*
X1150660Y798150D03*
X1155660Y798150D03*
X1145660Y798150D03*
X1160660Y798150D03*
X1165660Y798150D03*
X1190660Y798150D03*
X1195660Y798150D03*
X1200660Y798150D03*
X1210660Y798150D03*
X1215660Y798150D03*
X1205660Y798150D03*
X1220660Y798150D03*
X1230660Y798150D03*
X1235660Y798150D03*
X1225660Y798150D03*
X1240660Y798150D03*
X1245660Y798150D03*
D15*
X1322460Y1028700D03*
X1339460Y1028700D03*
D13*
X1367710Y873700D03*
X1367710Y929700D03*
D14*
X1330960Y886700D03*
X1330960Y896700D03*
X1330960Y906700D03*
X1330960Y916700D03*
D23*
X1330960Y1141950D03*
X1330960Y1169450D03*
D24*
X1315710Y1155700D03*
X1346210Y1155700D03*
D23*
X1330960Y1078450D03*
X1330960Y1105950D03*
D24*
X1315710Y1092200D03*
X1346210Y1092200D03*
D25*
X1153160Y773500D03*
X1153160Y750500D03*
X1127760Y773500D03*
X1127760Y750500D03*
X1178560Y773500D03*
X1178560Y750500D03*
D26*
X984260Y800100D03*
X1017260Y800100D03*
D27*
X1051560Y1188100D03*
D28*
X1008510Y1235000D03*
X1094610Y1235000D03*
D27*
X1254760Y1188100D03*
D28*
X1211710Y1235000D03*
X1297810Y1235000D03*
D17*
X1283360Y825199D03*
X1292860Y825199D03*
X1302360Y825199D03*
X1302360Y851201D03*
X1283360Y851201D03*
D15*
X1284360Y806450D03*
X1301360Y806450D03*
X1284360Y869950D03*
X1301360Y869950D03*
M02*
