G04 EAGLE Gerber RS-274X export*
G75*
%MOMM*%
%FSLAX34Y34*%
%LPD*%
%INSoldermask Bottom*%
%IPPOS*%
%AMOC8*
5,1,8,0,0,1.08239X$1,22.5*%
G01*
%ADD10C,0.853200*%
%ADD11C,0.838200*%
%ADD12C,3.505200*%
%ADD13R,1.473200X0.863600*%
%ADD14R,0.838200X1.473200*%
%ADD15C,2.082800*%
%ADD16C,6.203200*%
%ADD17R,0.863600X1.473200*%
%ADD18C,1.303200*%
%ADD19C,1.803200*%
%ADD20R,2.203200X1.403200*%
%ADD21C,1.203200*%
%ADD22C,1.270000*%
%ADD23C,1.703200*%

G36*
X167070Y771283D02*
X167070Y771283D01*
X167136Y771285D01*
X167179Y771303D01*
X167226Y771311D01*
X167283Y771345D01*
X167343Y771370D01*
X167378Y771401D01*
X167419Y771426D01*
X167461Y771477D01*
X167509Y771521D01*
X167531Y771563D01*
X167560Y771600D01*
X167581Y771662D01*
X167612Y771721D01*
X167620Y771775D01*
X167632Y771812D01*
X167631Y771852D01*
X167639Y771906D01*
X167639Y777494D01*
X167628Y777559D01*
X167626Y777625D01*
X167608Y777668D01*
X167600Y777715D01*
X167566Y777772D01*
X167541Y777832D01*
X167510Y777867D01*
X167485Y777908D01*
X167434Y777950D01*
X167390Y777998D01*
X167348Y778020D01*
X167311Y778049D01*
X167249Y778070D01*
X167190Y778101D01*
X167136Y778109D01*
X167099Y778121D01*
X167059Y778120D01*
X167005Y778128D01*
X163195Y778128D01*
X163130Y778117D01*
X163064Y778115D01*
X163021Y778097D01*
X162974Y778089D01*
X162917Y778055D01*
X162857Y778030D01*
X162822Y777999D01*
X162781Y777974D01*
X162740Y777923D01*
X162691Y777879D01*
X162669Y777837D01*
X162640Y777800D01*
X162619Y777738D01*
X162588Y777679D01*
X162580Y777625D01*
X162568Y777588D01*
X162569Y777548D01*
X162561Y777494D01*
X162561Y771906D01*
X162572Y771841D01*
X162574Y771775D01*
X162592Y771732D01*
X162600Y771685D01*
X162634Y771628D01*
X162659Y771568D01*
X162690Y771533D01*
X162715Y771492D01*
X162766Y771451D01*
X162810Y771402D01*
X162852Y771380D01*
X162889Y771351D01*
X162951Y771330D01*
X163010Y771299D01*
X163064Y771291D01*
X163101Y771279D01*
X163141Y771280D01*
X163195Y771272D01*
X167005Y771272D01*
X167070Y771283D01*
G37*
G36*
X1091630Y771283D02*
X1091630Y771283D01*
X1091696Y771285D01*
X1091739Y771303D01*
X1091786Y771311D01*
X1091843Y771345D01*
X1091903Y771370D01*
X1091938Y771401D01*
X1091979Y771426D01*
X1092021Y771477D01*
X1092069Y771521D01*
X1092091Y771563D01*
X1092120Y771600D01*
X1092141Y771662D01*
X1092172Y771721D01*
X1092180Y771775D01*
X1092192Y771812D01*
X1092191Y771852D01*
X1092199Y771906D01*
X1092199Y777494D01*
X1092188Y777559D01*
X1092186Y777625D01*
X1092168Y777668D01*
X1092160Y777715D01*
X1092126Y777772D01*
X1092101Y777832D01*
X1092070Y777867D01*
X1092045Y777908D01*
X1091994Y777950D01*
X1091950Y777998D01*
X1091908Y778020D01*
X1091871Y778049D01*
X1091809Y778070D01*
X1091750Y778101D01*
X1091696Y778109D01*
X1091659Y778121D01*
X1091619Y778120D01*
X1091565Y778128D01*
X1087755Y778128D01*
X1087690Y778117D01*
X1087624Y778115D01*
X1087581Y778097D01*
X1087534Y778089D01*
X1087477Y778055D01*
X1087417Y778030D01*
X1087382Y777999D01*
X1087341Y777974D01*
X1087300Y777923D01*
X1087251Y777879D01*
X1087229Y777837D01*
X1087200Y777800D01*
X1087179Y777738D01*
X1087148Y777679D01*
X1087140Y777625D01*
X1087128Y777588D01*
X1087129Y777548D01*
X1087121Y777494D01*
X1087121Y771906D01*
X1087132Y771841D01*
X1087134Y771775D01*
X1087152Y771732D01*
X1087160Y771685D01*
X1087194Y771628D01*
X1087219Y771568D01*
X1087250Y771533D01*
X1087275Y771492D01*
X1087326Y771451D01*
X1087370Y771402D01*
X1087412Y771380D01*
X1087449Y771351D01*
X1087511Y771330D01*
X1087570Y771299D01*
X1087624Y771291D01*
X1087661Y771279D01*
X1087701Y771280D01*
X1087755Y771272D01*
X1091565Y771272D01*
X1091630Y771283D01*
G37*
G36*
X629350Y771283D02*
X629350Y771283D01*
X629416Y771285D01*
X629459Y771303D01*
X629506Y771311D01*
X629563Y771345D01*
X629623Y771370D01*
X629658Y771401D01*
X629699Y771426D01*
X629741Y771477D01*
X629789Y771521D01*
X629811Y771563D01*
X629840Y771600D01*
X629861Y771662D01*
X629892Y771721D01*
X629900Y771775D01*
X629912Y771812D01*
X629911Y771852D01*
X629919Y771906D01*
X629919Y777494D01*
X629908Y777559D01*
X629906Y777625D01*
X629888Y777668D01*
X629880Y777715D01*
X629846Y777772D01*
X629821Y777832D01*
X629790Y777867D01*
X629765Y777908D01*
X629714Y777950D01*
X629670Y777998D01*
X629628Y778020D01*
X629591Y778049D01*
X629529Y778070D01*
X629470Y778101D01*
X629416Y778109D01*
X629379Y778121D01*
X629339Y778120D01*
X629285Y778128D01*
X625475Y778128D01*
X625410Y778117D01*
X625344Y778115D01*
X625301Y778097D01*
X625254Y778089D01*
X625197Y778055D01*
X625137Y778030D01*
X625102Y777999D01*
X625061Y777974D01*
X625020Y777923D01*
X624971Y777879D01*
X624949Y777837D01*
X624920Y777800D01*
X624899Y777738D01*
X624868Y777679D01*
X624860Y777625D01*
X624848Y777588D01*
X624849Y777548D01*
X624841Y777494D01*
X624841Y771906D01*
X624852Y771841D01*
X624854Y771775D01*
X624872Y771732D01*
X624880Y771685D01*
X624914Y771628D01*
X624939Y771568D01*
X624970Y771533D01*
X624995Y771492D01*
X625046Y771451D01*
X625090Y771402D01*
X625132Y771380D01*
X625169Y771351D01*
X625231Y771330D01*
X625290Y771299D01*
X625344Y771291D01*
X625381Y771279D01*
X625421Y771280D01*
X625475Y771272D01*
X629285Y771272D01*
X629350Y771283D01*
G37*
G36*
X1091630Y98183D02*
X1091630Y98183D01*
X1091696Y98185D01*
X1091739Y98203D01*
X1091786Y98211D01*
X1091843Y98245D01*
X1091903Y98270D01*
X1091938Y98301D01*
X1091979Y98326D01*
X1092021Y98377D01*
X1092069Y98421D01*
X1092091Y98463D01*
X1092120Y98500D01*
X1092141Y98562D01*
X1092172Y98621D01*
X1092180Y98675D01*
X1092192Y98712D01*
X1092191Y98752D01*
X1092199Y98806D01*
X1092199Y104394D01*
X1092188Y104459D01*
X1092186Y104525D01*
X1092168Y104568D01*
X1092160Y104615D01*
X1092126Y104672D01*
X1092101Y104732D01*
X1092070Y104767D01*
X1092045Y104808D01*
X1091994Y104850D01*
X1091950Y104898D01*
X1091908Y104920D01*
X1091871Y104949D01*
X1091809Y104970D01*
X1091750Y105001D01*
X1091696Y105009D01*
X1091659Y105021D01*
X1091619Y105020D01*
X1091565Y105028D01*
X1087755Y105028D01*
X1087690Y105017D01*
X1087624Y105015D01*
X1087581Y104997D01*
X1087534Y104989D01*
X1087477Y104955D01*
X1087417Y104930D01*
X1087382Y104899D01*
X1087341Y104874D01*
X1087300Y104823D01*
X1087251Y104779D01*
X1087229Y104737D01*
X1087200Y104700D01*
X1087179Y104638D01*
X1087148Y104579D01*
X1087140Y104525D01*
X1087128Y104488D01*
X1087129Y104448D01*
X1087121Y104394D01*
X1087121Y98806D01*
X1087132Y98741D01*
X1087134Y98675D01*
X1087152Y98632D01*
X1087160Y98585D01*
X1087194Y98528D01*
X1087219Y98468D01*
X1087250Y98433D01*
X1087275Y98392D01*
X1087326Y98351D01*
X1087370Y98302D01*
X1087412Y98280D01*
X1087449Y98251D01*
X1087511Y98230D01*
X1087570Y98199D01*
X1087624Y98191D01*
X1087661Y98179D01*
X1087701Y98180D01*
X1087755Y98172D01*
X1091565Y98172D01*
X1091630Y98183D01*
G37*
G36*
X629350Y98183D02*
X629350Y98183D01*
X629416Y98185D01*
X629459Y98203D01*
X629506Y98211D01*
X629563Y98245D01*
X629623Y98270D01*
X629658Y98301D01*
X629699Y98326D01*
X629741Y98377D01*
X629789Y98421D01*
X629811Y98463D01*
X629840Y98500D01*
X629861Y98562D01*
X629892Y98621D01*
X629900Y98675D01*
X629912Y98712D01*
X629911Y98752D01*
X629919Y98806D01*
X629919Y104394D01*
X629908Y104459D01*
X629906Y104525D01*
X629888Y104568D01*
X629880Y104615D01*
X629846Y104672D01*
X629821Y104732D01*
X629790Y104767D01*
X629765Y104808D01*
X629714Y104850D01*
X629670Y104898D01*
X629628Y104920D01*
X629591Y104949D01*
X629529Y104970D01*
X629470Y105001D01*
X629416Y105009D01*
X629379Y105021D01*
X629339Y105020D01*
X629285Y105028D01*
X625475Y105028D01*
X625410Y105017D01*
X625344Y105015D01*
X625301Y104997D01*
X625254Y104989D01*
X625197Y104955D01*
X625137Y104930D01*
X625102Y104899D01*
X625061Y104874D01*
X625020Y104823D01*
X624971Y104779D01*
X624949Y104737D01*
X624920Y104700D01*
X624899Y104638D01*
X624868Y104579D01*
X624860Y104525D01*
X624848Y104488D01*
X624849Y104448D01*
X624841Y104394D01*
X624841Y98806D01*
X624852Y98741D01*
X624854Y98675D01*
X624872Y98632D01*
X624880Y98585D01*
X624914Y98528D01*
X624939Y98468D01*
X624970Y98433D01*
X624995Y98392D01*
X625046Y98351D01*
X625090Y98302D01*
X625132Y98280D01*
X625169Y98251D01*
X625231Y98230D01*
X625290Y98199D01*
X625344Y98191D01*
X625381Y98179D01*
X625421Y98180D01*
X625475Y98172D01*
X629285Y98172D01*
X629350Y98183D01*
G37*
G36*
X167070Y98183D02*
X167070Y98183D01*
X167136Y98185D01*
X167179Y98203D01*
X167226Y98211D01*
X167283Y98245D01*
X167343Y98270D01*
X167378Y98301D01*
X167419Y98326D01*
X167461Y98377D01*
X167509Y98421D01*
X167531Y98463D01*
X167560Y98500D01*
X167581Y98562D01*
X167612Y98621D01*
X167620Y98675D01*
X167632Y98712D01*
X167631Y98752D01*
X167639Y98806D01*
X167639Y104394D01*
X167628Y104459D01*
X167626Y104525D01*
X167608Y104568D01*
X167600Y104615D01*
X167566Y104672D01*
X167541Y104732D01*
X167510Y104767D01*
X167485Y104808D01*
X167434Y104850D01*
X167390Y104898D01*
X167348Y104920D01*
X167311Y104949D01*
X167249Y104970D01*
X167190Y105001D01*
X167136Y105009D01*
X167099Y105021D01*
X167059Y105020D01*
X167005Y105028D01*
X163195Y105028D01*
X163130Y105017D01*
X163064Y105015D01*
X163021Y104997D01*
X162974Y104989D01*
X162917Y104955D01*
X162857Y104930D01*
X162822Y104899D01*
X162781Y104874D01*
X162740Y104823D01*
X162691Y104779D01*
X162669Y104737D01*
X162640Y104700D01*
X162619Y104638D01*
X162588Y104579D01*
X162580Y104525D01*
X162568Y104488D01*
X162569Y104448D01*
X162561Y104394D01*
X162561Y98806D01*
X162572Y98741D01*
X162574Y98675D01*
X162592Y98632D01*
X162600Y98585D01*
X162634Y98528D01*
X162659Y98468D01*
X162690Y98433D01*
X162715Y98392D01*
X162766Y98351D01*
X162810Y98302D01*
X162852Y98280D01*
X162889Y98251D01*
X162951Y98230D01*
X163010Y98199D01*
X163064Y98191D01*
X163101Y98179D01*
X163141Y98180D01*
X163195Y98172D01*
X167005Y98172D01*
X167070Y98183D01*
G37*
G36*
X1344995Y904252D02*
X1344995Y904252D01*
X1345061Y904254D01*
X1345104Y904272D01*
X1345151Y904280D01*
X1345208Y904314D01*
X1345268Y904339D01*
X1345303Y904370D01*
X1345344Y904395D01*
X1345386Y904446D01*
X1345434Y904490D01*
X1345456Y904532D01*
X1345485Y904569D01*
X1345506Y904631D01*
X1345537Y904690D01*
X1345545Y904744D01*
X1345557Y904781D01*
X1345556Y904821D01*
X1345564Y904875D01*
X1345564Y908685D01*
X1345553Y908750D01*
X1345551Y908816D01*
X1345533Y908859D01*
X1345525Y908906D01*
X1345491Y908963D01*
X1345466Y909023D01*
X1345435Y909058D01*
X1345410Y909099D01*
X1345359Y909141D01*
X1345315Y909189D01*
X1345273Y909211D01*
X1345236Y909240D01*
X1345174Y909261D01*
X1345115Y909292D01*
X1345061Y909300D01*
X1345024Y909312D01*
X1344984Y909311D01*
X1344930Y909319D01*
X1342390Y909319D01*
X1342325Y909308D01*
X1342259Y909306D01*
X1342216Y909288D01*
X1342169Y909280D01*
X1342112Y909246D01*
X1342052Y909221D01*
X1342017Y909190D01*
X1341976Y909165D01*
X1341935Y909114D01*
X1341886Y909070D01*
X1341864Y909028D01*
X1341835Y908991D01*
X1341814Y908929D01*
X1341783Y908870D01*
X1341775Y908816D01*
X1341763Y908779D01*
X1341763Y908775D01*
X1341763Y908774D01*
X1341764Y908739D01*
X1341756Y908685D01*
X1341756Y904875D01*
X1341767Y904810D01*
X1341769Y904744D01*
X1341787Y904701D01*
X1341795Y904654D01*
X1341829Y904597D01*
X1341854Y904537D01*
X1341885Y904502D01*
X1341910Y904461D01*
X1341961Y904420D01*
X1342005Y904371D01*
X1342047Y904349D01*
X1342084Y904320D01*
X1342146Y904299D01*
X1342205Y904268D01*
X1342259Y904260D01*
X1342296Y904248D01*
X1342336Y904249D01*
X1342390Y904241D01*
X1344930Y904241D01*
X1344995Y904252D01*
G37*
G36*
X882715Y904252D02*
X882715Y904252D01*
X882781Y904254D01*
X882824Y904272D01*
X882871Y904280D01*
X882928Y904314D01*
X882988Y904339D01*
X883023Y904370D01*
X883064Y904395D01*
X883106Y904446D01*
X883154Y904490D01*
X883176Y904532D01*
X883205Y904569D01*
X883226Y904631D01*
X883257Y904690D01*
X883265Y904744D01*
X883277Y904781D01*
X883276Y904821D01*
X883284Y904875D01*
X883284Y908685D01*
X883273Y908750D01*
X883271Y908816D01*
X883253Y908859D01*
X883245Y908906D01*
X883211Y908963D01*
X883186Y909023D01*
X883155Y909058D01*
X883130Y909099D01*
X883079Y909141D01*
X883035Y909189D01*
X882993Y909211D01*
X882956Y909240D01*
X882894Y909261D01*
X882835Y909292D01*
X882781Y909300D01*
X882744Y909312D01*
X882704Y909311D01*
X882650Y909319D01*
X880110Y909319D01*
X880045Y909308D01*
X879979Y909306D01*
X879936Y909288D01*
X879889Y909280D01*
X879832Y909246D01*
X879772Y909221D01*
X879737Y909190D01*
X879696Y909165D01*
X879655Y909114D01*
X879606Y909070D01*
X879584Y909028D01*
X879555Y908991D01*
X879534Y908929D01*
X879503Y908870D01*
X879495Y908816D01*
X879483Y908779D01*
X879483Y908775D01*
X879483Y908774D01*
X879484Y908739D01*
X879476Y908685D01*
X879476Y904875D01*
X879487Y904810D01*
X879489Y904744D01*
X879507Y904701D01*
X879515Y904654D01*
X879549Y904597D01*
X879574Y904537D01*
X879605Y904502D01*
X879630Y904461D01*
X879681Y904420D01*
X879725Y904371D01*
X879767Y904349D01*
X879804Y904320D01*
X879866Y904299D01*
X879925Y904268D01*
X879979Y904260D01*
X880016Y904248D01*
X880056Y904249D01*
X880110Y904241D01*
X882650Y904241D01*
X882715Y904252D01*
G37*
G36*
X420435Y904252D02*
X420435Y904252D01*
X420501Y904254D01*
X420544Y904272D01*
X420591Y904280D01*
X420648Y904314D01*
X420708Y904339D01*
X420743Y904370D01*
X420784Y904395D01*
X420826Y904446D01*
X420874Y904490D01*
X420896Y904532D01*
X420925Y904569D01*
X420946Y904631D01*
X420977Y904690D01*
X420985Y904744D01*
X420997Y904781D01*
X420996Y904821D01*
X421004Y904875D01*
X421004Y908685D01*
X420993Y908750D01*
X420991Y908816D01*
X420973Y908859D01*
X420965Y908906D01*
X420931Y908963D01*
X420906Y909023D01*
X420875Y909058D01*
X420850Y909099D01*
X420799Y909141D01*
X420755Y909189D01*
X420713Y909211D01*
X420676Y909240D01*
X420614Y909261D01*
X420555Y909292D01*
X420501Y909300D01*
X420464Y909312D01*
X420424Y909311D01*
X420370Y909319D01*
X417830Y909319D01*
X417765Y909308D01*
X417699Y909306D01*
X417656Y909288D01*
X417609Y909280D01*
X417552Y909246D01*
X417492Y909221D01*
X417457Y909190D01*
X417416Y909165D01*
X417375Y909114D01*
X417326Y909070D01*
X417304Y909028D01*
X417275Y908991D01*
X417254Y908929D01*
X417223Y908870D01*
X417215Y908816D01*
X417203Y908779D01*
X417203Y908775D01*
X417203Y908774D01*
X417204Y908739D01*
X417196Y908685D01*
X417196Y904875D01*
X417207Y904810D01*
X417209Y904744D01*
X417227Y904701D01*
X417235Y904654D01*
X417269Y904597D01*
X417294Y904537D01*
X417325Y904502D01*
X417350Y904461D01*
X417401Y904420D01*
X417445Y904371D01*
X417487Y904349D01*
X417524Y904320D01*
X417586Y904299D01*
X417645Y904268D01*
X417699Y904260D01*
X417736Y904248D01*
X417776Y904249D01*
X417830Y904241D01*
X420370Y904241D01*
X420435Y904252D01*
G37*
G36*
X882715Y894092D02*
X882715Y894092D01*
X882781Y894094D01*
X882824Y894112D01*
X882871Y894120D01*
X882928Y894154D01*
X882988Y894179D01*
X883023Y894210D01*
X883064Y894235D01*
X883106Y894286D01*
X883154Y894330D01*
X883176Y894372D01*
X883205Y894409D01*
X883226Y894471D01*
X883257Y894530D01*
X883265Y894584D01*
X883277Y894621D01*
X883276Y894661D01*
X883284Y894715D01*
X883284Y898525D01*
X883273Y898590D01*
X883271Y898656D01*
X883253Y898699D01*
X883245Y898746D01*
X883211Y898803D01*
X883186Y898863D01*
X883155Y898898D01*
X883130Y898939D01*
X883079Y898981D01*
X883035Y899029D01*
X882993Y899051D01*
X882956Y899080D01*
X882894Y899101D01*
X882835Y899132D01*
X882781Y899140D01*
X882744Y899152D01*
X882704Y899151D01*
X882650Y899159D01*
X880110Y899159D01*
X880045Y899148D01*
X879979Y899146D01*
X879936Y899128D01*
X879889Y899120D01*
X879832Y899086D01*
X879772Y899061D01*
X879737Y899030D01*
X879696Y899005D01*
X879655Y898954D01*
X879606Y898910D01*
X879584Y898868D01*
X879555Y898831D01*
X879534Y898769D01*
X879503Y898710D01*
X879495Y898656D01*
X879483Y898619D01*
X879483Y898615D01*
X879483Y898614D01*
X879484Y898579D01*
X879476Y898525D01*
X879476Y894715D01*
X879487Y894650D01*
X879489Y894584D01*
X879507Y894541D01*
X879515Y894494D01*
X879549Y894437D01*
X879574Y894377D01*
X879605Y894342D01*
X879630Y894301D01*
X879681Y894260D01*
X879725Y894211D01*
X879767Y894189D01*
X879804Y894160D01*
X879866Y894139D01*
X879925Y894108D01*
X879979Y894100D01*
X880016Y894088D01*
X880056Y894089D01*
X880110Y894081D01*
X882650Y894081D01*
X882715Y894092D01*
G37*
G36*
X420435Y894092D02*
X420435Y894092D01*
X420501Y894094D01*
X420544Y894112D01*
X420591Y894120D01*
X420648Y894154D01*
X420708Y894179D01*
X420743Y894210D01*
X420784Y894235D01*
X420826Y894286D01*
X420874Y894330D01*
X420896Y894372D01*
X420925Y894409D01*
X420946Y894471D01*
X420977Y894530D01*
X420985Y894584D01*
X420997Y894621D01*
X420996Y894661D01*
X421004Y894715D01*
X421004Y898525D01*
X420993Y898590D01*
X420991Y898656D01*
X420973Y898699D01*
X420965Y898746D01*
X420931Y898803D01*
X420906Y898863D01*
X420875Y898898D01*
X420850Y898939D01*
X420799Y898981D01*
X420755Y899029D01*
X420713Y899051D01*
X420676Y899080D01*
X420614Y899101D01*
X420555Y899132D01*
X420501Y899140D01*
X420464Y899152D01*
X420424Y899151D01*
X420370Y899159D01*
X417830Y899159D01*
X417765Y899148D01*
X417699Y899146D01*
X417656Y899128D01*
X417609Y899120D01*
X417552Y899086D01*
X417492Y899061D01*
X417457Y899030D01*
X417416Y899005D01*
X417375Y898954D01*
X417326Y898910D01*
X417304Y898868D01*
X417275Y898831D01*
X417254Y898769D01*
X417223Y898710D01*
X417215Y898656D01*
X417203Y898619D01*
X417203Y898615D01*
X417203Y898614D01*
X417204Y898579D01*
X417196Y898525D01*
X417196Y894715D01*
X417207Y894650D01*
X417209Y894584D01*
X417227Y894541D01*
X417235Y894494D01*
X417269Y894437D01*
X417294Y894377D01*
X417325Y894342D01*
X417350Y894301D01*
X417401Y894260D01*
X417445Y894211D01*
X417487Y894189D01*
X417524Y894160D01*
X417586Y894139D01*
X417645Y894108D01*
X417699Y894100D01*
X417736Y894088D01*
X417776Y894089D01*
X417830Y894081D01*
X420370Y894081D01*
X420435Y894092D01*
G37*
G36*
X1344995Y894092D02*
X1344995Y894092D01*
X1345061Y894094D01*
X1345104Y894112D01*
X1345151Y894120D01*
X1345208Y894154D01*
X1345268Y894179D01*
X1345303Y894210D01*
X1345344Y894235D01*
X1345386Y894286D01*
X1345434Y894330D01*
X1345456Y894372D01*
X1345485Y894409D01*
X1345506Y894471D01*
X1345537Y894530D01*
X1345545Y894584D01*
X1345557Y894621D01*
X1345556Y894661D01*
X1345564Y894715D01*
X1345564Y898525D01*
X1345553Y898590D01*
X1345551Y898656D01*
X1345533Y898699D01*
X1345525Y898746D01*
X1345491Y898803D01*
X1345466Y898863D01*
X1345435Y898898D01*
X1345410Y898939D01*
X1345359Y898981D01*
X1345315Y899029D01*
X1345273Y899051D01*
X1345236Y899080D01*
X1345174Y899101D01*
X1345115Y899132D01*
X1345061Y899140D01*
X1345024Y899152D01*
X1344984Y899151D01*
X1344930Y899159D01*
X1342390Y899159D01*
X1342325Y899148D01*
X1342259Y899146D01*
X1342216Y899128D01*
X1342169Y899120D01*
X1342112Y899086D01*
X1342052Y899061D01*
X1342017Y899030D01*
X1341976Y899005D01*
X1341935Y898954D01*
X1341886Y898910D01*
X1341864Y898868D01*
X1341835Y898831D01*
X1341814Y898769D01*
X1341783Y898710D01*
X1341775Y898656D01*
X1341763Y898619D01*
X1341763Y898615D01*
X1341763Y898614D01*
X1341764Y898579D01*
X1341756Y898525D01*
X1341756Y894715D01*
X1341767Y894650D01*
X1341769Y894584D01*
X1341787Y894541D01*
X1341795Y894494D01*
X1341829Y894437D01*
X1341854Y894377D01*
X1341885Y894342D01*
X1341910Y894301D01*
X1341961Y894260D01*
X1342005Y894211D01*
X1342047Y894189D01*
X1342084Y894160D01*
X1342146Y894139D01*
X1342205Y894108D01*
X1342259Y894100D01*
X1342296Y894088D01*
X1342336Y894089D01*
X1342390Y894081D01*
X1344930Y894081D01*
X1344995Y894092D01*
G37*
G36*
X882715Y231152D02*
X882715Y231152D01*
X882781Y231154D01*
X882824Y231172D01*
X882871Y231180D01*
X882928Y231214D01*
X882988Y231239D01*
X883023Y231270D01*
X883064Y231295D01*
X883106Y231346D01*
X883154Y231390D01*
X883176Y231432D01*
X883205Y231469D01*
X883226Y231531D01*
X883257Y231590D01*
X883265Y231644D01*
X883277Y231681D01*
X883276Y231721D01*
X883284Y231775D01*
X883284Y235585D01*
X883273Y235650D01*
X883271Y235716D01*
X883253Y235759D01*
X883245Y235806D01*
X883211Y235863D01*
X883186Y235923D01*
X883155Y235958D01*
X883130Y235999D01*
X883079Y236041D01*
X883035Y236089D01*
X882993Y236111D01*
X882956Y236140D01*
X882894Y236161D01*
X882835Y236192D01*
X882781Y236200D01*
X882744Y236212D01*
X882704Y236211D01*
X882650Y236219D01*
X880110Y236219D01*
X880045Y236208D01*
X879979Y236206D01*
X879936Y236188D01*
X879889Y236180D01*
X879832Y236146D01*
X879772Y236121D01*
X879737Y236090D01*
X879696Y236065D01*
X879655Y236014D01*
X879606Y235970D01*
X879584Y235928D01*
X879555Y235891D01*
X879534Y235829D01*
X879503Y235770D01*
X879495Y235716D01*
X879483Y235679D01*
X879483Y235675D01*
X879483Y235674D01*
X879484Y235639D01*
X879476Y235585D01*
X879476Y231775D01*
X879487Y231710D01*
X879489Y231644D01*
X879507Y231601D01*
X879515Y231554D01*
X879549Y231497D01*
X879574Y231437D01*
X879605Y231402D01*
X879630Y231361D01*
X879681Y231320D01*
X879725Y231271D01*
X879767Y231249D01*
X879804Y231220D01*
X879866Y231199D01*
X879925Y231168D01*
X879979Y231160D01*
X880016Y231148D01*
X880056Y231149D01*
X880110Y231141D01*
X882650Y231141D01*
X882715Y231152D01*
G37*
G36*
X420435Y231152D02*
X420435Y231152D01*
X420501Y231154D01*
X420544Y231172D01*
X420591Y231180D01*
X420648Y231214D01*
X420708Y231239D01*
X420743Y231270D01*
X420784Y231295D01*
X420826Y231346D01*
X420874Y231390D01*
X420896Y231432D01*
X420925Y231469D01*
X420946Y231531D01*
X420977Y231590D01*
X420985Y231644D01*
X420997Y231681D01*
X420996Y231721D01*
X421004Y231775D01*
X421004Y235585D01*
X420993Y235650D01*
X420991Y235716D01*
X420973Y235759D01*
X420965Y235806D01*
X420931Y235863D01*
X420906Y235923D01*
X420875Y235958D01*
X420850Y235999D01*
X420799Y236041D01*
X420755Y236089D01*
X420713Y236111D01*
X420676Y236140D01*
X420614Y236161D01*
X420555Y236192D01*
X420501Y236200D01*
X420464Y236212D01*
X420424Y236211D01*
X420370Y236219D01*
X417830Y236219D01*
X417765Y236208D01*
X417699Y236206D01*
X417656Y236188D01*
X417609Y236180D01*
X417552Y236146D01*
X417492Y236121D01*
X417457Y236090D01*
X417416Y236065D01*
X417375Y236014D01*
X417326Y235970D01*
X417304Y235928D01*
X417275Y235891D01*
X417254Y235829D01*
X417223Y235770D01*
X417215Y235716D01*
X417203Y235679D01*
X417203Y235675D01*
X417203Y235674D01*
X417204Y235639D01*
X417196Y235585D01*
X417196Y231775D01*
X417207Y231710D01*
X417209Y231644D01*
X417227Y231601D01*
X417235Y231554D01*
X417269Y231497D01*
X417294Y231437D01*
X417325Y231402D01*
X417350Y231361D01*
X417401Y231320D01*
X417445Y231271D01*
X417487Y231249D01*
X417524Y231220D01*
X417586Y231199D01*
X417645Y231168D01*
X417699Y231160D01*
X417736Y231148D01*
X417776Y231149D01*
X417830Y231141D01*
X420370Y231141D01*
X420435Y231152D01*
G37*
G36*
X1344995Y231152D02*
X1344995Y231152D01*
X1345061Y231154D01*
X1345104Y231172D01*
X1345151Y231180D01*
X1345208Y231214D01*
X1345268Y231239D01*
X1345303Y231270D01*
X1345344Y231295D01*
X1345386Y231346D01*
X1345434Y231390D01*
X1345456Y231432D01*
X1345485Y231469D01*
X1345506Y231531D01*
X1345537Y231590D01*
X1345545Y231644D01*
X1345557Y231681D01*
X1345556Y231721D01*
X1345564Y231775D01*
X1345564Y235585D01*
X1345553Y235650D01*
X1345551Y235716D01*
X1345533Y235759D01*
X1345525Y235806D01*
X1345491Y235863D01*
X1345466Y235923D01*
X1345435Y235958D01*
X1345410Y235999D01*
X1345359Y236041D01*
X1345315Y236089D01*
X1345273Y236111D01*
X1345236Y236140D01*
X1345174Y236161D01*
X1345115Y236192D01*
X1345061Y236200D01*
X1345024Y236212D01*
X1344984Y236211D01*
X1344930Y236219D01*
X1342390Y236219D01*
X1342325Y236208D01*
X1342259Y236206D01*
X1342216Y236188D01*
X1342169Y236180D01*
X1342112Y236146D01*
X1342052Y236121D01*
X1342017Y236090D01*
X1341976Y236065D01*
X1341935Y236014D01*
X1341886Y235970D01*
X1341864Y235928D01*
X1341835Y235891D01*
X1341814Y235829D01*
X1341783Y235770D01*
X1341775Y235716D01*
X1341763Y235679D01*
X1341763Y235675D01*
X1341763Y235674D01*
X1341764Y235639D01*
X1341756Y235585D01*
X1341756Y231775D01*
X1341767Y231710D01*
X1341769Y231644D01*
X1341787Y231601D01*
X1341795Y231554D01*
X1341829Y231497D01*
X1341854Y231437D01*
X1341885Y231402D01*
X1341910Y231361D01*
X1341961Y231320D01*
X1342005Y231271D01*
X1342047Y231249D01*
X1342084Y231220D01*
X1342146Y231199D01*
X1342205Y231168D01*
X1342259Y231160D01*
X1342296Y231148D01*
X1342336Y231149D01*
X1342390Y231141D01*
X1344930Y231141D01*
X1344995Y231152D01*
G37*
G36*
X882715Y220992D02*
X882715Y220992D01*
X882781Y220994D01*
X882824Y221012D01*
X882871Y221020D01*
X882928Y221054D01*
X882988Y221079D01*
X883023Y221110D01*
X883064Y221135D01*
X883106Y221186D01*
X883154Y221230D01*
X883176Y221272D01*
X883205Y221309D01*
X883226Y221371D01*
X883257Y221430D01*
X883265Y221484D01*
X883277Y221521D01*
X883276Y221561D01*
X883284Y221615D01*
X883284Y225425D01*
X883273Y225490D01*
X883271Y225556D01*
X883253Y225599D01*
X883245Y225646D01*
X883211Y225703D01*
X883186Y225763D01*
X883155Y225798D01*
X883130Y225839D01*
X883079Y225881D01*
X883035Y225929D01*
X882993Y225951D01*
X882956Y225980D01*
X882894Y226001D01*
X882835Y226032D01*
X882781Y226040D01*
X882744Y226052D01*
X882704Y226051D01*
X882650Y226059D01*
X880110Y226059D01*
X880045Y226048D01*
X879979Y226046D01*
X879936Y226028D01*
X879889Y226020D01*
X879832Y225986D01*
X879772Y225961D01*
X879737Y225930D01*
X879696Y225905D01*
X879655Y225854D01*
X879606Y225810D01*
X879584Y225768D01*
X879555Y225731D01*
X879534Y225669D01*
X879503Y225610D01*
X879495Y225556D01*
X879483Y225519D01*
X879483Y225515D01*
X879483Y225514D01*
X879484Y225479D01*
X879476Y225425D01*
X879476Y221615D01*
X879487Y221550D01*
X879489Y221484D01*
X879507Y221441D01*
X879515Y221394D01*
X879549Y221337D01*
X879574Y221277D01*
X879605Y221242D01*
X879630Y221201D01*
X879681Y221160D01*
X879725Y221111D01*
X879767Y221089D01*
X879804Y221060D01*
X879866Y221039D01*
X879925Y221008D01*
X879979Y221000D01*
X880016Y220988D01*
X880056Y220989D01*
X880110Y220981D01*
X882650Y220981D01*
X882715Y220992D01*
G37*
G36*
X420435Y220992D02*
X420435Y220992D01*
X420501Y220994D01*
X420544Y221012D01*
X420591Y221020D01*
X420648Y221054D01*
X420708Y221079D01*
X420743Y221110D01*
X420784Y221135D01*
X420826Y221186D01*
X420874Y221230D01*
X420896Y221272D01*
X420925Y221309D01*
X420946Y221371D01*
X420977Y221430D01*
X420985Y221484D01*
X420997Y221521D01*
X420996Y221561D01*
X421004Y221615D01*
X421004Y225425D01*
X420993Y225490D01*
X420991Y225556D01*
X420973Y225599D01*
X420965Y225646D01*
X420931Y225703D01*
X420906Y225763D01*
X420875Y225798D01*
X420850Y225839D01*
X420799Y225881D01*
X420755Y225929D01*
X420713Y225951D01*
X420676Y225980D01*
X420614Y226001D01*
X420555Y226032D01*
X420501Y226040D01*
X420464Y226052D01*
X420424Y226051D01*
X420370Y226059D01*
X417830Y226059D01*
X417765Y226048D01*
X417699Y226046D01*
X417656Y226028D01*
X417609Y226020D01*
X417552Y225986D01*
X417492Y225961D01*
X417457Y225930D01*
X417416Y225905D01*
X417375Y225854D01*
X417326Y225810D01*
X417304Y225768D01*
X417275Y225731D01*
X417254Y225669D01*
X417223Y225610D01*
X417215Y225556D01*
X417203Y225519D01*
X417203Y225515D01*
X417203Y225514D01*
X417204Y225479D01*
X417196Y225425D01*
X417196Y221615D01*
X417207Y221550D01*
X417209Y221484D01*
X417227Y221441D01*
X417235Y221394D01*
X417269Y221337D01*
X417294Y221277D01*
X417325Y221242D01*
X417350Y221201D01*
X417401Y221160D01*
X417445Y221111D01*
X417487Y221089D01*
X417524Y221060D01*
X417586Y221039D01*
X417645Y221008D01*
X417699Y221000D01*
X417736Y220988D01*
X417776Y220989D01*
X417830Y220981D01*
X420370Y220981D01*
X420435Y220992D01*
G37*
G36*
X1344995Y220992D02*
X1344995Y220992D01*
X1345061Y220994D01*
X1345104Y221012D01*
X1345151Y221020D01*
X1345208Y221054D01*
X1345268Y221079D01*
X1345303Y221110D01*
X1345344Y221135D01*
X1345386Y221186D01*
X1345434Y221230D01*
X1345456Y221272D01*
X1345485Y221309D01*
X1345506Y221371D01*
X1345537Y221430D01*
X1345545Y221484D01*
X1345557Y221521D01*
X1345556Y221561D01*
X1345564Y221615D01*
X1345564Y225425D01*
X1345553Y225490D01*
X1345551Y225556D01*
X1345533Y225599D01*
X1345525Y225646D01*
X1345491Y225703D01*
X1345466Y225763D01*
X1345435Y225798D01*
X1345410Y225839D01*
X1345359Y225881D01*
X1345315Y225929D01*
X1345273Y225951D01*
X1345236Y225980D01*
X1345174Y226001D01*
X1345115Y226032D01*
X1345061Y226040D01*
X1345024Y226052D01*
X1344984Y226051D01*
X1344930Y226059D01*
X1342390Y226059D01*
X1342325Y226048D01*
X1342259Y226046D01*
X1342216Y226028D01*
X1342169Y226020D01*
X1342112Y225986D01*
X1342052Y225961D01*
X1342017Y225930D01*
X1341976Y225905D01*
X1341935Y225854D01*
X1341886Y225810D01*
X1341864Y225768D01*
X1341835Y225731D01*
X1341814Y225669D01*
X1341783Y225610D01*
X1341775Y225556D01*
X1341763Y225519D01*
X1341763Y225515D01*
X1341763Y225514D01*
X1341764Y225479D01*
X1341756Y225425D01*
X1341756Y221615D01*
X1341767Y221550D01*
X1341769Y221484D01*
X1341787Y221441D01*
X1341795Y221394D01*
X1341829Y221337D01*
X1341854Y221277D01*
X1341885Y221242D01*
X1341910Y221201D01*
X1341961Y221160D01*
X1342005Y221111D01*
X1342047Y221089D01*
X1342084Y221060D01*
X1342146Y221039D01*
X1342205Y221008D01*
X1342259Y221000D01*
X1342296Y220988D01*
X1342336Y220989D01*
X1342390Y220981D01*
X1344930Y220981D01*
X1344995Y220992D01*
G37*
G36*
X1358330Y760107D02*
X1358330Y760107D01*
X1358396Y760109D01*
X1358439Y760127D01*
X1358486Y760135D01*
X1358543Y760169D01*
X1358603Y760194D01*
X1358638Y760225D01*
X1358679Y760250D01*
X1358721Y760301D01*
X1358769Y760345D01*
X1358791Y760387D01*
X1358820Y760424D01*
X1358841Y760486D01*
X1358872Y760545D01*
X1358880Y760599D01*
X1358892Y760636D01*
X1358891Y760676D01*
X1358899Y760730D01*
X1358899Y763270D01*
X1358888Y763335D01*
X1358886Y763401D01*
X1358868Y763444D01*
X1358860Y763491D01*
X1358826Y763548D01*
X1358801Y763608D01*
X1358770Y763643D01*
X1358745Y763684D01*
X1358694Y763726D01*
X1358650Y763774D01*
X1358608Y763796D01*
X1358571Y763825D01*
X1358509Y763846D01*
X1358450Y763877D01*
X1358396Y763885D01*
X1358359Y763897D01*
X1358319Y763896D01*
X1358265Y763904D01*
X1354455Y763904D01*
X1354390Y763893D01*
X1354324Y763891D01*
X1354281Y763873D01*
X1354234Y763865D01*
X1354177Y763831D01*
X1354117Y763806D01*
X1354082Y763775D01*
X1354041Y763750D01*
X1354000Y763699D01*
X1353951Y763655D01*
X1353929Y763613D01*
X1353900Y763576D01*
X1353879Y763514D01*
X1353848Y763455D01*
X1353840Y763401D01*
X1353828Y763364D01*
X1353828Y763361D01*
X1353829Y763324D01*
X1353821Y763270D01*
X1353821Y760730D01*
X1353832Y760665D01*
X1353834Y760599D01*
X1353852Y760556D01*
X1353860Y760509D01*
X1353894Y760452D01*
X1353919Y760392D01*
X1353950Y760357D01*
X1353975Y760316D01*
X1354026Y760275D01*
X1354070Y760226D01*
X1354112Y760204D01*
X1354149Y760175D01*
X1354211Y760154D01*
X1354270Y760123D01*
X1354324Y760115D01*
X1354361Y760103D01*
X1354401Y760104D01*
X1354455Y760096D01*
X1358265Y760096D01*
X1358330Y760107D01*
G37*
G36*
X433770Y760107D02*
X433770Y760107D01*
X433836Y760109D01*
X433879Y760127D01*
X433926Y760135D01*
X433983Y760169D01*
X434043Y760194D01*
X434078Y760225D01*
X434119Y760250D01*
X434161Y760301D01*
X434209Y760345D01*
X434231Y760387D01*
X434260Y760424D01*
X434281Y760486D01*
X434312Y760545D01*
X434320Y760599D01*
X434332Y760636D01*
X434331Y760676D01*
X434339Y760730D01*
X434339Y763270D01*
X434328Y763335D01*
X434326Y763401D01*
X434308Y763444D01*
X434300Y763491D01*
X434266Y763548D01*
X434241Y763608D01*
X434210Y763643D01*
X434185Y763684D01*
X434134Y763726D01*
X434090Y763774D01*
X434048Y763796D01*
X434011Y763825D01*
X433949Y763846D01*
X433890Y763877D01*
X433836Y763885D01*
X433799Y763897D01*
X433759Y763896D01*
X433705Y763904D01*
X429895Y763904D01*
X429830Y763893D01*
X429764Y763891D01*
X429721Y763873D01*
X429674Y763865D01*
X429617Y763831D01*
X429557Y763806D01*
X429522Y763775D01*
X429481Y763750D01*
X429440Y763699D01*
X429391Y763655D01*
X429369Y763613D01*
X429340Y763576D01*
X429319Y763514D01*
X429288Y763455D01*
X429280Y763401D01*
X429268Y763364D01*
X429268Y763361D01*
X429269Y763324D01*
X429261Y763270D01*
X429261Y760730D01*
X429272Y760665D01*
X429274Y760599D01*
X429292Y760556D01*
X429300Y760509D01*
X429334Y760452D01*
X429359Y760392D01*
X429390Y760357D01*
X429415Y760316D01*
X429466Y760275D01*
X429510Y760226D01*
X429552Y760204D01*
X429589Y760175D01*
X429651Y760154D01*
X429710Y760123D01*
X429764Y760115D01*
X429801Y760103D01*
X429841Y760104D01*
X429895Y760096D01*
X433705Y760096D01*
X433770Y760107D01*
G37*
G36*
X896050Y760107D02*
X896050Y760107D01*
X896116Y760109D01*
X896159Y760127D01*
X896206Y760135D01*
X896263Y760169D01*
X896323Y760194D01*
X896358Y760225D01*
X896399Y760250D01*
X896441Y760301D01*
X896489Y760345D01*
X896511Y760387D01*
X896540Y760424D01*
X896561Y760486D01*
X896592Y760545D01*
X896600Y760599D01*
X896612Y760636D01*
X896611Y760676D01*
X896619Y760730D01*
X896619Y763270D01*
X896608Y763335D01*
X896606Y763401D01*
X896588Y763444D01*
X896580Y763491D01*
X896546Y763548D01*
X896521Y763608D01*
X896490Y763643D01*
X896465Y763684D01*
X896414Y763726D01*
X896370Y763774D01*
X896328Y763796D01*
X896291Y763825D01*
X896229Y763846D01*
X896170Y763877D01*
X896116Y763885D01*
X896079Y763897D01*
X896039Y763896D01*
X895985Y763904D01*
X892175Y763904D01*
X892110Y763893D01*
X892044Y763891D01*
X892001Y763873D01*
X891954Y763865D01*
X891897Y763831D01*
X891837Y763806D01*
X891802Y763775D01*
X891761Y763750D01*
X891720Y763699D01*
X891671Y763655D01*
X891649Y763613D01*
X891620Y763576D01*
X891599Y763514D01*
X891568Y763455D01*
X891560Y763401D01*
X891548Y763364D01*
X891548Y763361D01*
X891549Y763324D01*
X891541Y763270D01*
X891541Y760730D01*
X891552Y760665D01*
X891554Y760599D01*
X891572Y760556D01*
X891580Y760509D01*
X891614Y760452D01*
X891639Y760392D01*
X891670Y760357D01*
X891695Y760316D01*
X891746Y760275D01*
X891790Y760226D01*
X891832Y760204D01*
X891869Y760175D01*
X891931Y760154D01*
X891990Y760123D01*
X892044Y760115D01*
X892081Y760103D01*
X892121Y760104D01*
X892175Y760096D01*
X895985Y760096D01*
X896050Y760107D01*
G37*
G36*
X1358330Y87007D02*
X1358330Y87007D01*
X1358396Y87009D01*
X1358439Y87027D01*
X1358486Y87035D01*
X1358543Y87069D01*
X1358603Y87094D01*
X1358638Y87125D01*
X1358679Y87150D01*
X1358721Y87201D01*
X1358769Y87245D01*
X1358791Y87287D01*
X1358820Y87324D01*
X1358841Y87386D01*
X1358872Y87445D01*
X1358880Y87499D01*
X1358892Y87536D01*
X1358891Y87576D01*
X1358899Y87630D01*
X1358899Y90170D01*
X1358888Y90235D01*
X1358886Y90301D01*
X1358868Y90344D01*
X1358860Y90391D01*
X1358826Y90448D01*
X1358801Y90508D01*
X1358770Y90543D01*
X1358745Y90584D01*
X1358694Y90626D01*
X1358650Y90674D01*
X1358608Y90696D01*
X1358571Y90725D01*
X1358509Y90746D01*
X1358450Y90777D01*
X1358396Y90785D01*
X1358359Y90797D01*
X1358319Y90796D01*
X1358265Y90804D01*
X1354455Y90804D01*
X1354390Y90793D01*
X1354324Y90791D01*
X1354281Y90773D01*
X1354234Y90765D01*
X1354177Y90731D01*
X1354117Y90706D01*
X1354082Y90675D01*
X1354041Y90650D01*
X1354000Y90599D01*
X1353951Y90555D01*
X1353929Y90513D01*
X1353900Y90476D01*
X1353879Y90414D01*
X1353848Y90355D01*
X1353840Y90301D01*
X1353828Y90264D01*
X1353828Y90261D01*
X1353829Y90224D01*
X1353821Y90170D01*
X1353821Y87630D01*
X1353832Y87565D01*
X1353834Y87499D01*
X1353852Y87456D01*
X1353860Y87409D01*
X1353894Y87352D01*
X1353919Y87292D01*
X1353950Y87257D01*
X1353975Y87216D01*
X1354026Y87175D01*
X1354070Y87126D01*
X1354112Y87104D01*
X1354149Y87075D01*
X1354211Y87054D01*
X1354270Y87023D01*
X1354324Y87015D01*
X1354361Y87003D01*
X1354401Y87004D01*
X1354455Y86996D01*
X1358265Y86996D01*
X1358330Y87007D01*
G37*
G36*
X433770Y87007D02*
X433770Y87007D01*
X433836Y87009D01*
X433879Y87027D01*
X433926Y87035D01*
X433983Y87069D01*
X434043Y87094D01*
X434078Y87125D01*
X434119Y87150D01*
X434161Y87201D01*
X434209Y87245D01*
X434231Y87287D01*
X434260Y87324D01*
X434281Y87386D01*
X434312Y87445D01*
X434320Y87499D01*
X434332Y87536D01*
X434331Y87576D01*
X434339Y87630D01*
X434339Y90170D01*
X434328Y90235D01*
X434326Y90301D01*
X434308Y90344D01*
X434300Y90391D01*
X434266Y90448D01*
X434241Y90508D01*
X434210Y90543D01*
X434185Y90584D01*
X434134Y90626D01*
X434090Y90674D01*
X434048Y90696D01*
X434011Y90725D01*
X433949Y90746D01*
X433890Y90777D01*
X433836Y90785D01*
X433799Y90797D01*
X433759Y90796D01*
X433705Y90804D01*
X429895Y90804D01*
X429830Y90793D01*
X429764Y90791D01*
X429721Y90773D01*
X429674Y90765D01*
X429617Y90731D01*
X429557Y90706D01*
X429522Y90675D01*
X429481Y90650D01*
X429440Y90599D01*
X429391Y90555D01*
X429369Y90513D01*
X429340Y90476D01*
X429319Y90414D01*
X429288Y90355D01*
X429280Y90301D01*
X429268Y90264D01*
X429268Y90261D01*
X429269Y90224D01*
X429261Y90170D01*
X429261Y87630D01*
X429272Y87565D01*
X429274Y87499D01*
X429292Y87456D01*
X429300Y87409D01*
X429334Y87352D01*
X429359Y87292D01*
X429390Y87257D01*
X429415Y87216D01*
X429466Y87175D01*
X429510Y87126D01*
X429552Y87104D01*
X429589Y87075D01*
X429651Y87054D01*
X429710Y87023D01*
X429764Y87015D01*
X429801Y87003D01*
X429841Y87004D01*
X429895Y86996D01*
X433705Y86996D01*
X433770Y87007D01*
G37*
G36*
X896050Y87007D02*
X896050Y87007D01*
X896116Y87009D01*
X896159Y87027D01*
X896206Y87035D01*
X896263Y87069D01*
X896323Y87094D01*
X896358Y87125D01*
X896399Y87150D01*
X896441Y87201D01*
X896489Y87245D01*
X896511Y87287D01*
X896540Y87324D01*
X896561Y87386D01*
X896592Y87445D01*
X896600Y87499D01*
X896612Y87536D01*
X896611Y87576D01*
X896619Y87630D01*
X896619Y90170D01*
X896608Y90235D01*
X896606Y90301D01*
X896588Y90344D01*
X896580Y90391D01*
X896546Y90448D01*
X896521Y90508D01*
X896490Y90543D01*
X896465Y90584D01*
X896414Y90626D01*
X896370Y90674D01*
X896328Y90696D01*
X896291Y90725D01*
X896229Y90746D01*
X896170Y90777D01*
X896116Y90785D01*
X896079Y90797D01*
X896039Y90796D01*
X895985Y90804D01*
X892175Y90804D01*
X892110Y90793D01*
X892044Y90791D01*
X892001Y90773D01*
X891954Y90765D01*
X891897Y90731D01*
X891837Y90706D01*
X891802Y90675D01*
X891761Y90650D01*
X891720Y90599D01*
X891671Y90555D01*
X891649Y90513D01*
X891620Y90476D01*
X891599Y90414D01*
X891568Y90355D01*
X891560Y90301D01*
X891548Y90264D01*
X891548Y90261D01*
X891549Y90224D01*
X891541Y90170D01*
X891541Y87630D01*
X891552Y87565D01*
X891554Y87499D01*
X891572Y87456D01*
X891580Y87409D01*
X891614Y87352D01*
X891639Y87292D01*
X891670Y87257D01*
X891695Y87216D01*
X891746Y87175D01*
X891790Y87126D01*
X891832Y87104D01*
X891869Y87075D01*
X891931Y87054D01*
X891990Y87023D01*
X892044Y87015D01*
X892081Y87003D01*
X892121Y87004D01*
X892175Y86996D01*
X895985Y86996D01*
X896050Y87007D01*
G37*
D10*
X199700Y49050D03*
X257500Y49050D03*
D11*
X449580Y7620D03*
X7620Y589280D03*
D12*
X25400Y571500D03*
X25400Y25400D03*
X431800Y571500D03*
X431800Y25400D03*
D13*
X419100Y218186D03*
X419100Y228600D03*
X419100Y239014D03*
D14*
X170180Y101600D03*
X160020Y101600D03*
D15*
X177800Y101600D03*
X152400Y101600D03*
X444500Y279400D03*
X444500Y304800D03*
X444500Y330200D03*
X444500Y355600D03*
D16*
X228600Y510540D03*
D15*
X88900Y25400D03*
X114300Y25400D03*
X38100Y279400D03*
X368300Y101600D03*
D17*
X437007Y88900D03*
X426593Y88900D03*
D18*
X328600Y177800D03*
D19*
X128600Y177800D03*
D15*
X444500Y508000D03*
X444500Y482600D03*
X444500Y457200D03*
X444500Y431800D03*
X444500Y406400D03*
X444500Y381000D03*
D14*
X270764Y254000D03*
X262636Y254000D03*
D20*
X89800Y381000D03*
X89800Y406400D03*
X89800Y355600D03*
X342000Y355600D03*
X342000Y381000D03*
X342000Y406400D03*
D14*
X372364Y254000D03*
X364236Y254000D03*
D15*
X38100Y508000D03*
X38100Y482600D03*
X38100Y457200D03*
X38100Y431800D03*
X38100Y406400D03*
X38100Y381000D03*
X38100Y355600D03*
X38100Y330200D03*
X38100Y304800D03*
X12700Y279400D03*
X12700Y304800D03*
X12700Y330200D03*
X12700Y355600D03*
X12700Y381000D03*
X12700Y406400D03*
X12700Y431800D03*
X12700Y457200D03*
X12700Y482600D03*
X12700Y508000D03*
D10*
X661980Y49050D03*
X719780Y49050D03*
D11*
X911860Y7620D03*
X469900Y589280D03*
D12*
X487680Y571500D03*
X487680Y25400D03*
X894080Y571500D03*
X894080Y25400D03*
D13*
X881380Y218186D03*
X881380Y228600D03*
X881380Y239014D03*
D14*
X632460Y101600D03*
X622300Y101600D03*
D15*
X640080Y101600D03*
X614680Y101600D03*
X906780Y279400D03*
X906780Y304800D03*
X906780Y330200D03*
X906780Y355600D03*
D16*
X690880Y510540D03*
D15*
X551180Y25400D03*
X576580Y25400D03*
X500380Y279400D03*
X830580Y101600D03*
D17*
X899287Y88900D03*
X888873Y88900D03*
D18*
X790880Y177800D03*
D19*
X590880Y177800D03*
D15*
X906780Y508000D03*
X906780Y482600D03*
X906780Y457200D03*
X906780Y431800D03*
X906780Y406400D03*
X906780Y381000D03*
D14*
X733044Y254000D03*
X724916Y254000D03*
D20*
X552080Y381000D03*
X552080Y406400D03*
X552080Y355600D03*
X804280Y355600D03*
X804280Y381000D03*
X804280Y406400D03*
D14*
X834644Y254000D03*
X826516Y254000D03*
D15*
X500380Y508000D03*
X500380Y482600D03*
X500380Y457200D03*
X500380Y431800D03*
X500380Y406400D03*
X500380Y381000D03*
X500380Y355600D03*
X500380Y330200D03*
X500380Y304800D03*
X474980Y279400D03*
X474980Y304800D03*
X474980Y330200D03*
X474980Y355600D03*
X474980Y381000D03*
X474980Y406400D03*
X474980Y431800D03*
X474980Y457200D03*
X474980Y482600D03*
X474980Y508000D03*
D10*
X1124260Y49050D03*
X1182060Y49050D03*
D11*
X1374140Y7620D03*
X932180Y589280D03*
D12*
X949960Y571500D03*
X949960Y25400D03*
X1356360Y571500D03*
X1356360Y25400D03*
D13*
X1343660Y218186D03*
X1343660Y228600D03*
X1343660Y239014D03*
D14*
X1094740Y101600D03*
X1084580Y101600D03*
D15*
X1102360Y101600D03*
X1076960Y101600D03*
X1369060Y279400D03*
X1369060Y304800D03*
X1369060Y330200D03*
X1369060Y355600D03*
D16*
X1153160Y510540D03*
D15*
X1013460Y25400D03*
X1038860Y25400D03*
X962660Y279400D03*
X1292860Y101600D03*
D17*
X1361567Y88900D03*
X1351153Y88900D03*
D18*
X1253160Y177800D03*
D19*
X1053160Y177800D03*
D15*
X1369060Y508000D03*
X1369060Y482600D03*
X1369060Y457200D03*
X1369060Y431800D03*
X1369060Y406400D03*
X1369060Y381000D03*
D14*
X1195324Y254000D03*
X1187196Y254000D03*
D20*
X1014360Y381000D03*
X1014360Y406400D03*
X1014360Y355600D03*
X1266560Y355600D03*
X1266560Y381000D03*
X1266560Y406400D03*
D14*
X1296924Y254000D03*
X1288796Y254000D03*
D15*
X962660Y508000D03*
X962660Y482600D03*
X962660Y457200D03*
X962660Y431800D03*
X962660Y406400D03*
X962660Y381000D03*
X962660Y355600D03*
X962660Y330200D03*
X962660Y304800D03*
X937260Y279400D03*
X937260Y304800D03*
X937260Y330200D03*
X937260Y355600D03*
X937260Y381000D03*
X937260Y406400D03*
X937260Y431800D03*
X937260Y457200D03*
X937260Y482600D03*
X937260Y508000D03*
D10*
X199700Y722150D03*
X257500Y722150D03*
D11*
X449580Y680720D03*
X7620Y1262380D03*
D12*
X25400Y1244600D03*
X25400Y698500D03*
X431800Y1244600D03*
X431800Y698500D03*
D13*
X419100Y891286D03*
X419100Y901700D03*
X419100Y912114D03*
D14*
X170180Y774700D03*
X160020Y774700D03*
D15*
X177800Y774700D03*
X152400Y774700D03*
X444500Y952500D03*
X444500Y977900D03*
X444500Y1003300D03*
X444500Y1028700D03*
D16*
X228600Y1183640D03*
D15*
X88900Y698500D03*
X114300Y698500D03*
X38100Y952500D03*
X368300Y774700D03*
D17*
X437007Y762000D03*
X426593Y762000D03*
D18*
X328600Y850900D03*
D19*
X128600Y850900D03*
D15*
X444500Y1181100D03*
X444500Y1155700D03*
X444500Y1130300D03*
X444500Y1104900D03*
X444500Y1079500D03*
X444500Y1054100D03*
D14*
X270764Y927100D03*
X262636Y927100D03*
D20*
X89800Y1054100D03*
X89800Y1079500D03*
X89800Y1028700D03*
X342000Y1028700D03*
X342000Y1054100D03*
X342000Y1079500D03*
D14*
X372364Y927100D03*
X364236Y927100D03*
D15*
X38100Y1181100D03*
X38100Y1155700D03*
X38100Y1130300D03*
X38100Y1104900D03*
X38100Y1079500D03*
X38100Y1054100D03*
X38100Y1028700D03*
X38100Y1003300D03*
X38100Y977900D03*
X12700Y952500D03*
X12700Y977900D03*
X12700Y1003300D03*
X12700Y1028700D03*
X12700Y1054100D03*
X12700Y1079500D03*
X12700Y1104900D03*
X12700Y1130300D03*
X12700Y1155700D03*
X12700Y1181100D03*
D10*
X661980Y722150D03*
X719780Y722150D03*
D11*
X911860Y680720D03*
X469900Y1262380D03*
D12*
X487680Y1244600D03*
X487680Y698500D03*
X894080Y1244600D03*
X894080Y698500D03*
D13*
X881380Y891286D03*
X881380Y901700D03*
X881380Y912114D03*
D14*
X632460Y774700D03*
X622300Y774700D03*
D15*
X640080Y774700D03*
X614680Y774700D03*
X906780Y952500D03*
X906780Y977900D03*
X906780Y1003300D03*
X906780Y1028700D03*
D16*
X690880Y1183640D03*
D15*
X551180Y698500D03*
X576580Y698500D03*
X500380Y952500D03*
X830580Y774700D03*
D17*
X899287Y762000D03*
X888873Y762000D03*
D18*
X790880Y850900D03*
D19*
X590880Y850900D03*
D15*
X906780Y1181100D03*
X906780Y1155700D03*
X906780Y1130300D03*
X906780Y1104900D03*
X906780Y1079500D03*
X906780Y1054100D03*
D14*
X733044Y927100D03*
X724916Y927100D03*
D20*
X552080Y1054100D03*
X552080Y1079500D03*
X552080Y1028700D03*
X804280Y1028700D03*
X804280Y1054100D03*
X804280Y1079500D03*
D14*
X834644Y927100D03*
X826516Y927100D03*
D15*
X500380Y1181100D03*
X500380Y1155700D03*
X500380Y1130300D03*
X500380Y1104900D03*
X500380Y1079500D03*
X500380Y1054100D03*
X500380Y1028700D03*
X500380Y1003300D03*
X500380Y977900D03*
X474980Y952500D03*
X474980Y977900D03*
X474980Y1003300D03*
X474980Y1028700D03*
X474980Y1054100D03*
X474980Y1079500D03*
X474980Y1104900D03*
X474980Y1130300D03*
X474980Y1155700D03*
X474980Y1181100D03*
D10*
X1124260Y722150D03*
X1182060Y722150D03*
D11*
X1374140Y680720D03*
X932180Y1262380D03*
D12*
X949960Y1244600D03*
X949960Y698500D03*
X1356360Y1244600D03*
X1356360Y698500D03*
D13*
X1343660Y891286D03*
X1343660Y901700D03*
X1343660Y912114D03*
D14*
X1094740Y774700D03*
X1084580Y774700D03*
D15*
X1102360Y774700D03*
X1076960Y774700D03*
X1369060Y952500D03*
X1369060Y977900D03*
X1369060Y1003300D03*
X1369060Y1028700D03*
D16*
X1153160Y1183640D03*
D15*
X1013460Y698500D03*
X1038860Y698500D03*
X962660Y952500D03*
X1292860Y774700D03*
D17*
X1361567Y762000D03*
X1351153Y762000D03*
D18*
X1253160Y850900D03*
D19*
X1053160Y850900D03*
D15*
X1369060Y1181100D03*
X1369060Y1155700D03*
X1369060Y1130300D03*
X1369060Y1104900D03*
X1369060Y1079500D03*
X1369060Y1054100D03*
D14*
X1195324Y927100D03*
X1187196Y927100D03*
D20*
X1014360Y1054100D03*
X1014360Y1079500D03*
X1014360Y1028700D03*
X1266560Y1028700D03*
X1266560Y1054100D03*
X1266560Y1079500D03*
D14*
X1296924Y927100D03*
X1288796Y927100D03*
D15*
X962660Y1181100D03*
X962660Y1155700D03*
X962660Y1130300D03*
X962660Y1104900D03*
X962660Y1079500D03*
X962660Y1054100D03*
X962660Y1028700D03*
X962660Y1003300D03*
X962660Y977900D03*
X937260Y952500D03*
X937260Y977900D03*
X937260Y1003300D03*
X937260Y1028700D03*
X937260Y1054100D03*
X937260Y1079500D03*
X937260Y1104900D03*
X937260Y1130300D03*
X937260Y1155700D03*
X937260Y1181100D03*
D21*
X-26238Y1314450D03*
X1407998Y1314450D03*
D22*
X-35293Y63500D02*
X-35290Y63722D01*
X-35282Y63944D01*
X-35268Y64166D01*
X-35249Y64388D01*
X-35225Y64608D01*
X-35195Y64829D01*
X-35160Y65048D01*
X-35119Y65267D01*
X-35073Y65484D01*
X-35022Y65700D01*
X-34965Y65915D01*
X-34903Y66129D01*
X-34836Y66340D01*
X-34764Y66551D01*
X-34686Y66759D01*
X-34604Y66965D01*
X-34516Y67169D01*
X-34424Y67372D01*
X-34326Y67571D01*
X-34224Y67768D01*
X-34117Y67963D01*
X-34005Y68155D01*
X-33888Y68344D01*
X-33767Y68531D01*
X-33641Y68714D01*
X-33511Y68894D01*
X-33376Y69071D01*
X-33238Y69244D01*
X-33095Y69414D01*
X-32947Y69581D01*
X-32796Y69744D01*
X-32641Y69903D01*
X-32482Y70058D01*
X-32319Y70209D01*
X-32152Y70357D01*
X-31982Y70500D01*
X-31809Y70638D01*
X-31632Y70773D01*
X-31452Y70903D01*
X-31269Y71029D01*
X-31082Y71150D01*
X-30893Y71267D01*
X-30701Y71379D01*
X-30506Y71486D01*
X-30309Y71588D01*
X-30110Y71686D01*
X-29907Y71778D01*
X-29703Y71866D01*
X-29497Y71948D01*
X-29289Y72026D01*
X-29078Y72098D01*
X-28867Y72165D01*
X-28653Y72227D01*
X-28438Y72284D01*
X-28222Y72335D01*
X-28005Y72381D01*
X-27786Y72422D01*
X-27567Y72457D01*
X-27346Y72487D01*
X-27126Y72511D01*
X-26904Y72530D01*
X-26682Y72544D01*
X-26460Y72552D01*
X-26238Y72555D01*
X-26016Y72552D01*
X-25794Y72544D01*
X-25572Y72530D01*
X-25350Y72511D01*
X-25130Y72487D01*
X-24909Y72457D01*
X-24690Y72422D01*
X-24471Y72381D01*
X-24254Y72335D01*
X-24038Y72284D01*
X-23823Y72227D01*
X-23609Y72165D01*
X-23398Y72098D01*
X-23187Y72026D01*
X-22979Y71948D01*
X-22773Y71866D01*
X-22569Y71778D01*
X-22366Y71686D01*
X-22167Y71588D01*
X-21970Y71486D01*
X-21775Y71379D01*
X-21583Y71267D01*
X-21394Y71150D01*
X-21207Y71029D01*
X-21024Y70903D01*
X-20844Y70773D01*
X-20667Y70638D01*
X-20494Y70500D01*
X-20324Y70357D01*
X-20157Y70209D01*
X-19994Y70058D01*
X-19835Y69903D01*
X-19680Y69744D01*
X-19529Y69581D01*
X-19381Y69414D01*
X-19238Y69244D01*
X-19100Y69071D01*
X-18965Y68894D01*
X-18835Y68714D01*
X-18709Y68531D01*
X-18588Y68344D01*
X-18471Y68155D01*
X-18359Y67963D01*
X-18252Y67768D01*
X-18150Y67571D01*
X-18052Y67372D01*
X-17960Y67169D01*
X-17872Y66965D01*
X-17790Y66759D01*
X-17712Y66551D01*
X-17640Y66340D01*
X-17573Y66129D01*
X-17511Y65915D01*
X-17454Y65700D01*
X-17403Y65484D01*
X-17357Y65267D01*
X-17316Y65048D01*
X-17281Y64829D01*
X-17251Y64608D01*
X-17227Y64388D01*
X-17208Y64166D01*
X-17194Y63944D01*
X-17186Y63722D01*
X-17183Y63500D01*
X-17186Y63278D01*
X-17194Y63056D01*
X-17208Y62834D01*
X-17227Y62612D01*
X-17251Y62392D01*
X-17281Y62171D01*
X-17316Y61952D01*
X-17357Y61733D01*
X-17403Y61516D01*
X-17454Y61300D01*
X-17511Y61085D01*
X-17573Y60871D01*
X-17640Y60660D01*
X-17712Y60449D01*
X-17790Y60241D01*
X-17872Y60035D01*
X-17960Y59831D01*
X-18052Y59628D01*
X-18150Y59429D01*
X-18252Y59232D01*
X-18359Y59037D01*
X-18471Y58845D01*
X-18588Y58656D01*
X-18709Y58469D01*
X-18835Y58286D01*
X-18965Y58106D01*
X-19100Y57929D01*
X-19238Y57756D01*
X-19381Y57586D01*
X-19529Y57419D01*
X-19680Y57256D01*
X-19835Y57097D01*
X-19994Y56942D01*
X-20157Y56791D01*
X-20324Y56643D01*
X-20494Y56500D01*
X-20667Y56362D01*
X-20844Y56227D01*
X-21024Y56097D01*
X-21207Y55971D01*
X-21394Y55850D01*
X-21583Y55733D01*
X-21775Y55621D01*
X-21970Y55514D01*
X-22167Y55412D01*
X-22366Y55314D01*
X-22569Y55222D01*
X-22773Y55134D01*
X-22979Y55052D01*
X-23187Y54974D01*
X-23398Y54902D01*
X-23609Y54835D01*
X-23823Y54773D01*
X-24038Y54716D01*
X-24254Y54665D01*
X-24471Y54619D01*
X-24690Y54578D01*
X-24909Y54543D01*
X-25130Y54513D01*
X-25350Y54489D01*
X-25572Y54470D01*
X-25794Y54456D01*
X-26016Y54448D01*
X-26238Y54445D01*
X-26460Y54448D01*
X-26682Y54456D01*
X-26904Y54470D01*
X-27126Y54489D01*
X-27346Y54513D01*
X-27567Y54543D01*
X-27786Y54578D01*
X-28005Y54619D01*
X-28222Y54665D01*
X-28438Y54716D01*
X-28653Y54773D01*
X-28867Y54835D01*
X-29078Y54902D01*
X-29289Y54974D01*
X-29497Y55052D01*
X-29703Y55134D01*
X-29907Y55222D01*
X-30110Y55314D01*
X-30309Y55412D01*
X-30506Y55514D01*
X-30701Y55621D01*
X-30893Y55733D01*
X-31082Y55850D01*
X-31269Y55971D01*
X-31452Y56097D01*
X-31632Y56227D01*
X-31809Y56362D01*
X-31982Y56500D01*
X-32152Y56643D01*
X-32319Y56791D01*
X-32482Y56942D01*
X-32641Y57097D01*
X-32796Y57256D01*
X-32947Y57419D01*
X-33095Y57586D01*
X-33238Y57756D01*
X-33376Y57929D01*
X-33511Y58106D01*
X-33641Y58286D01*
X-33767Y58469D01*
X-33888Y58656D01*
X-34005Y58845D01*
X-34117Y59037D01*
X-34224Y59232D01*
X-34326Y59429D01*
X-34424Y59628D01*
X-34516Y59831D01*
X-34604Y60035D01*
X-34686Y60241D01*
X-34764Y60449D01*
X-34836Y60660D01*
X-34903Y60871D01*
X-34965Y61085D01*
X-35022Y61300D01*
X-35073Y61516D01*
X-35119Y61733D01*
X-35160Y61952D01*
X-35195Y62171D01*
X-35225Y62392D01*
X-35249Y62612D01*
X-35268Y62834D01*
X-35282Y63056D01*
X-35290Y63278D01*
X-35293Y63500D01*
D23*
X-26238Y63500D03*
M02*
